<?xml version="1.0" encoding="UTF-8"?>
<!DOCTYPE svg PUBLIC "-//W3C//DTD SVG 1.1//EN" "http://www.w3.org/Graphics/SVG/1.1/DTD/svg11.dtd">
<svg xmlns="http://www.w3.org/2000/svg" version="1.1" width="409px" height="123px" style="shape-rendering:geometricPrecision; text-rendering:geometricPrecision; image-rendering:optimizeQuality; fill-rule:evenodd; clip-rule:evenodd" xmlns:xlink="http://www.w3.org/1999/xlink">
<g><path style="opacity:1" fill="#fdfdfd" d="M -0.5,-0.5 C 135.833,-0.5 272.167,-0.5 408.5,-0.5C 408.5,40.5 408.5,81.5 408.5,122.5C 272.167,122.5 135.833,122.5 -0.5,122.5C -0.5,81.5 -0.5,40.5 -0.5,-0.5 Z"/></g>
<g><path style="opacity:1" fill="#e64415" d="M 48.5,23.5 C 70.7875,20.3865 86.2875,29.0532 95,49.5C 99.3755,66.8953 94.5422,81.062 80.5,92C 66.3994,100.276 52.066,100.609 37.5,93C 20.6443,79.4054 16.4776,62.5721 25,42.5C 30.8597,33.6625 38.693,27.3292 48.5,23.5 Z"/></g>
<g><path style="opacity:1" fill="#fef9f8" d="M 53.5,54.5 C 52.5084,54.3284 51.8417,54.6618 51.5,55.5C 49.5454,56.3235 47.5454,56.4901 45.5,56C 42.4276,53.0494 39.2609,50.2161 36,47.5C 35.4092,46.5165 35.7425,45.8499 37,45.5C 47.2773,41.2938 57.7773,38.1271 68.5,36C 72.3135,38.6465 75.6469,41.8132 78.5,45.5C 70.224,48.7028 61.8906,51.7028 53.5,54.5 Z"/></g>
<g><path style="opacity:1" fill="#030303" d="M 146.5,41.5 C 146.5,43.8333 146.5,46.1667 146.5,48.5C 142.629,48.185 138.962,48.5184 135.5,49.5C 135.5,60.5 135.5,71.5 135.5,82.5C 132.833,82.5 130.167,82.5 127.5,82.5C 127.5,71.5 127.5,60.5 127.5,49.5C 123.833,49.5 120.167,49.5 116.5,49.5C 116.5,46.8333 116.5,44.1667 116.5,41.5C 126.5,41.5 136.5,41.5 146.5,41.5 Z"/></g>
<g><path style="opacity:1" fill="#040404" d="M 260.5,45.5 C 261.5,45.5 262.5,45.5 263.5,45.5C 263.5,48.1667 263.5,50.8333 263.5,53.5C 265.833,53.5 268.167,53.5 270.5,53.5C 270.5,55.8333 270.5,58.1667 270.5,60.5C 268.167,60.5 265.833,60.5 263.5,60.5C 263.334,65.1785 263.501,69.8452 264,74.5C 265.789,76.229 267.956,76.8957 270.5,76.5C 270.5,78.5 270.5,80.5 270.5,82.5C 266.089,82.979 261.922,82.3124 258,80.5C 256.58,73.9504 256.08,67.2837 256.5,60.5C 254.5,60.5 252.5,60.5 250.5,60.5C 250.5,58.1667 250.5,55.8333 250.5,53.5C 252.5,53.5 254.5,53.5 256.5,53.5C 256.5,51.1667 256.5,48.8333 256.5,46.5C 258.099,46.7678 259.432,46.4345 260.5,45.5 Z"/></g>
<g><path style="opacity:1" fill="#7f7f7f" d="M 146.5,41.5 C 147.473,43.9479 147.806,46.6146 147.5,49.5C 143.5,49.5 139.5,49.5 135.5,49.5C 138.962,48.5184 142.629,48.185 146.5,48.5C 146.5,46.1667 146.5,43.8333 146.5,41.5 Z"/></g>
<g><path style="opacity:1" fill="#0c0c0c" d="M 153.5,52.5 C 167.364,51.3654 174.03,57.6987 173.5,71.5C 166.137,71.1694 158.803,71.5027 151.5,72.5C 152.313,73.8139 153.313,74.9805 154.5,76C 158.701,76.9224 162.701,76.4224 166.5,74.5C 172.702,76.4253 173.036,78.9253 167.5,82C 150.519,86.3449 142.686,79.8449 144,62.5C 146.022,57.98 149.189,54.6467 153.5,52.5 Z"/></g>
<g><path style="opacity:1" fill="#020202" d="M 191.5,52.5 C 192.5,52.5 193.5,52.5 194.5,52.5C 194.5,55.1667 194.5,57.8333 194.5,60.5C 190.787,60.7697 187.954,62.4364 186,65.5C 185.501,71.1569 185.334,76.8236 185.5,82.5C 183.167,82.5 180.833,82.5 178.5,82.5C 178.5,72.8333 178.5,63.1667 178.5,53.5C 180.833,53.5 183.167,53.5 185.5,53.5C 185.343,54.8734 185.51,56.2068 186,57.5C 187.73,55.5981 189.563,53.9314 191.5,52.5 Z"/></g>
<g><path style="opacity:1" fill="#8f8f8f" d="M 214.5,52.5 C 215.477,55.2869 215.81,58.2869 215.5,61.5C 214.167,61.5 212.833,61.5 211.5,61.5C 212.209,60.596 213.209,60.2627 214.5,60.5C 214.5,57.8333 214.5,55.1667 214.5,52.5 Z"/></g>
<g><path style="opacity:1" fill="#070707" d="M 247.5,82.5 C 245.167,82.5 242.833,82.5 240.5,82.5C 240.719,81.325 240.386,80.325 239.5,79.5C 238.893,79.6236 238.56,79.9569 238.5,80.5C 225.592,86.3759 217.926,82.2093 215.5,68C 216.48,56.8561 222.48,51.8561 233.5,53C 235.96,53.3961 237.96,54.5628 239.5,56.5C 240.386,55.675 240.719,54.675 240.5,53.5C 242.833,53.5 245.167,53.5 247.5,53.5C 247.5,63.1667 247.5,72.8333 247.5,82.5 Z"/></g>
<g><path style="opacity:1" fill="#0a0a0a" d="M 283.5,52.5 C 296.884,51.8843 303.218,58.2176 302.5,71.5C 295.137,71.1694 287.803,71.5027 280.5,72.5C 281.313,73.8139 282.313,74.9805 283.5,76C 288.391,76.707 293.057,76.3737 297.5,75C 298.833,76 300.167,77 301.5,78C 294.55,84.0278 286.883,85.0278 278.5,81C 272.023,74.3936 270.856,66.8936 275,58.5C 277.671,56.0976 280.505,54.0976 283.5,52.5 Z"/></g>
<g><path style="opacity:1" fill="#070707" d="M 337.5,82.5 C 335.167,82.5 332.833,82.5 330.5,82.5C 330.719,81.325 330.386,80.325 329.5,79.5C 328.893,79.6236 328.56,79.9569 328.5,80.5C 321.473,85.0711 314.973,84.4045 309,78.5C 303.246,68.9073 304.746,60.7407 313.5,54C 319.369,51.5663 324.703,52.3996 329.5,56.5C 330.386,55.675 330.719,54.675 330.5,53.5C 332.833,53.5 335.167,53.5 337.5,53.5C 337.5,63.1667 337.5,72.8333 337.5,82.5 Z"/></g>
<g><path style="opacity:1" fill="#050505" d="M 387.5,82.5 C 385.167,82.5 382.833,82.5 380.5,82.5C 380.824,75.6457 380.491,68.979 379.5,62.5C 376.959,58.9302 373.959,58.5969 370.5,61.5C 369.536,68.4419 369.203,75.4419 369.5,82.5C 366.833,82.5 364.167,82.5 361.5,82.5C 361.666,75.4921 361.5,68.4921 361,61.5C 358.847,59.5561 356.347,59.0561 353.5,60C 352.177,60.8159 351.511,61.9826 351.5,63.5C 350.51,69.6446 350.177,75.9779 350.5,82.5C 348.167,82.5 345.833,82.5 343.5,82.5C 343.5,72.8333 343.5,63.1667 343.5,53.5C 346.466,53.1103 349.132,53.777 351.5,55.5C 357.107,51.3004 362.44,51.6338 367.5,56.5C 375.077,50.5585 381.577,51.5585 387,59.5C 387.5,67.1594 387.666,74.8261 387.5,82.5 Z"/></g>
<g><path style="opacity:1" fill="#020202" d="M 214.5,52.5 C 214.5,55.1667 214.5,57.8333 214.5,60.5C 213.209,60.2627 212.209,60.596 211.5,61.5C 208.981,61.8477 207.147,63.1811 206,65.5C 205.501,71.1569 205.334,76.8236 205.5,82.5C 203.167,82.5 200.833,82.5 198.5,82.5C 198.5,72.8333 198.5,63.1667 198.5,53.5C 200.833,53.5 203.167,53.5 205.5,53.5C 205.367,58.2717 206.7,58.4384 209.5,54C 211.025,52.9914 212.692,52.4914 214.5,52.5 Z"/></g>
<g><path style="opacity:1" fill="#eb6c4f" d="M 51.5,55.5 C 51.8417,54.6618 52.5084,54.3284 53.5,54.5C 53.5,54.8333 53.5,55.1667 53.5,55.5C 53.5,64.5 53.5,73.5 53.5,82.5C 52.8333,73.5 52.1667,64.5 51.5,55.5 Z"/></g>
<g><path style="opacity:1" fill="#fefcfb" d="M 53.5,55.5 C 57.3359,57.5836 61.0026,59.917 64.5,62.5C 64.8271,72.3478 64.4938,82.0144 63.5,91.5C 60.1667,88.5 56.8333,85.5 53.5,82.5C 53.5,73.5 53.5,64.5 53.5,55.5 Z"/></g>
<g><path style="opacity:1" fill="#ededed" d="M 154.5,59.5 C 159.797,58.3077 163.797,59.9744 166.5,64.5C 161.544,65.4941 156.544,65.8275 151.5,65.5C 151.615,63.0532 152.615,61.0532 154.5,59.5 Z"/></g>
<g><path style="opacity:1" fill="#ebebeb" d="M 283.5,59.5 C 286.187,59.3359 288.854,59.5026 291.5,60C 293.635,60.7589 294.968,62.2589 295.5,64.5C 290.544,65.4941 285.544,65.8275 280.5,65.5C 280.615,63.0532 281.615,61.0532 283.5,59.5 Z"/></g>
<g><path style="opacity:1" fill="#f7f7f7" d="M 228.5,59.5 C 237.705,59.2063 241.205,63.5396 239,72.5C 233.514,78.0804 228.514,77.747 224,71.5C 222.474,66.2389 223.974,62.2389 228.5,59.5 Z"/></g>
<g><path style="opacity:1" fill="#f7f7f7" d="M 318.5,59.5 C 327.207,59.0365 330.707,63.0365 329,71.5C 326.459,76.0685 322.625,77.5685 317.5,76C 311.953,70.0318 312.287,64.5318 318.5,59.5 Z"/></g>
<g><path style="opacity:1" fill="#f3b5a7" d="M 64.5,62.5 C 65.8229,72.3411 65.8229,82.3411 64.5,92.5C 63.8933,92.3764 63.56,92.0431 63.5,91.5C 64.4938,82.0144 64.8271,72.3478 64.5,62.5 Z"/></g>
<g><path style="opacity:1" fill="#8d8d8d" d="M 379.5,62.5 C 380.491,68.979 380.824,75.6457 380.5,82.5C 382.833,82.5 385.167,82.5 387.5,82.5C 385.052,83.4731 382.385,83.8064 379.5,83.5C 379.5,76.5 379.5,69.5 379.5,62.5 Z"/></g>
<g><path style="opacity:1" fill="#898989" d="M 351.5,63.5 C 351.5,70.1667 351.5,76.8333 351.5,83.5C 348.615,83.8064 345.948,83.4731 343.5,82.5C 345.833,82.5 348.167,82.5 350.5,82.5C 350.177,75.9779 350.51,69.6446 351.5,63.5 Z"/></g>
<g><path style="opacity:1" fill="#8f8f8f" d="M 238.5,80.5 C 238.56,79.9569 238.893,79.6236 239.5,79.5C 240.386,80.325 240.719,81.325 240.5,82.5C 242.833,82.5 245.167,82.5 247.5,82.5C 245.052,83.4731 242.385,83.8064 239.5,83.5C 239.737,82.209 239.404,81.209 238.5,80.5 Z"/></g>
<g><path style="opacity:1" fill="#8f8f8f" d="M 328.5,80.5 C 328.56,79.9569 328.893,79.6236 329.5,79.5C 330.386,80.325 330.719,81.325 330.5,82.5C 332.833,82.5 335.167,82.5 337.5,82.5C 335.052,83.4731 332.385,83.8064 329.5,83.5C 329.737,82.209 329.404,81.209 328.5,80.5 Z"/></g>
</svg>
