<?xml version="1.0" encoding="UTF-8"?>
<!DOCTYPE svg PUBLIC "-//W3C//DTD SVG 1.1//EN" "http://www.w3.org/Graphics/SVG/1.1/DTD/svg11.dtd">
<svg xmlns="http://www.w3.org/2000/svg" version="1.1" width="875px" height="189px" style="shape-rendering:geometricPrecision; text-rendering:geometricPrecision; image-rendering:optimizeQuality; fill-rule:evenodd; clip-rule:evenodd" xmlns:xlink="http://www.w3.org/1999/xlink">
<g><path style="opacity:1" fill="#f4f3f3" d="M -0.5,-0.5 C 291.167,-0.5 582.833,-0.5 874.5,-0.5C 874.5,62.5 874.5,125.5 874.5,188.5C 582.833,188.5 291.167,188.5 -0.5,188.5C -0.5,125.5 -0.5,62.5 -0.5,-0.5 Z"/></g>
<g><path style="opacity:1" fill="#f67570" d="M 83.5,16.5 C 58.5,42.1667 33.1667,67.5 7.5,92.5C 7.33339,74.1636 7.50006,55.8303 8,37.5C 13.5341,14.9643 27.8675,2.96426 51,1.5C 64.2263,1.53264 75.0597,6.53264 83.5,16.5 Z"/></g>
<g><path style="opacity:1" fill="#fec344" d="M 83.5,16.5 C 89.0828,22.3319 92.5828,29.3319 94,37.5C 94.4998,48.495 94.6665,59.495 94.5,70.5C 70.5,93.8333 46.8333,117.5 23.5,141.5C 14.9801,138.474 9.81339,132.474 8,123.5C 7.50017,113.172 7.33351,102.839 7.5,92.5C 33.1667,67.5 58.5,42.1667 83.5,16.5 Z"/></g>
<g><path style="opacity:1" fill="#ffc447" d="M 180.5,31.5 C 198.868,30.3402 214.035,36.6736 226,50.5C 227.5,59.6667 223.667,63.5 214.5,62C 199.184,46.2017 182.517,44.535 164.5,57C 151.616,70.6756 150.116,85.5089 160,101.5C 172.819,116.728 187.985,119.562 205.5,110C 208.797,107.705 211.797,105.038 214.5,102C 224.569,100.732 228.069,104.898 225,114.5C 204.203,135.359 181.37,137.859 156.5,122C 135.66,102.435 131.827,79.9354 145,54.5C 153.88,42.151 165.714,34.4843 180.5,31.5 Z"/></g>
<g><path style="opacity:1" fill="#fec547" d="M 596.5,32.5 C 599.518,32.3354 602.518,32.502 605.5,33C 607.049,34.214 608.215,35.714 609,37.5C 609.667,67.1667 609.667,96.8333 609,126.5C 607.601,130.238 604.934,131.904 601,131.5C 597.066,131.904 594.399,130.238 593,126.5C 592.333,96.8333 592.333,67.1667 593,37.5C 593.997,35.6769 595.164,34.0103 596.5,32.5 Z"/></g>
<g><path style="opacity:1" fill="#ffc447" d="M 392.5,53.5 C 405.573,51.4627 415.74,55.796 423,66.5C 424.5,75.6667 420.667,79.5 411.5,78C 407.831,71.0032 402.164,68.6698 394.5,71C 391.476,73.4746 390.81,76.4746 392.5,80C 400.99,82.54 409.323,85.54 417.5,89C 427.354,97.9967 429.187,108.497 423,120.5C 414.548,130.668 403.715,134.168 390.5,131C 383.457,128.621 378.29,124.121 375,117.5C 373.548,111.105 376.048,107.105 382.5,105.5C 384.61,106.054 386.61,106.888 388.5,108C 392.608,115.441 398.608,117.441 406.5,114C 410.672,110.82 411.338,107.153 408.5,103C 401.218,100.542 393.884,98.209 386.5,96C 375.471,89.4366 371.971,79.9366 376,67.5C 380.055,61.0662 385.555,56.3996 392.5,53.5 Z"/></g>
<g><path style="opacity:1" fill="#ffc447" d="M 458.5,53.5 C 469.218,52.0175 478.385,55.0175 486,62.5C 490.148,66.9026 490.481,71.5692 487,76.5C 483.284,78.934 479.451,79.1007 475.5,77C 472.313,70.8207 467.313,68.8207 460.5,71C 456.556,72.9652 455.556,75.9652 457.5,80C 466.006,82.5425 474.34,85.5425 482.5,89C 491.096,95.3932 493.929,103.893 491,114.5C 486.298,125.679 477.798,131.679 465.5,132.5C 456.57,132.283 449.07,128.95 443,122.5C 437.14,114.416 438.807,108.749 448,105.5C 449.627,105.625 451.127,106.125 452.5,107C 454.5,110.333 457.167,113 460.5,115C 469.953,117.388 474.786,113.888 475,104.5C 474.5,104 474,103.5 473.5,103C 464.904,100.747 456.571,97.7466 448.5,94C 436.201,81.6798 436.534,69.6798 449.5,58C 452.592,56.4541 455.592,54.9541 458.5,53.5 Z"/></g>
<g><path style="opacity:1" fill="#ffc447" d="M 509.5,53.5 C 514.842,52.8377 518.842,54.8377 521.5,59.5C 534.181,52.0236 547.181,51.5236 560.5,58C 578.358,71.2466 583.524,88.4133 576,109.5C 566.746,127.21 552.246,134.377 532.5,131C 529.048,129.774 525.715,128.274 522.5,126.5C 521.667,138.152 521.167,149.819 521,161.5C 520.015,165.666 517.348,167.666 513,167.5C 508.69,167.68 506.024,165.68 505,161.5C 504.333,127.5 504.333,93.5 505,59.5C 506.332,57.34 507.832,55.34 509.5,53.5 Z"/></g>
<g><path style="opacity:1" fill="#ffc446" d="M 652.5,53.5 C 662.561,52.3502 671.894,54.3502 680.5,59.5C 684.682,52.9432 689.849,51.9432 696,56.5C 697.646,79.7453 697.979,103.079 697,126.5C 696.215,128.286 695.049,129.786 693.5,131C 690.5,131.667 687.5,131.667 684.5,131C 683.274,129.365 681.941,127.865 680.5,126.5C 657.999,137.381 640.166,132.381 627,111.5C 619.348,92.1879 622.848,75.3546 637.5,61C 642.324,57.9215 647.324,55.4215 652.5,53.5 Z"/></g>
<g><path style="opacity:1" fill="#ffc548" d="M 716.5,53.5 C 721.001,53.0046 724.835,54.3379 728,57.5C 743.354,50.3297 757.021,52.6631 769,64.5C 772.142,69.1185 774.476,74.1185 776,79.5C 776.667,95.5 776.667,111.5 776,127.5C 769.625,134.623 764.291,133.956 760,125.5C 759.667,110.5 759.333,95.5 759,80.5C 754.326,70.5652 746.826,67.7319 736.5,72C 733.238,74.592 730.738,77.7587 729,81.5C 728.954,97.2337 728.287,112.9 727,128.5C 722.25,133.701 717.583,133.701 713,128.5C 711.354,105.255 711.021,81.9214 712,58.5C 713.707,56.9625 715.207,55.2959 716.5,53.5 Z"/></g>
<g><path style="opacity:1" fill="#ffc548" d="M 244.5,53.5 C 249.814,52.7397 253.647,54.7397 256,59.5C 263.041,55.1357 270.375,54.469 278,57.5C 281.298,61.7254 281.131,65.8921 277.5,70C 268.027,69.9805 261.194,74.1472 257,82.5C 256.667,96.8333 256.333,111.167 256,125.5C 251.103,134.232 245.769,134.565 240,126.5C 239.333,103.833 239.333,81.1667 240,58.5C 241.025,56.313 242.525,54.6464 244.5,53.5 Z"/></g>
<g><path style="opacity:1" fill="#ffc447" d="M 317.5,53.5 C 349.23,55.3882 363.397,72.0549 360,103.5C 352.33,124.818 337.163,134.318 314.5,132C 290.561,124.641 280.394,108.475 284,83.5C 289.677,67.3209 300.844,57.3209 317.5,53.5 Z"/></g>
<g><path style="opacity:1" fill="#ffc447" d="M 819.5,53.5 C 847.76,53.2596 861.926,67.2596 862,95.5C 860.833,98 859,99.8333 856.5,101C 840.156,101.167 823.823,101.667 807.5,102.5C 813.962,115.488 823.962,119.321 837.5,114C 840.491,111.043 843.491,108.043 846.5,105C 857.771,104.36 860.937,109.193 856,119.5C 845.98,130.84 833.48,135.007 818.5,132C 796.358,123.9 786.858,108.066 790,84.5C 793.607,68.0636 803.44,57.7302 819.5,53.5 Z"/></g>
<g><path style="opacity:1" fill="#f4f3f2" d="M 535.5,70.5 C 555.474,69.3074 564.308,78.6407 562,98.5C 556.384,114.391 545.884,118.891 530.5,112C 520.026,101.127 518.86,89.2941 527,76.5C 529.736,74.2481 532.569,72.2481 535.5,70.5 Z"/></g>
<g><path style="opacity:1" fill="#f4f3f2" d="M 653.5,70.5 C 666.523,68.4209 675.356,73.4209 680,85.5C 682.972,99.3876 678.139,109.221 665.5,115C 649.068,116.24 640.402,108.573 639.5,92C 640.029,82 644.695,74.8334 653.5,70.5 Z"/></g>
<g><path style="opacity:1" fill="#f4f3f1" d="M 820.5,70.5 C 831.961,69.0592 839.961,73.5592 844.5,84C 832.153,84.8326 819.82,84.6659 807.5,83.5C 810.216,77.4502 814.55,73.1169 820.5,70.5 Z"/></g>
<g><path style="opacity:1" fill="#f4f3f2" d="M 316.5,70.5 C 329.709,69.0175 338.876,74.3508 344,86.5C 345.802,107.364 336.302,116.864 315.5,115C 299.875,107.001 296.041,95.1681 304,79.5C 307.616,75.6202 311.783,72.6202 316.5,70.5 Z"/></g>
<g><path style="opacity:1" fill="#1dc8b2" d="M 94.5,70.5 C 94.9352,89.5466 94.4352,108.547 93,127.5C 86.4669,140.351 75.9669,145.684 61.5,143.5C 55.1667,143.5 48.8333,143.5 42.5,143.5C 41.5,143.5 40.5,143.5 39.5,143.5C 34.8215,143.666 30.1548,143.499 25.5,143C 24.5842,142.722 23.9175,142.222 23.5,141.5C 46.8333,117.5 70.5,93.8333 94.5,70.5 Z"/></g>
<g><path style="opacity:1" fill="#f7c981" d="M 39.5,143.5 C 40.5,143.5 41.5,143.5 42.5,143.5C 48.5,150.167 54.8333,156.5 61.5,162.5C 61.839,167.93 61.339,173.264 60,178.5C 53.6667,185.167 47.3333,185.167 41,178.5C 39.5878,166.896 39.0878,155.229 39.5,143.5 Z"/></g>
<g><path style="opacity:1" fill="#d6a560" d="M 42.5,143.5 C 48.8333,143.5 55.1667,143.5 61.5,143.5C 61.5,149.833 61.5,156.167 61.5,162.5C 54.8333,156.5 48.5,150.167 42.5,143.5 Z"/></g>
</svg>
