<?xml version="1.0" encoding="utf-8"?>
<!-- Generator: Adobe Illustrator 25.0.1, SVG Export Plug-In . SVG Version: 6.00 Build 0)  -->
<svg version="1.0" id="Layer_1" xmlns="http://www.w3.org/2000/svg" xmlns:xlink="http://www.w3.org/1999/xlink" x="0px" y="0px"
	 viewBox="32 50 192 87" style="enable-background:new 0 0 256 187;" xml:space="preserve">
<style type="text/css">
	.st0{clip-path:url(#SVGID_2_);}
	.st1{fill:#1B1B3E;}
	.st2{fill-rule:evenodd;clip-rule:evenodd;fill:#1B1B3E;}
	.st3{fill:none;}
</style>
<g>
	<defs>
		<rect id="SVGID_1_" x="39" y="55.6" width="178" height="75.8"/>
	</defs>
	<clipPath id="SVGID_2_">
		<use xlink:href="#SVGID_1_"  style="overflow:visible;"/>
	</clipPath>
	<g class="st0">
		<path class="st1" d="M113.8,108c-3.2,0.1-6.4-0.6-9.4-1.9l0.8-6c2.6,1.3,5.5,2,8.4,2c1.9,0,3.1-0.6,3.1-1.8
			c0-3.3-11.8-2.5-11.8-11c0-5.5,5-8.3,11.3-8.3c2.9,0.1,5.8,0.6,8.5,1.6l-0.8,5.9c-2.5-1-5.1-1.5-7.7-1.6c-1.5,0-2.8,0.5-2.8,1.5
			c0,3.2,12.1,2.6,12.1,10.9C125.5,104.9,120.6,108.1,113.8,108L113.8,108z M146.5,107.5V92.7c0-3.4-1.5-5-4.3-5
			c-1.3,0-2.7,0.3-3.8,1v18.8h-8.8V81.9l8.6-0.7l-0.2,4.2h0.3c2.1-2.8,5.3-4.4,8.8-4.4c4.5,0,8.4,2.8,8.4,9.3v17.2L146.5,107.5z
			 M176.6,81.6h8.7l-10.2,25.7c-3,7.7-7.4,13-13.9,13c-2,0-3.9-0.4-5.7-1.3l3.4-5.4c0.5,0.1,1.1,0.1,1.6,0.1c3,0,5.2-2.9,6.7-6.3
			l-10.6-25.8h9.8l3.8,11.5c0.6,2.1,1,4.2,1.3,6.4c0.4-2.1,0.8-4.2,1.4-6.2L176.6,81.6L176.6,81.6z M204.5,107.5l-7-12.2h-0.7v12.2
			H188V77.2l8.8-13.7v28.3c1.7-2.1,7.6-10.2,7.6-10.2h10.8l-10.3,10.8l10.6,15.1H204.5L204.5,107.5z"/>
		<path class="st2" d="M46.1,97.9c-0.7-1.8-0.1-9.2,0.6-15.1l-2.8-7.6v-0.4c0.1-1.3,0.3-2.6,0.8-3.8c-1.9,0.4-3.8,0.9-5.7,1.5v40.8
			l8.4,6l1.8-16.7C48,101.2,47,99.6,46.1,97.9L46.1,97.9z M83,74.9c-0.1-1.3-0.3-2.6-0.8-3.8c1.9,0.4,3.8,0.9,5.7,1.6v40.8l-8.3,6
			l-1.8-16.7c1.2-1.4,2.2-3,3-4.7c0.7-1.8,0.1-9.2-0.6-15.1l2.8-7.6V74.9z M63.5,74c-1.8,0-3.5,0.3-5.2,0.8l-0.9-1.4l-0.6-4
			c2.2-0.2,4.4-0.2,6.7-0.2c2.6,0,6.6,0.2,6.6,0.2l-0.6,4l-0.9,1.4C66.9,74.4,65.2,74.1,63.5,74L63.5,74z M72.6,104.2l0.2-0.2
			c0.6-0.7,1.3-1.7,2-2.6l-3.8-1.1L67.3,96l-0.6,10.8c0.4,0.6,0.7,1.2,0.9,1.9c0,0.7-1.1,1.7-2.2,2.5l0,0l0,0
			c-0.4-0.7-0.9-0.8-1.1-0.3c-0.1,0.4-0.1,0.8-0.1,1.2l0,0v1c0.6,1.3,1.8,2.1,3.2,2.2c1.8,0,3.4-1.1,3.9-2.8
			c0.8-2.6,1.2-5.2,1.1-7.9L72.6,104.2z M59.1,116.9c0.2,2.2,2.7,3,4.3,3c1.7,0,4-0.8,4.3-3h-0.1c-0.3,0-0.5,0-0.8,0
			c-0.7,1.3-2,2-3.5,1.9c-1.4,0.1-2.8-0.6-3.4-1.9c-0.2,0-0.4,0-0.6,0L59.1,116.9L59.1,116.9z M54.3,104.5c0,2.7,0.4,5.3,1.2,7.9
			c0.5,1.7,2.1,2.9,3.9,2.8c1.4,0,2.6-0.9,3.2-2.1v-1l0,0c0-0.4,0-0.8-0.1-1.2c-0.2-0.5-0.7-0.4-1.1,0.3l0,0l0,0
			c-1.1-0.8-2.2-1.7-2.2-2.5c0.2-0.7,0.5-1.3,0.9-1.9L59.6,96l-3.7,4.2l-2.3,0.7c-1.2-1.4-2.2-2.9-3.1-4.5
			c-0.2-0.9,0.1-6.8,0.9-13.6l0.1-0.5L51,81.1c1.2-1.4,2.3-3.1,3-4.8l2.5,4.1l1.8-0.8c1.6-0.7,3.4-1.1,5.2-1.1l0,0v-1.3l0,0
			c-2,0.1-4,0.5-5.8,1.3l-0.7,0.3l-2.5-4.2L54,72l-0.7,2c-0.8,2.5-2.1,4.7-3.8,6.7l-0.2,0.2l0.6,1.6v0.2c-0.5,4.8-1.2,12.8-0.9,14.2
			l0,0c0.4,1.1,3.3,4.9,5.1,7.1l0.2,0.2L54.3,104.5L54.3,104.5z M52.2,62.8c-2.2,4.4-4.5,9.7-4.6,11.8l1.2,3.4
			c2.7-3.7,3.7-9.7,4-11.2L52.2,62.8z M55.7,87.3c-2.6,0-0.7,2.2-0.4,2.5h5C59.2,88.3,57.5,87.4,55.7,87.3z M55.9,92.4
			c0.2,0,0.4-0.1,0.5-0.3c0.1-0.2,0.1-0.5-0.1-0.6h-1.6v0.1c0.1,1.2,1.1,2,2.2,1.9c1-0.1,1.9-0.9,1.9-1.9v-0.1h-1.6
			c0.2,0.1,0.3,0.3,0.4,0.5c0.1,0.4,0,0.9-0.4,1.1c-0.2,0.1-0.4,0.2-0.6,0.1C56.3,93.1,55.9,92.8,55.9,92.4L55.9,92.4z M65.6,116.6
			c-0.4-0.1-0.7-0.3-1-0.5c-0.7,0.5-1.7,0.5-2.5,0c-0.3,0.2-0.6,0.4-1,0.5C62.4,117.8,64.3,117.8,65.6,116.6L65.6,116.6z M69.2,92.3
			c0.2,0,0.4-0.1,0.5-0.3c0.1-0.2,0-0.4-0.1-0.6H68v0.1c0,1.1,0.9,2.1,2.1,2.1c1.1,0,2.1-0.9,2.1-2.1v-0.1h-1.6
			c0.1,0.1,0.2,0.2,0.3,0.3C71,91.9,71,92,71,92.2c0,0.2,0,0.3-0.1,0.4c-0.1,0.1-0.2,0.3-0.3,0.3c-0.1,0.1-0.3,0.1-0.4,0.2
			c-0.1,0-0.3,0-0.4-0.1c-0.1-0.1-0.3-0.1-0.4-0.3C69.3,92.7,69.2,92.5,69.2,92.3L69.2,92.3z M71.6,89.8c0.2-0.3,2.2-2.5-0.4-2.5
			c-1.8,0.1-3.5,1-4.6,2.5H71.6z M79.3,74.7c-0.2-2.2-2.5-7.4-4.6-11.8l-0.5,3.7c0.1,0.6,1,7.3,3.9,11.4L79.3,74.7z M78.8,82.8
			c0.9,8,1.2,13.5,0.7,14.7c-0.9,1.8-2.1,3.4-3.3,5l1.9,18l-1.2,0.8l-13.4,9.6l-11.2-8l1.2-11.3c-0.5-2.1-0.8-4.3-0.9-6.5l-1.8,16.7
			l-1.9-1.4l2-18c-1.3-1.6-2.4-3.2-3.4-5c-0.5-1.2-0.2-6.6,0.7-14.7v-0.1l-2.8-7.6v-0.2c0-3.3,4.3-12.2,6.9-17l1.2-2.3L56,73.9
			l1.6,2.6l0.4-0.1c1.7-0.6,3.6-1,5.4-1c1.9,0.1,3.7,0.4,5.4,1l0.4,0.1l1.6-2.6l2.6-18.4l1.2,2.3c2.6,4.7,6.9,13.7,6.9,17v0.2
			L78.8,82.8L78.8,82.8z"/>
	</g>
</g>
<rect x="32" y="50" class="st3" width="192" height="87"/>
</svg>
