<?xml version="1.0" encoding="UTF-8"?>
<!DOCTYPE svg PUBLIC "-//W3C//DTD SVG 1.1//EN" "http://www.w3.org/Graphics/SVG/1.1/DTD/svg11.dtd">
<svg xmlns="http://www.w3.org/2000/svg" version="1.1" width="734px" height="156px" style="shape-rendering:geometricPrecision; text-rendering:geometricPrecision; image-rendering:optimizeQuality; fill-rule:evenodd; clip-rule:evenodd" xmlns:xlink="http://www.w3.org/1999/xlink">
<g><path style="opacity:1" fill="#f3f3f3" d="M -0.5,-0.5 C 244.167,-0.5 488.833,-0.5 733.5,-0.5C 733.5,51.5 733.5,103.5 733.5,155.5C 488.833,155.5 244.167,155.5 -0.5,155.5C -0.5,103.5 -0.5,51.5 -0.5,-0.5 Z"/></g>
<g><path style="opacity:1" fill="#08a6dd" d="M 80.5,1.5 C 91.095,1.19865 100.762,4.03199 109.5,10C 124.971,24.4708 140.138,39.3041 155,54.5C 165.45,70.2311 164.783,85.5645 153,100.5C 138.195,114.304 123.695,128.471 109.5,143C 96.0858,151.797 82.0858,152.797 67.5,146C 49.6734,130.173 32.5067,113.673 16,96.5C 6.42373,80.5905 7.75706,65.5905 20,51.5C 35.1667,37 50.3333,22.5 65.5,8C 70.3668,5.22592 75.3668,3.05926 80.5,1.5 Z"/></g>
<g><path style="opacity:1" fill="#0fa6dd" d="M 183.5,17.5 C 190.167,17.5 196.833,17.5 203.5,17.5C 203.333,30.5043 203.5,43.5043 204,56.5C 215.975,44.9876 229.142,43.4876 243.5,52C 249.197,56.8922 252.697,63.0589 254,70.5C 254.5,90.1638 254.667,109.831 254.5,129.5C 247.5,129.5 240.5,129.5 233.5,129.5C 233.667,110.164 233.5,90.8305 233,71.5C 228.748,65.4124 222.915,63.2457 215.5,65C 210.487,67.8385 206.987,72.0052 205,77.5C 203.556,94.7772 203.056,112.111 203.5,129.5C 196.833,129.5 190.167,129.5 183.5,129.5C 183.5,92.1667 183.5,54.8333 183.5,17.5 Z"/></g>
<g><path style="opacity:1" fill="#f0f3f3" d="M 82.5,23.5 C 86.263,23.8572 89.9296,24.6905 93.5,26C 98.6487,29.9817 103.315,34.4817 107.5,39.5C 100.833,46.8333 93.8333,53.8333 86.5,60.5C 78.5344,54.202 71.2011,47.202 64.5,39.5C 69.6281,33.03 75.6281,27.6967 82.5,23.5 Z"/></g>
<g><path style="opacity:1" fill="#0ba6dd" d="M 290.5,47.5 C 297.175,47.3337 303.842,47.5004 310.5,48C 322.919,50.0865 330.419,57.2532 333,69.5C 333.333,83.5 333.667,97.5 334,111.5C 335.287,114.145 337.453,115.145 340.5,114.5C 340.666,119.179 340.499,123.845 340,128.5C 333.788,131.248 327.621,131.081 321.5,128C 319.21,125.921 317.543,123.421 316.5,120.5C 307.878,129.805 297.211,133.305 284.5,131C 265.395,125.563 258.895,113.396 265,94.5C 270.511,86.8224 278.011,82.3224 287.5,81C 296.482,80.1203 305.482,79.6203 314.5,79.5C 315.185,64.7107 308.185,59.2107 293.5,63C 288.543,64.7445 285.876,68.2445 285.5,73.5C 279.167,73.5 272.833,73.5 266.5,73.5C 266.636,64.7253 270.303,57.892 277.5,53C 281.741,50.6512 286.075,48.8179 290.5,47.5 Z"/></g>
<g><path style="opacity:1" fill="#11a6dd" d="M 439.5,47.5 C 456.854,44.58 468.354,51.2466 474,67.5C 474.5,88.164 474.667,108.831 474.5,129.5C 467.833,129.5 461.167,129.5 454.5,129.5C 454.667,110.497 454.5,91.4971 454,72.5C 451.332,67.2339 446.999,64.9006 441,65.5C 435.809,65.6716 431.809,68.0049 429,72.5C 427.363,75.7165 426.03,79.0498 425,82.5C 424.5,98.1631 424.333,113.83 424.5,129.5C 417.833,129.5 411.167,129.5 404.5,129.5C 404.5,102.833 404.5,76.1667 404.5,49.5C 410.176,49.3339 415.843,49.5006 421.5,50C 422.282,52.7405 422.782,55.5738 423,58.5C 427.356,52.9197 432.856,49.253 439.5,47.5 Z"/></g>
<g><path style="opacity:1" fill="#0aa6dd" d="M 558.5,78.5 C 558.5,83.8333 558.5,89.1667 558.5,94.5C 540.326,94.1699 522.326,94.5032 504.5,95.5C 506.025,112.52 515.025,118.687 531.5,114C 534.863,112.101 536.863,109.268 537.5,105.5C 544.2,105.17 550.866,105.503 557.5,106.5C 553.416,120.084 544.416,128.25 530.5,131C 506.117,133.731 490.951,123.231 485,99.5C 481.213,80.5178 486.713,65.0178 501.5,53C 516.024,45.4705 530.357,45.8038 544.5,54C 552.673,60.1802 557.339,68.3469 558.5,78.5 Z"/></g>
<g><path style="opacity:1" fill="#0fa7dd" d="M 590.5,47.5 C 600.917,46.4643 610.917,47.9643 620.5,52C 628.369,57.0342 632.702,64.2009 633.5,73.5C 627.132,73.8297 620.798,73.4963 614.5,72.5C 613.707,67.2081 610.707,64.0414 605.5,63C 601.167,62.3333 596.833,62.3333 592.5,63C 584.777,66.8656 583.777,71.8656 589.5,78C 599.164,79.6665 608.831,81.3332 618.5,83C 633.58,89.233 638.413,100.066 633,115.5C 625.242,127.107 614.242,132.441 600,131.5C 581.307,131.927 569.474,123.26 564.5,105.5C 570.842,105.334 577.175,105.5 583.5,106C 586.358,113.36 591.858,116.86 600,116.5C 604.78,116.345 609.28,115.178 613.5,113C 617.423,108.594 617.423,104.261 613.5,100C 603.202,97.9198 592.868,95.9198 582.5,94C 567.097,86.4575 563.264,74.9575 571,59.5C 576.543,53.8181 583.043,49.8181 590.5,47.5 Z"/></g>
<g><path style="opacity:1" fill="#0fa7dd" d="M 666.5,47.5 C 677.428,46.2455 687.762,48.0788 697.5,53C 704.707,57.9138 708.374,64.7472 708.5,73.5C 702.167,73.5 695.833,73.5 689.5,73.5C 689.636,67.9632 686.969,64.4632 681.5,63C 675.606,61.9625 669.939,62.6292 664.5,65C 659.825,70.9655 660.825,75.6322 667.5,79C 676.237,79.8946 684.903,81.2279 693.5,83C 710.37,89.9262 714.87,101.759 707,118.5C 700.808,125.68 692.975,129.847 683.5,131C 668.897,133.688 656.397,129.855 646,119.5C 642.774,115.381 640.94,110.714 640.5,105.5C 646.868,105.17 653.202,105.504 659.5,106.5C 662.274,113.061 667.274,116.394 674.5,116.5C 678.947,116.244 683.28,115.411 687.5,114C 693.109,109.969 693.776,105.302 689.5,100C 678.866,98.0012 668.199,96.0012 657.5,94C 643.104,86.4797 639.271,75.313 646,60.5C 651.474,53.8286 658.307,49.4953 666.5,47.5 Z"/></g>
<g><path style="opacity:1" fill="#0ca6dd" d="M 384.5,48.5 C 388.5,48.5 392.5,48.5 396.5,48.5C 396.5,54.5 396.5,60.5 396.5,66.5C 384.044,65.4669 375.878,70.8002 372,82.5C 371.5,98.1631 371.333,113.83 371.5,129.5C 364.833,129.5 358.167,129.5 351.5,129.5C 351.5,102.833 351.5,76.1667 351.5,49.5C 357.5,49.5 363.5,49.5 369.5,49.5C 369.301,52.941 369.801,56.2744 371,59.5C 374.299,54.2788 378.799,50.6121 384.5,48.5 Z"/></g>
<g><path style="opacity:1" fill="#f3f3f3" d="M 47.5,55.5 C 55.4245,61.7549 62.7578,68.7549 69.5,76.5C 62.8333,83.8333 55.8333,90.8333 48.5,97.5C 43.5148,93.0152 38.6814,88.3485 34,83.5C 31.8319,78.3431 32.1652,73.3431 35,68.5C 39.3702,64.2978 43.5368,59.9645 47.5,55.5 Z"/></g>
<g><path style="opacity:1" fill="#eff2f3" d="M 122.5,55.5 C 123.552,55.3505 124.552,55.5172 125.5,56C 129.333,59.8333 133.167,63.6667 137,67.5C 141.649,73.9919 141.316,80.3252 136,86.5C 132.288,90.5481 128.288,94.2148 124,97.5C 116.362,91.0291 109.195,84.0291 102.5,76.5C 109.188,69.4795 115.855,62.4795 122.5,55.5 Z"/></g>
<g><path style="opacity:1" fill="#f0f2f3" d="M 515.5,63.5 C 530.181,60.8686 538.181,66.8686 539.5,81.5C 527.833,81.5 516.167,81.5 504.5,81.5C 504.598,73.3005 508.265,67.3005 515.5,63.5 Z"/></g>
<g><path style="opacity:1" fill="#f1f3f3" d="M 85.5,92.5 C 93.4245,98.7549 100.758,105.755 107.5,113.5C 103.349,118.152 99.0153,122.652 94.5,127C 88.6645,130.372 82.9979,130.039 77.5,126C 72.685,122.352 68.3516,118.185 64.5,113.5C 71.2147,106.119 78.2147,99.1186 85.5,92.5 Z"/></g>
<g><path style="opacity:1" fill="#f0f2f3" d="M 297.5,94.5 C 303.167,94.5 308.833,94.5 314.5,94.5C 314.521,108.479 307.521,115.479 293.5,115.5C 282.856,114.39 279.689,109.056 284,99.5C 288.206,96.8314 292.706,95.1647 297.5,94.5 Z"/></g>
<g><path style="opacity:1" fill="#1cb2e0" d="M 558.5,78.5 C 559.489,83.9753 559.822,89.642 559.5,95.5C 541.167,95.5 522.833,95.5 504.5,95.5C 522.326,94.5032 540.326,94.1699 558.5,94.5C 558.5,89.1667 558.5,83.8333 558.5,78.5 Z"/></g>
</svg>
