<?xml version="1.0" encoding="UTF-8"?>
<!DOCTYPE svg PUBLIC "-//W3C//DTD SVG 1.1//EN" "http://www.w3.org/Graphics/SVG/1.1/DTD/svg11.dtd">
<svg xmlns="http://www.w3.org/2000/svg" version="1.1" width="225px" height="225px" style="shape-rendering:geometricPrecision; text-rendering:geometricPrecision; image-rendering:optimizeQuality; fill-rule:evenodd; clip-rule:evenodd" xmlns:xlink="http://www.w3.org/1999/xlink">
<g><path style="opacity:1" fill="#fdfefe" d="M -0.5,-0.5 C 74.5,-0.5 149.5,-0.5 224.5,-0.5C 224.5,12.1667 224.5,24.8333 224.5,37.5C 223.814,36.1516 222.814,34.985 221.5,34C 204.025,30.0502 187.025,24.7169 170.5,18C 165.343,16.3639 160.01,15.1972 154.5,14.5C 142.328,9.88827 129.994,5.7216 117.5,2C 111.443,0.838408 105.777,1.83841 100.5,5C 91.3076,5.87482 82.641,8.54149 74.5,13C 70.6495,13.4144 66.9828,14.2477 63.5,15.5C 56.4123,18.0799 49.079,20.0799 41.5,21.5C 27.5149,26.8202 13.5149,31.8202 -0.5,36.5C -0.5,24.1667 -0.5,11.8333 -0.5,-0.5 Z"/></g>
<g><path style="opacity:1" fill="#b6e9fd" d="M 224.5,37.5 C 224.5,86.8333 224.5,136.167 224.5,185.5C 223.596,186.209 223.263,187.209 223.5,188.5C 202.523,195.879 181.19,202.379 159.5,208C 149.47,211.595 139.47,215.262 129.5,219C 126.146,219.455 122.813,219.955 119.5,220.5C 119.5,221.5 119.5,222.5 119.5,223.5C 111.173,223.489 103.173,221.989 95.5,219C 92.854,218.503 90.1873,218.336 87.5,218.5C 87.5,217.5 87.5,216.5 87.5,215.5C 78.7445,215.149 70.7445,212.649 63.5,208C 47.0098,204.153 31.0098,198.987 15.5,192.5C 11.1725,191.334 6.83912,190.334 2.5,189.5C 2.5,188.5 2.5,187.5 2.5,186.5C 3.05773,185.21 4.05773,184.377 5.5,184C 4.33631,134.904 4.16964,85.7374 5,36.5C 7.40086,37.6023 9.90086,37.769 12.5,37C 14.4386,36.0922 15.4386,34.5922 15.5,32.5C 18.1873,32.6641 20.854,32.4974 23.5,32C 22.5,31.6667 21.5,31.3333 20.5,31C 28.3741,29.423 36.0408,27.0897 43.5,24C 47.8544,23.7474 50.8544,24.0807 52.5,25C 54.8776,24.0255 54.5443,23.3589 51.5,23C 55.513,20.2038 59.513,17.7038 63.5,15.5C 66.9828,14.2477 70.6495,13.4144 74.5,13C 82.641,8.54149 91.3076,5.87482 100.5,5C 105.777,1.83841 111.443,0.838408 117.5,2C 129.994,5.7216 142.328,9.88827 154.5,14.5C 160.01,15.1972 165.343,16.3639 170.5,18C 187.025,24.7169 204.025,30.0502 221.5,34C 222.814,34.985 223.814,36.1516 224.5,37.5 Z"/></g>
<g><path style="opacity:1" fill="#64a9c4" d="M 117.5,12.5 C 116.167,12.5 114.833,12.5 113.5,12.5C 113.5,23.8333 113.5,35.1667 113.5,46.5C 115.483,46.1568 116.817,46.8235 117.5,48.5C 116.5,48.5 115.5,48.5 114.5,48.5C 112.551,36.4165 111.884,24.0832 112.5,11.5C 114.415,11.2155 116.081,11.5489 117.5,12.5 Z"/></g>
<g><path style="opacity:1" fill="#257da0" d="M 117.5,12.5 C 139.731,20.1419 162.398,26.9753 185.5,33C 194.525,36.8142 203.525,40.3142 212.5,43.5C 212.5,89.1667 212.5,134.833 212.5,180.5C 209.126,180.326 205.793,179.826 202.5,179C 196.37,176.359 190.37,173.859 184.5,171.5C 184.667,154.163 184.5,136.83 184,119.5C 181.313,118.287 178.48,117.62 175.5,117.5C 174.5,117.5 173.5,117.5 172.5,117.5C 170.21,115.688 167.544,114.355 164.5,113.5C 159.316,112.955 154.316,111.955 149.5,110.5C 150.153,92.4684 149.486,74.8017 147.5,57.5C 143.567,56.3013 139.567,55.3013 135.5,54.5C 129.71,52.1254 123.71,50.1254 117.5,48.5C 116.817,46.8235 115.483,46.1568 113.5,46.5C 113.5,35.1667 113.5,23.8333 113.5,12.5C 114.833,12.5 116.167,12.5 117.5,12.5 Z"/></g>
<g><path style="opacity:1" fill="#69afc9" d="M 101.5,50.5 C 100.167,50.5 98.8333,50.5 97.5,50.5C 92.8798,51.9989 88.5465,53.6656 84.5,55.5C 83.209,55.2627 82.209,55.596 81.5,56.5C 79.5648,57.1495 77.5648,57.4828 75.5,57.5C 75.5,74.5 75.5,91.5 75.5,108.5C 73.5889,110.316 71.2556,111.483 68.5,112C 63.1505,113.346 57.8172,114.679 52.5,116C 51.944,116.383 51.6107,116.883 51.5,117.5C 47.9206,117.316 44.5873,117.983 41.5,119.5C 40.7784,119.918 40.2784,120.584 40,121.5C 39.5001,138.83 39.3334,156.163 39.5,173.5C 29.9089,176.154 20.2422,178.487 10.5,180.5C 10.5,134.833 10.5,89.1667 10.5,43.5C 17.4493,40.9996 24.4493,38.333 31.5,35.5C 57.8274,28.1265 83.8274,20.1265 109.5,11.5C 110.499,23.4815 110.832,35.4815 110.5,47.5C 106.971,47.5567 103.971,48.5567 101.5,50.5 Z"/></g>
<g><path style="opacity:1" fill="#bbedfd" d="M 63.5,15.5 C 59.513,17.7038 55.513,20.2038 51.5,23C 54.5443,23.3589 54.8776,24.0255 52.5,25C 50.8544,24.0807 47.8544,23.7474 43.5,24C 36.0408,27.0897 28.3741,29.423 20.5,31C 21.5,31.3333 22.5,31.6667 23.5,32C 20.854,32.4974 18.1873,32.6641 15.5,32.5C 15.4386,34.5922 14.4386,36.0922 12.5,37C 9.90086,37.769 7.40086,37.6023 5,36.5C 4.16964,85.7374 4.33631,134.904 5.5,184C 4.05773,184.377 3.05773,185.21 2.5,186.5C 1.60895,185.89 0.608953,185.557 -0.5,185.5C -0.5,135.833 -0.5,86.1667 -0.5,36.5C 13.5149,31.8202 27.5149,26.8202 41.5,21.5C 49.079,20.0799 56.4123,18.0799 63.5,15.5 Z"/></g>
<g><path style="opacity:1" fill="#3e8fa9" d="M 212.5,43.5 C 214.495,88.8211 215.162,134.488 214.5,180.5C 213.833,180.5 213.167,180.5 212.5,180.5C 212.5,134.833 212.5,89.1667 212.5,43.5 Z"/></g>
<g><path style="opacity:1" fill="#ecf0e0" d="M 114.5,48.5 C 115.5,48.5 116.5,48.5 117.5,48.5C 123.71,50.1254 129.71,52.1254 135.5,54.5C 135.5,55.5 135.5,56.5 135.5,57.5C 127.666,54.5823 119.666,52.249 111.5,50.5C 103.477,52.8506 95.4765,55.1839 87.5,57.5C 85.7354,56.5386 83.7354,56.2053 81.5,56.5C 82.209,55.596 83.209,55.2627 84.5,55.5C 88.2293,54.9872 91.896,54.1539 95.5,53C 96.756,52.5831 97.4226,51.7498 97.5,50.5C 98.8333,50.5 100.167,50.5 101.5,50.5C 105.743,49.3187 110.076,48.652 114.5,48.5 Z"/></g>
<g><path style="opacity:1" fill="#b9dae6" d="M 97.5,50.5 C 97.4226,51.7498 96.756,52.5831 95.5,53C 91.896,54.1539 88.2293,54.9872 84.5,55.5C 88.5465,53.6656 92.8798,51.9989 97.5,50.5 Z"/></g>
<g><path style="opacity:1" fill="#fdd32c" d="M 135.5,57.5 C 136.5,57.5 137.5,57.5 138.5,57.5C 138.5,58.8333 138.5,60.1667 138.5,61.5C 133.515,61.248 128.848,62.248 124.5,64.5C 122.219,64.0773 120.552,64.744 119.5,66.5C 115.737,68.3037 111.737,68.8037 107.5,68C 103.117,65.5651 98.45,63.7317 93.5,62.5C 90.8853,61.7308 88.2186,61.3975 85.5,61.5C 85.5,60.1667 85.5,58.8333 85.5,57.5C 86.1667,57.5 86.8333,57.5 87.5,57.5C 95.4765,55.1839 103.477,52.8506 111.5,50.5C 119.666,52.249 127.666,54.5823 135.5,57.5 Z"/></g>
<g><path style="opacity:1" fill="#dbeff3" d="M 81.5,56.5 C 83.7354,56.2053 85.7354,56.5386 87.5,57.5C 86.8333,57.5 86.1667,57.5 85.5,57.5C 80.9161,57.2111 78.2495,59.2111 77.5,63.5C 77.6666,76.8375 77.4999,90.1708 77,103.5C 76.8019,105.382 76.3019,107.048 75.5,108.5C 75.5,91.5 75.5,74.5 75.5,57.5C 77.5648,57.4828 79.5648,57.1495 81.5,56.5 Z"/></g>
<g><path style="opacity:1" fill="#fcc48e" d="M 87.5,64.5 C 84.8728,63.9084 82.2062,63.5751 79.5,63.5C 79.5,78.5 79.5,93.5 79.5,108.5C 78.5039,93.676 78.1706,78.676 78.5,63.5C 78.4701,62.5028 78.9701,61.8361 80,61.5C 83.0259,61.7131 85.5259,62.7131 87.5,64.5 Z"/></g>
<g><path style="opacity:1" fill="#fecc4e" d="M 145.5,108.5 C 145.5,108.833 145.5,109.167 145.5,109.5C 143.565,110.15 141.565,110.483 139.5,110.5C 139.167,110.5 138.833,110.5 138.5,110.5C 138.5,109.5 138.5,108.5 138.5,107.5C 140.75,107.819 142.75,107.319 144.5,106C 143.841,91.8962 143.175,77.7296 142.5,63.5C 139.435,65.2502 136.102,66.2502 132.5,66.5C 136.223,63.8385 140.556,62.5052 145.5,62.5C 145.5,77.8333 145.5,93.1667 145.5,108.5 Z"/></g>
<g><path style="opacity:1" fill="#fdf2da" d="M 85.5,57.5 C 85.5,58.8333 85.5,60.1667 85.5,61.5C 88.2186,61.3975 90.8853,61.7308 93.5,62.5C 98.45,63.7317 103.117,65.5651 107.5,68C 111.737,68.8037 115.737,68.3037 119.5,66.5C 121.553,66.5979 123.22,65.9313 124.5,64.5C 128.848,62.248 133.515,61.248 138.5,61.5C 138.5,60.1667 138.5,58.8333 138.5,57.5C 139.5,57.5 140.5,57.5 141.5,57.5C 141.5,58.5 141.5,59.5 141.5,60.5C 143.144,60.2865 144.644,60.6198 146,61.5C 146.828,77.3388 146.661,93.0054 145.5,108.5C 145.5,93.1667 145.5,77.8333 145.5,62.5C 140.556,62.5052 136.223,63.8385 132.5,66.5C 126.371,67.7426 120.371,69.4092 114.5,71.5C 114.5,86.8333 114.5,102.167 114.5,117.5C 113.669,102.339 113.169,87.0055 113,71.5C 112.23,70.4019 111.397,70.4019 110.5,71.5C 109.833,71.5 109.167,71.5 108.5,71.5C 106.302,69.6031 103.636,68.6031 100.5,68.5C 96.0624,67.3104 91.7291,65.9771 87.5,64.5C 85.5259,62.7131 83.0259,61.7131 80,61.5C 78.9701,61.8361 78.4701,62.5028 78.5,63.5C 78.1667,63.5 77.8333,63.5 77.5,63.5C 78.2495,59.2111 80.9161,57.2111 85.5,57.5 Z"/></g>
<g><path style="opacity:1" fill="#edf5f4" d="M 135.5,54.5 C 139.567,55.3013 143.567,56.3013 147.5,57.5C 146.847,75.5316 147.514,93.1983 149.5,110.5C 154.316,111.955 159.316,112.955 164.5,113.5C 167.544,114.355 170.21,115.688 172.5,117.5C 170.666,116.506 168.999,116.506 167.5,117.5C 161.138,116.157 154.805,114.49 148.5,112.5C 147.1,111.9 146.1,110.9 145.5,109.5C 145.5,109.167 145.5,108.833 145.5,108.5C 146.661,93.0054 146.828,77.3388 146,61.5C 144.644,60.6198 143.144,60.2865 141.5,60.5C 141.5,59.5 141.5,58.5 141.5,57.5C 140.5,57.5 139.5,57.5 138.5,57.5C 137.5,57.5 136.5,57.5 135.5,57.5C 135.5,56.5 135.5,55.5 135.5,54.5 Z"/></g>
<g><path style="opacity:1" fill="#9ac1d5" d="M 147.5,57.5 C 149.486,74.8017 150.153,92.4684 149.5,110.5C 147.514,93.1983 146.847,75.5316 147.5,57.5 Z"/></g>
<g><path style="opacity:1" fill="#fee183" d="M 124.5,64.5 C 123.22,65.9313 121.553,66.5979 119.5,66.5C 120.552,64.744 122.219,64.0773 124.5,64.5 Z"/></g>
<g><path style="opacity:1" fill="#f99b37" d="M 87.5,64.5 C 91.7291,65.9771 96.0624,67.3104 100.5,68.5C 100.611,69.1174 100.944,69.6174 101.5,70C 103.866,70.4396 106.199,70.9396 108.5,71.5C 109.167,71.5 109.833,71.5 110.5,71.5C 110.5,86.8333 110.5,102.167 110.5,117.5C 100.013,115.03 89.6795,112.03 79.5,108.5C 79.5,93.5 79.5,78.5 79.5,63.5C 82.2062,63.5751 84.8728,63.9084 87.5,64.5 Z"/></g>
<g><path style="opacity:1" fill="#fbc189" d="M 100.5,68.5 C 103.636,68.6031 106.302,69.6031 108.5,71.5C 106.199,70.9396 103.866,70.4396 101.5,70C 100.944,69.6174 100.611,69.1174 100.5,68.5 Z"/></g>
<g><path style="opacity:1" fill="#fec230" d="M 138.5,110.5 C 135.364,110.603 132.698,111.603 130.5,113.5C 130.167,113.5 129.833,113.5 129.5,113.5C 127.219,113.077 125.552,113.744 124.5,115.5C 121.167,116.167 117.833,116.833 114.5,117.5C 114.5,102.167 114.5,86.8333 114.5,71.5C 120.371,69.4092 126.371,67.7426 132.5,66.5C 136.102,66.2502 139.435,65.2502 142.5,63.5C 143.175,77.7296 143.841,91.8962 144.5,106C 142.75,107.319 140.75,107.819 138.5,107.5C 138.5,108.5 138.5,109.5 138.5,110.5 Z"/></g>
<g><path style="opacity:1" fill="#f9e29d" d="M 138.5,110.5 C 138.833,110.5 139.167,110.5 139.5,110.5C 139.389,111.117 139.056,111.617 138.5,112C 135.793,112.395 133.127,112.895 130.5,113.5C 132.698,111.603 135.364,110.603 138.5,110.5 Z"/></g>
<g><path style="opacity:1" fill="#fadc91" d="M 129.5,113.5 C 128.22,114.931 126.553,115.598 124.5,115.5C 125.552,113.744 127.219,113.077 129.5,113.5 Z"/></g>
<g><path style="opacity:1" fill="#fdd32b" d="M 148.5,112.5 C 154.805,114.49 161.138,116.157 167.5,117.5C 168.183,119.176 169.517,119.843 171.5,119.5C 171.804,120.15 172.137,120.817 172.5,121.5C 170.345,122.001 168.678,123.001 167.5,124.5C 160.484,127.107 153.151,128.774 145.5,129.5C 140.367,129.432 135.7,127.932 131.5,125C 127.409,124.355 123.409,123.355 119.5,122C 128.413,116.752 138.079,113.585 148.5,112.5 Z"/></g>
<g><path style="opacity:1" fill="#fcd327" d="M 73.5,112.5 C 83.6897,114.336 93.6897,116.669 103.5,119.5C 103.5,120.5 103.5,121.5 103.5,122.5C 96.9869,123.499 90.8202,125.499 85,128.5C 79.1218,129.905 73.2885,129.738 67.5,128C 61.1656,125.929 55.1656,123.429 49.5,120.5C 49.5,120.167 49.5,119.833 49.5,119.5C 55.0332,118.783 60.3665,117.45 65.5,115.5C 68.6799,115.339 71.3465,114.339 73.5,112.5 Z"/></g>
<g><path style="opacity:1" fill="#4d9ab5" d="M 175.5,117.5 C 178.48,117.62 181.313,118.287 184,119.5C 184.5,136.83 184.667,154.163 184.5,171.5C 183.833,154.833 183.167,138.167 182.5,121.5C 181.082,119.692 179.082,119.025 176.5,119.5C 175.662,119.158 175.328,118.492 175.5,117.5 Z"/></g>
<g><path style="opacity:1" fill="#fdf1db" d="M 145.5,109.5 C 146.1,110.9 147.1,111.9 148.5,112.5C 138.079,113.585 128.413,116.752 119.5,122C 123.409,123.355 127.409,124.355 131.5,125C 135.7,127.932 140.367,129.432 145.5,129.5C 153.151,128.774 160.484,127.107 167.5,124.5C 170.199,124.534 172.699,123.867 175,122.5C 174.967,120.522 173.8,119.522 171.5,119.5C 169.517,119.843 168.183,119.176 167.5,117.5C 168.999,116.506 170.666,116.506 172.5,117.5C 173.5,117.5 174.5,117.5 175.5,117.5C 175.328,118.492 175.662,119.158 176.5,119.5C 176.5,120.5 176.5,121.5 176.5,122.5C 178.099,122.232 179.432,122.566 180.5,123.5C 178.585,123.216 176.919,123.549 175.5,124.5C 174.167,124.5 173.5,125.167 173.5,126.5C 165.074,127.934 157.074,130.267 149.5,133.5C 148.167,133.5 146.833,133.5 145.5,133.5C 144.833,133.5 144.167,133.5 143.5,133.5C 142.448,131.744 140.781,131.077 138.5,131.5C 131.624,129.097 124.624,127.097 117.5,125.5C 116.432,124.566 115.099,124.232 113.5,124.5C 114.952,123.698 116.618,123.198 118.5,123C 116.536,121.549 115.203,119.716 114.5,117.5C 117.833,116.833 121.167,116.167 124.5,115.5C 126.553,115.598 128.22,114.931 129.5,113.5C 129.833,113.5 130.167,113.5 130.5,113.5C 133.127,112.895 135.793,112.395 138.5,112C 139.056,111.617 139.389,111.117 139.5,110.5C 141.565,110.483 143.565,110.15 145.5,109.5 Z"/></g>
<g><path style="opacity:1" fill="#fbf7f0" d="M 77.5,63.5 C 77.8333,63.5 78.1667,63.5 78.5,63.5C 78.1706,78.676 78.5039,93.676 79.5,108.5C 89.6795,112.03 100.013,115.03 110.5,117.5C 110.5,102.167 110.5,86.8333 110.5,71.5C 111.397,70.4019 112.23,70.4019 113,71.5C 113.169,87.0055 113.669,102.339 114.5,117.5C 115.203,119.716 116.536,121.549 118.5,123C 116.618,123.198 114.952,123.698 113.5,124.5C 113.171,139.676 113.504,154.676 114.5,169.5C 117.526,171.759 120.86,173.425 124.5,174.5C 117.825,173.893 111.158,173.227 104.5,172.5C 104.5,171.833 104.833,171.5 105.5,171.5C 106.93,171.579 108.264,171.246 109.5,170.5C 110.499,155.181 110.833,139.848 110.5,124.5C 109.081,123.549 107.415,123.216 105.5,123.5C 105.843,121.517 105.176,120.183 103.5,119.5C 93.6897,116.669 83.6897,114.336 73.5,112.5C 71.1992,113.06 68.8659,113.56 66.5,114C 65.944,114.383 65.6107,114.883 65.5,115.5C 60.3665,117.45 55.0332,118.783 49.5,119.5C 50.1667,118.833 50.8333,118.167 51.5,117.5C 51.6107,116.883 51.944,116.383 52.5,116C 57.8172,114.679 63.1505,113.346 68.5,112C 71.2556,111.483 73.5889,110.316 75.5,108.5C 76.3019,107.048 76.8019,105.382 77,103.5C 77.4999,90.1708 77.6666,76.8375 77.5,63.5 Z"/></g>
<g><path style="opacity:1" fill="#ffeda3" d="M 73.5,112.5 C 71.3465,114.339 68.6799,115.339 65.5,115.5C 65.6107,114.883 65.944,114.383 66.5,114C 68.8659,113.56 71.1992,113.06 73.5,112.5 Z"/></g>
<g><path style="opacity:1" fill="#f2f7f5" d="M 51.5,117.5 C 50.8333,118.167 50.1667,118.833 49.5,119.5C 49.5,119.833 49.5,120.167 49.5,120.5C 47.081,121.364 45.081,122.697 43.5,124.5C 43.5,138.833 43.5,153.167 43.5,167.5C 42.1991,168.884 42.1991,170.384 43.5,172C 45.74,172.977 48.0733,173.477 50.5,173.5C 57.5834,175.021 64.5834,176.688 71.5,178.5C 71.5,178.833 71.5,179.167 71.5,179.5C 72.5676,180.434 73.901,180.768 75.5,180.5C 75.8296,164.658 75.4963,148.991 74.5,133.5C 74.1788,131.952 73.1788,131.285 71.5,131.5C 71.9169,130.876 72.5836,130.543 73.5,130.5C 75.5,131 77.5,131.5 79.5,132C 78.7476,132.671 78.4142,133.504 78.5,134.5C 78.5,149.5 78.5,164.5 78.5,179.5C 82.8095,178.687 87.1428,177.853 91.5,177C 92.056,176.617 92.3893,176.117 92.5,175.5C 96.5603,174.701 100.56,173.701 104.5,172.5C 111.158,173.227 117.825,173.893 124.5,174.5C 129.674,176.312 135.007,177.646 140.5,178.5C 140.5,178.833 140.5,179.167 140.5,179.5C 141.919,180.451 143.585,180.784 145.5,180.5C 145.5,165.167 145.5,149.833 145.5,134.5C 147.321,149.133 148.154,164.133 148,179.5C 148.561,180.022 149.228,180.355 150,180.5C 154.641,180.242 158.475,178.575 161.5,175.5C 166.182,174.629 170.849,173.629 175.5,172.5C 177.5,172.5 179.5,172.5 181.5,172.5C 181.83,155.991 181.496,139.658 180.5,123.5C 179.432,122.566 178.099,122.232 176.5,122.5C 176.5,121.5 176.5,120.5 176.5,119.5C 179.082,119.025 181.082,119.692 182.5,121.5C 182.5,138.833 182.5,156.167 182.5,173.5C 170.165,176.192 158.165,179.859 146.5,184.5C 138.285,182.279 130.285,179.446 122.5,176C 118.646,175.646 114.812,175.146 111,174.5C 99.5161,177.994 88.0161,181.327 76.5,184.5C 70.4749,183.136 64.8083,180.97 59.5,178C 53.3978,176.57 47.3978,175.07 41.5,173.5C 41.5,155.5 41.5,137.5 41.5,119.5C 44.5873,117.983 47.9206,117.316 51.5,117.5 Z"/></g>
<g><path style="opacity:1" fill="#fee9cc" d="M 43.5,167.5 C 43.2852,169.179 43.9519,170.179 45.5,170.5C 47.8477,170.592 49.5144,171.592 50.5,173.5C 48.0733,173.477 45.74,172.977 43.5,172C 42.1991,170.384 42.1991,168.884 43.5,167.5 Z"/></g>
<g><path style="opacity:1" fill="#fce8b2" d="M 145.5,134.5 C 145.5,134.167 145.5,133.833 145.5,133.5C 146.833,133.5 148.167,133.5 149.5,133.5C 149.5,148.5 149.5,163.5 149.5,178.5C 153.643,178.096 157.643,177.096 161.5,175.5C 158.475,178.575 154.641,180.242 150,180.5C 149.228,180.355 148.561,180.022 148,179.5C 148.154,164.133 147.321,149.133 145.5,134.5 Z"/></g>
<g><path style="opacity:1" fill="#fdd0a5" d="M 145.5,134.5 C 145.5,149.833 145.5,165.167 145.5,180.5C 143.585,180.784 141.919,180.451 140.5,179.5C 141.833,179.5 143.167,179.5 144.5,179.5C 144.171,164.324 144.504,149.324 145.5,134.5 Z"/></g>
<g><path style="opacity:1" fill="#f7bf7d" d="M 143.5,133.5 C 144.167,133.5 144.833,133.5 145.5,133.5C 145.5,133.833 145.5,134.167 145.5,134.5C 144.504,149.324 144.171,164.324 144.5,179.5C 143.167,179.5 141.833,179.5 140.5,179.5C 140.5,179.167 140.5,178.833 140.5,178.5C 141.5,178.5 142.5,178.5 143.5,178.5C 143.5,163.5 143.5,148.5 143.5,133.5 Z"/></g>
<g><path style="opacity:1" fill="#fed162" d="M 78.5,134.5 C 78.8333,134.5 79.1667,134.5 79.5,134.5C 80.162,148.025 80.9953,161.691 82,175.5C 85.4657,176.717 88.9657,176.717 92.5,175.5C 92.3893,176.117 92.056,176.617 91.5,177C 87.1428,177.853 82.8095,178.687 78.5,179.5C 78.5,164.5 78.5,149.5 78.5,134.5 Z"/></g>
<g><path style="opacity:1" fill="#febf7f" d="M 74.5,133.5 C 75.4963,148.991 75.8296,164.658 75.5,180.5C 73.901,180.768 72.5676,180.434 71.5,179.5C 72.5,179.5 73.5,179.5 74.5,179.5C 74.5,164.167 74.5,148.833 74.5,133.5 Z"/></g>
<g><path style="opacity:1" fill="#fbae58" d="M 71.5,131.5 C 73.1788,131.285 74.1788,131.952 74.5,133.5C 74.5,148.833 74.5,164.167 74.5,179.5C 73.5,179.5 72.5,179.5 71.5,179.5C 71.5,179.167 71.5,178.833 71.5,178.5C 72.8308,171.364 73.4975,163.864 73.5,156C 73.4377,147.671 72.771,139.504 71.5,131.5 Z"/></g>
<g><path style="opacity:1" fill="#fdc230" d="M 103.5,126.5 C 104.822,126.33 105.989,126.663 107,127.5C 108.676,141.479 108.842,155.479 107.5,169.5C 105.133,168.534 104.466,169.2 105.5,171.5C 104.833,171.5 104.5,171.833 104.5,172.5C 100.56,173.701 96.5603,174.701 92.5,175.5C 88.9657,176.717 85.4657,176.717 82,175.5C 80.9953,161.691 80.162,148.025 79.5,134.5C 86.9399,130.452 94.9399,127.786 103.5,126.5 Z"/></g>
<g><path style="opacity:1" fill="#fbbe83" d="M 138.5,131.5 C 140.781,131.077 142.448,131.744 143.5,133.5C 141.302,133.88 139.635,133.213 138.5,131.5 Z"/></g>
<g><path style="opacity:1" fill="#fdf2d6" d="M 103.5,119.5 C 105.176,120.183 105.843,121.517 105.5,123.5C 107.415,123.216 109.081,123.549 110.5,124.5C 107.612,123.99 105.279,124.656 103.5,126.5C 94.9399,127.786 86.9399,130.452 79.5,134.5C 79.1667,134.5 78.8333,134.5 78.5,134.5C 78.4142,133.504 78.7476,132.671 79.5,132C 77.5,131.5 75.5,131 73.5,130.5C 72.5836,130.543 71.9169,130.876 71.5,131.5C 69.8333,131.5 68.1667,131.5 66.5,131.5C 63.2289,129.642 59.5622,128.308 55.5,127.5C 54.4324,126.566 53.099,126.232 51.5,126.5C 51.3893,125.883 51.056,125.383 50.5,125C 48.1902,124.503 45.8568,124.337 43.5,124.5C 45.081,122.697 47.081,121.364 49.5,120.5C 55.1656,123.429 61.1656,125.929 67.5,128C 73.2885,129.738 79.1218,129.905 85,128.5C 90.8202,125.499 96.9869,123.499 103.5,122.5C 103.5,121.5 103.5,120.5 103.5,119.5 Z"/></g>
<g><path style="opacity:1" fill="#f3ae63" d="M 55.5,127.5 C 59.5622,128.308 63.2289,129.642 66.5,131.5C 63.4788,130.995 60.4788,130.328 57.5,129.5C 56.2867,129.253 55.62,128.586 55.5,127.5 Z"/></g>
<g><path style="opacity:1" fill="#fef0dc" d="M 180.5,123.5 C 181.496,139.658 181.83,155.991 181.5,172.5C 179.5,172.5 177.5,172.5 175.5,172.5C 176.5,171.833 177.5,171.167 178.5,170.5C 179.338,170.158 179.672,169.492 179.5,168.5C 180.496,153.676 180.829,138.676 180.5,123.5 Z"/></g>
<g><path style="opacity:1" fill="#f3eb9f" d="M 175.5,124.5 C 176.919,123.549 178.585,123.216 180.5,123.5C 180.829,138.676 180.496,153.676 179.5,168.5C 179.5,153.833 179.5,139.167 179.5,124.5C 178.167,124.5 176.833,124.5 175.5,124.5 Z"/></g>
<g><path style="opacity:1" fill="#fdcb5b" d="M 175.5,124.5 C 176.833,124.5 178.167,124.5 179.5,124.5C 179.5,139.167 179.5,153.833 179.5,168.5C 179.672,169.492 179.338,170.158 178.5,170.5C 178.5,155.5 178.5,140.5 178.5,125.5C 176.784,125.629 175.117,125.962 173.5,126.5C 173.5,125.167 174.167,124.5 175.5,124.5 Z"/></g>
<g><path style="opacity:1" fill="#fec230" d="M 178.5,170.5 C 177.5,171.167 176.5,171.833 175.5,172.5C 170.849,173.629 166.182,174.629 161.5,175.5C 157.643,177.096 153.643,178.096 149.5,178.5C 149.5,163.5 149.5,148.5 149.5,133.5C 157.074,130.267 165.074,127.934 173.5,126.5C 175.117,125.962 176.784,125.629 178.5,125.5C 178.5,140.5 178.5,155.5 178.5,170.5 Z"/></g>
<g><path style="opacity:1" fill="#f99934" d="M 117.5,125.5 C 124.624,127.097 131.624,129.097 138.5,131.5C 139.635,133.213 141.302,133.88 143.5,133.5C 143.5,148.5 143.5,163.5 143.5,178.5C 142.5,178.5 141.5,178.5 140.5,178.5C 135.007,177.646 129.674,176.312 124.5,174.5C 120.86,173.425 117.526,171.759 114.5,169.5C 114.5,154.833 114.5,140.167 114.5,125.5C 115.5,125.5 116.5,125.5 117.5,125.5 Z"/></g>
<g><path style="opacity:1" fill="#fdbe77" d="M 113.5,124.5 C 115.099,124.232 116.432,124.566 117.5,125.5C 116.5,125.5 115.5,125.5 114.5,125.5C 114.5,140.167 114.5,154.833 114.5,169.5C 113.504,154.676 113.171,139.676 113.5,124.5 Z"/></g>
<g><path style="opacity:1" fill="#fccd4d" d="M 110.5,124.5 C 110.833,139.848 110.499,155.181 109.5,170.5C 108.264,171.246 106.93,171.579 105.5,171.5C 104.466,169.2 105.133,168.534 107.5,169.5C 108.842,155.479 108.676,141.479 107,127.5C 105.989,126.663 104.822,126.33 103.5,126.5C 105.279,124.656 107.612,123.99 110.5,124.5 Z"/></g>
<g><path style="opacity:1" fill="#f99934" d="M 51.5,126.5 C 53.099,126.232 54.4324,126.566 55.5,127.5C 55.62,128.586 56.2867,129.253 57.5,129.5C 60.4788,130.328 63.4788,130.995 66.5,131.5C 68.1667,131.5 69.8333,131.5 71.5,131.5C 72.771,139.504 73.4377,147.671 73.5,156C 73.4975,163.864 72.8308,171.364 71.5,178.5C 64.5834,176.688 57.5834,175.021 50.5,173.5C 49.5144,171.592 47.8477,170.592 45.5,170.5C 45.8167,155.785 45.4833,141.118 44.5,126.5C 46.7175,125.943 49.0509,125.943 51.5,126.5 Z"/></g>
<g><path style="opacity:1" fill="#faae58" d="M 43.5,124.5 C 45.8568,124.337 48.1902,124.503 50.5,125C 51.056,125.383 51.3893,125.883 51.5,126.5C 49.0509,125.943 46.7175,125.943 44.5,126.5C 45.4833,141.118 45.8167,155.785 45.5,170.5C 43.9519,170.179 43.2852,169.179 43.5,167.5C 43.5,153.167 43.5,138.833 43.5,124.5 Z"/></g>
<g><path style="opacity:1" fill="#fef3b7" d="M 171.5,119.5 C 173.8,119.522 174.967,120.522 175,122.5C 172.699,123.867 170.199,124.534 167.5,124.5C 168.678,123.001 170.345,122.001 172.5,121.5C 172.137,120.817 171.804,120.15 171.5,119.5 Z"/></g>
<g><path style="opacity:1" fill="#81c6e0" d="M 182.5,121.5 C 183.167,138.167 183.833,154.833 184.5,171.5C 190.37,173.859 196.37,176.359 202.5,179C 205.793,179.826 209.126,180.326 212.5,180.5C 213.167,180.5 213.833,180.5 214.5,180.5C 214.213,182.121 213.213,183.121 211.5,183.5C 210.476,182.147 209.143,181.48 207.5,181.5C 207.5,182.5 207.5,183.5 207.5,184.5C 197.52,186.782 187.52,189.282 177.5,192C 164.644,196.62 151.644,200.62 138.5,204C 138.833,204.333 139.167,204.667 139.5,205C 138.062,205.219 136.729,205.719 135.5,206.5C 127.848,208.085 120.348,210.085 113,212.5C 104.998,211.704 97.4976,209.538 90.5,206C 82.6123,203.594 74.6123,201.594 66.5,200C 63.6077,198.353 60.6077,196.853 57.5,195.5C 44.5581,191.523 31.5581,187.856 18.5,184.5C 18.3601,182.876 19.0267,181.71 20.5,181C 25.393,179.488 30.393,178.488 35.5,178C 37.4981,176.407 39.4981,174.907 41.5,173.5C 47.3978,175.07 53.3978,176.57 59.5,178C 64.8083,180.97 70.4749,183.136 76.5,184.5C 88.0161,181.327 99.5161,177.994 111,174.5C 114.812,175.146 118.646,175.646 122.5,176C 130.285,179.446 138.285,182.279 146.5,184.5C 158.165,179.859 170.165,176.192 182.5,173.5C 182.5,156.167 182.5,138.833 182.5,121.5 Z"/></g>
<g><path style="opacity:1" fill="#9ed3e9" d="M 10.5,43.5 C 10.5,89.1667 10.5,134.833 10.5,180.5C 20.2422,178.487 29.9089,176.154 39.5,173.5C 39.3334,156.163 39.5001,138.83 40,121.5C 40.2784,120.584 40.7784,119.918 41.5,119.5C 41.5,137.5 41.5,155.5 41.5,173.5C 39.4981,174.907 37.4981,176.407 35.5,178C 30.393,178.488 25.393,179.488 20.5,181C 19.0267,181.71 18.3601,182.876 18.5,184.5C 15.2027,184.671 14.8694,184.005 17.5,182.5C 14.9135,181.52 12.2469,181.187 9.5,181.5C 9.16789,135.33 9.50123,89.3303 10.5,43.5 Z"/></g>
<g><path style="opacity:1" fill="#fdfefe" d="M -0.5,185.5 C 0.608953,185.557 1.60895,185.89 2.5,186.5C 2.5,187.5 2.5,188.5 2.5,189.5C 6.83912,190.334 11.1725,191.334 15.5,192.5C 31.0098,198.987 47.0098,204.153 63.5,208C 70.7445,212.649 78.7445,215.149 87.5,215.5C 87.5,216.5 87.5,217.5 87.5,218.5C 90.1873,218.336 92.854,218.503 95.5,219C 103.173,221.989 111.173,223.489 119.5,223.5C 119.5,222.5 119.5,221.5 119.5,220.5C 122.813,219.955 126.146,219.455 129.5,219C 139.47,215.262 149.47,211.595 159.5,208C 181.19,202.379 202.523,195.879 223.5,188.5C 223.263,187.209 223.596,186.209 224.5,185.5C 224.5,198.5 224.5,211.5 224.5,224.5C 149.5,224.5 74.5,224.5 -0.5,224.5C -0.5,211.5 -0.5,198.5 -0.5,185.5 Z"/></g>
</svg>
