<?xml version="1.0" standalone="no"?><!DOCTYPE svg PUBLIC "-//W3C//DTD SVG 1.1//EN" "http://www.w3.org/Graphics/SVG/1.1/DTD/svg11.dtd"><svg t="1735006673339" class="icon" viewBox="171.55162 308.0539 2325.7212 467.7918" version="1.1" xmlns="http://www.w3.org/2000/svg" p-id="23606" xmlns:xlink="http://www.w3.org/1999/xlink" width="508.7890625" height="200"><path d="M369.577079 308.053881c-23.645927 0-45.32136 10.728245-60.428479 28.024802-23.645927 32.403678-6.568313 77.506094 6.568313 103.341458 12.917682 25.835365 71.156724 118.448578 73.346162 120.638016s4.378875 2.189438 4.378875 0 6.568313-137.934573 2.189438-170.338251c-6.787257-29.995296-15.326064-55.830661-26.054309-81.666025z m-127.206329 62.398973c-4.378875 0-34.374171 32.403678-38.753046 60.42848s10.728245 49.481291 45.32136 73.346162c36.563609 25.835365 120.638016 71.156724 122.827453 68.967287 2.189438-4.378875-32.403678-64.588411-62.398974-109.909771-30.21424-45.32136-62.617917-92.832157-66.996793-92.832158z m10.728245 275.869147c25.835365 10.728245 66.777849-15.10712 77.506094-21.456489l30.21424-21.456489-146.473381 4.378875c8.757751 14.888176 21.675433 27.805858 38.753047 38.534103z m4.378875-118.448578c-25.835365-12.917682-79.695531-43.131922-81.884969-43.131922s-10.728245 38.753047 6.568313 66.777849 49.481291 36.563609 64.588412 38.753047c17.296558 2.189438 116.25914 2.189438 116.25914 0-1.970494-2.189438-79.695531-49.481291-105.530896-62.398974z m241.276032-191.79474c-15.10712-17.296558-36.563609-28.024802-60.42848-28.024802-10.728245 25.835365-19.485995 51.670729-23.645927 79.695531-4.378875 32.403678 2.189438 170.338251 2.189438 170.338251 0 2.189438 2.189438 2.189438 4.378875 0s62.398974-96.992089 73.346162-120.638016c10.728245-23.864871 28.024802-69.18623 4.159932-101.370964z m135.745136 148.662818c-2.189438 0-56.049604 30.21424-81.884969 43.131922-25.835365 12.917682-103.341458 60.42848-105.530896 62.398974 0 2.189438 99.181527 2.189438 116.25914 0 15.10712-2.189438 47.510798-10.728245 64.588412-38.753047 15.326064-28.024802 6.568313-66.777849 6.568313-66.777849z m-157.201625 140.124011c10.728245 6.568313 51.670729 32.403678 77.506094 21.456489 17.296558-8.538807 30.21424-23.645927 38.753046-40.942484l-146.47338-4.378876 30.21424 23.864871z m127.206329-193.984178c-2.189438-28.024802-34.374171-60.42848-38.753047-60.42848s-40.942484 47.510798-68.967287 92.613214c-28.024802 45.32136-62.398974 105.530896-60.42848 109.909771 2.189438 4.378875 86.263844-43.131922 122.827454-68.967287 34.374171-23.645927 47.291854-42.912978 45.32136-73.127218z m0 0" fill="#EA020A" p-id="23607"></path><path d="M442.485354 774.623049h13.35557c1.094719-2.189438 14.888176-43.350866 17.515501-50.357067l0.656831-1.532606 4.378876 12.917682c3.5031 10.728245 7.663032 21.675433 11.385076 32.622622 0.437888 1.094719 0.875775 2.189438 1.094718 3.284156 0.656831 1.75155 0.656831 2.846269 1.532607 2.846269h12.479795c0.875775 0 1.532606-2.627325 2.189437-4.597819l10.509301-29.995296c0.656831-1.75155 1.094719-3.284157 1.75155-5.035707l3.5031-10.071413c1.094719-3.5031 2.408381-6.568313 3.503101-10.071413 0.656831-1.75155 6.787257-19.048108 6.787257-20.361771h-16.201839c-0.875775 0-0.875775 1.313663-1.532607 3.065213l-3.284156 10.071413c-1.532606 4.597819-2.846269 9.195638-4.378875 13.793458l-8.976695 27.367971-4.378875-13.793458c-2.627325-8.757751-6.130425-18.172333-8.976695-27.367971l-3.284156-10.071413c-0.656831-1.75155-0.656831-3.065213-1.532607-3.065213h-12.260851c-0.875775 0-0.875775 1.313663-1.532606 3.065213l-7.881976 24.083814c-1.532606 4.597819-3.065213 8.976694-4.597819 13.574514-0.656831 2.189438-1.313663 4.597819-2.189437 6.787257l-2.189438 7.0062-1.313663-3.284156c-2.408381-6.568313-5.25465-16.639726-7.663032-23.864871-0.218944-0.875775-8.538807-26.054308-8.538806-27.367971h-17.515502c0.656831 3.065213 15.10712 43.56981 17.296558 49.700236 1.313663 3.5031 2.189438 6.568313 3.5031 10.071413l5.25465 14.888176c0.218944 2.189438 1.094719 3.722044 1.532607 5.692538zM174.498183 774.623049h16.201838V742.219371h36.125722v31.746847c0 0.656831 0.218944 0.656831 0.656831 0.656831h15.763952v-79.695531h-16.420783V726.893308H190.700021v-32.184734h-16.201838v79.914475zM544.513149 774.623049h60.209536V759.734873h-44.007697v-19.267052h29.338465v-14.669232h-29.338465v-16.201839h42.475091v-14.888176h-58.67693zM262.513577 742.657259c0 7.444088 2.846269 17.515501 7.881976 22.770152 6.349369 6.568313 11.60402 8.757751 20.799658 10.071413 4.159932 0.656831 5.473594 0.218944 8.319863 0 15.982895-0.437888 25.835365-9.195638 29.995296-22.989096 1.313663-4.159932 1.75155-10.509301 1.75155-15.982895v-41.161428c0-0.656831-0.218944-0.656831-0.656831-0.656831h-15.763952v45.540303c0 7.225144-2.189438 14.888176-9.195638 17.953389-7.006201 3.065213-17.953389 2.189438-22.989095-4.378875-2.846269-3.722044-3.940988-8.757751-3.940988-15.10712v-44.007697h-16.201839v47.948685zM379.867436 715.508232c1.094719 0.656831 5.692538 12.698739 6.130426 13.793457l5.911482 14.231345h-23.864871l11.822963-28.024802z m-41.818259 59.114817h16.420782l5.473595-12.479795c0.437888-1.094719 1.532606-3.065213 1.75155-4.159931h36.344665l7.006201 16.639726h16.420782c1.094719-0.218944 0.656831-0.218944-0.218944-2.408381l-11.385075-25.835365c-0.875775-1.970494-1.532606-3.722044-2.408382-5.692538l-2.408381-5.692538c-4.597819-10.728245-10.290357-23.208039-15.10712-34.374171l-2.627326-5.911482h-14.450288l-8.757751 19.923883c-0.656831 1.532606-1.313663 3.284157-2.189438 4.816763l-3.284156 7.444088c-0.437888 1.094719-0.656831 1.532606-1.094719 2.627325-3.284157 7.881976-7.663032 16.85867-10.947188 24.959589-0.656831 1.970494-8.319863 18.61022-8.538807 20.142827zM622.895018 774.185161h15.763951v-79.476587h-15.763951z" p-id="23608"></path><path d="M1385.47616 650.262989h25.397477c2.189438-4.159932 28.024802-81.447081 32.841565-94.583707l1.313663-2.846269 8.319863 24.521702c6.787257 20.142827 14.450289 40.942484 21.237545 61.304254 0.656831 1.970494 1.532606 4.378875 2.189438 6.130426 1.313663 3.284157 1.094719 5.473594 2.846269 5.473594h23.426983c1.75155 0 2.846269-5.035707 4.159932-8.538807l19.485995-56.268548c1.313663-3.284157 1.970494-6.130425 3.284156-9.414582l6.568313-18.829164c2.189438-6.349369 4.378875-12.260851 6.568313-18.829164 1.094719-3.5031 12.917682-35.687834 12.917683-38.096216h-30.433184c-1.75155 0-1.75155 2.408381-2.846269 5.473595l-6.130425 19.048107c-3.065213 8.757751-5.473594 17.077614-8.319864 25.835365l-16.85867 51.670729-8.319863-25.835365c-5.035707-16.420783-11.60402-34.155228-17.077614-51.451785l-6.349369-19.048108c-1.094719-3.284157-1.313663-5.911482-3.065213-5.911481h-22.989095c-1.75155 0-1.75155 2.408381-2.846269 5.473594l-14.888176 45.102416-8.538807 25.616421c-1.313663 4.159932-2.627325 8.538807-4.159932 12.698738l-4.159931 13.136626-2.189438-6.130425c-4.378875-12.479795-9.85247-31.527903-14.231345-44.664529-0.437888-1.532606-15.982895-49.262348-16.201839-51.232841h-32.841565c1.313663 5.911482 28.46269 81.884969 32.622621 93.488988 2.189438 6.568313 4.159932 12.479795 6.34937 18.829164l9.852469 28.024803c0.656831 3.5031 2.189438 6.349369 3.065213 9.852469zM901.39149 650.262989h30.433184v-60.866367h67.872568v59.552704c0 1.094719 0.218944 1.313663 1.313662 1.313663h29.557409v-149.976481h-30.871071v60.42848h-67.872568v-60.42848h-30.433184V650.262989zM1570.702587 650.262989H1683.677571v-27.586915h-82.322856v-36.563609h54.735941V558.306607h-54.735941v-30.433184h79.476587v-27.586915h-110.128715zM1066.694035 590.272397c0 14.012401 5.473594 33.060509 14.888176 42.694034 11.822963 12.260851 21.675433 16.420783 39.190934 18.829164 7.881976 1.094719 10.290357 0.218944 15.763951 0.218944 29.995296-0.656831 48.605516-17.515501 56.268549-43.131922 2.408381-7.881976 3.284157-19.704939 3.284156-29.995296v-77.28715c0-1.094719-0.218944-1.313663-1.313662-1.313663h-29.557409v85.825957c0 13.574514-4.159932 27.805858-17.296558 33.71734-13.136626 5.911482-33.936284 4.159932-43.131922-8.100919-5.25465-7.006201-7.663032-16.420783-7.663032-28.46269v-82.979688h-30.433183v89.985889zM1274.033782 539.258499c1.970494 1.313663 10.728245 23.645927 11.60402 25.835365l11.166132 26.711139h-44.883472l22.11332-52.546504zM1195.870857 650.262989h30.871072l10.290357-23.426983c0.875775-2.189438 2.846269-5.692538 3.284156-7.881976h68.310456l13.136626 31.308959h30.871071c1.970494-0.437888 1.313663-0.218944-0.437888-4.378875l-21.456489-48.386573c-1.532606-3.722044-3.065213-7.225144-4.816763-10.728244l-4.816763-10.728245c-8.538807-20.36177-19.267052-43.56981-28.243746-64.588411l-4.816763-11.166133h-27.149027l-16.420782 37.439385c-1.094719 2.846269-2.627325 6.130425-3.940988 9.195638l-6.130426 14.012401c-0.875775 1.970494-1.313663 2.846269-2.189437 4.816763-6.130425 14.888176-14.450289 31.96579-20.580714 46.853966-1.313663 3.722044-15.545007 34.812059-15.763952 37.658328zM1704.696173 649.825102h29.995296v-149.538594h-29.995296z" p-id="23609"></path><path d="M2497.272611 573.632671c-0.218944 1.75155-0.656831 3.5031-0.656832 5.035706-0.218944 11.822963-3.5031 22.989096-8.976694 33.279453-10.947188 20.36177-28.243746 32.184734-50.57601 36.344665-5.473594 1.094719-10.947188 1.532606-16.420783 1.532607-15.763951 0.218944-31.527903 0-47.291854 0-0.875775 0-1.75155 0-2.846269-0.218944v-147.130212c0.875775 0 1.970494-0.218944 2.846269-0.218944 17.296558 0 34.812059-0.218944 52.108617 0 10.947188 0.218944 21.894377 1.970494 32.184734 5.911482 21.456489 8.319863 33.936284 24.083814 38.096215 46.416079 0.656831 3.5031 0.656831 7.006201 0.875775 10.509301 0.218944 1.313663 0.437888 2.408381 0.656832 3.722044v4.816763z m-96.992089 53.641223c8.319863-0.218944 16.201839 0 24.083814-0.656832 18.391276-1.75155 31.090015-11.60402 37.877272-28.681633 4.816763-12.479795 5.473594-25.397477 3.284156-38.31516-3.065213-18.172333-14.669232-29.776352-32.841565-32.841565-10.509301-1.75155-21.018602-1.094719-31.746846-1.094719-0.218944 0-0.437888 0.218944-0.875775 0.437888 0.218944 33.498396 0.218944 66.996793 0.218944 101.152021zM2045.591619 578.668377c0-11.166132 1.313663-21.237545 4.816762-31.090015 7.663032-21.894377 22.551208-36.344665 44.664529-43.131922 16.85867-5.25465 34.155228-5.473594 51.013898-0.875775 22.770152 6.130425 38.096216 20.799658 45.102416 43.131922 6.130425 19.485995 5.911482 39.409878-0.875775 58.67693-7.444088 21.675433-22.551208 36.125722-44.445585 42.912978-17.077614 5.25465-34.374171 5.692538-51.451785 0.875775-25.397477-7.225144-40.504597-24.302758-46.635023-49.700235-1.532606-7.225144-2.408381-14.450289-2.189437-20.799658z m30.871071-5.035706c0 13.136626 1.532606 22.989096 5.911481 32.184733 5.911482 12.479795 15.545007 20.580714 29.338465 22.770152 4.378875 0.656831 8.976694 0.656831 13.574514 0.437888 7.881976-0.437888 14.888176-3.284157 21.237545-8.10092 7.444088-5.911482 12.041907-13.574514 14.669233-22.332264 4.597819-15.763951 4.159932-31.527903-0.656832-47.291854-1.75155-5.911482-4.816763-10.947188-8.976694-15.545007-7.881976-8.319863-17.515501-11.60402-28.900577-11.822964-19.704939-0.437888-34.374171 9.414582-41.599316 27.586915-3.284157 7.881976-4.597819 16.201839-4.597819 22.113321zM2313.359846 502.69489h29.119521c0.218944 1.094719 0.218944 1.970494 0.218944 3.065213 0 31.527903 0.218944 63.274749 0 94.802651-0.218944 22.989096-12.698739 40.285653-33.936284 47.729741-3.722044 1.313663-7.663032 2.408381-11.60402 2.846269-14.012401 2.189438-28.243746 1.75155-41.818259-2.627325-15.763951-5.25465-27.149027-15.10712-32.403678-31.308959-1.75155-5.473594-2.627325-10.947188-2.627325-16.639726v-95.240539c0-0.656831 0-1.532606 0.218944-2.408381h29.119521v90.642719c0 3.722044 0.218944 7.663032 0.875775 11.166132 2.189438 12.260851 9.85247 19.923883 21.894377 22.551209 5.911482 1.313663 12.041907 1.313663 17.953388 0 12.260851-2.408381 19.704939-10.290357 21.894377-22.989096 0.656831-3.940988 0.875775-7.663032 0.875775-11.60402v-84.950181c0.218944-1.75155 0.218944-3.284157 0.218944-5.035707zM1928.237759 511.014753c-2.408381 7.444088-4.597819 14.669232-6.787257 21.456489-6.568313-2.189438-12.917682-4.816763-19.267051-6.568313-7.881976-2.189438-16.201839-2.627325-24.302758-1.532606-15.10712 2.408381-25.616421 10.728245-31.527903 24.521702-5.035707 11.60402-5.911482 23.645927-4.816763 35.906778 0.437888 5.25465 1.532606 10.509301 3.284157 15.545007 5.692538 17.296558 19.267052 27.367971 37.439384 28.46269 12.917682 0.875775 25.397477-1.532606 37.220441-6.349369 1.313663-0.437888 2.627325-0.875775 4.159931-1.532607 2.189438 7.225144 4.159932 14.231345 6.349369 21.237546-1.313663 0.656831-2.408381 1.313663-3.5031 1.75155-12.041907 5.473594-24.740646 7.881976-37.658328 8.100919-11.166132 0.218944-22.113321-0.656831-32.841565-4.159931-21.018602-6.787257-35.031003-20.580714-41.161428-41.81826-5.911482-20.142827-5.692538-40.504597 1.313662-60.209536 8.757751-24.740646 26.930083-39.409878 52.546505-44.007697 19.048108-3.5031 37.439384-1.094719 54.954885 6.787257 1.532606 0.656831 3.065213 1.532606 4.597819 2.408381zM1951.445799 502.475946h26.054308c1.094719 0 1.970494 0 3.5031 0.218944v122.389566h59.114817c-0.656831 8.538807-1.313663 16.420783-2.189437 24.740646h-86.482788v-147.349156z" p-id="23610"></path></svg>