<?xml version="1.0" standalone="no"?><!DOCTYPE svg PUBLIC "-//W3C//DTD SVG 1.1//EN" "http://www.w3.org/Graphics/SVG/1.1/DTD/svg11.dtd"><svg t="1735006352512" class="icon" viewBox="36.553436 85.35595 1023.9988 895.929" version="1.1" xmlns="http://www.w3.org/2000/svg" p-id="18385" xmlns:xlink="http://www.w3.org/1999/xlink" width="214.2578125" height="200"><path d="M745.691 214.528H372.517l-186.588 321.61 186.514 321.389h373.248l186.588-321.39-186.514-321.536zM548.352 671.525a138.094 138.094 0 1 1 0-276.334 138.167 138.167 0 1 1 0 276.334z" fill="#E2E2E2" p-id="18386"></path><path d="M132.681 354.011L43.593 507.392a50.469 50.469 0 0 0 0 51.42l229.961 396.141a51.931 51.931 0 0 0 44.837 25.966h459.922c18.798 0 35.84-9.874 44.764-25.966l90.404-155.575h-522.24L132.754 354.011z" fill="#FBBF10" p-id="18387"></path><path d="M600.722 981.285h178.103c18.725 0 35.84-9.802 44.69-25.893l229.962-396.142a50.25 50.25 0 0 0 0-51.42L823.589 111.69a50.322 50.322 0 0 0-44.69-26.332H597.576L859.282 535.99l-258.56 445.294z" fill="#EA4638" p-id="18388"></path><path d="M237.86 535.99l157.477-271.36H912.53L823.59 111.69a50.761 50.761 0 0 0-44.69-25.967h-460.07a52.15 52.15 0 0 0-45.202 25.966L132.242 354.011l105.619 181.98z" fill="#4E8DF5" p-id="18389"></path></svg>