<?xml version="1.0" encoding="UTF-8"?>
<svg width="1304px" height="385px" viewBox="0.59077334 0.9857807 1302.7992 384.01422" version="1.1" xmlns="http://www.w3.org/2000/svg" xmlns:xlink="http://www.w3.org/1999/xlink">
    
    <defs>
        <linearGradient x1="-0.000236577655%" y1="50.0000842%" x2="99.9872647%" y2="50.0000842%" id="linearGradient-1">
            <stop stop-color="#8C85FF" offset="5%"></stop>
            <stop stop-color="#8787FF" offset="9%"></stop>
            <stop stop-color="#778DFE" offset="13%"></stop>
            <stop stop-color="#5E96FE" offset="18%"></stop>
            <stop stop-color="#3AA2FD" offset="23%"></stop>
            <stop stop-color="#1AAEFC" offset="26%"></stop>
            <stop stop-color="#1EB4FC" offset="31%"></stop>
            <stop stop-color="#2AC3FA" offset="36%"></stop>
            <stop stop-color="#3EDDF8" offset="42%"></stop>
            <stop stop-color="#45E6F7" offset="44%"></stop>
            <stop stop-color="#3CE7EF" offset="49%"></stop>
            <stop stop-color="#23E9D8" offset="57%"></stop>
            <stop stop-color="#00EDB9" offset="66%"></stop>
            <stop stop-color="#7AFFC3" offset="82%"></stop>
            <stop stop-color="#45E6F7" offset="100%"></stop>
        </linearGradient>
    </defs>
    <g id="Page-1" stroke="none" stroke-width="1" fill="none" fill-rule="evenodd">
        <g id="60574dfd9bd40a6913dce61f_terratag-logo---negative3">
            <path d="M377.7,230.49 L361.8,230.49 C359.1,230.49 357.8,229.36 357.8,227.11 L357.8,217.48 C357.8,215.06 359.14,213.84 361.8,213.84 L377.7,213.84 C379.62,213.84 380.59,213.06 380.59,211.5 L380.59,189.13 C380.59,186.696667 381.94,185.483333 384.64,185.489973 L397.64,185.489973 C400.14,185.489973 401.4,186.7 401.4,189.13 L401.4,211.5 C401.4,213.06 402.46,213.84 404.58,213.84 L435.21,213.84 C438.1,213.84 439.55,215.06 439.55,217.48 L439.55,227.11 C439.55,229.363333 438.103333,230.49 435.21,230.49 L404.58,230.49 C402.46,230.49 401.4,231.27 401.4,232.83 L401.4,307.74 C401.4,322.48 409.876667,329.85 426.83,329.85 L438.1,329.85 C440.99,329.85 442.44,331.07 442.44,333.49 L442.44,343.12 C442.44,345.373333 440.993333,346.5 438.1,346.5 L424.23,346.5 C410.936667,346.5 400.34,343.166667 392.44,336.5 C384.54,329.833333 380.59,320.5 380.59,308.5 L380.59,232.83 C380.59,231.27 379.62,230.49 377.7,230.49 Z" id="Path" fill="#FFFFFF" fill-rule="nonzero"></path>
            <path d="M574.23,346.5 L513,346.5 C499.666667,346.5 489.213333,343.12 481.64,336.36 C474.066667,329.6 470.246667,320.146667 470.18,308 L470.18,252.34 C470.18,240.2 473.986667,230.75 481.6,223.99 C489.213333,217.23 499.68,213.846667 513,213.84 L537.28,213.84 C550.566667,213.84 560.97,217.223333 568.49,223.99 C576.01,230.756667 579.766667,240.206667 579.760009,252.34 L579.760009,285.34 C579.760009,287.94 578.426667,289.24 575.76,289.24 L493.96,289.24 C492.04,289.24 491.07,290.02 491.07,291.59 L491.07,307.45 C491.07,322.536667 499.163333,330.08 515.35,330.08 L574.35,330.08 C577.05,330.08 578.35,331.3 578.35,333.72 L578.35,343.09 C578.303333,345.363333 576.93,346.5 574.23,346.5 Z M493.88,275.5 L556.31,275.5 C558.24,275.5 559.2,274.63 559.2,272.9 L559.2,252.9 C559.2,237.986667 551.106667,230.53 534.92,230.53 L515.27,230.53 C499.09,230.53 490.996667,237.986667 490.99,252.9 L490.99,272.9 C491,274.62 492,275.49 493.88,275.49 L493.88,275.5 Z" id="Shape" fill="#FFFFFF" fill-rule="nonzero"></path>
            <path d="M632.32,346.500027 L619.32,346.500027 C616.62,346.500027 615.32,345.29 615.32,342.86 L615.32,217.48 C615.32,215.06 616.66,213.84 619.32,213.84 L632.32,213.84 C635.02,213.84 636.32,215.06 636.32,217.48 L636.32,227.89 L637.47,227.89 C639.403333,224.083333 643.07,220.786667 648.47,218 C654.401957,215.106625 660.941961,213.679964 667.54,213.84 L678.81,213.84 C681.31,213.84 682.57,215.06 682.57,217.48 L682.57,227.11 C682.644135,228.098288 682.33229,229.076837 681.7,229.84 C680.896403,230.507091 679.821837,230.748776 678.81,230.49 L663.21,230.49 C654.543333,230.49 647.876667,232.823333 643.21,237.49 C638.543333,242.156667 636.233333,248.573333 636.28,256.74 L636.28,342.84 C636.34,345.286667 635.02,346.506667 632.32,346.500027 Z" id="Path" fill="#FFFFFF" fill-rule="nonzero"></path>
            <path d="M725.67,346.500027 L712.67,346.500027 C710.003333,346.500027 708.67,345.286667 708.67,342.86 L708.67,217.48 C708.67,215.06 710.02,213.84 712.67,213.84 L725.67,213.84 C728.37,213.84 729.72,215.06 729.72,217.48 L729.72,227.89 L730.87,227.89 C732.796667,224.083333 736.463333,220.786667 741.87,218 C747.801957,215.106625 754.341961,213.679964 760.94,213.84 L772.2,213.84 C774.71,213.84 775.96,215.06 775.96,217.48 L775.96,227.11 C776.034135,228.098288 775.72229,229.076837 775.09,229.84 C774.287148,230.508605 773.211812,230.750462 772.2,230.49 L756.6,230.49 C747.933333,230.49 741.266667,232.823333 736.6,237.49 C731.933333,242.156667 729.623333,248.573333 729.67,256.74 L729.67,342.84 C729.703333,345.286667 728.37,346.506667 725.67,346.500027 Z" id="Path" fill="#FFFFFF" fill-rule="nonzero"></path>
            <path d="M856.88,346.500007 L841.88,346.500007 C828.546667,346.500007 818.093333,343.12 810.52,336.36 C802.946667,329.6 799.133333,320.146667 799.08,308 L799.08,252.34 C799.08,240.2 802.886667,230.75 810.5,223.99 C818.113333,217.23 828.566667,213.846667 841.86,213.84 L904.57,213.84 C907.27,213.84 908.57,215.06 908.57,217.48 L908.57,342.86 C908.57,345.286667 907.236667,346.500007 904.57,346.500007 L891.57,346.500007 C888.87,346.500007 887.52,345.286667 887.52,342.86 L887.52,332.71 L886.36,332.71 C881.553333,341.91 871.726667,346.506667 856.88,346.500007 Z M887.52,305.92 L887.52,232.83 C887.52,231.27 886.52,230.49 884.63,230.49 L844.17,230.49 C828.17,230.49 820.17,238.033333 820.17,253.12 L820.17,307.22 C820.17,322.306667 828.17,329.85 844.17,329.85 L860.64,329.85 C869.306667,329.85 875.953333,327.77 880.58,323.61 C885.206667,319.45 887.52,313.553333 887.52,305.92 Z" id="Shape" fill="#FFFFFF" fill-rule="nonzero"></path>
            <path d="M954,230.49 L938.1,230.49 C935.4,230.49 934.1,229.36 934.1,227.11 L934.1,217.48 C934.1,215.06 935.44,213.84 938.1,213.84 L954,213.84 C955.93,213.84 956.89,213.06 956.89,211.5 L956.89,189.13 C956.89,186.696667 958.223333,185.483333 960.89,185.489973 L973.89,185.489973 C976.39,185.489973 977.65,186.7 977.65,189.13 L977.65,211.5 C977.65,213.06 978.71,213.84 980.83,213.84 L1011.47,213.84 C1014.36,213.84 1015.8,215.06 1015.8,217.48 L1015.8,227.11 C1015.8,229.363333 1014.35667,230.49 1011.47,230.49 L980.83,230.49 C978.71,230.49 977.65,231.27 977.65,232.83 L977.65,307.74 C977.65,322.48 986.126667,329.85 1003.08,329.85 L1014.36,329.85 C1017.25,329.85 1018.69,331.07 1018.69,333.49 L1018.69,343.12 C1018.69,345.373333 1017.24667,346.5 1014.36,346.5 L1000.48,346.5 C987.193333,346.5 976.596667,343.166667 968.69,336.5 C960.783333,329.833333 956.833333,320.5 956.84,308.5 L956.84,232.83 C956.88,231.27 955.92,230.49 954,230.49 Z" id="Path" fill="#FFFFFF" fill-rule="nonzero"></path>
            <path d="M1104.28,346.500007 L1089.28,346.500007 C1075.99333,346.500007 1065.54,343.12 1057.92,336.36 C1050.3,329.6 1046.48667,320.146667 1046.48,308 L1046.48,252.34 C1046.48,240.2 1050.28333,230.75 1057.89,223.99 C1065.49667,217.23 1075.95,213.846667 1089.25,213.84 L1152,213.84 C1154.69,213.84 1156,215.06 1156,217.48 L1156,342.86 C1156,345.286667 1154.66667,346.500007 1152,346.500007 L1139,346.500007 C1136.3,346.500007 1135,345.29 1135,342.86 L1135,332.71 L1133.84,332.71 C1128.96667,341.91 1119.11333,346.506667 1104.28,346.500007 Z M1134.92,305.92 L1134.92,232.83 C1134.92,231.27 1133.92,230.49 1132.02,230.49 L1091.56,230.49 C1075.56,230.49 1067.56,238.033333 1067.56,253.12 L1067.56,307.22 C1067.56,322.306667 1075.56,329.85 1091.56,329.85 L1108,329.85 C1116.66667,329.85 1123.31333,327.77 1127.94,323.61 C1132.56667,319.45 1134.89333,313.553333 1134.92,305.92 Z" id="Shape" fill="#FFFFFF" fill-rule="nonzero"></path>
            <path d="M1251.67,339.48 L1235.49,339.48 C1222.38333,339.48 1212.17,336.096667 1204.85,329.33 C1197.53,322.563333 1193.86333,313.113333 1193.85,300.98 L1193.85,252.34 C1193.85,240.2 1197.65667,230.75 1205.27,223.99 C1212.88333,217.23 1223.33333,213.846667 1236.62,213.84 L1299.34,213.84 C1302.04,213.84 1303.39,215.06 1303.39,217.48 L1303.39,346.48 C1303.39,358.48 1299.58333,367.886667 1291.97,374.7 C1284.35667,381.513333 1273.91,384.946667 1260.63,385 L1207.45,385 C1204.56,385 1203.12,383.78 1203.12,381.36 L1203.12,371.73 C1203.12,369.303333 1204.56333,368.09 1207.45,368.09 L1258,368.09 C1274.19333,368.09 1282.28667,360.633333 1282.28,345.72 L1282.28,325.72 L1281.12,325.72 C1276.13333,334.893333 1266.31667,339.48 1251.67,339.48 Z M1282.31,298.9 L1282.31,232.83 C1282.31,231.27 1281.31,230.49 1279.42,230.49 L1239.25,230.49 C1223.05667,230.49 1214.96333,238.033333 1214.97,253.12 L1214.97,300.2 C1214.97,315.293333 1223.06333,322.836667 1239.25,322.830004 L1255.43,322.830004 C1264.09667,322.830004 1270.74333,320.75 1275.37,316.59 C1279.99667,312.43 1282.31,306.533333 1282.31,298.9 L1282.31,298.9 Z" id="Shape" fill="#FFFFFF" fill-rule="nonzero"></path>
            <path d="M325.23,51.18 C325.171692,48.4430921 322.966908,46.2383082 320.23,46.18 L186.71,43.9093715 C185.32148,43.8882994 183.983261,44.4293582 183,45.41 L2.09,221.49 C0.0910311974,223.489396 0.0910311974,226.730604 2.09,228.73 L137.81,364.45 C139.812826,366.450115 143.057174,366.450115 145.06,364.45 L326,188.37 C326.992078,187.398457 327.535461,186.058113 327.501633,184.67 L325.23,51.18 Z M181.56,213.36 L120.83,274.1 C118.597269,276.327605 114.982731,276.327605 112.75,274.1 L99.17,260.52 C96.942395,258.287269 96.942395,254.672731 99.17,252.44 L159.91,191.71 C162.142731,189.482395 165.757269,189.482395 167.99,191.71 L181.56,205.28 C183.787605,207.512731 183.787605,211.127269 181.56,213.36 L181.56,213.36 Z M291.73,99.06 C286.235029,104.553858 277.326916,104.553256 271.832687,99.0586565 C266.338458,93.5640566 266.338458,84.6559434 271.832687,79.1613435 C277.326916,73.6667435 286.235029,73.6661421 291.73,79.16 C294.369253,81.7987187 295.852015,85.3779102 295.852015,89.11 C295.852015,92.8420898 294.369253,96.4212813 291.73,99.06 L291.73,99.06 Z" id="Shape" fill="url(#linearGradient-1)" fill-rule="nonzero"></path>
            <circle id="Oval" fill="#0E0E38" fill-rule="nonzero" cx="239.74" cy="207.78" r="15.31"></circle>
            <rect id="Rectangle" fill="#0E0E38" fill-rule="nonzero" transform="translate(184.063760, 152.086250) rotate(-135.000000) translate(-184.063760, -152.086250) " x="142.49876" y="136.77125" width="83.13" height="30.63" rx="6.84"></rect>
            <path d="M325.23,51.18 L325.89,90.66 C335.11,88.37 343.81,83.19 351.89,75.14 C362.48,64.55 370.42,46.2 357.95,29.37 C345.31,12.37 323.95,13.09 308.44,21.37 C297.38,27.29 289.44,39.37 286.44,44.28 L285.7,45.54 L320.21,46.12 C322.977625,46.168624 325.203342,48.4120767 325.23,51.18 Z" id="Path"></path>
            <path d="M271.82,79.16 C266.765995,84.2113418 266.300857,92.2487847 270.738418,97.8494163 C275.175979,103.450048 283.10684,104.83507 289.18,101.07 C285.159817,99.4574737 281.310718,97.4475005 277.69,95.07 L277.52,94.95 C274.278089,92.6083127 273.548313,88.0819115 275.89,84.84 C278.231687,81.5980885 282.758089,80.8683127 286,83.21 C289.078491,85.2653614 292.379446,86.9661582 295.84,88.28 C295.524025,82.7424478 291.982028,77.9081449 286.797195,75.9379084 C281.612362,73.9676718 275.753743,75.2297405 271.84,79.16 L271.82,79.16 Z" id="Path"></path>
            <path d="M369.53,20.76 C356.72,3.48 330.74,-7 301.58,8.64 C284.3,17.88 273.98,36.64 272.09,40.3 L269.51,45.3 L285.68,45.57 L286.42,44.31 C289.35,39.39 297.34,27.31 308.42,21.4 C323.96,13.09 345.29,12.33 357.93,29.4 C370.4,46.23 362.46,64.58 351.87,75.17 C343.87,83.17 335.13,88.4 325.87,90.69 C322.253089,91.5713244 318.542722,92.0111959 314.82,92 C308.309194,91.9457437 301.865643,90.6773815 295.82,88.26 C292.359446,86.9461582 289.058491,85.2453614 285.98,83.19 C282.718759,80.8538357 278.181165,81.6037587 275.845,84.8650001 C273.508836,88.1262415 274.258759,92.6638355 277.52,95 L277.69,95.12 C281.310718,97.4975005 285.159817,99.5074737 289.18,101.12 C297.403119,104.515676 306.203593,106.294784 315.1,106.36 C318.789296,106.358522 322.470918,106.023829 326.1,105.36 C339.1,102.97 351.18,96.36 362.04,85.44 C370.235196,77.4215699 375.800961,67.1025856 378,55.85 C380.264396,43.4818945 377.187137,30.7332528 369.53,20.76 Z" id="Path" fill="#FFFFFF" fill-rule="nonzero"></path>
        </g>
    </g>
</svg>