<?xml version="1.0" encoding="UTF-8"?>
<!DOCTYPE svg PUBLIC "-//W3C//DTD SVG 1.1//EN" "http://www.w3.org/Graphics/SVG/1.1/DTD/svg11.dtd">
<svg xmlns="http://www.w3.org/2000/svg" version="1.1" width="400px" height="400px" style="shape-rendering:geometricPrecision; text-rendering:geometricPrecision; image-rendering:optimizeQuality; fill-rule:evenodd; clip-rule:evenodd" xmlns:xlink="http://www.w3.org/1999/xlink">
<g><path style="opacity:0.995" fill="#131417" d="M 261.5,92.5 C 264.526,99.4118 266.859,106.579 268.5,114C 267.564,116.705 266.231,119.205 264.5,121.5C 260,123.583 255.666,125.916 251.5,128.5C 247.163,129.835 242.829,131.168 238.5,132.5C 233.644,133.544 228.978,134.877 224.5,136.5C 219.697,136.994 215.03,137.994 210.5,139.5C 205.733,139.526 201.066,140.193 196.5,141.5C 190.966,141.668 185.633,142.335 180.5,143.5C 176.846,143.942 173.179,144.276 169.5,144.5C 164.833,144.5 160.167,144.5 155.5,144.5C 148.95,144.655 142.617,143.655 136.5,141.5C 133.128,140.295 130.962,137.961 130,134.5C 129.205,127.42 129.372,120.42 130.5,113.5C 136.535,81.6309 155.535,62.4642 187.5,56C 214.04,52.5112 236.207,60.6778 254,80.5C 256.761,84.3599 259.261,88.3599 261.5,92.5 Z"/></g>
<g><path style="opacity:0.994" fill="#7c66f6" d="M 261.5,92.5 C 264.5,92.5 267.5,92.5 270.5,92.5C 271.278,93.1556 271.944,93.9889 272.5,95C 271.539,105.64 271.206,116.14 271.5,126.5C 272.168,130.197 272.835,133.863 273.5,137.5C 271.579,138.363 269.579,139.029 267.5,139.5C 266.833,139.5 266.167,139.5 265.5,139.5C 264.97,133.476 264.636,127.476 264.5,121.5C 266.231,119.205 267.564,116.705 268.5,114C 266.859,106.579 264.526,99.4118 261.5,92.5 Z"/></g>
<g><path style="opacity:0.977" fill="#7c50fb" d="M 287.5,93.5 C 291.549,94.2863 295.549,95.2863 299.5,96.5C 299.739,98.4672 299.406,100.301 298.5,102C 300.058,109.998 300.725,117.831 300.5,125.5C 295.446,128.694 290.112,131.361 284.5,133.5C 285.114,130.061 285.114,126.228 284.5,122C 285.167,121.667 285.833,121.333 286.5,121C 285.22,118.868 285.22,116.702 286.5,114.5C 285.96,113.252 285.293,112.085 284.5,111C 285.833,109.667 285.833,108.333 284.5,107C 285.167,106.667 285.833,106.333 286.5,106C 285.167,103 285.167,100 286.5,97C 285.833,96.6667 285.167,96.3333 284.5,96C 285.942,95.6232 286.942,94.7899 287.5,93.5 Z"/></g>
<g><path style="opacity:0.95" fill="#7b47fc" d="M 299.5,96.5 C 304.198,97.4555 308.532,99.2888 312.5,102C 316.323,106.295 316.489,110.795 313,115.5C 309.441,119.683 305.275,123.016 300.5,125.5C 300.725,117.831 300.058,109.998 298.5,102C 299.406,100.301 299.739,98.4672 299.5,96.5 Z"/></g>
<g><path style="opacity:0.988" fill="#80e8ea" d="M 130.5,113.5 C 129.372,120.42 129.205,127.42 130,134.5C 130.962,137.961 133.128,140.295 136.5,141.5C 135.933,148.068 135.933,154.401 136.5,160.5C 131.453,160.663 126.453,160.329 121.5,159.5C 121.872,155.352 121.872,151.352 121.5,147.5C 123.53,144.794 123.53,142.294 121.5,140C 121.515,132.167 121.849,124.334 122.5,116.5C 124.936,115.129 127.603,114.129 130.5,113.5 Z"/></g>
<g><path style="opacity:0.998" fill="#7c5cf9" d="M 270.5,92.5 C 276.172,92.7599 281.839,93.0932 287.5,93.5C 286.942,94.7899 285.942,95.6232 284.5,96C 285.167,96.3333 285.833,96.6667 286.5,97C 285.167,100 285.167,103 286.5,106C 285.833,106.333 285.167,106.667 284.5,107C 285.833,108.333 285.833,109.667 284.5,111C 285.293,112.085 285.96,113.252 286.5,114.5C 285.22,116.702 285.22,118.868 286.5,121C 285.833,121.333 285.167,121.667 284.5,122C 285.114,126.228 285.114,130.061 284.5,133.5C 280.946,135.109 277.279,136.442 273.5,137.5C 272.835,133.863 272.168,130.197 271.5,126.5C 271.206,116.14 271.539,105.64 272.5,95C 271.944,93.9889 271.278,93.1556 270.5,92.5 Z"/></g>
<g><path style="opacity:0.993" fill="#81f4e9" d="M 122.5,116.5 C 121.849,124.334 121.515,132.167 121.5,140C 123.53,142.294 123.53,144.794 121.5,147.5C 121.872,151.352 121.872,155.352 121.5,159.5C 116.819,159.331 112.152,158.998 107.5,158.5C 108.13,154.996 108.797,151.496 109.5,148C 109.361,139.766 109.028,131.266 108.5,122.5C 112.844,119.935 117.51,117.935 122.5,116.5 Z"/></g>
<g><path style="opacity:0.985" fill="#81fee8" d="M 108.5,122.5 C 109.028,131.266 109.361,139.766 109.5,148C 108.797,151.496 108.13,154.996 107.5,158.5C 100.961,157.042 94.6274,154.876 88.5,152C 82.0616,146.117 82.0616,140.117 88.5,134C 94.5559,129.112 101.223,125.279 108.5,122.5 Z"/></g>
<g><path style="opacity:1" fill="#7b6ff3" d="M 264.5,121.5 C 264.636,127.476 264.97,133.476 265.5,139.5C 261.303,141.232 256.97,142.565 252.5,143.5C 251.996,138.839 251.663,133.839 251.5,128.5C 255.666,125.916 260,123.583 264.5,121.5 Z"/></g>
<g><path style="opacity:0.999" fill="#7b7cf1" d="M 251.5,128.5 C 251.663,133.839 251.996,138.839 252.5,143.5C 247.673,145.072 242.673,146.406 237.5,147.5C 236.795,143.823 236.462,139.989 236.5,136C 236.978,134.697 237.645,133.531 238.5,132.5C 242.829,131.168 247.163,129.835 251.5,128.5 Z"/></g>
<g><path style="opacity:0.999" fill="#7985eb" d="M 238.5,132.5 C 237.645,133.531 236.978,134.697 236.5,136C 236.462,139.989 236.795,143.823 237.5,147.5C 233.582,148.751 229.582,149.751 225.5,150.5C 224.909,146.097 224.576,141.43 224.5,136.5C 228.978,134.877 233.644,133.544 238.5,132.5 Z"/></g>
<g><path style="opacity:1" fill="#7b93ed" d="M 224.5,136.5 C 224.576,141.43 224.909,146.097 225.5,150.5C 220.613,151.903 215.613,152.569 210.5,152.5C 210.847,148.661 210.847,144.328 210.5,139.5C 215.03,137.994 219.697,136.994 224.5,136.5 Z"/></g>
<g><path style="opacity:0.982" fill="#131417" d="M 265.5,139.5 C 266.167,139.5 266.833,139.5 267.5,139.5C 264.039,157.096 255.039,171.096 240.5,181.5C 255.528,194.326 267.028,191.66 275,173.5C 276.097,168.946 277.263,164.446 278.5,160C 284.882,159.756 291.215,160.256 297.5,161.5C 296.336,178.999 289.003,193.165 275.5,204C 260.599,211.68 246.432,210.514 233,200.5C 234.935,217.721 236.435,235.055 237.5,252.5C 226.162,252.667 214.828,252.5 203.5,252C 205.799,244.897 205.966,237.73 204,230.5C 201.368,227.808 199.034,228.141 197,231.5C 196.564,233.847 196.064,236.181 195.5,238.5C 196.331,243.15 196.998,247.817 197.5,252.5C 186.5,252.5 175.5,252.5 164.5,252.5C 165.134,235.098 166.3,217.765 168,200.5C 157.265,216.086 151.765,233.42 151.5,252.5C 145.167,252.5 138.833,252.5 132.5,252.5C 132.306,225.745 140.639,202.079 157.5,181.5C 150.092,175.428 143.759,168.428 138.5,160.5C 143.74,159.551 149.073,159.218 154.5,159.5C 159.595,159.779 164.595,159.445 169.5,158.5C 173.869,158.533 178.202,158.2 182.5,157.5C 187.219,157.112 191.886,156.445 196.5,155.5C 201.339,154.734 206.006,153.734 210.5,152.5C 215.613,152.569 220.613,151.903 225.5,150.5C 229.582,149.751 233.582,148.751 237.5,147.5C 242.673,146.406 247.673,145.072 252.5,143.5C 256.97,142.565 261.303,141.232 265.5,139.5 Z"/></g>
<g><path style="opacity:0.999" fill="#7ca0ed" d="M 210.5,139.5 C 210.847,144.328 210.847,148.661 210.5,152.5C 206.006,153.734 201.339,154.734 196.5,155.5C 196.51,151.162 196.51,146.495 196.5,141.5C 201.066,140.193 205.733,139.526 210.5,139.5 Z"/></g>
<g><path style="opacity:1" fill="#7aa8e5" d="M 196.5,141.5 C 196.51,146.495 196.51,151.162 196.5,155.5C 191.886,156.445 187.219,157.112 182.5,157.5C 183.527,153.554 183.694,149.554 183,145.5C 182.583,144.244 181.75,143.577 180.5,143.5C 185.633,142.335 190.966,141.668 196.5,141.5 Z"/></g>
<g><path style="opacity:0.999" fill="#80d7eb" d="M 136.5,141.5 C 142.617,143.655 148.95,144.655 155.5,144.5C 155.208,149.732 154.874,154.732 154.5,159.5C 149.073,159.218 143.74,159.551 138.5,160.5C 137.833,160.5 137.167,160.5 136.5,160.5C 135.933,154.401 135.933,148.068 136.5,141.5 Z"/></g>
<g><path style="opacity:0.999" fill="#7ec5ea" d="M 155.5,144.5 C 160.167,144.5 164.833,144.5 169.5,144.5C 170.262,149.022 170.262,153.689 169.5,158.5C 164.595,159.445 159.595,159.779 154.5,159.5C 154.874,154.732 155.208,149.732 155.5,144.5 Z"/></g>
<g><path style="opacity:0.999" fill="#7ebaec" d="M 180.5,143.5 C 181.75,143.577 182.583,144.244 183,145.5C 183.694,149.554 183.527,153.554 182.5,157.5C 178.202,158.2 173.869,158.533 169.5,158.5C 170.262,153.689 170.262,149.022 169.5,144.5C 173.179,144.276 176.846,143.942 180.5,143.5 Z"/></g>
<g><path style="opacity:0.81" fill="#121316" d="M 270.5,272.5 C 275.262,273.092 276.596,275.592 274.5,280C 269.301,281.503 267.135,279.67 268,274.5C 268.995,273.934 269.828,273.267 270.5,272.5 Z"/></g>
<g><path style="opacity:0.907" fill="#121316" d="M 290.5,272.5 C 293.5,272.5 296.5,272.5 299.5,272.5C 299.5,274.833 299.5,277.167 299.5,279.5C 294.505,278.582 292.172,280.582 292.5,285.5C 295.833,285.5 299.167,285.5 302.5,285.5C 302.336,282.813 302.503,280.146 303,277.5C 305.333,276.167 307.667,276.167 310,277.5C 310.497,280.146 310.664,282.813 310.5,285.5C 312.833,285.5 315.167,285.5 317.5,285.5C 317.5,287.833 317.5,290.167 317.5,292.5C 315.167,292.5 312.833,292.5 310.5,292.5C 310.172,297.875 310.505,303.208 311.5,308.5C 313.042,309.747 314.542,309.747 316,308.5C 316.497,310.81 316.663,313.143 316.5,315.5C 312.017,317.007 307.85,316.34 304,313.5C 302.575,306.615 302.075,299.615 302.5,292.5C 299.167,292.5 295.833,292.5 292.5,292.5C 292.5,300.167 292.5,307.833 292.5,315.5C 289.833,315.5 287.167,315.5 284.5,315.5C 284.5,307.833 284.5,300.167 284.5,292.5C 282.833,292.5 281.167,292.5 279.5,292.5C 279.338,290.473 279.505,288.473 280,286.5C 281.356,285.62 282.856,285.286 284.5,285.5C 283.57,279.699 285.57,275.366 290.5,272.5 Z"/></g>
<g><path style="opacity:0.857" fill="#121316" d="M 253.5,272.5 C 255.833,272.5 258.167,272.5 260.5,272.5C 260.5,286.833 260.5,301.167 260.5,315.5C 257.833,315.5 255.167,315.5 252.5,315.5C 252.184,301.088 252.518,286.755 253.5,272.5 Z"/></g>
<g><path style="opacity:0.932" fill="#121316" d="M 129.5,284.5 C 142.617,285.367 148.117,292.367 146,305.5C 141.919,315.789 134.752,318.789 124.5,314.5C 123.508,318.783 123.174,323.116 123.5,327.5C 120.833,327.5 118.167,327.5 115.5,327.5C 115.5,313.5 115.5,299.5 115.5,285.5C 117.833,285.5 120.167,285.5 122.5,285.5C 122.351,286.552 122.517,287.552 123,288.5C 125.095,286.875 127.261,285.542 129.5,284.5 Z M 127.5,292.5 C 137.84,292.942 140.673,297.942 136,307.5C 124.839,311.007 120.839,307.007 124,295.5C 125.145,294.364 126.312,293.364 127.5,292.5 Z"/></g>
<g><path style="opacity:0.892" fill="#121316" d="M 162.5,284.5 C 168.075,284.239 172.908,285.906 177,289.5C 178.441,298.058 178.941,306.724 178.5,315.5C 175.552,315.777 172.719,315.444 170,314.5C 163.225,317.656 156.892,316.989 151,312.5C 147.421,304.772 149.588,299.605 157.5,297C 149.179,296.007 148.512,292.674 155.5,287C 158.004,286.302 160.337,285.469 162.5,284.5 Z M 161.5,291.5 C 163.857,291.337 166.19,291.503 168.5,292C 170.394,293.079 170.727,294.413 169.5,296C 165.833,296.667 162.167,296.667 158.5,296C 159.386,294.385 160.386,292.885 161.5,291.5 Z M 160.5,302.5 C 163.833,302.5 167.167,302.5 170.5,302.5C 169.096,309.203 165.096,311.203 158.5,308.5C 157.021,305.743 157.687,303.743 160.5,302.5 Z"/></g>
<g><path style="opacity:0.906" fill="#121316" d="M 196.5,284.5 C 205.362,284.086 211.362,287.919 214.5,296C 211.446,296.821 208.446,296.655 205.5,295.5C 201.477,290.424 197.311,290.424 193,295.5C 189.456,304.941 192.623,309.441 202.5,309C 204.373,307.915 206.04,306.582 207.5,305C 214.611,303.437 216.111,305.604 212,311.5C 205.926,316.629 199.093,317.796 191.5,315C 184.114,310.523 181.614,304.023 184,295.5C 186.505,289.822 190.671,286.155 196.5,284.5 Z"/></g>
<g><path style="opacity:0.906" fill="#121316" d="M 93.5,284.5 C 102.061,283.761 107.394,287.428 109.5,295.5C 106.753,295.813 104.086,295.48 101.5,294.5C 98.7119,291.478 95.3786,290.811 91.5,292.5C 90.6143,293.325 90.281,294.325 90.5,295.5C 96.4541,295.936 102.121,297.436 107.5,300C 112.476,307.387 110.809,312.72 102.5,316C 98.5,316.667 94.5,316.667 90.5,316C 84.7686,314.773 81.7686,311.273 81.5,305.5C 85.586,304.846 88.9193,306.012 91.5,309C 95.0915,309.789 98.5915,309.622 102,308.5C 102.507,307.004 102.007,305.837 100.5,305C 96.1368,304.106 91.8035,303.106 87.5,302C 81.253,297.486 80.9196,292.486 86.5,287C 88.9269,286.098 91.2603,285.264 93.5,284.5 Z"/></g>
<g><path style="opacity:0.875" fill="#121316" d="M 230.5,284.5 C 242.609,284.944 248.609,291.277 248.5,303.5C 240.833,303.5 233.167,303.5 225.5,303.5C 226.071,307.722 228.571,309.722 233,309.5C 236.073,309.547 238.573,308.38 240.5,306C 242.81,305.503 245.143,305.337 247.5,305.5C 246.57,310.609 243.57,314.109 238.5,316C 223.35,318.039 216.184,311.539 217,296.5C 219.221,289.77 223.721,285.77 230.5,284.5 Z M 230.5,291.5 C 234.622,290.894 237.622,292.394 239.5,296C 237.2,297.109 234.7,297.609 232,297.5C 224.103,297.586 223.603,295.586 230.5,291.5 Z"/></g>
<g><path style="opacity:0.94" fill="#121317" d="M 268.5,285.5 C 270.833,285.5 273.167,285.5 275.5,285.5C 275.5,295.5 275.5,305.5 275.5,315.5C 272.833,315.5 270.167,315.5 267.5,315.5C 267.193,305.418 267.526,295.418 268.5,285.5 Z"/></g>
</svg>
