<?xml version="1.0" encoding="utf-8"?>
<!-- Generator: Adobe Illustrator 28.5.0, SVG Export Plug-In . SVG Version: 9.03 Build 54727)  -->
<svg version="1.0" id="katman_1" xmlns="http://www.w3.org/2000/svg" xmlns:xlink="http://www.w3.org/1999/xlink" x="0px" y="0px"
	 viewBox="70.9 332.4 1048.1 176.9" style="enable-background:new 0 0 1190.6 841.9;" xml:space="preserve">
<style type="text/css">
	.st0{fill-rule:evenodd;clip-rule:evenodd;fill:url(#SVGID_1_);}
	.st1{fill:#1D1D1B;}
</style>
<linearGradient id="SVGID_1_" gradientUnits="userSpaceOnUse" x1="171.4603" y1="509.6837" x2="171.4603" y2="421.1954" gradientTransform="matrix(1 0 0 -1 -0.2244 842.0551)">
	<stop  offset="0" style="stop-color:#714EFF"/>
	<stop  offset="1" style="stop-color:#A685F3"/>
</linearGradient>
<path class="st0" d="M148.2,352c6.2,0,12,1.5,17.1,4.2l7.3,3.8l7.6-3.3c3.6-1.5,7.5-2.4,11.7-2.4c10,0,18.8,4.9,24,12.4l2.8,4.1
	l4.7,1.9c8.2,3.3,13.9,11,14.1,20l0.1,7.2l5.6,4.7c5.1,4.3,8.2,10.6,8.2,17.6c0,12.9-10.8,23.3-24.1,23.4l-32.7,0
	c-4.9,0-9.5,1.9-13,5.2l-15.1,14.5h0.3l-4.6,4.5c-1.4-0.3-2.9-0.5-4.4-0.5c-11.5,0-20.7,9-20.7,20c0,11.1,9.3,20,20.7,20
	c11.5,0,20.7-9,20.7-20c0-2.3-0.4-4.5-1.1-6.5l17.2-16.8c0.5-0.5,1.1-0.7,1.8-0.7l33.2-0.1h1.3c22.9-1.8,40.9-20.3,40.9-42.9
	c0-12.3-5.4-23.5-14-31.3c-0.9-16-11.1-29.6-25.5-35.9c-8.9-12.3-23.6-20.4-40.3-20.4c-6.5,0-12.7,1.2-18.4,3.5
	c-7.6-3.7-16.2-5.8-25.3-5.8c-27.3,0-50,18.7-55.2,43.6c-13.4,8.8-22.2,23.6-22.2,40.4c0,26,21,47.2,47.6,48.7v0.1h19.3
	c4.9,0,9.5-1.9,13-5.2l12.8-12.2l15.1-14.8c1.6,0.4,3.3,0.6,5,0.6c11.5,0,20.7-9,20.7-20s-9.3-20-20.7-20c-11.5,0-20.7,9-20.7,20
	c0,2.1,0.3,4.1,0.9,5.9l-25.8,25.3c-0.5,0.5-1.1,0.7-1.8,0.7l-14.4,0l0,0c-0.1,0-0.2,0-0.3,0c-16.7,0-30.2-13.1-30.2-29.2
	c0-10.4,5.6-19.5,14.1-24.7l6.3-3.9l1.3-7.1C115.6,364.4,130.4,352,148.2,352z"/>
<path class="st1" d="M327.8,404.3c3-4.3,7.1-7.7,12.3-10.4c5.3-2.8,11.2-4.2,17.6-4.2c7.6,0,14.4,1.9,20.5,5.6s10.9,9,14.5,16
	c3.5,6.8,5.3,14.6,5.3,23.5c0,8.8-1.8,16.8-5.3,23.8c-3.5,6.9-8.4,12.3-14.6,16.3c-6.1,3.8-12.9,5.7-20.4,5.7
	c-6.6,0-12.6-1.3-17.7-4c-5.1-2.7-9.1-6.1-12.1-10.2v12.8H310V361.1h17.7V404.3z M379.9,434.8c0-6.1-1.2-11.3-3.7-15.6
	c-2.4-4.5-5.6-7.8-9.6-10.1c-3.9-2.3-8.2-3.5-12.8-3.5c-4.5,0-8.7,1.2-12.8,3.5c-3.9,2.3-7.2,5.7-9.6,10.2
	c-2.4,4.5-3.6,9.7-3.6,15.8c0,6.1,1.2,11.4,3.6,16c2.5,4.5,5.7,7.9,9.6,10.2c4,2.3,8.3,3.5,12.8,3.5c4.6,0,8.8-1.2,12.8-3.5
	c4-2.4,7.3-6,9.6-10.5C378.7,446.2,379.9,440.9,379.9,434.8z"/>
<path class="st1" d="M427,404c2.6-4.5,6-7.9,10.3-10.4c4.4-2.6,9.5-3.8,15.4-3.8v18.8h-4.5c-7,0-12.2,1.8-15.9,5.4
	c-3.5,3.6-5.3,9.9-5.3,18.8v46.3h-17.7v-88H427V404z"/>
<path class="st1" d="M456.9,434.8c0-8.8,1.8-16.7,5.3-23.5c3.6-6.8,8.5-12.1,14.6-15.8c6.2-3.8,13.1-5.7,20.5-5.7
	c6.7,0,12.6,1.4,17.6,4.2c5.1,2.7,9.1,6,12.1,10.1v-12.8H545v88h-17.9v-13.1c-3,4.2-7.1,7.6-12.3,10.4c-5.2,2.8-11.1,4.2-17.7,4.2
	c-7.4,0-14.1-1.9-20.2-5.7c-6.1-3.9-11-9.4-14.6-16.3C458.7,451.6,456.9,443.7,456.9,434.8z M527.1,435.2c0-6.1-1.2-11.3-3.7-15.8
	c-2.4-4.5-5.6-7.9-9.5-10.2c-3.9-2.3-8.2-3.5-12.8-3.5c-4.6,0-8.8,1.2-12.8,3.5c-3.9,2.2-7.2,5.6-9.6,10.1
	c-2.4,4.4-3.6,9.6-3.6,15.6c0,6.1,1.2,11.4,3.6,16c2.5,4.6,5.7,8.1,9.6,10.5c4,2.3,8.3,3.5,12.8,3.5c4.6,0,8.8-1.2,12.8-3.5
	c3.9-2.3,7.1-5.7,9.5-10.2C525.8,446.5,527.1,441.2,527.1,435.2z"/>
<path class="st1" d="M571.1,379.6c-3.2,0-5.9-1.1-8.1-3.4s-3.3-5-3.3-8.3c0-3.3,1.1-6.1,3.3-8.3s4.9-3.4,8.1-3.4
	c3.1,0,5.8,1.1,7.9,3.4c2.2,2.2,3.3,5,3.3,8.3c0,3.3-1.1,6.1-3.3,8.3C576.9,378.5,574.2,379.6,571.1,379.6z M579.8,391.2v88h-17.7
	v-88H579.8z"/>
<path class="st1" d="M640.2,389.8c6.7,0,12.8,1.4,18.1,4.3c5.4,2.9,9.6,7.1,12.6,12.8c3,5.6,4.5,12.5,4.5,20.4v51.9h-17.6V430
	c0-7.9-1.9-13.9-5.8-18c-3.8-4.3-9.1-6.4-15.7-6.4s-11.9,2.1-15.9,6.4c-3.8,4.2-5.8,10.2-5.8,18v49.2h-17.7v-88h17.7v10.1
	c2.9-3.6,6.6-6.4,11.1-8.5C630.2,390.8,635.1,389.8,640.2,389.8z"/>
<path class="st1" d="M709.5,404.3c3-4.3,7.1-7.7,12.3-10.4c5.3-2.8,11.2-4.2,17.6-4.2c7.6,0,14.4,1.9,20.5,5.6
	c6.1,3.7,10.9,9,14.5,16c3.5,6.8,5.3,14.6,5.3,23.5c0,8.8-1.8,16.8-5.3,23.8c-3.5,6.9-8.4,12.3-14.6,16.3
	c-6.1,3.8-12.9,5.7-20.4,5.7c-6.6,0-12.6-1.3-17.7-4c-5.1-2.7-9.1-6.1-12.1-10.2v12.8h-17.7V361.1h17.7V404.3z M761.6,434.8
	c0-6.1-1.2-11.3-3.7-15.6c-2.4-4.5-5.6-7.8-9.7-10.1c-3.9-2.3-8.2-3.5-12.8-3.5c-4.5,0-8.7,1.2-12.8,3.5c-3.9,2.3-7.2,5.7-9.6,10.2
	c-2.4,4.5-3.6,9.7-3.6,15.8c0,6.1,1.2,11.4,3.6,16c2.5,4.5,5.7,7.9,9.6,10.2c4,2.3,8.3,3.5,12.8,3.5c4.6,0,8.8-1.2,12.8-3.5
	c4-2.4,7.3-6,9.7-10.5C760.4,446.2,761.6,440.9,761.6,434.8z"/>
<path class="st1" d="M828.2,480.6c-8.1,0-15.4-1.9-21.9-5.6c-6.5-3.8-11.7-9.2-15.4-16c-3.7-6.9-5.6-14.9-5.6-23.9
	c0-8.9,1.9-16.9,5.8-23.8c3.8-6.9,9.1-12.2,15.7-16c6.6-3.7,14.1-5.6,22.3-5.6s15.6,1.9,22.3,5.6c6.6,3.7,11.9,9,15.7,16
	c3.8,6.9,5.8,14.8,5.8,23.8s-2,16.9-5.9,23.8c-3.9,6.9-9.3,12.3-16.2,16.1C843.9,478.8,836.4,480.6,828.2,480.6z M828.2,464.8
	c4.6,0,8.8-1.1,12.8-3.4c4-2.2,7.3-5.6,9.8-10.1s3.7-9.9,3.7-16.3c0-6.4-1.2-11.8-3.6-16.1c-2.4-4.5-5.5-7.8-9.5-10.1
	c-3.9-2.2-8.2-3.4-12.8-3.4c-4.6,0-8.8,1.1-12.8,3.4c-3.8,2.2-6.9,5.6-9.2,10.1c-2.3,4.4-3.4,9.7-3.4,16.1c0,9.5,2.3,16.8,7,22
	C815.1,462.3,821,464.8,828.2,464.8z"/>
<path class="st1" d="M878.1,434.8c0-8.8,1.8-16.7,5.3-23.5c3.6-6.8,8.5-12.1,14.6-15.8c6.2-3.8,13.1-5.7,20.5-5.7
	c6.7,0,12.6,1.4,17.6,4.2c5.1,2.7,9.1,6,12.1,10.1v-12.8h17.9v88h-17.9v-13.1c-3,4.2-7.1,7.6-12.3,10.4c-5.2,2.8-11.1,4.2-17.7,4.2
	c-7.4,0-14.1-1.9-20.2-5.7c-6.1-3.9-11-9.4-14.6-16.3C879.9,451.6,878.1,443.7,878.1,434.8z M948.3,435.2c0-6.1-1.2-11.3-3.7-15.8
	c-2.4-4.5-5.5-7.9-9.5-10.2c-3.9-2.3-8.2-3.5-12.8-3.5c-4.6,0-8.8,1.2-12.8,3.5c-3.9,2.2-7.2,5.6-9.7,10.1
	c-2.4,4.4-3.6,9.6-3.6,15.6c0,6.1,1.2,11.4,3.6,16c2.5,4.6,5.7,8.1,9.7,10.5c4,2.3,8.3,3.5,12.8,3.5c4.6,0,8.8-1.2,12.8-3.5
	c3.9-2.3,7.1-5.7,9.5-10.2C947.1,446.5,948.3,441.2,948.3,435.2z"/>
<path class="st1" d="M1001,404c2.6-4.5,6-7.9,10.3-10.4c4.4-2.6,9.5-3.8,15.4-3.8v18.8h-4.5c-6.9,0-12.2,1.8-15.9,5.4
	c-3.5,3.6-5.3,9.9-5.3,18.8v46.3h-17.7v-88h17.7V404z"/>
<path class="st1" d="M1030.9,434.8c0-8.8,1.8-16.7,5.3-23.5c3.6-6.8,8.5-12.1,14.6-15.8c6.2-3.8,13.1-5.7,20.7-5.7
	c5.6,0,11.1,1.3,16.5,3.8c5.5,2.4,9.9,5.7,13.1,9.9v-42.5h17.9v118.1h-17.9V466c-2.9,4.3-6.9,7.8-12.1,10.5
	c-5.1,2.8-10.9,4.2-17.6,4.2c-7.5,0-14.3-1.9-20.5-5.7c-6.1-3.9-11-9.4-14.6-16.3C1032.6,451.6,1030.9,443.7,1030.9,434.8z
	 M1101.1,435.2c0-6.1-1.2-11.3-3.7-15.8c-2.4-4.5-5.6-7.9-9.5-10.2c-3.9-2.3-8.2-3.5-12.8-3.5s-8.8,1.2-12.8,3.5
	c-3.9,2.2-7.2,5.6-9.7,10.1c-2.4,4.4-3.6,9.6-3.6,15.6c0,6.1,1.2,11.4,3.6,16c2.5,4.6,5.7,8.1,9.7,10.5c4,2.3,8.3,3.5,12.8,3.5
	c4.6,0,8.8-1.2,12.8-3.5c3.9-2.3,7.1-5.7,9.5-10.2C1099.8,446.5,1101.1,441.2,1101.1,435.2z"/>
</svg>
