<?xml version="1.0" encoding="UTF-8"?>
<!DOCTYPE svg PUBLIC "-//W3C//DTD SVG 1.1//EN" "http://www.w3.org/Graphics/SVG/1.1/DTD/svg11.dtd">
<svg xmlns="http://www.w3.org/2000/svg" version="1.1" width="225px" height="225px" style="shape-rendering:geometricPrecision; text-rendering:geometricPrecision; image-rendering:optimizeQuality; fill-rule:evenodd; clip-rule:evenodd" xmlns:xlink="http://www.w3.org/1999/xlink">
<g><path style="opacity:1" fill="#fefefe" d="M -0.5,-0.5 C 74.5,-0.5 149.5,-0.5 224.5,-0.5C 224.5,74.5 224.5,149.5 224.5,224.5C 149.5,224.5 74.5,224.5 -0.5,224.5C -0.5,149.5 -0.5,74.5 -0.5,-0.5 Z"/></g>
<g><path style="opacity:1" fill="#fd0209" d="M 130.5,39.5 C 126.899,42.1222 123.233,44.4556 119.5,46.5C 114.36,48.3002 109.693,50.9669 105.5,54.5C 102.296,55.3833 99.6291,57.0499 97.5,59.5C 92.278,61.7927 87.278,64.4594 82.5,67.5C 80.1184,68.3507 78.1184,69.684 76.5,71.5C 73.2368,73.1535 69.9035,74.8202 66.5,76.5C 65.7025,76.9569 65.3691,77.6236 65.5,78.5C 62.9057,78.682 60.739,79.682 59,81.5C 58.5001,93.1619 58.3335,104.829 58.5,116.5C 46.9232,123.12 35.2565,129.453 23.5,135.5C 23.1728,112.925 23.5061,90.4248 24.5,68C 59.4679,47.8471 94.4679,27.6804 129.5,7.5C 130.499,18.1459 130.832,28.8126 130.5,39.5 Z"/></g>
<g><path style="opacity:1" fill="#f0757f" d="M 164.5,20.5 C 164.56,19.9569 164.893,19.6236 165.5,19.5C 166.499,33.8179 166.833,48.1512 166.5,62.5C 164.167,62.5 161.833,62.5 159.5,62.5C 161.5,61.8333 163.5,61.1667 165.5,60.5C 165.5,53.5 165.5,46.5 165.5,39.5C 165.823,32.9779 165.49,26.6446 164.5,20.5 Z"/></g>
<g><path style="opacity:1" fill="#f2071c" d="M 164.5,20.5 C 165.49,26.6446 165.823,32.9779 165.5,39.5C 164.527,41.9479 164.194,44.6146 164.5,47.5C 162.876,47.3601 161.71,48.0267 161,49.5C 158.236,45.4094 154.402,42.9094 149.5,42C 149.003,38.9978 147.337,36.9978 144.5,36C 145.639,34.2196 146.639,32.3863 147.5,30.5C 152.967,26.9294 158.633,23.5961 164.5,20.5 Z"/></g>
<g><path style="opacity:1" fill="#e90927" d="M 147.5,30.5 C 146.639,32.3863 145.639,34.2196 144.5,36C 147.337,36.9978 149.003,38.9978 149.5,42C 154.402,42.9094 158.236,45.4094 161,49.5C 161.71,48.0267 162.876,47.3601 164.5,47.5C 164.194,44.6146 164.527,41.9479 165.5,39.5C 165.5,46.5 165.5,53.5 165.5,60.5C 163.744,59.4479 163.077,57.7812 163.5,55.5C 160.927,55.1485 158.594,55.6485 156.5,57C 157.624,57.2492 158.624,57.7492 159.5,58.5C 158.078,59.5472 156.578,59.5472 155,58.5C 154.05,59.0223 153.216,59.689 152.5,60.5C 151.17,58.6531 151.503,57.1531 153.5,56C 146.555,51.5145 142.889,45.5145 142.5,38C 141.262,38.0773 140.262,37.9106 139.5,37.5C 140.325,36.6143 141.325,36.281 142.5,36.5C 142.5,35.5 142.5,34.5 142.5,33.5C 143.659,31.7497 145.326,30.7497 147.5,30.5 Z"/></g>
<g><path style="opacity:1" fill="#d80e3f" d="M 121.5,46.5 C 121.917,45.8761 122.584,45.5427 123.5,45.5C 126.306,47.0638 129.306,47.7305 132.5,47.5C 132.5,50.1667 132.5,52.8333 132.5,55.5C 133.552,55.3505 134.552,55.5172 135.5,56C 136.622,58.1238 138.122,59.9571 140,61.5C 140.456,62.7441 139.956,63.5774 138.5,64C 142.15,65.4008 145.817,65.9008 149.5,65.5C 144.72,67.9809 140.053,70.6476 135.5,73.5C 131.238,72.8071 130.905,71.9737 134.5,71C 132.5,68.6667 130.5,66.3333 128.5,64C 130.709,63.043 130.543,61.8764 128,60.5C 127.751,61.624 127.251,62.624 126.5,63.5C 125.52,60.9135 125.187,58.2469 125.5,55.5C 124.167,55.5 122.833,55.5 121.5,55.5C 121.5,52.8333 121.5,50.1667 121.5,47.5C 125.5,47.1667 125.5,46.8333 121.5,46.5 Z"/></g>
<g><path style="opacity:1" fill="#e00c33" d="M 142.5,33.5 C 142.5,34.5 142.5,35.5 142.5,36.5C 141.325,36.281 140.325,36.6143 139.5,37.5C 140.262,37.9106 141.262,38.0773 142.5,38C 142.889,45.5145 146.555,51.5145 153.5,56C 151.503,57.1531 151.17,58.6531 152.5,60.5C 153.216,59.689 154.05,59.0223 155,58.5C 156.578,59.5472 158.078,59.5472 159.5,58.5C 158.624,57.7492 157.624,57.2492 156.5,57C 158.594,55.6485 160.927,55.1485 163.5,55.5C 163.077,57.7812 163.744,59.4479 165.5,60.5C 163.5,61.1667 161.5,61.8333 159.5,62.5C 155.988,62.9236 152.655,63.9236 149.5,65.5C 145.817,65.9008 142.15,65.4008 138.5,64C 139.956,63.5774 140.456,62.7441 140,61.5C 138.122,59.9571 136.622,58.1238 135.5,56C 134.552,55.5172 133.552,55.3505 132.5,55.5C 132.5,52.8333 132.5,50.1667 132.5,47.5C 129.306,47.7305 126.306,47.0638 123.5,45.5C 122.584,45.5427 121.917,45.8761 121.5,46.5C 120.833,46.5 120.167,46.5 119.5,46.5C 123.233,44.4556 126.899,42.1222 130.5,39.5C 134.255,37.0955 138.255,35.0955 142.5,33.5 Z"/></g>
<g><path style="opacity:1" fill="#c91454" d="M 128.5,77.5 C 125.856,79.7226 122.856,81.3893 119.5,82.5C 119.062,82.5654 118.728,82.3988 118.5,82C 119.328,81.0853 120.328,80.4186 121.5,80C 117.625,79.8508 114.458,81.3508 112,84.5C 110.851,79.5473 108.184,75.5473 104,72.5C 103.667,69.1667 103.333,65.8333 103,62.5C 101.736,60.393 99.9032,59.393 97.5,59.5C 99.6291,57.0499 102.296,55.3833 105.5,54.5C 107.441,54.1307 109.275,53.464 111,52.5C 111.617,53.4491 111.451,54.2825 110.5,55C 111,55.1667 111.5,55.3333 112,55.5C 114.453,54.5071 116.953,54.3405 119.5,55C 117.338,57.5219 117.005,60.3553 118.5,63.5C 120.817,65.316 122.984,67.316 125,69.5C 125.018,71.7972 124.851,74.1305 124.5,76.5C 125.959,76.4326 127.292,76.7659 128.5,77.5 Z"/></g>
<g><path style="opacity:1" fill="#d21148" d="M 119.5,46.5 C 120.167,46.5 120.833,46.5 121.5,46.5C 125.5,46.8333 125.5,47.1667 121.5,47.5C 121.5,50.1667 121.5,52.8333 121.5,55.5C 122.833,55.5 124.167,55.5 125.5,55.5C 125.187,58.2469 125.52,60.9135 126.5,63.5C 127.251,62.624 127.751,61.624 128,60.5C 130.543,61.8764 130.709,63.043 128.5,64C 130.5,66.3333 132.5,68.6667 134.5,71C 130.905,71.9737 131.238,72.8071 135.5,73.5C 133.365,75.0709 131.032,76.4043 128.5,77.5C 127.292,76.7659 125.959,76.4326 124.5,76.5C 124.851,74.1305 125.018,71.7972 125,69.5C 122.984,67.316 120.817,65.316 118.5,63.5C 117.005,60.3553 117.338,57.5219 119.5,55C 116.953,54.3405 114.453,54.5071 112,55.5C 111.5,55.3333 111,55.1667 110.5,55C 111.451,54.2825 111.617,53.4491 111,52.5C 109.275,53.464 107.441,54.1307 105.5,54.5C 109.693,50.9669 114.36,48.3002 119.5,46.5 Z"/></g>
<g><path style="opacity:1" fill="#bd1965" d="M 97.5,59.5 C 99.9032,59.393 101.736,60.393 103,62.5C 103.333,65.8333 103.667,69.1667 104,72.5C 108.184,75.5473 110.851,79.5473 112,84.5C 114.458,81.3508 117.625,79.8508 121.5,80C 120.328,80.4186 119.328,81.0853 118.5,82C 118.728,82.3988 119.062,82.5654 119.5,82.5C 114.412,86.2603 109.079,89.5937 103.5,92.5C 100.756,93.205 98.089,93.205 95.5,92.5C 98.3785,90.8941 101.378,89.5608 104.5,88.5C 101.067,86.571 98.0669,84.071 95.5,81C 94.6328,77.8948 94.2994,74.7281 94.5,71.5C 92.076,71.8076 89.7427,71.4742 87.5,70.5C 86.2723,68.679 84.6056,67.679 82.5,67.5C 87.278,64.4594 92.278,61.7927 97.5,59.5 Z"/></g>
<g><path style="opacity:1" fill="#623de4" d="M 159.5,62.5 C 161.833,62.5 164.167,62.5 166.5,62.5C 180.33,62.6651 190.83,68.6651 198,80.5C 205.578,122.202 192.745,156.369 159.5,183C 138.363,195.739 117.03,208.239 95.5,220.5C 94.501,208.518 94.1677,196.518 94.5,184.5C 94.5,176.167 94.5,167.833 94.5,159.5C 94.5,148.833 94.5,138.167 94.5,127.5C 94.5,116.833 94.5,106.167 94.5,95.5C 98.0774,95.8551 101.077,94.8551 103.5,92.5C 109.079,89.5937 114.412,86.2603 119.5,82.5C 122.856,81.3893 125.856,79.7226 128.5,77.5C 131.032,76.4043 133.365,75.0709 135.5,73.5C 140.053,70.6476 144.72,67.9809 149.5,65.5C 152.655,63.9236 155.988,62.9236 159.5,62.5 Z"/></g>
<g><path style="opacity:1" fill="#b21d74" d="M 82.5,67.5 C 84.6056,67.679 86.2723,68.679 87.5,70.5C 89.7427,71.4742 92.076,71.8076 94.5,71.5C 94.2994,74.7281 94.6328,77.8948 95.5,81C 98.0669,84.071 101.067,86.571 104.5,88.5C 101.378,89.5608 98.3785,90.8941 95.5,92.5C 98.089,93.205 100.756,93.205 103.5,92.5C 101.077,94.8551 98.0774,95.8551 94.5,95.5C 94.5,106.167 94.5,116.833 94.5,127.5C 93.7783,116.978 92.9449,106.311 92,95.5C 91.6667,101.833 91.3333,108.167 91,114.5C 90.8227,110.644 90.3227,106.977 89.5,103.5C 89.6641,100.813 89.4974,98.146 89,95.5C 88.6667,97.5 88.3333,99.5 88,101.5C 87.4818,98.9774 86.1485,96.9774 84,95.5C 83.1697,90.1924 82.6697,84.8591 82.5,79.5C 80.8008,79.6602 79.1341,79.4935 77.5,79C 79.4054,78.1739 79.7388,77.0072 78.5,75.5C 75.9647,77.8721 73.2981,78.3721 70.5,77C 74.1363,76.8502 76.803,75.1835 78.5,72C 77.9056,71.5357 77.2389,71.369 76.5,71.5C 78.1184,69.684 80.1184,68.3507 82.5,67.5 Z"/></g>
<g><path style="opacity:1" fill="#a42388" d="M 65.5,78.5 C 67.3946,78.9133 69.3946,79.2466 71.5,79.5C 72.48,82.0865 72.8134,84.7531 72.5,87.5C 74.1667,87.5 75.8333,87.5 77.5,87.5C 77.0268,93.5451 79.0268,98.5451 83.5,102.5C 82.6744,103.451 82.5078,104.451 83,105.5C 86.1516,107.316 88.1516,109.983 89,113.5C 89.4983,110.183 89.665,106.85 89.5,103.5C 90.3227,106.977 90.8227,110.644 91,114.5C 91.3333,108.167 91.6667,101.833 92,95.5C 92.9449,106.311 93.7783,116.978 94.5,127.5C 94.5,138.167 94.5,148.833 94.5,159.5C 94.1667,159.5 93.8333,159.5 93.5,159.5C 92.5076,151.684 92.1743,143.684 92.5,135.5C 91.6127,129.813 90.7794,123.48 90,116.5C 89.5134,122.853 88.8467,129.186 88,135.5C 87.6667,132.5 87.3333,129.5 87,126.5C 83,121.833 78.6667,117.5 74,113.5C 74,112.167 74,110.833 74,109.5C 72.0086,107.543 70.0086,105.543 68,103.5C 67.5026,100.854 67.3359,98.1873 67.5,95.5C 66.1667,95.5 64.8333,95.5 63.5,95.5C 63.4643,91.0219 62.6309,86.6885 61,82.5C 59.6167,93.7789 59.1167,105.112 59.5,116.5C 59.1667,116.5 58.8333,116.5 58.5,116.5C 58.3335,104.829 58.5001,93.1619 59,81.5C 60.739,79.682 62.9057,78.682 65.5,78.5 Z"/></g>
<g><path style="opacity:1" fill="#a92080" d="M 76.5,71.5 C 77.2389,71.369 77.9056,71.5357 78.5,72C 76.803,75.1835 74.1363,76.8502 70.5,77C 73.2981,78.3721 75.9647,77.8721 78.5,75.5C 79.7388,77.0072 79.4054,78.1739 77.5,79C 79.1341,79.4935 80.8008,79.6602 82.5,79.5C 82.6697,84.8591 83.1697,90.1924 84,95.5C 86.1485,96.9774 87.4818,98.9774 88,101.5C 88.3333,99.5 88.6667,97.5 89,95.5C 89.4974,98.146 89.6641,100.813 89.5,103.5C 89.665,106.85 89.4983,110.183 89,113.5C 88.1516,109.983 86.1516,107.316 83,105.5C 82.5078,104.451 82.6744,103.451 83.5,102.5C 79.0268,98.5451 77.0268,93.5451 77.5,87.5C 75.8333,87.5 74.1667,87.5 72.5,87.5C 72.8134,84.7531 72.48,82.0865 71.5,79.5C 69.3946,79.2466 67.3946,78.9133 65.5,78.5C 65.3691,77.6236 65.7025,76.9569 66.5,76.5C 69.9035,74.8202 73.2368,73.1535 76.5,71.5 Z"/></g>
<g><path style="opacity:1" fill="#992695" d="M 92.5,135.5 C 91.6715,141.999 91.0048,148.666 90.5,155.5C 90.1667,156.833 89.8333,158.167 89.5,159.5C 88.52,156.914 88.1866,154.247 88.5,151.5C 89.647,147.354 89.8136,143.02 89,138.5C 88.2801,140.255 87.1134,141.089 85.5,141C 79.3333,134.833 73.1667,128.667 67,122.5C 65.1476,120.77 65.3143,119.604 67.5,119C 66.3333,117.833 65.1667,116.667 64,115.5C 63.6667,111.5 63.3333,107.5 63,103.5C 62.6667,108.833 62.3333,114.167 62,119.5C 61.7645,117.881 60.9311,116.881 59.5,116.5C 59.1167,105.112 59.6167,93.7789 61,82.5C 62.6309,86.6885 63.4643,91.0219 63.5,95.5C 64.8333,95.5 66.1667,95.5 67.5,95.5C 67.3359,98.1873 67.5026,100.854 68,103.5C 70.0086,105.543 72.0086,107.543 74,109.5C 74,110.833 74,112.167 74,113.5C 78.6667,117.5 83,121.833 87,126.5C 87.3333,129.5 87.6667,132.5 88,135.5C 88.8467,129.186 89.5134,122.853 90,116.5C 90.7794,123.48 91.6127,129.813 92.5,135.5 Z"/></g>
<g><path style="opacity:1" fill="#8f29a3" d="M 88.5,151.5 C 87.71,152.609 87.21,153.942 87,155.5C 82.7821,151.808 78.6155,148.141 74.5,144.5C 73.3493,143.269 72.1827,143.269 71,144.5C 68.9545,141.577 66.7879,138.743 64.5,136C 65.7112,135.107 65.7112,134.274 64.5,133.5C 63.8182,134.243 63.1515,134.909 62.5,135.5C 61.5,135.5 60.5,135.5 59.5,135.5C 59.5,129.167 59.5,122.833 59.5,116.5C 60.9311,116.881 61.7645,117.881 62,119.5C 62.3333,114.167 62.6667,108.833 63,103.5C 63.3333,107.5 63.6667,111.5 64,115.5C 65.1667,116.667 66.3333,117.833 67.5,119C 65.3143,119.604 65.1476,120.77 67,122.5C 73.1667,128.667 79.3333,134.833 85.5,141C 87.1134,141.089 88.2801,140.255 89,138.5C 89.8136,143.02 89.647,147.354 88.5,151.5 Z"/></g>
<g><path style="opacity:1" fill="#d2c2db" d="M 58.5,116.5 C 58.8333,116.5 59.1667,116.5 59.5,116.5C 59.5,122.833 59.5,129.167 59.5,135.5C 59.5,143.5 59.5,151.5 59.5,159.5C 58.8501,174.538 59.5167,189.205 61.5,203.5C 60.791,204.404 59.791,204.737 58.5,204.5C 58.5,175.167 58.5,145.833 58.5,116.5 Z"/></g>
<g><path style="opacity:1" fill="#892dad" d="M 88.5,151.5 C 88.1866,154.247 88.52,156.914 89.5,159.5C 89.8333,158.167 90.1667,156.833 90.5,155.5C 91.0048,148.666 91.6715,141.999 92.5,135.5C 92.1743,143.684 92.5076,151.684 93.5,159.5C 93.8282,164.875 93.4948,170.208 92.5,175.5C 91.1345,172.313 90.3012,168.98 90,165.5C 89.6924,166.308 89.1924,166.975 88.5,167.5C 85.7631,165.898 82.7631,165.064 79.5,165C 76.4317,162.718 73.9317,159.884 72,156.5C 71.6667,157.5 71.3333,158.5 71,159.5C 68.7226,156.601 66.2226,153.934 63.5,151.5C 62.5052,146.208 62.1718,140.875 62.5,135.5C 63.1515,134.909 63.8182,134.243 64.5,133.5C 65.7112,134.274 65.7112,135.107 64.5,136C 66.7879,138.743 68.9545,141.577 71,144.5C 72.1827,143.269 73.3493,143.269 74.5,144.5C 78.6155,148.141 82.7821,151.808 87,155.5C 87.21,153.942 87.71,152.609 88.5,151.5 Z"/></g>
<g><path style="opacity:1" fill="#7d31bd" d="M 59.5,135.5 C 60.5,135.5 61.5,135.5 62.5,135.5C 62.1718,140.875 62.5052,146.208 63.5,151.5C 66.2226,153.934 68.7226,156.601 71,159.5C 71.3333,158.5 71.6667,157.5 72,156.5C 73.9317,159.884 76.4317,162.718 79.5,165C 82.7631,165.064 85.7631,165.898 88.5,167.5C 89.1924,166.975 89.6924,166.308 90,165.5C 90.3012,168.98 91.1345,172.313 92.5,175.5C 93.4948,170.208 93.8282,164.875 93.5,159.5C 93.8333,159.5 94.1667,159.5 94.5,159.5C 94.5,167.833 94.5,176.167 94.5,184.5C 92.3131,185.758 89.9798,186.758 87.5,187.5C 87.6107,186.883 87.944,186.383 88.5,186C 85.3723,185.125 82.3723,183.958 79.5,182.5C 76.9135,181.52 74.2469,181.187 71.5,181.5C 71.5,180.167 71.5,178.833 71.5,177.5C 70.0222,177.762 68.6888,177.429 67.5,176.5C 66.2166,172.058 64.7166,171.725 63,175.5C 62.5006,170.177 62.334,164.844 62.5,159.5C 61.5,159.5 60.5,159.5 59.5,159.5C 59.5,151.5 59.5,143.5 59.5,135.5 Z"/></g>
<g><path style="opacity:1" fill="#7135ce" d="M 59.5,159.5 C 60.5,159.5 61.5,159.5 62.5,159.5C 62.334,164.844 62.5006,170.177 63,175.5C 64.7166,171.725 66.2166,172.058 67.5,176.5C 68.6888,177.429 70.0222,177.762 71.5,177.5C 71.5,178.833 71.5,180.167 71.5,181.5C 74.2469,181.187 76.9135,181.52 79.5,182.5C 82.3723,183.958 85.3723,185.125 88.5,186C 87.944,186.383 87.6107,186.883 87.5,187.5C 78.8427,192.83 70.176,198.163 61.5,203.5C 59.5167,189.205 58.8501,174.538 59.5,159.5 Z"/></g>
</svg>
