<?xml version="1.0" standalone="no"?><!DOCTYPE svg PUBLIC "-//W3C//DTD SVG 1.1//EN" "http://www.w3.org/Graphics/SVG/1.1/DTD/svg11.dtd"><svg t="1735008995119" class="icon" viewBox="0.53116226 0 3408.5354 1002.83466" version="1.1" xmlns="http://www.w3.org/2000/svg" p-id="29019" xmlns:xlink="http://www.w3.org/1999/xlink" width="666.6015625" height="200"><path d="M1378.133333 364.8c66.133333 0 98.133333 27.733333 98.133334 83.2 0 55.466667-32 83.2-98.133334 83.2h-70.4v106.666667h-42.666666V364.8h113.066666z m-72.533333 132.266667h68.266667c21.333333 0 36.266667-4.266667 44.8-10.666667 8.533333-8.533333 14.933333-19.2 14.933333-36.266667 0-17.066667-4.266667-29.866667-14.933333-36.266666-10.666667-8.533333-25.6-10.666667-44.8-10.666667h-68.266667v93.866667zM1674.666667 465.066667c17.066667 19.2 27.733333 44.8 27.733333 74.666666s-8.533333 55.466667-25.6 74.666667c-19.2 19.2-42.666667 29.866667-72.533333 29.866667s-53.333333-10.666667-72.533334-29.866667c-17.066667-19.2-25.6-44.8-25.6-74.666667s8.533333-55.466667 27.733334-74.666666c17.066667-19.2 42.666667-29.866667 72.533333-29.866667s49.066667 10.666667 68.266667 29.866667zM1557.333333 490.666667c-8.533333 12.8-12.8 29.866667-12.8 49.066666s4.266667 36.266667 12.8 49.066667c10.666667 14.933333 25.6 21.333333 44.8 21.333333s34.133333-8.533333 44.8-21.333333c8.533333-12.8 12.8-29.866667 12.8-49.066667 0-19.2-4.266667-36.266667-12.8-49.066666-10.666667-14.933333-25.6-21.333333-44.8-21.333334s-34.133333 6.4-44.8 21.333334zM1898.666667 499.2h-40.533334c-2.133333-10.666667-8.533333-17.066667-14.933333-21.333333-4.266667-6.4-17.066667-8.533333-29.866667-8.533334-12.8 0-21.333333 2.133333-27.733333 6.4-6.4 4.266667-10.666667 10.666667-10.666667 17.066667 0 6.4 6.4 12.8 17.066667 17.066667 6.4 2.133333 19.2 6.4 40.533333 12.8 23.466667 6.4 40.533333 12.8 51.2 19.2 14.933333 10.666667 23.466667 23.466667 23.466667 40.533333 0 42.666667-29.866667 64-87.466667 64-55.466667 0-83.2-23.466667-87.466666-70.4h40.533333c2.133333 12.8 6.4 23.466667 14.933333 27.733333 6.4 4.266667 17.066667 8.533333 32 8.533334 32 0 46.933333-8.533333 46.933334-27.733334 0-10.666667-6.4-17.066667-17.066667-23.466666-6.4-2.133333-19.2-6.4-40.533333-10.666667-23.466667-6.4-40.533333-10.666667-49.066667-17.066667-14.933333-10.666667-23.466667-23.466667-23.466667-40.533333 0-17.066667 6.4-32 21.333334-42.666667s34.133333-14.933333 57.6-14.933333c49.066667 0 78.933333 21.333333 83.2 64zM1998.933333 441.6h44.8v34.133333h-44.8v115.2c0 6.4 2.133333 8.533333 4.266667 12.8 2.133333 2.133333 6.4 4.266667 10.666667 4.266667h25.6V640h-32c-17.066667 0-29.866667-4.266667-36.266667-12.8-8.533333-8.533333-10.666667-21.333333-10.666667-36.266667v-115.2h-36.266666v-34.133333h36.266666v-46.933333l40.533334-17.066667v64zM2220.8 467.2v-25.6h40.533333v185.6c0 64-32 93.866667-91.733333 93.866667-27.733333 0-49.066667-6.4-64-14.933334-14.933333-10.666667-23.466667-27.733333-27.733333-49.066666h40.533333c2.133333 10.666667 6.4 19.2 14.933333 25.6 6.4 4.266667 19.2 6.4 36.266667 6.4 34.133333 0 51.2-19.2 51.2-55.466667v-29.866667c-14.933333 21.333333-34.133333 32-59.733333 32-27.733333 0-49.066667-8.533333-66.133334-27.733333-17.066667-17.066667-25.6-42.666667-25.6-72.533333s8.533333-53.333333 25.6-72.533334c17.066667-19.2 38.4-27.733333 66.133334-27.733333 25.6 0 44.8 10.666667 59.733333 32z m-93.866667 19.2c-10.666667 10.666667-14.933333 27.733333-14.933333 49.066667 0 19.2 4.266667 34.133333 10.666667 44.8 8.533333 12.8 23.466667 19.2 42.666666 19.2 17.066667 0 29.866667-6.4 40.533334-17.066667 8.533333-12.8 14.933333-27.733333 14.933333-49.066667 0-21.333333-4.266667-36.266667-14.933333-49.066666-10.666667-12.8-23.466667-17.066667-40.533334-17.066667s-29.866667 8.533333-38.4 19.2zM2425.6 441.6v40.533333c-10.666667-2.133333-19.2-4.266667-29.866667-4.266666-12.8 0-23.466667 4.266667-32 14.933333-10.666667 10.666667-14.933333 25.6-14.933333 42.666667V640h-40.533333v-198.4h40.533333v29.866667c4.266667-10.666667 10.666667-19.2 19.2-23.466667 8.533333-8.533333 19.2-10.666667 32-10.666667 10.666667-2.133333 19.2 0 25.6 4.266667zM2609.066667 469.333333c14.933333 19.2 23.466667 46.933333 23.466666 83.2h-151.466666c2.133333 19.2 6.4 34.133333 14.933333 44.8 8.533333 10.666667 21.333333 14.933333 38.4 14.933334 14.933333 0 25.6-4.266667 34.133333-10.666667 6.4-6.4 12.8-14.933333 17.066667-25.6h40.533333c-4.266667 19.2-12.8 34.133333-27.733333 46.933333-17.066667 14.933333-38.4 23.466667-66.133333 23.466667-29.866667 0-53.333333-8.533333-70.4-27.733333-19.2-19.2-27.733333-44.8-27.733334-76.8 0-29.866667 8.533333-53.333333 25.6-74.666667 17.066667-21.333333 40.533333-29.866667 70.4-29.866667 36.266667-2.133333 61.866667 8.533333 78.933334 32z m-108.8 12.8c-8.533333 8.533333-14.933333 21.333333-17.066667 38.4h106.666667c-4.266667-34.133333-21.333333-51.2-53.333334-51.2-14.933333 0-27.733333 4.266667-36.266666 12.8zM2841.6 379.733333c19.2 14.933333 29.866667 36.266667 32 66.133334h-40.533333c-4.266667-17.066667-10.666667-29.866667-21.333334-38.4-10.666667-8.533333-25.6-12.8-46.933333-12.8-17.066667 0-32 2.133333-40.533333 8.533333-12.8 6.4-17.066667 17.066667-17.066667 29.866667 0 12.8 6.4 21.333333 21.333333 29.866666 6.4 4.266667 21.333333 8.533333 46.933334 17.066667 36.266667 10.666667 61.866667 21.333333 72.533333 27.733333 23.466667 14.933333 36.266667 34.133333 36.266667 59.733334 0 25.6-10.666667 44.8-29.866667 57.6-19.2 12.8-46.933333 21.333333-81.066667 21.333333-34.133333 0-59.733333-6.4-78.933333-19.2-23.466667-17.066667-34.133333-40.533333-36.266667-76.8h40.533334c2.133333 21.333333 10.666667 36.266667 23.466666 46.933333 10.666667 8.533333 27.733333 12.8 51.2 12.8 21.333333 0 36.266667-4.266667 49.066667-10.666666s19.2-17.066667 19.2-29.866667c0-14.933333-8.533333-27.733333-25.6-36.266667-6.4-2.133333-23.466667-8.533333-55.466667-19.2-34.133333-10.666667-55.466667-17.066667-64-23.466666-21.333333-12.8-32-32-32-55.466667s10.666667-42.666667 29.866667-57.6c19.2-12.8 42.666667-19.2 72.533333-19.2 32 2.133333 57.6 8.533333 74.666667 21.333333zM3140.266667 401.066667c23.466667 25.6 34.133333 59.733333 34.133333 102.4 0 40.533333-10.666667 74.666667-34.133333 100.266666 10.666667 12.8 21.333333 27.733333 29.866666 42.666667l-27.733333 23.466667c-10.666667-14.933333-21.333333-29.866667-29.866667-42.666667-21.333333 12.8-44.8 19.2-72.533333 19.2-42.666667 0-74.666667-12.8-98.133333-40.533333-23.466667-25.6-34.133333-59.733333-34.133334-102.4s10.666667-74.666667 34.133334-102.4c23.466667-27.733333 57.6-40.533333 98.133333-40.533334 42.666667 0 74.666667 12.8 100.266667 40.533334z m-166.4 25.6c-14.933333 19.2-23.466667 44.8-23.466667 76.8s8.533333 57.6 23.466667 76.8c17.066667 19.2 38.4 29.866667 68.266666 29.866666 19.2 0 36.266667-4.266667 49.066667-12.8-12.8-17.066667-27.733333-32-40.533333-46.933333l23.466666-23.466667c12.8 14.933333 27.733333 29.866667 40.533334 46.933334 10.666667-17.066667 17.066667-40.533333 17.066666-68.266667 0-32-8.533333-59.733333-23.466666-76.8-14.933333-19.2-38.4-27.733333-68.266667-27.733333-27.733333-4.266667-51.2 6.4-66.133333 25.6zM3257.6 364.8v238.933333h151.466667V640h-192V364.8h40.533333z" p-id="29020" fill="#32aded"></path><path d="M695.466667 0c-17.066667 2.133333-34.133333 6.4-53.333334 8.533333l2.133334 2.133334c19.2 14.933333 44.8 23.466667 64 38.4 55.466667 40.533333 115.2 113.066667 132.266666 192 6.4 34.133333-6.4 87.466667-10.666666 117.333333-8.533333 49.066667 17.066667 89.6 8.533333 140.8-4.266667 21.333333-25.6 72.533333-19.2 78.933333V576c14.933333-14.933333 23.466667-38.4 34.133333-57.6 44.8-76.8 76.8-166.4 100.266667-266.666667 8.533333-38.4 17.066667-102.4 2.133333-136.533333-8.533333-19.2-25.6-34.133333-40.533333-46.933333C857.6 21.333333 800 0 695.466667 0z m-198.4 10.666667L469.333333 12.8l-53.333333 14.933333c-78.933333 34.133333-125.866667 130.133333-130.133333 236.8 17.066667-8.533333 38.4-19.2 57.6-23.466666 106.666667-29.866667 121.6 38.4 134.4 119.466666 4.266667 29.866667 6.4 74.666667-2.133334 104.533334-6.4 25.6-17.066667 46.933333-25.6 68.266666L426.666667 601.6h2.133333c10.666667-2.133333 21.333333 0 27.733333 4.266667 44.8 17.066667 38.4 59.733333 38.4 119.466666 0 106.666667-12.8 251.733333 70.4 275.2 25.6 6.4 55.466667-2.133333 74.666667-6.4 106.666667-32 85.333333-160 106.666667-273.066666 6.4-29.866667 0-70.4 12.8-91.733334 8.533333-14.933333 23.466667-17.066667 38.4-27.733333-44.8-68.266667-93.866667-142.933333-119.466667-230.4-29.866667-104.533333 23.466667-147.2 125.866667-140.8C757.333333 110.933333 663.466667 12.8 497.066667 10.666667zM185.6 12.8L132.266667 19.2c-51.2 12.8-91.733333 42.666667-110.933334 85.333333-59.733333 136.533333 23.466667 388.266667 70.4 492.8 14.933333 36.266667 44.8 106.666667 83.2 115.2 19.2 4.266667 32-10.666667 40.533334-19.2l89.6-102.4c-27.733333-34.133333-66.133333-72.533333-55.466667-145.066666L256 384l-2.133333-113.066667c17.066667-117.333333 32-157.866667 89.6-232.533333v2.133333C292.266667 32 247.466667 14.933333 185.6 12.8z m672 633.6c-17.066667-4.266667-29.866667-12.8-44.8-14.933333-21.333333 10.666667-29.866667 12.8-29.866667 46.933333 51.2 25.6 151.466667-10.666667 174.933334-38.4-29.866667 2.133333-66.133333 12.8-100.266667 6.4z m-422.4-10.666667l-49.066667 53.333334c-21.333333 14.933333-57.6 19.2-83.2 25.6l2.133334 2.133333c57.6 19.2 104.533333 14.933333 145.066666-19.2 17.066667-17.066667 27.733333-61.866667-14.933333-61.866667z m362.666667-275.2l10.666666-98.133333c-40.533333-2.133333-81.066667-4.266667-98.133333 21.333333-12.8 17.066667-8.533333 57.6-2.133333 76.8 17.066667 53.333333 40.533333 98.133333 66.133333 140.8l17.066667 36.266667s2.133333 0 2.133333-2.133333c4.266667-25.6 17.066667-53.333333 10.666667-89.6l-6.4-85.333334zM748.8 320c-14.933333-4.266667-19.2-6.4-27.733333-14.933333 0-6.4 2.133333-6.4 4.266666-10.666667 6.4-2.133333 10.666667-6.4 27.733334-8.533333 12.8 2.133333 17.066667 4.266667 21.333333 12.8-6.4 12.8-10.666667 12.8-25.6 21.333333z m-328.533333-44.8c-10.666667-8.533333-27.733333-8.533333-46.933334-8.533333l-46.933333 12.8c-14.933333 8.533333-27.733333 14.933333-42.666667 23.466666l2.133334 91.733334c-4.266667 29.866667-10.666667 64-6.4 93.866666 10.666667 57.6 49.066667 106.666667 117.333333 108.8l19.2-57.6c10.666667-25.6 23.466667-49.066667 29.866667-76.8 14.933333-51.2 4.266667-166.4-25.6-187.733333z m0 40.533333c-10.666667 25.6-55.466667 14.933333-57.6-12.8l2.133333-2.133333 10.666667-6.4c23.466667 0 34.133333 4.266667 46.933333 12.8l-2.133333 8.533333z" p-id="29021" fill="#32aded"></path></svg>