<?xml version="1.0" encoding="UTF-8"?>
<!DOCTYPE svg PUBLIC "-//W3C//DTD SVG 1.1//EN" "http://www.w3.org/Graphics/SVG/1.1/DTD/svg11.dtd">
<svg xmlns="http://www.w3.org/2000/svg" version="1.1" width="297px" height="170px" style="shape-rendering:geometricPrecision; text-rendering:geometricPrecision; image-rendering:optimizeQuality; fill-rule:evenodd; clip-rule:evenodd" xmlns:xlink="http://www.w3.org/1999/xlink">
<g><path style="opacity:1" fill="#07080c" d="M -0.5,-0.5 C 98.5,-0.5 197.5,-0.5 296.5,-0.5C 296.5,56.1667 296.5,112.833 296.5,169.5C 197.5,169.5 98.5,169.5 -0.5,169.5C -0.5,112.833 -0.5,56.1667 -0.5,-0.5 Z"/></g>
<g><path style="opacity:1" fill="#f9f9f9" d="M 63.5,35.5 C 64.4682,37.6074 64.8016,39.9407 64.5,42.5C 61.0026,45.083 57.3359,47.4164 53.5,49.5C 52.8333,57.8333 52.1667,66.1667 51.5,74.5C 50.1932,73.8466 48.8599,73.1799 47.5,72.5C 46.1667,63.1667 46.1667,53.8333 47.5,44.5C 52.8675,41.4441 58.2008,38.4441 63.5,35.5 Z"/></g>
<g><path style="opacity:1" fill="#79797c" d="M 63.5,35.5 C 63.56,34.9569 63.8933,34.6236 64.5,34.5C 65.8003,37.3092 65.8003,39.9759 64.5,42.5C 64.8016,39.9407 64.4682,37.6074 63.5,35.5 Z"/></g>
<g><path style="opacity:1" fill="#f6f6f6" d="M 65.5,61.5 C 64.8333,68.1667 64.1667,74.8333 63.5,81.5C 61.6137,80.6394 59.7804,79.6394 58,78.5C 57.3333,69.5 57.3333,60.5 58,51.5C 59.7804,50.3606 61.6137,49.3606 63.5,48.5C 64.4682,50.6074 64.8016,52.9407 64.5,55.5C 67.3854,55.8064 70.0521,55.4731 72.5,54.5C 72.3337,47.825 72.5004,41.1583 73,34.5C 75.172,35.5853 77.172,36.9186 79,38.5C 79.6667,47.5 79.6667,56.5 79,65.5C 76.828,66.5853 74.828,67.9186 73,69.5C 72.5026,66.854 72.3359,64.1873 72.5,61.5C 70.1667,61.5 67.8333,61.5 65.5,61.5 Z"/></g>
<g><path style="opacity:1" fill="#f4f4f4" d="M 84.5,41.5 C 86.4734,42.4867 88.4734,43.4867 90.5,44.5C 91.6653,53.4815 91.832,62.4815 91,71.5C 84.8332,74.9157 78.8332,78.5823 73,82.5C 72.1786,79.4459 72.3452,76.4459 73.5,73.5C 76.8333,71.5 80.1667,69.5 83.5,67.5C 84.498,58.8589 84.8314,50.1922 84.5,41.5 Z"/></g>
<g><path style="opacity:1" fill="#eeefef" d="M 173.5,55.5 C 173.5,60.8333 173.5,66.1667 173.5,71.5C 171.833,71.5 170.167,71.5 168.5,71.5C 168.5,66.5 168.5,61.5 168.5,56.5C 166.418,56.472 164.584,57.1387 163,58.5C 162.501,62.8206 162.334,67.1539 162.5,71.5C 160.833,71.5 159.167,71.5 157.5,71.5C 157.5,62.5 157.5,53.5 157.5,44.5C 159.167,44.5 160.833,44.5 162.5,44.5C 162.183,47.5719 162.516,50.5719 163.5,53.5C 166.438,52.4252 169.438,52.2585 172.5,53C 173.252,53.6708 173.586,54.5041 173.5,55.5 Z"/></g>
<g><path style="opacity:1" fill="#f0f1f1" d="M 177.5,44.5 C 179.167,44.5 180.833,44.5 182.5,44.5C 182.5,46.1667 182.5,47.8333 182.5,49.5C 180.833,49.5 179.167,49.5 177.5,49.5C 177.5,47.8333 177.5,46.1667 177.5,44.5 Z"/></g>
<g><path style="opacity:1" fill="#eff0f0" d="M 188.5,45.5 C 192.833,45.5 197.167,45.5 201.5,45.5C 201.5,46.8333 201.5,48.1667 201.5,49.5C 198.102,49.1796 194.768,49.513 191.5,50.5C 190.386,55.4456 190.219,60.4456 191,65.5C 193.896,67.745 197.063,68.0784 200.5,66.5C 201.452,68.0453 201.785,69.712 201.5,71.5C 197.869,72.412 194.203,72.5787 190.5,72C 189.069,71.5348 187.903,70.7014 187,69.5C 185.409,62.608 185.076,55.608 186,48.5C 187.045,47.6266 187.878,46.6266 188.5,45.5 Z"/></g>
<g><path style="opacity:1" fill="#eeeeee" d="M 105.5,45.5 C 105.5,49.1667 105.5,52.8333 105.5,56.5C 109.042,56.8128 112.375,56.4794 115.5,55.5C 115.5,52.1667 115.5,48.8333 115.5,45.5C 117.167,45.5 118.833,45.5 120.5,45.5C 120.5,54.1667 120.5,62.8333 120.5,71.5C 118.833,71.5 117.167,71.5 115.5,71.5C 115.5,67.8333 115.5,64.1667 115.5,60.5C 112.5,60.5 109.5,60.5 106.5,60.5C 106.5,64.1667 106.5,67.8333 106.5,71.5C 104.5,71.5 102.5,71.5 100.5,71.5C 100.5,62.8333 100.5,54.1667 100.5,45.5C 102.167,45.5 103.833,45.5 105.5,45.5 Z"/></g>
<g><path style="opacity:1" fill="#aaaaaa" d="M 53.5,49.5 C 53.8314,58.1922 53.498,66.8589 52.5,75.5C 51.8933,75.3764 51.56,75.0431 51.5,74.5C 52.1667,66.1667 52.8333,57.8333 53.5,49.5 Z"/></g>
<g><path style="opacity:1" fill="#6f7071" d="M 63.5,48.5 C 63.56,47.9569 63.8933,47.6236 64.5,47.5C 65.4742,49.7427 65.8076,52.076 65.5,54.5C 67.8333,54.5 70.1667,54.5 72.5,54.5C 70.0521,55.4731 67.3854,55.8064 64.5,55.5C 64.8016,52.9407 64.4682,50.6074 63.5,48.5 Z"/></g>
<g><path style="opacity:1" fill="#e6e6e7" d="M 124.5,52.5 C 128.514,52.3345 132.514,52.5012 136.5,53C 137,53.5 137.5,54 138,54.5C 138.499,60.1569 138.666,65.8236 138.5,71.5C 136.856,71.7135 135.356,71.3802 134,70.5C 126.577,74.0811 123.244,71.7478 124,63.5C 126.546,60.8144 129.713,59.8144 133.5,60.5C 133.5,59.1667 133.5,57.8333 133.5,56.5C 130.5,56.5 127.5,56.5 124.5,56.5C 124.5,55.1667 124.5,53.8333 124.5,52.5 Z"/></g>
<g><path style="opacity:1" fill="#e4e5e5" d="M 143.5,52.5 C 147.167,52.5 150.833,52.5 154.5,52.5C 154.5,53.8333 154.5,55.1667 154.5,56.5C 151.833,56.5 149.167,56.5 146.5,56.5C 146.281,57.675 146.614,58.675 147.5,59.5C 153.875,60.0485 156.042,63.3818 154,69.5C 151.091,72.3939 147.591,73.2272 143.5,72C 141.893,70.951 141.227,69.451 141.5,67.5C 144.167,67.5 146.833,67.5 149.5,67.5C 149.719,66.325 149.386,65.325 148.5,64.5C 141.261,62.8559 139.594,58.8559 143.5,52.5 Z"/></g>
<g><path style="opacity:1" fill="#ebebeb" d="M 206.5,52.5 C 220.793,51.8135 224.46,57.8135 217.5,70.5C 212.425,73.5706 207.925,72.904 204,68.5C 203.333,64.1667 203.333,59.8333 204,55.5C 205.045,54.6266 205.878,53.6266 206.5,52.5 Z"/></g>
<g><path style="opacity:1" fill="#eceded" d="M 234.5,52.5 C 239.08,52.8569 243.747,53.0236 248.5,53C 249,53.5 249.5,54 250,54.5C 250.667,59.5 250.667,64.5 250,69.5C 247.016,72.1001 243.516,73.1001 239.5,72.5C 239.5,74.8333 239.5,77.1667 239.5,79.5C 237.833,79.5 236.167,79.5 234.5,79.5C 234.5,70.5 234.5,61.5 234.5,52.5 Z"/></g>
<g><path style="opacity:1" fill="#f0f0f0" d="M 177.5,52.5 C 179.167,52.5 180.833,52.5 182.5,52.5C 182.5,58.8333 182.5,65.1667 182.5,71.5C 180.833,71.5 179.167,71.5 177.5,71.5C 177.5,65.1667 177.5,58.8333 177.5,52.5 Z"/></g>
<g><path style="opacity:1" fill="#ececec" d="M 222.5,52.5 C 225.914,53.2466 229.247,53.2466 232.5,52.5C 232.657,53.8734 232.49,55.2068 232,56.5C 230.488,57.2567 229.154,58.2567 228,59.5C 227.501,63.4862 227.334,67.4862 227.5,71.5C 225.833,71.5 224.167,71.5 222.5,71.5C 222.5,65.1667 222.5,58.8333 222.5,52.5 Z"/></g>
<g><path style="opacity:1" fill="#757677" d="M 105.5,45.5 C 106.479,48.6248 106.813,51.9581 106.5,55.5C 109.5,55.5 112.5,55.5 115.5,55.5C 112.375,56.4794 109.042,56.8128 105.5,56.5C 105.5,52.8333 105.5,49.1667 105.5,45.5 Z"/></g>
<g><path style="opacity:1" fill="#06060a" d="M 240.5,56.5 C 242.167,56.5 243.833,56.5 245.5,56.5C 245.5,60.1667 245.5,63.8333 245.5,67.5C 243.5,67.5 241.5,67.5 239.5,67.5C 239.244,63.7307 239.577,60.0641 240.5,56.5 Z"/></g>
<g><path style="opacity:1" fill="#737476" d="M 65.5,61.5 C 65.8303,68.5316 65.497,75.5316 64.5,82.5C 63.8933,82.3764 63.56,82.0431 63.5,81.5C 64.1667,74.8333 64.8333,68.1667 65.5,61.5 Z"/></g>
<g><path style="opacity:1" fill="#0a0a0b" d="M 128.5,64.5 C 130.167,64.5 131.833,64.5 133.5,64.5C 133.5,65.5 133.5,66.5 133.5,67.5C 131.833,67.5 130.167,67.5 128.5,67.5C 128.5,66.5 128.5,65.5 128.5,64.5 Z"/></g>
<g><path style="opacity:1" fill="#151516" d="M 209.5,56.5 C 214.239,55.4071 216.239,57.2404 215.5,62C 215.456,63.7642 215.122,65.4309 214.5,67C 212.527,67.4955 210.527,67.6621 208.5,67.5C 208.244,63.7307 208.577,60.0641 209.5,56.5 Z"/></g>
<g><path style="opacity:1" fill="#323335" d="M 177.5,52.5 C 177.5,58.8333 177.5,65.1667 177.5,71.5C 179.167,71.5 180.833,71.5 182.5,71.5C 180.427,72.1376 178.427,73.1376 176.5,74.5C 173.904,73.0515 171.237,72.0515 168.5,71.5C 170.167,71.5 171.833,71.5 173.5,71.5C 173.5,66.1667 173.5,60.8333 173.5,55.5C 174.167,60.6813 174.833,66.0147 175.5,71.5C 176.167,65.0125 176.833,58.6792 177.5,52.5 Z"/></g>
<g><path style="opacity:1" fill="#dbdcdc" d="M 102.5,114.5 C 106.192,113.971 109.358,114.971 112,117.5C 112.27,118.932 111.604,119.932 110,120.5C 107.782,118.381 105.282,118.048 102.5,119.5C 104.995,121.843 107.995,123.343 111.5,124C 114.545,129.731 112.712,132.898 106,133.5C 102.601,133.28 100.101,131.614 98.5,128.5C 100.348,125.81 102.015,125.977 103.5,129C 105.473,129.495 107.473,129.662 109.5,129.5C 109.719,128.325 109.386,127.325 108.5,126.5C 104.695,126.015 101.529,124.348 99,121.5C 98.3333,120.5 98.3333,119.5 99,118.5C 100.102,117.051 101.269,115.718 102.5,114.5 Z"/></g>
<g><path style="opacity:1" fill="#dcdcdd" d="M 155.5,114.5 C 156.833,114.5 158.167,114.5 159.5,114.5C 159.778,116.346 159.111,117.68 157.5,118.5C 155.889,117.68 155.222,116.346 155.5,114.5 Z"/></g>
<g><path style="opacity:1" fill="#f7f7f7" d="M 192.5,114.5 C 193.5,114.5 194.5,114.5 195.5,114.5C 195.5,120.833 195.5,127.167 195.5,133.5C 194.5,133.5 193.5,133.5 192.5,133.5C 192.5,127.167 192.5,120.833 192.5,114.5 Z"/></g>
<g><path style="opacity:1" fill="#dbdcdd" d="M 146.5,116.5 C 147.5,116.5 148.5,116.5 149.5,116.5C 149.5,117.833 149.5,119.167 149.5,120.5C 150.833,120.5 152.167,120.5 153.5,120.5C 153.5,121.5 153.5,122.5 153.5,123.5C 152.5,123.5 151.5,123.5 150.5,123.5C 150.5,125.5 150.5,127.5 150.5,129.5C 151.5,129.5 152.5,129.5 153.5,129.5C 153.5,130.833 153.5,132.167 153.5,133.5C 150.956,133.896 148.789,133.229 147,131.5C 146.792,128.002 145.959,124.669 144.5,121.5C 145.547,119.944 146.214,118.277 146.5,116.5 Z"/></g>
<g><path style="opacity:1" fill="#7c7d7e" d="M 146.5,116.5 C 147.568,115.566 148.901,115.232 150.5,115.5C 150.5,116.833 150.5,118.167 150.5,119.5C 151.791,119.263 152.791,119.596 153.5,120.5C 152.167,120.5 150.833,120.5 149.5,120.5C 149.5,119.167 149.5,117.833 149.5,116.5C 148.5,116.5 147.5,116.5 146.5,116.5 Z"/></g>
<g><path style="opacity:1" fill="#e1e1e2" d="M 118.5,119.5 C 124.495,118.828 127.829,121.495 128.5,127.5C 125.102,127.18 121.768,127.513 118.5,128.5C 120.705,131.053 123.038,131.053 125.5,128.5C 128.151,130.415 127.817,131.915 124.5,133C 118.742,134.253 115.408,131.919 114.5,126C 115.205,123.458 116.539,121.292 118.5,119.5 Z"/></g>
<g><path style="opacity:1" fill="#e7e8e8" d="M 142.5,123.5 C 142.5,126.5 142.5,129.5 142.5,132.5C 141.5,132.5 140.5,132.5 139.5,132.5C 139.664,129.813 139.497,127.146 139,124.5C 137.333,123.167 135.667,123.167 134,124.5C 133.502,127.482 133.335,130.482 133.5,133.5C 132.5,133.5 131.5,133.5 130.5,133.5C 130.5,128.833 130.5,124.167 130.5,119.5C 133.758,120.068 137.091,120.234 140.5,120C 141.823,120.816 142.489,121.983 142.5,123.5 Z"/></g>
<g><path style="opacity:1" fill="#a2a2a3" d="M 155.5,119.5 C 156.833,119.5 158.167,119.5 159.5,119.5C 159.5,124.167 159.5,128.833 159.5,133.5C 158.167,133.5 156.833,133.5 155.5,133.5C 155.5,128.833 155.5,124.167 155.5,119.5 Z"/></g>
<g><path style="opacity:1" fill="#fefffe" d="M 156.5,120.5 C 157.794,122.048 158.461,124.048 158.5,126.5C 158.167,128.5 157.833,130.5 157.5,132.5C 156.509,128.555 156.176,124.555 156.5,120.5 Z"/></g>
<g><path style="opacity:1" fill="#ececec" d="M 165.5,132.5 C 164.5,132.5 163.5,132.5 162.5,132.5C 162.5,128.5 162.5,124.5 162.5,120.5C 163.822,120.33 164.989,120.663 166,121.5C 168.459,118.9 170.959,118.9 173.5,121.5C 174.433,125.429 174.766,129.429 174.5,133.5C 173.5,133.5 172.5,133.5 171.5,133.5C 171.665,130.482 171.498,127.482 171,124.5C 169.333,123.167 167.667,123.167 166,124.5C 165.503,127.146 165.336,129.813 165.5,132.5 Z"/></g>
<g><path style="opacity:1" fill="#e8e9e9" d="M 180.5,119.5 C 186.709,118.749 189.709,121.415 189.5,127.5C 186.428,127.183 183.428,127.516 180.5,128.5C 181,129.881 182,130.547 183.5,130.5C 189.124,128.552 190.124,129.385 186.5,133C 179.333,133.833 176.167,130.667 177,123.5C 178.376,122.295 179.542,120.962 180.5,119.5 Z"/></g>
<g><path style="opacity:1" fill="#515153" d="M 162.5,120.5 C 162.5,124.5 162.5,128.5 162.5,132.5C 163.5,132.5 164.5,132.5 165.5,132.5C 164.469,133.249 163.302,133.915 162,134.5C 161.185,129.648 161.352,124.981 162.5,120.5 Z"/></g>
<g><path style="opacity:1" fill="#1d1d1e" d="M 119.5,122.5 C 121.665,122.116 123.332,122.783 124.5,124.5C 122.5,125.833 120.5,125.833 118.5,124.5C 118.863,123.817 119.196,123.15 119.5,122.5 Z"/></g>
<g><path style="opacity:1" fill="#1e1e20" d="M 181.5,122.5 C 183.665,122.116 185.332,122.783 186.5,124.5C 184.5,125.833 182.5,125.833 180.5,124.5C 180.863,123.817 181.196,123.15 181.5,122.5 Z"/></g>
<g><path style="opacity:1" fill="#5f6060" d="M 142.5,123.5 C 143.479,126.625 143.813,129.958 143.5,133.5C 141.901,133.768 140.568,133.434 139.5,132.5C 140.5,132.5 141.5,132.5 142.5,132.5C 142.5,129.5 142.5,126.5 142.5,123.5 Z"/></g>
</svg>
