<?xml version="1.0" encoding="UTF-8"?>
<!DOCTYPE svg PUBLIC "-//W3C//DTD SVG 1.1//EN" "http://www.w3.org/Graphics/SVG/1.1/DTD/svg11.dtd">
<svg xmlns="http://www.w3.org/2000/svg" version="1.1" width="2674px" height="2837px" style="shape-rendering:geometricPrecision; text-rendering:geometricPrecision; image-rendering:optimizeQuality; fill-rule:evenodd; clip-rule:evenodd" xmlns:xlink="http://www.w3.org/1999/xlink">
<g><path style="opacity:0.988" fill="#3f3bb4" d="M 568.5,509.5 C 568.5,665.167 568.5,820.833 568.5,976.5C 565.941,976.198 563.607,976.532 561.5,977.5C 551.494,977.666 541.494,977.5 531.5,977C 515.377,973.6 505.877,963.767 503,947.5C 502.333,811.5 502.333,675.5 503,539.5C 504.724,525.882 511.891,516.382 524.5,511C 539.108,509.568 553.775,509.068 568.5,509.5 Z"/></g>
<g><path style="opacity:0.999" fill="#3e3ab1" d="M 568.5,509.5 C 599.167,509.5 629.833,509.5 660.5,509.5C 660.5,665.167 660.5,820.833 660.5,976.5C 662.735,976.205 664.735,976.539 666.5,977.5C 631.5,977.5 596.5,977.5 561.5,977.5C 563.607,976.532 565.941,976.198 568.5,976.5C 568.5,820.833 568.5,665.167 568.5,509.5 Z"/></g>
<g><path style="opacity:1" fill="#3d39aa" d="M 660.5,509.5 C 708.167,509.5 755.833,509.5 803.5,509.5C 803.5,665.5 803.5,821.5 803.5,977.5C 795.5,977.5 787.5,977.5 779.5,977.5C 750.5,977.5 721.5,977.5 692.5,977.5C 683.833,977.5 675.167,977.5 666.5,977.5C 664.735,976.539 662.735,976.205 660.5,976.5C 660.5,820.833 660.5,665.167 660.5,509.5 Z"/></g>
<g><path style="opacity:0.999" fill="#3f39ac" d="M 803.5,509.5 C 818.167,509.5 832.833,509.5 847.5,509.5C 847.5,665.167 847.5,820.833 847.5,976.5C 844.287,976.19 841.287,976.523 838.5,977.5C 826.833,977.5 815.167,977.5 803.5,977.5C 803.5,821.5 803.5,665.5 803.5,509.5 Z"/></g>
<g><path style="opacity:0.999" fill="#4239b1" d="M 847.5,509.5 C 859.833,509.5 872.167,509.5 884.5,509.5C 884.5,665.167 884.5,820.833 884.5,976.5C 887.713,976.19 890.713,976.523 893.5,977.5C 875.167,977.5 856.833,977.5 838.5,977.5C 841.287,976.523 844.287,976.19 847.5,976.5C 847.5,820.833 847.5,665.167 847.5,509.5 Z"/></g>
<g><path style="opacity:0.999" fill="#453ab8" d="M 884.5,509.5 C 891.833,509.5 899.167,509.5 906.5,509.5C 906.5,665.167 906.5,820.833 906.5,976.5C 908.415,976.216 910.081,976.549 911.5,977.5C 905.5,977.5 899.5,977.5 893.5,977.5C 890.713,976.523 887.713,976.19 884.5,976.5C 884.5,820.833 884.5,665.167 884.5,509.5 Z"/></g>
<g><path style="opacity:0.999" fill="#4839be" d="M 906.5,509.5 C 912.5,509.5 918.5,509.5 924.5,509.5C 924.5,665.167 924.5,820.833 924.5,976.5C 926.167,976.5 927.833,976.5 929.5,976.5C 929.5,976.833 929.5,977.167 929.5,977.5C 923.5,977.5 917.5,977.5 911.5,977.5C 910.081,976.549 908.415,976.216 906.5,976.5C 906.5,820.833 906.5,665.167 906.5,509.5 Z"/></g>
<g><path style="opacity:1" fill="#4a39c2" d="M 924.5,509.5 C 926.167,509.5 927.833,509.5 929.5,509.5C 929.5,665.167 929.5,820.833 929.5,976.5C 927.833,976.5 926.167,976.5 924.5,976.5C 924.5,820.833 924.5,665.167 924.5,509.5 Z"/></g>
<g><path style="opacity:1" fill="#4b39c5" d="M 929.5,509.5 C 932.833,509.5 936.167,509.5 939.5,509.5C 939.5,665.167 939.5,820.833 939.5,976.5C 943.371,976.185 947.038,976.518 950.5,977.5C 943.5,977.5 936.5,977.5 929.5,977.5C 929.5,977.167 929.5,976.833 929.5,976.5C 929.5,820.833 929.5,665.167 929.5,509.5 Z"/></g>
<g><path style="opacity:0.999" fill="#4d39cb" d="M 939.5,509.5 C 944.713,509.3 949.38,510.633 953.5,513.5C 951.501,667.496 950.835,821.83 951.5,976.5C 955.833,976.5 960.167,976.5 964.5,976.5C 966.5,976.5 968.5,976.5 970.5,976.5C 970.5,976.833 970.5,977.167 970.5,977.5C 963.833,977.5 957.167,977.5 950.5,977.5C 947.038,976.518 943.371,976.185 939.5,976.5C 939.5,820.833 939.5,665.167 939.5,509.5 Z"/></g>
<g><path style="opacity:1" fill="#3a63b6" d="M 1766.5,509.5 C 1746.64,537.228 1726.31,564.562 1705.5,591.5C 1705.33,572.497 1705.5,553.497 1706,534.5C 1709.5,521.667 1717.67,513.5 1730.5,510C 1742.5,509.5 1754.5,509.333 1766.5,509.5 Z"/></g>
<g><path style="opacity:1" fill="#3965b4" d="M 1766.5,509.5 C 1776.5,509.5 1786.5,509.5 1796.5,509.5C 1766.15,550.205 1735.82,590.872 1705.5,631.5C 1705.5,618.167 1705.5,604.833 1705.5,591.5C 1726.31,564.562 1746.64,537.228 1766.5,509.5 Z"/></g>
<g><path style="opacity:1" fill="#3767b0" d="M 1796.5,509.5 C 1821.17,509.5 1845.83,509.5 1870.5,509.5C 1815.85,583.473 1760.85,657.14 1705.5,730.5C 1705.5,697.5 1705.5,664.5 1705.5,631.5C 1735.82,590.872 1766.15,550.205 1796.5,509.5 Z"/></g>
<g><path style="opacity:1" fill="#3469ac" d="M 1870.5,509.5 C 1887.5,509.5 1904.5,509.5 1921.5,509.5C 1850.23,607.043 1778.23,704.043 1705.5,800.5C 1705.5,777.167 1705.5,753.833 1705.5,730.5C 1760.85,657.14 1815.85,583.473 1870.5,509.5 Z"/></g>
<g><path style="opacity:1" fill="#336ba9" d="M 1921.5,509.5 C 1931.5,509.5 1941.5,509.5 1951.5,509.5C 1869.85,619.806 1787.85,729.806 1705.5,839.5C 1705.5,826.5 1705.5,813.5 1705.5,800.5C 1778.23,704.043 1850.23,607.043 1921.5,509.5 Z"/></g>
<g><path style="opacity:1" fill="#326ca8" d="M 1951.5,509.5 C 1958.83,509.5 1966.17,509.5 1973.5,509.5C 1884.52,629.806 1795.19,749.806 1705.5,869.5C 1705.5,869.167 1705.5,868.833 1705.5,868.5C 1705.5,858.833 1705.5,849.167 1705.5,839.5C 1787.85,729.806 1869.85,619.806 1951.5,509.5 Z"/></g>
<g><path style="opacity:1" fill="#316ca6" d="M 1973.5,509.5 C 1980.83,509.5 1988.17,509.5 1995.5,509.5C 1899.21,639.787 1802.54,769.787 1705.5,899.5C 1705.5,889.5 1705.5,879.5 1705.5,869.5C 1795.19,749.806 1884.52,629.806 1973.5,509.5 Z"/></g>
<g><path style="opacity:1" fill="#306ea4" d="M 1995.5,509.5 C 2015.17,509.5 2034.83,509.5 2054.5,509.5C 1938.9,666.377 1822.56,822.711 1705.5,978.5C 1705.5,952.167 1705.5,925.833 1705.5,899.5C 1802.54,769.787 1899.21,639.787 1995.5,509.5 Z"/></g>
<g><path style="opacity:1" fill="#2e70a1" d="M 2054.5,509.5 C 2064.5,509.5 2074.5,509.5 2084.5,509.5C 1958.52,679.473 1832.19,849.139 1705.5,1018.5C 1705.5,1005.17 1705.5,991.833 1705.5,978.5C 1822.56,822.711 1938.9,666.377 2054.5,509.5 Z"/></g>
<g><path style="opacity:1" fill="#2c729f" d="M 2084.5,509.5 C 2105.84,509.333 2127.17,509.5 2148.5,510C 2152.51,511.337 2156.17,513.17 2159.5,515.5C 2159.66,516.873 2159.49,518.207 2159,519.5C 2008.06,722.413 1856.89,925.08 1705.5,1127.5C 1705.5,1091.17 1705.5,1054.83 1705.5,1018.5C 1832.19,849.139 1958.52,679.473 2084.5,509.5 Z"/></g>
<g><path style="opacity:1" fill="#503ad1" d="M 953.5,513.5 C 958.757,515.755 962.757,519.422 965.5,524.5C 964.5,674.999 964.167,825.666 964.5,976.5C 960.167,976.5 955.833,976.5 951.5,976.5C 950.835,821.83 951.501,667.496 953.5,513.5 Z"/></g>
<g><path style="opacity:1" fill="#2a749c" d="M 2159.5,515.5 C 2161.5,516.833 2163.17,518.5 2164.5,520.5C 2012.23,726.711 1859.23,932.377 1705.5,1137.5C 1705.5,1134.17 1705.5,1130.83 1705.5,1127.5C 1856.89,925.08 2008.06,722.413 2159,519.5C 2159.49,518.207 2159.66,516.873 2159.5,515.5 Z"/></g>
<g><path style="opacity:1" fill="#2a759b" d="M 2164.5,520.5 C 2169.46,525.008 2172.12,530.675 2172.5,537.5C 2172.98,565.922 2172.48,594.255 2171,622.5C 2016.06,830.747 1860.89,1038.75 1705.5,1246.5C 1705.5,1210.17 1705.5,1173.83 1705.5,1137.5C 1859.23,932.377 2012.23,726.711 2164.5,520.5 Z"/></g>
<g><path style="opacity:1" fill="#513ad5" d="M 965.5,524.5 C 968.587,528.579 970.42,533.246 971,538.5C 971.5,648.499 971.667,758.499 971.5,868.5C 970.502,904.329 970.168,940.329 970.5,976.5C 968.5,976.5 966.5,976.5 964.5,976.5C 964.167,825.666 964.5,674.999 965.5,524.5 Z"/></g>
<g><path style="opacity:0.999" fill="#277997" d="M 2172.5,537.5 C 2173.5,581.33 2173.83,625.33 2173.5,669.5C 2172.67,715.998 2172.17,762.665 2172,809.5C 2016.64,1018.35 1861.14,1227.02 1705.5,1435.5C 1705.5,1372.5 1705.5,1309.5 1705.5,1246.5C 1860.89,1038.75 2016.06,830.747 2171,622.5C 2172.48,594.255 2172.98,565.922 2172.5,537.5 Z"/></g>
<g><path style="opacity:1" fill="#257b95" d="M 2173.5,669.5 C 2173.5,725.5 2173.5,781.5 2173.5,837.5C 2172.68,835.031 2172.18,832.365 2172,829.5C 2016.64,1038.35 1861.14,1247.02 1705.5,1455.5C 1705.5,1448.83 1705.5,1442.17 1705.5,1435.5C 1861.14,1227.02 2016.64,1018.35 2172,809.5C 2172.17,762.665 2172.67,715.998 2173.5,669.5 Z"/></g>
<g><path style="opacity:0.999" fill="#237f93" d="M 2173.5,837.5 C 2173.5,907.167 2173.5,976.833 2173.5,1046.5C 2172.67,1070 2172.17,1093.66 2172,1117.5C 2016.64,1326.35 1861.14,1535.02 1705.5,1743.5C 1705.5,1654.17 1705.5,1564.83 1705.5,1475.5C 1861.14,1267.02 2016.64,1058.35 2172,849.5C 2172.67,846.167 2172.67,842.833 2172,839.5C 2016.64,1048.35 1861.14,1257.02 1705.5,1465.5C 1705.5,1462.17 1705.5,1458.83 1705.5,1455.5C 1861.14,1247.02 2016.64,1038.35 2172,829.5C 2172.18,832.365 2172.68,835.031 2173.5,837.5 Z"/></g>
<g><path style="opacity:1" fill="#267d95" d="M 1705.5,1475.5 C 1705.5,1472.17 1705.5,1468.83 1705.5,1465.5C 1861.14,1257.02 2016.64,1048.35 2172,839.5C 2172.67,842.833 2172.67,846.167 2172,849.5C 2016.64,1058.35 1861.14,1267.02 1705.5,1475.5 Z"/></g>
<g><path style="opacity:0.988" fill="#000001" d="M 971.5,868.5 C 1016.14,902.482 1060.48,936.815 1104.5,971.5C 1104.5,971.833 1104.5,972.167 1104.5,972.5C 1104.5,996.167 1104.5,1019.83 1104.5,1043.5C 1104.5,1055.83 1104.5,1068.17 1104.5,1080.5C 1104.17,1080.5 1103.83,1080.5 1103.5,1080.5C 1058.86,1046.52 1014.52,1012.18 970.5,977.5C 970.5,977.167 970.5,976.833 970.5,976.5C 970.168,940.329 970.502,904.329 971.5,868.5 Z"/></g>
<g><path style="opacity:0.988" fill="#000000" d="M 1705.5,868.5 C 1705.5,868.833 1705.5,869.167 1705.5,869.5C 1705.5,879.5 1705.5,889.5 1705.5,899.5C 1705.5,925.833 1705.5,952.167 1705.5,978.5C 1661.17,1012.5 1616.83,1046.5 1572.5,1080.5C 1572.83,1044 1572.5,1007.66 1571.5,971.5C 1615.59,936.408 1660.26,902.074 1705.5,868.5 Z"/></g>
<g><path style="opacity:0.999" fill="#2f5486" d="M 1361.5,971.5 C 1381.5,971.5 1401.5,971.5 1421.5,971.5C 1435.67,972.167 1450.01,972.833 1464.5,973.5C 1420.19,1128.76 1376.19,1284.09 1332.5,1439.5C 1312.5,1439.5 1292.5,1439.5 1272.5,1439.5C 1316.27,1283.92 1360.27,1128.42 1404.5,973C 1400.18,972.501 1395.85,972.334 1391.5,972.5C 1381.32,972.827 1371.32,972.494 1361.5,971.5 Z"/></g>
<g><path style="opacity:0.999" fill="#2c5580" d="M 1421.5,971.5 C 1438.83,971.5 1456.17,971.5 1473.5,971.5C 1491.66,972.497 1509.99,972.83 1528.5,972.5C 1484.9,1128.3 1440.9,1283.96 1396.5,1439.5C 1375.17,1439.5 1353.83,1439.5 1332.5,1439.5C 1376.19,1284.09 1420.19,1128.76 1464.5,973.5C 1450.01,972.833 1435.67,972.167 1421.5,971.5 Z"/></g>
<g><path style="opacity:0.999" fill="#295879" d="M 1473.5,971.5 C 1506.17,971.5 1538.83,971.5 1571.5,971.5C 1572.5,1007.66 1572.83,1044 1572.5,1080.5C 1572.5,1099.83 1572.5,1119.17 1572.5,1138.5C 1571.67,1154.99 1571.17,1171.66 1571,1188.5C 1547.03,1272.06 1523.53,1355.73 1500.5,1439.5C 1471.83,1439.5 1443.17,1439.5 1414.5,1439.5C 1458.32,1283.88 1501.99,1128.21 1545.5,972.5C 1539.83,972.5 1534.17,972.5 1528.5,972.5C 1509.99,972.83 1491.66,972.497 1473.5,971.5 Z"/></g>
<g><path style="opacity:1" fill="#444bb6" d="M 1104.5,972.5 C 1111.5,972.5 1118.5,972.5 1125.5,972.5C 1118.64,996.295 1111.64,1019.96 1104.5,1043.5C 1104.5,1019.83 1104.5,996.167 1104.5,972.5 Z"/></g>
<g><path style="opacity:1" fill="#424bb1" d="M 1125.5,972.5 C 1136.83,972.5 1148.17,972.5 1159.5,972.5C 1141.33,1036.99 1123,1101.32 1104.5,1165.5C 1104.5,1137.17 1104.5,1108.83 1104.5,1080.5C 1104.5,1068.17 1104.5,1055.83 1104.5,1043.5C 1111.64,1019.96 1118.64,996.295 1125.5,972.5 Z"/></g>
<g><path style="opacity:1" fill="#3f4cab" d="M 1159.5,972.5 C 1170.83,972.5 1182.17,972.5 1193.5,972.5C 1164.43,1077.44 1134.77,1182.11 1104.5,1286.5C 1104.5,1246.17 1104.5,1205.83 1104.5,1165.5C 1123,1101.32 1141.33,1036.99 1159.5,972.5 Z"/></g>
<g><path style="opacity:1" fill="#3c4da5" d="M 1193.5,972.5 C 1203.5,972.5 1213.5,972.5 1223.5,972.5C 1184.16,1112.86 1144.66,1253.19 1105,1393.5C 1104.5,1357.83 1104.33,1322.17 1104.5,1286.5C 1134.77,1182.11 1164.43,1077.44 1193.5,972.5 Z"/></g>
<g><path style="opacity:1" fill="#3a4e9f" d="M 1104.5,972.5 C 1104.5,972.167 1104.5,971.833 1104.5,971.5C 1151.5,971.5 1198.5,971.5 1245.5,971.5C 1250.98,972.489 1256.64,972.822 1262.5,972.5C 1219,1126.48 1175.5,1280.48 1132,1434.5C 1131.8,1436.32 1130.97,1437.65 1129.5,1438.5C 1114.04,1434.53 1105.54,1424.53 1104,1408.5C 1103.5,1299.17 1103.33,1189.83 1103.5,1080.5C 1103.83,1080.5 1104.17,1080.5 1104.5,1080.5C 1104.5,1108.83 1104.5,1137.17 1104.5,1165.5C 1104.5,1205.83 1104.5,1246.17 1104.5,1286.5C 1104.33,1322.17 1104.5,1357.83 1105,1393.5C 1144.66,1253.19 1184.16,1112.86 1223.5,972.5C 1213.5,972.5 1203.5,972.5 1193.5,972.5C 1182.17,972.5 1170.83,972.5 1159.5,972.5C 1148.17,972.5 1136.83,972.5 1125.5,972.5C 1118.5,972.5 1111.5,972.5 1104.5,972.5 Z"/></g>
<g><path style="opacity:1" fill="#384f9b" d="M 1262.5,972.5 C 1268.17,972.5 1273.83,972.5 1279.5,972.5C 1235.9,1128.3 1191.9,1283.96 1147.5,1439.5C 1141.31,1439.82 1135.31,1439.49 1129.5,1438.5C 1130.97,1437.65 1131.8,1436.32 1132,1434.5C 1175.5,1280.48 1219,1126.48 1262.5,972.5 Z"/></g>
<g><path style="opacity:1" fill="#375097" d="M 1279.5,972.5 C 1289.5,972.5 1299.5,972.5 1309.5,972.5C 1265.9,1128.3 1221.9,1283.96 1177.5,1439.5C 1167.5,1439.5 1157.5,1439.5 1147.5,1439.5C 1191.9,1283.96 1235.9,1128.3 1279.5,972.5 Z"/></g>
<g><path style="opacity:1" fill="#355092" d="M 1309.5,972.5 C 1323.83,972.5 1338.17,972.5 1352.5,972.5C 1308.9,1128.3 1264.9,1283.96 1220.5,1439.5C 1206.17,1439.5 1191.83,1439.5 1177.5,1439.5C 1221.9,1283.96 1265.9,1128.3 1309.5,972.5 Z"/></g>
<g><path style="opacity:1" fill="#345290" d="M 1352.5,972.5 C 1353.83,972.5 1355.17,972.5 1356.5,972.5C 1312.99,1128.2 1269.32,1283.87 1225.5,1439.5C 1223.83,1439.5 1222.17,1439.5 1220.5,1439.5C 1264.9,1283.96 1308.9,1128.3 1352.5,972.5 Z"/></g>
<g><path style="opacity:1" fill="#32528d" d="M 1245.5,971.5 C 1284.17,971.5 1322.83,971.5 1361.5,971.5C 1371.32,972.494 1381.32,972.827 1391.5,972.5C 1347.34,1128.12 1303.34,1283.79 1259.5,1439.5C 1248.17,1439.5 1236.83,1439.5 1225.5,1439.5C 1269.32,1283.87 1312.99,1128.2 1356.5,972.5C 1355.17,972.5 1353.83,972.5 1352.5,972.5C 1338.17,972.5 1323.83,972.5 1309.5,972.5C 1299.5,972.5 1289.5,972.5 1279.5,972.5C 1273.83,972.5 1268.17,972.5 1262.5,972.5C 1256.64,972.822 1250.98,972.489 1245.5,971.5 Z"/></g>
<g><path style="opacity:1" fill="#31538a" d="M 1391.5,972.5 C 1395.85,972.334 1400.18,972.501 1404.5,973C 1360.27,1128.42 1316.27,1283.92 1272.5,1439.5C 1268.17,1439.5 1263.83,1439.5 1259.5,1439.5C 1303.34,1283.79 1347.34,1128.12 1391.5,972.5 Z"/></g>
<g><path style="opacity:1" fill="#2b577c" d="M 1528.5,972.5 C 1534.17,972.5 1539.83,972.5 1545.5,972.5C 1501.99,1128.21 1458.32,1283.88 1414.5,1439.5C 1408.5,1439.5 1402.5,1439.5 1396.5,1439.5C 1440.9,1283.96 1484.9,1128.3 1528.5,972.5 Z"/></g>
<g><path style="opacity:0.991" fill="#000000" d="M 692.5,977.5 C 721.5,977.5 750.5,977.5 779.5,977.5C 779.568,1039.5 779.234,1101.5 778.5,1163.5C 749.5,1163.5 720.5,1163.5 691.5,1163.5C 691.461,1101.5 691.795,1039.5 692.5,977.5 Z"/></g>
<g><path style="opacity:0.999" fill="#208591" d="M 2173.5,1046.5 C 2173.5,1119.17 2173.5,1191.83 2173.5,1264.5C 2172.98,1285.42 2172.14,1306.42 2171,1327.5C 2016.06,1535.75 1860.89,1743.75 1705.5,1951.5C 1705.5,1882.17 1705.5,1812.83 1705.5,1743.5C 1861.14,1535.02 2016.64,1326.35 2172,1117.5C 2172.17,1093.66 2172.67,1070 2173.5,1046.5 Z"/></g>
<g><path style="opacity:0.985" fill="#275a75" d="M 1572.5,1138.5 C 1572.99,1230.87 1572.49,1323.2 1571,1415.5C 1567.68,1426.15 1560.85,1433.65 1550.5,1438C 1533.89,1439.44 1517.22,1439.94 1500.5,1439.5C 1523.53,1355.73 1547.03,1272.06 1571,1188.5C 1571.17,1171.66 1571.67,1154.99 1572.5,1138.5 Z"/></g>
<g><path style="opacity:1" fill="#4749bd" d="M 531.5,1163.5 C 532.167,1163.5 532.833,1163.5 533.5,1163.5C 627.666,1164.33 721.999,1164.83 816.5,1165C 714.84,1168.76 613.173,1172.26 511.5,1175.5C 516.955,1169.36 523.622,1165.36 531.5,1163.5 Z"/></g>
<g><path style="opacity:1" fill="#454ab9" d="M 533.5,1163.5 C 586.167,1163.5 638.833,1163.5 691.5,1163.5C 720.5,1163.5 749.5,1163.5 778.5,1163.5C 832.167,1163.5 885.833,1163.5 939.5,1163.5C 943.579,1164.76 947.579,1166.42 951.5,1168.5C 803.015,1174.49 654.348,1179.83 505.5,1184.5C 506.769,1180.95 508.769,1177.95 511.5,1175.5C 613.173,1172.26 714.84,1168.76 816.5,1165C 721.999,1164.83 627.666,1164.33 533.5,1163.5 Z"/></g>
<g><path style="opacity:0.994" fill="#21656f" d="M 939.5,1163.5 C 957.618,1165.45 968.118,1175.45 971,1193.5C 971.667,1564.5 971.667,1935.5 971,2306.5C 968.464,2321.37 959.964,2330.87 945.5,2335C 806.5,2335.67 667.5,2335.67 528.5,2335C 516.106,2331.61 507.939,2323.77 504,2311.5C 502.572,2290.87 502.072,2270.21 502.5,2249.5C 502.5,2218.5 502.5,2187.5 502.5,2156.5C 503.499,2109.34 503.832,2062 503.5,2014.5C 658.167,2008.83 812.833,2003.17 967.5,1997.5C 967.5,1988.83 967.5,1980.17 967.5,1971.5C 812.829,1976.69 658.162,1982.02 503.5,1987.5C 503.5,1984.5 503.5,1981.5 503.5,1978.5C 658.168,1973.21 812.835,1967.88 967.5,1962.5C 967.5,1879.5 967.5,1796.5 967.5,1713.5C 967.5,1706.17 967.5,1698.83 967.5,1691.5C 968.829,1525.35 968.829,1359.35 967.5,1193.5C 967.541,1188.96 966.208,1184.96 963.5,1181.5C 962.89,1179.57 961.89,1177.9 960.5,1176.5C 958.12,1173.12 955.12,1170.45 951.5,1168.5C 947.579,1166.42 943.579,1164.76 939.5,1163.5 Z"/></g>
<g><path style="opacity:1" fill="#444bb8" d="M 951.5,1168.5 C 955.12,1170.45 958.12,1173.12 960.5,1176.5C 808.367,1183.18 656.034,1188.85 503.5,1193.5C 503.405,1190.3 504.072,1187.3 505.5,1184.5C 654.348,1179.83 803.015,1174.49 951.5,1168.5 Z"/></g>
<g><path style="opacity:1" fill="#444bb5" d="M 960.5,1176.5 C 961.89,1177.9 962.89,1179.57 963.5,1181.5C 810.203,1187.36 656.87,1193.02 503.5,1198.5C 503.5,1196.83 503.5,1195.17 503.5,1193.5C 656.034,1188.85 808.367,1183.18 960.5,1176.5 Z"/></g>
<g><path style="opacity:1" fill="#424bb2" d="M 963.5,1181.5 C 966.208,1184.96 967.541,1188.96 967.5,1193.5C 967.5,1196.83 967.5,1200.17 967.5,1203.5C 812.906,1209.5 658.239,1215.16 503.5,1220.5C 503.5,1213.17 503.5,1205.83 503.5,1198.5C 656.87,1193.02 810.203,1187.36 963.5,1181.5 Z"/></g>
<g><path style="opacity:0.473" fill="#5c3ae5" d="M 531.5,1163.5 C 523.622,1165.36 516.955,1169.36 511.5,1175.5C 508.769,1177.95 506.769,1180.95 505.5,1184.5C 504.072,1187.3 503.405,1190.3 503.5,1193.5C 502.51,1199.31 502.177,1205.31 502.5,1211.5C 501.5,1211.5 500.5,1211.5 499.5,1211.5C 498.182,1199.91 500.016,1188.91 505,1178.5C 511.542,1169.46 520.376,1164.46 531.5,1163.5 Z"/></g>
<g><path style="opacity:1" fill="#404cac" d="M 967.5,1203.5 C 967.5,1211.17 967.5,1218.83 967.5,1226.5C 812.83,1231.74 658.163,1237.07 503.5,1242.5C 503.5,1235.17 503.5,1227.83 503.5,1220.5C 658.239,1215.16 812.906,1209.5 967.5,1203.5 Z"/></g>
<g><path style="opacity:1" fill="#3f4da8" d="M 967.5,1226.5 C 967.5,1227.83 967.5,1229.17 967.5,1230.5C 812.815,1235.98 658.148,1241.64 503.5,1247.5C 503.5,1245.83 503.5,1244.17 503.5,1242.5C 658.163,1237.07 812.83,1231.74 967.5,1226.5 Z"/></g>
<g><path style="opacity:1" fill="#3d4da5" d="M 967.5,1230.5 C 967.5,1237.83 967.5,1245.17 967.5,1252.5C 812.837,1258.21 658.171,1263.88 503.5,1269.5C 503.5,1262.17 503.5,1254.83 503.5,1247.5C 658.148,1241.64 812.815,1235.98 967.5,1230.5 Z"/></g>
<g><path style="opacity:0.412" fill="#5739d8" d="M 499.5,1211.5 C 500.5,1211.5 501.5,1211.5 502.5,1211.5C 502.5,1226.5 502.5,1241.5 502.5,1256.5C 501.5,1256.5 500.5,1256.5 499.5,1256.5C 499.5,1241.5 499.5,1226.5 499.5,1211.5 Z"/></g>
<g><path style="opacity:1" fill="#3a4e9f" d="M 967.5,1252.5 C 967.5,1262.83 967.5,1273.17 967.5,1283.5C 812.841,1289.26 658.175,1294.93 503.5,1300.5C 503.5,1294.5 503.5,1288.5 503.5,1282.5C 503.5,1278.17 503.5,1273.83 503.5,1269.5C 658.171,1263.88 812.837,1258.21 967.5,1252.5 Z"/></g>
<g><path style="opacity:0.381" fill="#523bca" d="M 503.5,1193.5 C 503.5,1195.17 503.5,1196.83 503.5,1198.5C 503.5,1205.83 503.5,1213.17 503.5,1220.5C 503.5,1227.83 503.5,1235.17 503.5,1242.5C 503.5,1244.17 503.5,1245.83 503.5,1247.5C 503.5,1254.83 503.5,1262.17 503.5,1269.5C 503.5,1273.83 503.5,1278.17 503.5,1282.5C 502.508,1289.65 502.175,1296.98 502.5,1304.5C 501.5,1304.5 500.5,1304.5 499.5,1304.5C 499.5,1288.5 499.5,1272.5 499.5,1256.5C 500.5,1256.5 501.5,1256.5 502.5,1256.5C 502.5,1241.5 502.5,1226.5 502.5,1211.5C 502.177,1205.31 502.51,1199.31 503.5,1193.5 Z"/></g>
<g><path style="opacity:1" fill="#394f9a" d="M 967.5,1283.5 C 967.5,1288.17 967.5,1292.83 967.5,1297.5C 812.827,1302.64 658.16,1307.98 503.5,1313.5C 503.5,1309.17 503.5,1304.83 503.5,1300.5C 658.175,1294.93 812.841,1289.26 967.5,1283.5 Z"/></g>
<g><path style="opacity:1" fill="#375097" d="M 967.5,1297.5 C 967.5,1304.83 967.5,1312.17 967.5,1319.5C 812.835,1324.88 658.168,1330.21 503.5,1335.5C 503.5,1328.17 503.5,1320.83 503.5,1313.5C 658.16,1307.98 812.827,1302.64 967.5,1297.5 Z"/></g>
<g><path style="opacity:1" fill="#355192" d="M 967.5,1319.5 C 967.5,1329.83 967.5,1340.17 967.5,1350.5C 812.837,1355.93 658.17,1361.26 503.5,1366.5C 503.5,1356.17 503.5,1345.83 503.5,1335.5C 658.168,1330.21 812.835,1324.88 967.5,1319.5 Z"/></g>
<g><path style="opacity:1" fill="#1f8891" d="M 2173.5,1264.5 C 2173.5,1301.17 2173.5,1337.83 2173.5,1374.5C 2172.68,1377.98 2172.18,1381.64 2172,1385.5C 2016.64,1594.35 1861.14,1803.02 1705.5,2011.5C 1705.5,1991.5 1705.5,1971.5 1705.5,1951.5C 1860.89,1743.75 2016.06,1535.75 2171,1327.5C 2172.14,1306.42 2172.98,1285.42 2173.5,1264.5 Z"/></g>
<g><path style="opacity:0.343" fill="#4e38be" d="M 499.5,1304.5 C 500.5,1304.5 501.5,1304.5 502.5,1304.5C 502.5,1329.83 502.5,1355.17 502.5,1380.5C 501.5,1380.5 500.5,1380.5 499.5,1380.5C 499.5,1355.17 499.5,1329.83 499.5,1304.5 Z"/></g>
<g><path style="opacity:1" fill="#335290" d="M 967.5,1350.5 C 967.5,1351.83 967.5,1353.17 967.5,1354.5C 812.833,1360.17 658.167,1365.83 503.5,1371.5C 503.5,1369.83 503.5,1368.17 503.5,1366.5C 658.17,1361.26 812.837,1355.93 967.5,1350.5 Z"/></g>
<g><path style="opacity:1" fill="#32528d" d="M 967.5,1354.5 C 967.5,1361.83 967.5,1369.17 967.5,1376.5C 812.86,1382.4 658.194,1388.07 503.5,1393.5C 503.5,1397.83 503.5,1402.17 503.5,1406.5C 503.5,1421.5 503.5,1436.5 503.5,1451.5C 503.5,1469.17 503.5,1486.83 503.5,1504.5C 503.5,1510.5 503.5,1516.5 503.5,1522.5C 503.5,1545.83 503.5,1569.17 503.5,1592.5C 503.5,1614.83 503.5,1637.17 503.5,1659.5C 503.823,1665.69 503.49,1671.69 502.5,1677.5C 502.5,1675.83 502.5,1674.17 502.5,1672.5C 502.5,1647.5 502.5,1622.5 502.5,1597.5C 502.5,1564.83 502.5,1532.17 502.5,1499.5C 502.5,1480.5 502.5,1461.5 502.5,1442.5C 502.316,1418.82 502.65,1395.16 503.5,1371.5C 658.167,1365.83 812.833,1360.17 967.5,1354.5 Z"/></g>
<g><path style="opacity:0.999" fill="#1d8c91" d="M 2173.5,1374.5 C 2173.5,1473.83 2173.5,1573.17 2173.5,1672.5C 2172.68,1675.98 2172.18,1679.64 2172,1683.5C 2016.97,1892.02 1861.8,2100.35 1706.5,2308.5C 1705.5,2216.33 1705.17,2124 1705.5,2031.5C 1861.14,1823.02 2016.64,1614.35 2172,1405.5C 2172.67,1402.17 2172.67,1398.83 2172,1395.5C 2016.64,1604.35 1861.14,1813.02 1705.5,2021.5C 1705.5,2018.17 1705.5,2014.83 1705.5,2011.5C 1861.14,1803.02 2016.64,1594.35 2172,1385.5C 2172.18,1381.64 2172.68,1377.98 2173.5,1374.5 Z"/></g>
<g><path style="opacity:1" fill="#31528a" d="M 967.5,1376.5 C 967.5,1381.17 967.5,1385.83 967.5,1390.5C 812.833,1395.83 658.167,1401.17 503.5,1406.5C 503.5,1402.17 503.5,1397.83 503.5,1393.5C 658.194,1388.07 812.86,1382.4 967.5,1376.5 Z"/></g>
<g><path style="opacity:1" fill="#2f5486" d="M 967.5,1390.5 C 967.5,1405.17 967.5,1419.83 967.5,1434.5C 812.806,1439.93 658.14,1445.6 503.5,1451.5C 503.5,1436.5 503.5,1421.5 503.5,1406.5C 658.167,1401.17 812.833,1395.83 967.5,1390.5 Z"/></g>
<g><path style="opacity:1" fill="#1e8990" d="M 1705.5,2031.5 C 1705.5,2028.17 1705.5,2024.83 1705.5,2021.5C 1861.14,1813.02 2016.64,1604.35 2172,1395.5C 2172.67,1398.83 2172.67,1402.17 2172,1405.5C 2016.64,1614.35 1861.14,1823.02 1705.5,2031.5 Z"/></g>
<g><path style="opacity:0.288" fill="#473aad" d="M 503.5,1282.5 C 503.5,1288.5 503.5,1294.5 503.5,1300.5C 503.5,1304.83 503.5,1309.17 503.5,1313.5C 503.5,1320.83 503.5,1328.17 503.5,1335.5C 503.5,1345.83 503.5,1356.17 503.5,1366.5C 503.5,1368.17 503.5,1369.83 503.5,1371.5C 502.65,1395.16 502.316,1418.82 502.5,1442.5C 501.5,1442.5 500.5,1442.5 499.5,1442.5C 499.5,1421.83 499.5,1401.17 499.5,1380.5C 500.5,1380.5 501.5,1380.5 502.5,1380.5C 502.5,1355.17 502.5,1329.83 502.5,1304.5C 502.175,1296.98 502.508,1289.65 503.5,1282.5 Z"/></g>
<g><path style="opacity:1" fill="#2c5580" d="M 967.5,1434.5 C 967.5,1452.17 967.5,1469.83 967.5,1487.5C 812.837,1493.21 658.171,1498.88 503.5,1504.5C 503.5,1486.83 503.5,1469.17 503.5,1451.5C 658.14,1445.6 812.806,1439.93 967.5,1434.5 Z"/></g>
<g><path style="opacity:0.251" fill="#4437a1" d="M 499.5,1442.5 C 500.5,1442.5 501.5,1442.5 502.5,1442.5C 502.5,1461.5 502.5,1480.5 502.5,1499.5C 501.391,1499.56 500.391,1499.89 499.5,1500.5C 499.5,1481.17 499.5,1461.83 499.5,1442.5 Z"/></g>
<g><path style="opacity:1" fill="#2b577c" d="M 967.5,1487.5 C 967.5,1493.5 967.5,1499.5 967.5,1505.5C 812.792,1510.88 658.126,1516.55 503.5,1522.5C 503.5,1516.5 503.5,1510.5 503.5,1504.5C 658.171,1498.88 812.837,1493.21 967.5,1487.5 Z"/></g>
<g><path style="opacity:1" fill="#295879" d="M 967.5,1505.5 C 967.5,1529.17 967.5,1552.83 967.5,1576.5C 812.843,1582.12 658.176,1587.45 503.5,1592.5C 503.5,1569.17 503.5,1545.83 503.5,1522.5C 658.126,1516.55 812.792,1510.88 967.5,1505.5 Z"/></g>
<g><path style="opacity:0.197" fill="#3e3690" d="M 502.5,1499.5 C 502.5,1532.17 502.5,1564.83 502.5,1597.5C 501.5,1597.5 500.5,1597.5 499.5,1597.5C 499.5,1565.17 499.5,1532.83 499.5,1500.5C 500.391,1499.89 501.391,1499.56 502.5,1499.5 Z"/></g>
<g><path style="opacity:1" fill="#265a74" d="M 967.5,1576.5 C 967.827,1598.74 967.494,1620.91 966.5,1643C 812.165,1648.52 657.831,1654.02 503.5,1659.5C 503.5,1637.17 503.5,1614.83 503.5,1592.5C 658.176,1587.45 812.843,1582.12 967.5,1576.5 Z"/></g>
<g><path style="opacity:1" fill="#255c72" d="M 967.5,1193.5 C 968.829,1359.35 968.829,1525.35 967.5,1691.5C 812.837,1697.21 658.171,1702.88 503.5,1708.5C 503.5,1715.83 503.5,1723.17 503.5,1730.5C 503.832,1781 503.499,1831.34 502.5,1881.5C 502.5,1872.5 502.5,1863.5 502.5,1854.5C 502.5,1820.5 502.5,1786.5 502.5,1752.5C 502.5,1727.5 502.5,1702.5 502.5,1677.5C 503.49,1671.69 503.823,1665.69 503.5,1659.5C 657.831,1654.02 812.165,1648.52 966.5,1643C 967.494,1620.91 967.827,1598.74 967.5,1576.5C 967.5,1552.83 967.5,1529.17 967.5,1505.5C 967.5,1499.5 967.5,1493.5 967.5,1487.5C 967.5,1469.83 967.5,1452.17 967.5,1434.5C 967.5,1419.83 967.5,1405.17 967.5,1390.5C 967.5,1385.83 967.5,1381.17 967.5,1376.5C 967.5,1369.17 967.5,1361.83 967.5,1354.5C 967.5,1353.17 967.5,1351.83 967.5,1350.5C 967.5,1340.17 967.5,1329.83 967.5,1319.5C 967.5,1312.17 967.5,1304.83 967.5,1297.5C 967.5,1292.83 967.5,1288.17 967.5,1283.5C 967.5,1273.17 967.5,1262.83 967.5,1252.5C 967.5,1245.17 967.5,1237.83 967.5,1230.5C 967.5,1229.17 967.5,1227.83 967.5,1226.5C 967.5,1218.83 967.5,1211.17 967.5,1203.5C 967.5,1200.17 967.5,1196.83 967.5,1193.5 Z"/></g>
<g><path style="opacity:0.156" fill="#393681" d="M 499.5,1597.5 C 500.5,1597.5 501.5,1597.5 502.5,1597.5C 502.5,1622.5 502.5,1647.5 502.5,1672.5C 501.5,1672.5 500.5,1672.5 499.5,1672.5C 499.5,1647.5 499.5,1622.5 499.5,1597.5 Z"/></g>
<g><path style="opacity:0.998" fill="#1c9293" d="M 2173.5,1672.5 C 2173.5,1784.83 2173.5,1897.17 2173.5,2009.5C 2173.17,2009.5 2172.83,2009.5 2172.5,2009.5C 2172.67,2000.16 2172.5,1990.83 2172,1981.5C 2084.57,2098.71 1997.4,2216.05 1910.5,2333.5C 1850.83,2333.67 1791.17,2333.5 1731.5,2333C 1717.98,2329.98 1709.65,2321.82 1706.5,2308.5C 1861.8,2100.35 2016.97,1892.02 2172,1683.5C 2172.18,1679.64 2172.68,1675.98 2173.5,1672.5 Z"/></g>
<g><path style="opacity:1" fill="#245e70" d="M 967.5,1691.5 C 967.5,1698.83 967.5,1706.17 967.5,1713.5C 812.86,1719.4 658.194,1725.07 503.5,1730.5C 503.5,1723.17 503.5,1715.83 503.5,1708.5C 658.171,1702.88 812.837,1697.21 967.5,1691.5 Z"/></g>
<g><path style="opacity:0.124" fill="#343575" d="M 499.5,1672.5 C 500.5,1672.5 501.5,1672.5 502.5,1672.5C 502.5,1674.17 502.5,1675.83 502.5,1677.5C 502.5,1702.5 502.5,1727.5 502.5,1752.5C 501.5,1752.5 500.5,1752.5 499.5,1752.5C 499.5,1725.83 499.5,1699.17 499.5,1672.5 Z"/></g>
<g><path style="opacity:1" fill="#22606f" d="M 967.5,1713.5 C 967.5,1796.5 967.5,1879.5 967.5,1962.5C 812.835,1967.88 658.168,1973.21 503.5,1978.5C 503.5,1981.5 503.5,1984.5 503.5,1987.5C 503.81,1990.71 503.477,1993.71 502.5,1996.5C 502.5,1989.17 502.5,1981.83 502.5,1974.5C 502.5,1943.5 502.5,1912.5 502.5,1881.5C 503.499,1831.34 503.832,1781 503.5,1730.5C 658.194,1725.07 812.86,1719.4 967.5,1713.5 Z"/></g>
<g><path style="opacity:0.088" fill="#303569" d="M 499.5,1752.5 C 500.5,1752.5 501.5,1752.5 502.5,1752.5C 502.5,1786.5 502.5,1820.5 502.5,1854.5C 501.5,1854.5 500.5,1854.5 499.5,1854.5C 499.5,1820.5 499.5,1786.5 499.5,1752.5 Z"/></g>
<g><path style="opacity:0.048" fill="#2b355c" d="M 499.5,1854.5 C 500.5,1854.5 501.5,1854.5 502.5,1854.5C 502.5,1863.5 502.5,1872.5 502.5,1881.5C 502.5,1912.5 502.5,1943.5 502.5,1974.5C 501.5,1974.5 500.5,1974.5 499.5,1974.5C 499.5,1934.5 499.5,1894.5 499.5,1854.5 Z"/></g>
<g><path style="opacity:0.999" fill="#21626e" d="M 502.5,2156.5 C 502.5,2120.83 502.5,2085.17 502.5,2049.5C 502.5,2031.83 502.5,2014.17 502.5,1996.5C 503.477,1993.71 503.81,1990.71 503.5,1987.5C 658.162,1982.02 812.829,1976.69 967.5,1971.5C 967.5,1980.17 967.5,1988.83 967.5,1997.5C 812.833,2003.17 658.167,2008.83 503.5,2014.5C 503.832,2062 503.499,2109.34 502.5,2156.5 Z"/></g>
<g><path style="opacity:0.034" fill="#293454" d="M 499.5,1974.5 C 500.5,1974.5 501.5,1974.5 502.5,1974.5C 502.5,1981.83 502.5,1989.17 502.5,1996.5C 502.5,2014.17 502.5,2031.83 502.5,2049.5C 501.5,2049.5 500.5,2049.5 499.5,2049.5C 499.5,2024.5 499.5,1999.5 499.5,1974.5 Z"/></g>
<g><path style="opacity:0.999" fill="#1c9595" d="M 2172.5,2009.5 C 2092.88,2116.8 2013.22,2224.13 1933.5,2331.5C 1943.15,2332.67 1952.82,2332.83 1962.5,2332C 2032.33,2238.17 2102.17,2144.33 2172,2050.5C 2172.67,2057.17 2172.67,2063.83 2172,2070.5C 2106.82,2158.2 2041.66,2245.86 1976.5,2333.5C 1954.5,2333.5 1932.5,2333.5 1910.5,2333.5C 1997.4,2216.05 2084.57,2098.71 2172,1981.5C 2172.5,1990.83 2172.67,2000.16 2172.5,2009.5 Z"/></g>
<g><path style="opacity:0.994" fill="#1c9696" d="M 2172.5,2009.5 C 2172.83,2009.5 2173.17,2009.5 2173.5,2009.5C 2173.67,2108.17 2173.5,2206.83 2173,2305.5C 2169.91,2320.26 2161.08,2329.42 2146.5,2333C 2089.83,2333.5 2033.17,2333.67 1976.5,2333.5C 2041.66,2245.86 2106.82,2158.2 2172,2070.5C 2172.67,2063.83 2172.67,2057.17 2172,2050.5C 2102.17,2144.33 2032.33,2238.17 1962.5,2332C 1952.82,2332.83 1943.15,2332.67 1933.5,2331.5C 2013.22,2224.13 2092.88,2116.8 2172.5,2009.5 Z"/></g>
<g><path style="opacity:0.013" fill="#26344c" d="M 499.5,2049.5 C 500.5,2049.5 501.5,2049.5 502.5,2049.5C 502.5,2085.17 502.5,2120.83 502.5,2156.5C 502.5,2187.5 502.5,2218.5 502.5,2249.5C 500.686,2239.55 499.853,2229.22 500,2218.5C 499.5,2162.17 499.333,2105.83 499.5,2049.5 Z"/></g>
</svg>
