<?xml version="1.0" standalone="no"?><!DOCTYPE svg PUBLIC "-//W3C//DTD SVG 1.1//EN" "http://www.w3.org/Graphics/SVG/1.1/DTD/svg11.dtd"><svg t="1735009131650" class="icon" viewBox="72.50853 60.04347 768.34814 811.66156" version="1.1" xmlns="http://www.w3.org/2000/svg" p-id="34329" xmlns:xlink="http://www.w3.org/1999/xlink" width="207.03125" height="200"><path d="M381.26265 106.919198a31.213483 31.213483 0 0 0-22.443837-9.415512 30.779542 30.779542 0 0 0-22.282369 9.415512h-0.151375a32.414389 32.414389 0 0 0-9.213679 22.776861 32.091456 32.091456 0 0 0 9.213679 22.726402l0.151375 0.161466a30.880458 30.880458 0 0 0 22.282369 9.314596c8.820105 0 16.731961-3.532079 22.443837-9.314596l0.060549-0.161466c5.711876-5.732059 9.082488-13.754923 9.082488-22.726402a32.29329 32.29329 0 0 0-9.193496-22.776861h-0.06055z m-22.443837 440.803402c8.820105 0 16.731961-3.653178 22.443837-9.385237l0.060549-0.161467c5.711876-5.711876 9.082488-13.785198 9.082488-22.655761 0-9.082488-3.48162-17.014527-9.082488-22.827319h-0.060549a31.031833 31.031833 0 0 0-22.443837-9.445787 30.577709 30.577709 0 0 0-22.282369 9.445787h-0.151375a32.495123 32.495123 0 0 0-9.213679 22.827319 32.091456 32.091456 0 0 0 9.213679 22.655761l0.151375 0.161467a31.183208 31.183208 0 0 0 22.282369 9.375145z m172.4058-97.566101a31.284124 31.284124 0 0 0 19.275057-14.95583l0.585316-1.130265a32.192373 32.192373 0 0 0 2.50273-23.32181 31.344674 31.344674 0 0 0-14.753997-19.577807l-0.444033-0.302749a31.082291 31.082291 0 0 0-23.553918-2.886213 31.082291 31.082291 0 0 0-19.254873 15.006288 32.898789 32.898789 0 0 0-3.188963 24.472258 32.596039 32.596039 0 0 0 14.743905 19.59799h0.050458c7.56874 4.440327 16.11637 5.217385 24.048409 3.027496z m-139.93086-160.457282a45.503263 45.503263 0 0 0-32.454756-13.724649 45.311522 45.311522 0 0 0-32.394206 13.714557 46.754628 46.754628 0 0 0-13.361349 32.949247 47.329852 47.329852 0 0 0 13.361349 33.09053c8.275155 8.376072 19.71909 13.623732 32.293289 13.623731s24.149326-5.24766 32.454756-13.623731a47.329852 47.329852 0 0 0 13.381532-33.100622 46.724353 46.724353 0 0 0-13.381532-32.949247z m-18.164976-54.878409a86.485466 86.485466 0 0 1 47.592236 25.017207h0.100916a86.990049 86.990049 0 0 1 5.782517 6.5293L458.19132 247.566565a69.632406 69.632406 0 0 1-1.029348-39.529004 68.86544 68.86544 0 0 1 31.80889-42.112468l0.534857-0.343116a66.907659 66.907659 0 0 1 51.235323-6.690766 68.118658 68.118658 0 0 1 41.375777 32.293289v0.050458a70.480104 70.480104 0 0 1 6.832049 52.638062 68.754432 68.754432 0 0 1-31.80889 42.162926l-4.319228 2.593555h-0.433941c-15.137479 7.336632-31.788707 8.476989-47.057378 4.379778a68.219574 68.219574 0 0 1-33.070347-20.627339L440.702486 290.960673a89.210212 89.210212 0 0 1 5.631142 31.405224 90.855152 90.855152 0 0 1-5.631142 31.546507l31.546507 18.498a67.795725 67.795725 0 0 1 33.070347-20.63743 66.352618 66.352618 0 0 1 51.810546 6.983424l1.049532 0.504583v0.050458a69.228739 69.228739 0 0 1 30.759358 41.668435 70.338821 70.338821 0 0 1-6.832049 52.587604l-0.565132 1.16054-0.06055-0.100917a68.825073 68.825073 0 0 1-40.790462 31.405224 67.654442 67.654442 0 0 1-51.820638-6.943057v-0.131192a69.026906 69.026906 0 0 1-31.80889-42.132651 69.329656 69.329656 0 0 1 1.029349-39.468455l-31.586874-18.548458a88.100131 88.100131 0 0 1-5.782517 6.428383l-0.100917 0.100917a86.122167 86.122167 0 0 1-47.592235 24.875924v37.137283a67.513158 67.513158 0 0 1 34.079512 18.841116l0.050458 0.100917a69.672772 69.672772 0 0 1 19.981473 49.045433 69.632406 69.632406 0 0 1-19.981473 48.944517l-0.050458 0.201833c-12.432916 12.554016-29.467627 20.334681-48.278468 20.334681a67.624167 67.624167 0 0 1-48.197735-20.334681h-0.050458v-0.201833a69.632406 69.632406 0 0 1-20.011748-48.954608c0-19.143866 7.669656-36.551967 20.011748-49.045434v-0.100916h0.050458a66.403077 66.403077 0 0 1 34.049238-18.841116v-37.137283a85.04236 85.04236 0 0 1-47.430769-24.875925l-0.131192-0.100916a89.613878 89.613878 0 0 1-25.632799-62.850815c0-24.522717 9.869637-46.70417 25.632799-62.800357h0.131192a86.283633 86.283633 0 0 1 47.541777-25.017207v-36.985909a68.724157 68.724157 0 0 1-34.049237-18.891574h-0.050459v-0.100916a69.834239 69.834239 0 0 1-20.011748-49.055526 69.935155 69.935155 0 0 1 20.011748-49.045433l0.050459-0.050458a67.472792 67.472792 0 0 1 48.197734-20.385139c18.810841 0 35.855643 7.770573 48.278468 20.385139v0.050458h0.050458a69.96543 69.96543 0 0 1 19.981473 49.045433 70.036072 70.036072 0 0 1-19.981473 49.045434l-0.050458 0.100916a68.663607 68.663607 0 0 1-34.079512 18.891575V234.447416z m177.461718-24.674092l-0.262383-0.403666a31.788707 31.788707 0 0 0-19.002583-14.602622 31.183208 31.183208 0 0 0-24.098867 3.199054h0.050458a31.859348 31.859348 0 0 0-14.794363 19.577807 32.696956 32.696956 0 0 0 3.188962 24.472258l0.141284 0.201833a31.253849 31.253849 0 0 0 19.103499 14.71363 30.537342 30.537342 0 0 0 23.99795-3.148595l0.403667-0.201833a32.141915 32.141915 0 0 0 14.35033-19.335607 32.777689 32.777689 0 0 0-3.077954-24.472259M72.508527 647.700606h38.106081v118.354906l54.949051-61.861833h45.684913l-66.332435 71.650736 66.604909 90.824877h-43.626215l-57.280223-81.13689v81.13689H72.508527v-218.988869M255.50047 786.158085c0 20.153031 14.249414 49.4491 48.561034 49.449099 21.232838 0 35.320785-11.262285 42.455584-26.016281 3.794462-7.064157 5.550409-14.83473 6.125634-22.786952a51.729813 51.729813 0 0 0-4.389869-22.847503c-6.680674-15.339313-21.495221-28.660294-44.484007-28.660294-30.809817 0-48.28856 25.430966-48.288559 50.589456v0.272475z m134.955675 80.531391h-38.116173v-23.372269c-10.142111 18.901666-31.284124 28.38782-53.78851 28.38782-51.194956 0-81.13689-40.568445-81.13689-86.404733 0-51.184864 36.350134-86.101983 81.13689-86.101983 29.084144 0 46.82527 15.682429 53.78851 28.720844v-23.715384h38.116173v162.475613m43.141817-132.574045H413.757772V704.213863h19.749365v-9.15313c0-48.278468 36.077659-51.184864 63.426039-51.507796v29.841017c-9.617345 0-25.309866 0-25.309866 22.837411v8.073323h25.309866v29.901567h-25.309866V866.689476h-38.116173V734.105339m89.412045-86.404733h38.085899v118.354906l54.959142-61.861833h45.684913l-66.332435 71.650736 66.60491 90.824877h-43.595941l-57.280223-81.13689v81.13689H522.949457v-218.988869M705.931309 786.158085c0 20.153031 14.128314 49.4491 48.561034 49.449099 21.192471 0 35.179502-11.262285 42.445493-26.016281 3.804553-7.064157 5.550409-14.83473 6.135725-22.786952a51.729813 51.729813 0 0 0-4.389869-22.847503c-6.660491-15.339313-21.495221-28.660294-44.463823-28.660294-30.819908 0-48.28856 25.430966-48.28856 50.589456v0.272475z m134.925401 80.531391h-38.106082v-23.372269c-10.172386 18.901666-31.284124 28.38782-53.78851 28.38782-51.194956 0-81.116707-40.568445-81.116707-86.404733 0-51.184864 36.329951-86.101983 81.116707-86.101983 29.063961 0 46.82527 15.682429 53.78851 28.720844v-23.715384h38.106082v162.475613" p-id="34330"></path></svg>