<?xml version="1.0" encoding="UTF-8"?>
<!DOCTYPE svg PUBLIC "-//W3C//DTD SVG 1.1//EN" "http://www.w3.org/Graphics/SVG/1.1/DTD/svg11.dtd">
<svg xmlns="http://www.w3.org/2000/svg" version="1.1" width="917px" height="241px" style="shape-rendering:geometricPrecision; text-rendering:geometricPrecision; image-rendering:optimizeQuality; fill-rule:evenodd; clip-rule:evenodd" xmlns:xlink="http://www.w3.org/1999/xlink">
<g><path style="opacity:1" fill="#f3f3f3" d="M -0.5,-0.5 C 305.167,-0.5 610.833,-0.5 916.5,-0.5C 916.5,79.8333 916.5,160.167 916.5,240.5C 663.5,240.5 410.5,240.5 157.5,240.5C 186.955,229.735 216.622,219.235 246.5,209C 251.843,204.81 254.177,199.31 253.5,192.5C 254.542,181.717 249.875,174.883 239.5,172C 234.167,171.333 228.833,171.333 223.5,172C 193.802,182.566 163.969,192.733 134,202.5C 101.711,192.404 69.5446,181.904 37.5,171C 13.9004,169.623 5.40045,180.456 12,203.5C 14.592,206.762 17.7587,209.262 21.5,211C 51.1048,220.368 80.4381,230.201 109.5,240.5C 72.8333,240.5 36.1667,240.5 -0.5,240.5C -0.5,160.167 -0.5,79.8333 -0.5,-0.5 Z"/></g>
<g><path style="opacity:1" fill="#a7d7ec" d="M 122.5,4.5 C 129.841,4.33368 137.174,4.50034 144.5,5C 178.317,16.2721 211.983,27.9387 245.5,40C 249.721,43.6052 252.554,48.1052 254,53.5C 254.667,60.5 254.667,67.5 254,74.5C 251.807,83.36 246.307,88.86 237.5,91C 203.164,103.779 168.331,114.946 133,124.5C 95.7191,113.407 58.5524,101.907 21.5,90C 18.0354,87.5374 14.8688,84.7041 12,81.5C 11.3333,70.1667 11.3333,58.8333 12,47.5C 14.883,42.9499 18.7163,39.4499 23.5,37C 56.7697,26.6318 89.7697,15.7985 122.5,4.5 Z"/></g>
<g><path style="opacity:1" fill="#e16a6b" d="M 752.5,29.5 C 752.5,29.8333 752.5,30.1667 752.5,30.5C 752.5,92.1667 752.5,153.833 752.5,215.5C 762.833,215.5 773.167,215.5 783.5,215.5C 783.833,215.5 784.167,215.5 784.5,215.5C 773.679,216.495 762.679,216.828 751.5,216.5C 751.168,153.998 751.501,91.6644 752.5,29.5 Z"/></g>
<g><path style="opacity:1" fill="#d31c1f" d="M 752.5,30.5 C 762.833,30.5 773.167,30.5 783.5,30.5C 783.5,92.1667 783.5,153.833 783.5,215.5C 773.167,215.5 762.833,215.5 752.5,215.5C 752.5,153.833 752.5,92.1667 752.5,30.5 Z"/></g>
<g><path style="opacity:1" fill="#dc4d4f" d="M 752.5,30.5 C 752.5,30.1667 752.5,29.8333 752.5,29.5C 763.167,29.5 773.833,29.5 784.5,29.5C 784.5,91.5 784.5,153.5 784.5,215.5C 784.167,215.5 783.833,215.5 783.5,215.5C 783.5,153.833 783.5,92.1667 783.5,30.5C 773.167,30.5 762.833,30.5 752.5,30.5 Z"/></g>
<g><path style="opacity:1" fill="#acd9ed" d="M 377.5,73.5 C 403.27,71.8087 424.77,80.4754 442,99.5C 444.932,105.147 446.099,111.147 445.5,117.5C 435.775,117.945 426.275,119.612 417,122.5C 413.981,120.176 411.647,117.176 410,113.5C 398.995,101.955 386.161,99.4551 371.5,106C 365.03,112.022 364.863,118.189 371,124.5C 389.119,130.57 407.285,136.403 425.5,142C 445.644,152.132 452.144,167.966 445,189.5C 439.644,205.858 428.477,215.358 411.5,218C 391.719,221.223 372.386,219.557 353.5,213C 338.567,204.646 331.233,191.813 331.5,174.5C 340.846,173.093 350.18,171.926 359.5,171C 371.765,192.98 388.931,198.147 411,186.5C 416.759,178.064 415.259,171.231 406.5,166C 388.607,161.147 370.94,155.48 353.5,149C 332.784,134.969 328.284,116.803 340,94.5C 350.071,82.879 362.571,75.879 377.5,73.5 Z"/></g>
<g><path style="opacity:1" fill="#acd9ed" d="M 517.5,73.5 C 544.327,71.27 566.494,80.27 584,100.5C 587.914,106.985 590.08,113.985 590.5,121.5C 580.271,122.813 570.271,125.146 560.5,128.5C 550.29,106.816 533.956,100.316 511.5,109C 496.329,123.47 491.495,140.97 497,161.5C 500.968,182.475 513.468,191.308 534.5,188C 541.884,187.657 548.051,184.824 553,179.5C 555.361,175.433 558.194,171.767 561.5,168.5C 570.253,171.68 579.253,173.68 588.5,174.5C 585.462,195.365 574.129,209.531 554.5,217C 489.283,227.455 458.45,199.622 462,133.5C 467.585,101.42 486.085,81.4198 517.5,73.5 Z"/></g>
<g><path style="opacity:1" fill="#d41f21" d="M 721.5,215.5 C 712.167,215.5 702.833,215.5 693.5,215.5C 693.806,212.615 693.473,209.948 692.5,207.5C 692.762,206.022 692.429,204.689 691.5,203.5C 680.819,214.238 667.819,220.071 652.5,221C 634.579,222.288 619.412,216.455 607,203.5C 591.333,170.164 600.833,147.33 635.5,135C 653.404,131.153 671.404,127.819 689.5,125C 690.409,121.245 689.575,117.745 687,114.5C 679.261,105.143 669.427,101.977 657.5,105C 653.724,105.592 650.057,106.592 646.5,108C 641.588,113.418 636.254,118.251 630.5,122.5C 622.967,119.867 615.301,117.7 607.5,116C 606.572,115.612 605.905,114.945 605.5,114C 610.652,94.8478 622.652,82.1811 641.5,76C 658.322,74.7464 674.988,75.7464 691.5,79C 706.333,83.1667 715.833,92.6667 720,107.5C 721.416,143.479 721.916,179.479 721.5,215.5 Z"/></g>
<g><path style="opacity:1" fill="#d41d20" d="M 847.5,166.5 C 846.504,182.658 846.17,198.991 846.5,215.5C 835.833,215.5 825.167,215.5 814.5,215.5C 814.5,170.167 814.5,124.833 814.5,79.5C 824.167,79.5 833.833,79.5 843.5,79.5C 843.172,84.8746 843.505,90.2079 844.5,95.5C 857.497,81.6747 873.497,75.6747 892.5,77.5C 892.5,87.5 892.5,97.5 892.5,107.5C 873.542,104.988 859.375,111.988 850,128.5C 848.305,141.113 847.472,153.78 847.5,166.5 Z"/></g>
<g><path style="opacity:1" fill="#d21519" d="M 25.5,109.5 C 29.5138,109.334 33.5138,109.501 37.5,110C 69.4015,120.801 101.402,131.301 133.5,141.5C 166.368,129.99 199.535,119.323 233,109.5C 253.24,113.315 259.24,124.648 251,143.5C 248.795,146.04 246.295,148.207 243.5,150C 207.05,162.539 170.383,174.372 133.5,185.5C 94.2923,174.486 55.6256,161.986 17.5,148C 15.6667,146.167 13.8333,144.333 12,142.5C 11.3333,134.5 11.3333,126.5 12,118.5C 15.8823,114.429 20.3823,111.429 25.5,109.5 Z"/></g>
<g><path style="opacity:1" fill="#fdfefd" d="M 157.5,240.5 C 141.5,240.5 125.5,240.5 109.5,240.5C 80.4381,230.201 51.1048,220.368 21.5,211C 17.7587,209.262 14.592,206.762 12,203.5C 5.40045,180.456 13.9004,169.623 37.5,171C 69.5446,181.904 101.711,192.404 134,202.5C 163.969,192.733 193.802,182.566 223.5,172C 228.833,171.333 234.167,171.333 239.5,172C 249.875,174.883 254.542,181.717 253.5,192.5C 254.177,199.31 251.843,204.81 246.5,209C 216.622,219.235 186.955,229.735 157.5,240.5 Z"/></g>
<g><path style="opacity:1" fill="#e37879" d="M 692.5,207.5 C 693.473,209.948 693.806,212.615 693.5,215.5C 702.833,215.5 712.167,215.5 721.5,215.5C 712.014,216.494 702.348,216.827 692.5,216.5C 692.5,213.5 692.5,210.5 692.5,207.5 Z"/></g>
<g><path style="opacity:1" fill="#e68585" d="M 847.5,166.5 C 847.5,183.167 847.5,199.833 847.5,216.5C 836.321,216.828 825.321,216.495 814.5,215.5C 825.167,215.5 835.833,215.5 846.5,215.5C 846.17,198.991 846.504,182.658 847.5,166.5 Z"/></g>
</svg>
