<?xml version="1.0" encoding="UTF-8"?>
<!DOCTYPE svg PUBLIC "-//W3C//DTD SVG 1.1//EN" "http://www.w3.org/Graphics/SVG/1.1/DTD/svg11.dtd">
<svg xmlns="http://www.w3.org/2000/svg" version="1.1" width="257px" height="71px" style="shape-rendering:geometricPrecision; text-rendering:geometricPrecision; image-rendering:optimizeQuality; fill-rule:evenodd; clip-rule:evenodd" xmlns:xlink="http://www.w3.org/1999/xlink">
<g><path style="opacity:1" fill="#f3f3f3" d="M -0.5,-0.5 C 85.1667,-0.5 170.833,-0.5 256.5,-0.5C 256.5,23.1667 256.5,46.8333 256.5,70.5C 170.833,70.5 85.1667,70.5 -0.5,70.5C -0.5,46.8333 -0.5,23.1667 -0.5,-0.5 Z"/></g>
<g><path style="opacity:1" fill="#e3e3e3" d="M 33.5,13.5 C 36.6852,13.0196 39.5185,13.6863 42,15.5C 42.3333,24.1667 42.6667,32.8333 43,41.5C 43.8333,39.3333 45.3333,37.8333 47.5,37C 42.2587,33.1966 42.2587,29.5299 47.5,26C 52.0759,24.5236 56.7426,24.1902 61.5,25C 64.4281,26.2598 66.2614,28.4265 67,31.5C 68.5,28.6667 70.6667,26.5 73.5,25C 78.8538,24.4715 84.1871,24.6381 89.5,25.5C 89.6841,18.6828 93.0174,16.6828 99.5,19.5C 100.309,21.0709 100.643,22.7376 100.5,24.5C 104.58,24.0807 106.58,25.914 106.5,30C 106.483,33.8606 104.483,35.694 100.5,35.5C 100.5,38.8333 100.5,42.1667 100.5,45.5C 105.039,44.5394 107.372,46.3727 107.5,51C 107.561,52.7106 106.894,54.044 105.5,55C 98.6452,57.7162 93.4785,55.8828 90,49.5C 83.9685,56.9396 76.8019,58.273 68.5,53.5C 63.1204,54.6867 57.7871,55.6867 52.5,56.5C 49.8916,56.0772 47.5583,55.0772 45.5,53.5C 38.61,57.9765 33.7767,56.3098 31,48.5C 29.8333,51 28,52.8333 25.5,54C 6.81182,61.4403 -0.854852,55.4403 2.5,36C 2.66667,30.8333 2.83333,25.6667 3,20.5C 3.24917,19.376 3.74917,18.376 4.5,17.5C 11.9979,15.8435 19.3312,16.3435 26.5,19C 30.5401,23.2988 31.5401,28.2988 29.5,34C 29.6301,35.0588 30.1301,35.8921 31,36.5C 31.3333,29.5 31.6667,22.5 32,15.5C 32.7172,14.9558 33.2172,14.2891 33.5,13.5 Z"/></g>
<g><path style="opacity:1" fill="#e2e2e2" d="M 183.5,14.5 C 186.833,14.5 190.167,14.5 193.5,14.5C 193.281,15.675 193.614,16.675 194.5,17.5C 198.374,13.5664 202.207,13.5664 206,17.5C 206.025,20.9167 206.192,24.2501 206.5,27.5C 209.82,25.2808 213.32,24.9474 217,26.5C 217.333,32.1667 217.667,37.8333 218,43.5C 219,44.8333 220,44.8333 221,43.5C 221.19,37.5845 221.69,31.7512 222.5,26C 225.5,25.3333 228.5,25.3333 231.5,26C 232.227,27.3988 232.727,28.8988 233,30.5C 234.167,28 236,26.1667 238.5,25C 242.956,24.1327 247.289,24.4661 251.5,26C 255.515,29.8119 255.181,33.3119 250.5,36.5C 256.677,41.8717 257.01,47.5383 251.5,53.5C 245.132,57.5976 238.966,57.2643 233,52.5C 230.388,55.5759 227.221,56.2425 223.5,54.5C 215.51,57.8954 210.01,55.562 207,47.5C 206.755,54.7064 203.255,57.0397 196.5,54.5C 195.667,53.5 194.833,52.5 194,51.5C 192.094,55.4406 189.094,56.4406 185,54.5C 177.686,57.5052 172.019,55.5052 168,48.5C 167.827,55.1673 164.66,57.1673 158.5,54.5C 153.8,57.2034 149.3,56.8701 145,53.5C 141.692,55.9925 138.192,56.1592 134.5,54C 132.208,50.5838 130.041,47.0838 128,43.5C 127.667,46.8333 127.333,50.1667 127,53.5C 123.667,56.1667 120.333,56.1667 117,53.5C 116.833,47.5 116.667,41.5 116.5,35.5C 116.523,29.0916 117.19,22.9249 118.5,17C 124.167,16.3333 129.833,16.3333 135.5,17C 141.062,18.2652 144.228,21.7652 145,27.5C 151.413,23.7751 157.913,23.6084 164.5,27C 165.376,28.586 166.376,30.086 167.5,31.5C 170.923,25.9094 175.923,23.5761 182.5,24.5C 182.342,21.0977 182.676,17.7644 183.5,14.5 Z"/></g>
<g><path style="opacity:1" fill="#040404" d="M 34.5,15.5 C 36.1667,15.5 37.8333,15.5 39.5,15.5C 39.0078,27.6187 39.6745,39.6187 41.5,51.5C 38.9556,51.8957 36.7889,51.229 35,49.5C 34.5001,38.1716 34.3335,26.8382 34.5,15.5 Z"/></g>
<g><path style="opacity:1" fill="#161616" d="M 186.5,15.5 C 188.167,15.5 189.833,15.5 191.5,15.5C 191.5,27.5 191.5,39.5 191.5,51.5C 189.234,51.8588 187.401,51.1922 186,49.5C 179.363,53.0931 174.03,51.7598 170,45.5C 168.909,39.9031 169.576,34.5698 172,29.5C 175.546,25.7587 179.712,24.7587 184.5,26.5C 184.56,27.0431 184.893,27.3764 185.5,27.5C 186.491,23.5546 186.824,19.5546 186.5,15.5 Z"/></g>
<g><path style="opacity:1" fill="#0b0b0b" d="M 198.5,16.5 C 203.159,16.0146 204.492,17.848 202.5,22C 197.728,22.8104 196.395,20.9771 198.5,16.5 Z"/></g>
<g><path style="opacity:1" fill="#616161" d="M 186.5,15.5 C 186.824,19.5546 186.491,23.5546 185.5,27.5C 184.893,27.3764 184.56,27.0431 184.5,26.5C 185.167,22.8333 185.833,19.1667 186.5,15.5 Z"/></g>
<g><path style="opacity:1" fill="#101010" d="M 6.5,18.5 C 12.5933,18.1392 18.5933,18.6392 24.5,20C 28.1256,24.0213 28.4589,28.3546 25.5,33C 26.2703,34.7748 27.437,36.2748 29,37.5C 30.9224,43.3826 29.0891,47.5493 23.5,50C 17.9284,51.3507 12.2617,51.8507 6.5,51.5C 6.5,40.5 6.5,29.5 6.5,18.5 Z"/></g>
<g><path style="opacity:1" fill="#101010" d="M 119.5,18.5 C 126.391,17.9013 133.058,18.7346 139.5,21C 143.024,27.8058 141.691,33.4725 135.5,38C 137.7,42.2315 140.033,46.3982 142.5,50.5C 140.5,51.8333 138.5,51.8333 136.5,50.5C 134.167,46.5 131.833,42.5 129.5,38.5C 127.955,37.5481 126.288,37.2148 124.5,37.5C 124.5,42.1667 124.5,46.8333 124.5,51.5C 122.833,51.5 121.167,51.5 119.5,51.5C 119.5,40.5 119.5,29.5 119.5,18.5 Z"/></g>
<g><path style="opacity:1" fill="#0f0f0f" d="M 92.5,44.5 C 92.5,39.8333 92.5,35.1667 92.5,30.5C 91.5,30.5 90.5,30.5 89.5,30.5C 89.4326,29.0413 89.7659,27.7079 90.5,26.5C 92.3435,24.7211 93.0102,22.3878 92.5,19.5C 94.1667,19.5 95.8333,19.5 97.5,19.5C 97.5,21.8333 97.5,24.1667 97.5,26.5C 99.8333,26.5 102.167,26.5 104.5,26.5C 104.5,27.8333 104.5,29.1667 104.5,30.5C 102.167,30.5 99.8333,30.5 97.5,30.5C 97.334,35.8437 97.5006,41.1771 98,46.5C 99.6667,47.8333 101.333,47.8333 103,46.5C 104.269,47.9047 104.769,49.5714 104.5,51.5C 101.482,51.6646 98.4816,51.498 95.5,51C 93.5494,49.2658 92.5494,47.0991 92.5,44.5 Z"/></g>
<g><path style="opacity:1" fill="#e7e7e7" d="M 11.5,22.5 C 14.941,22.3011 18.2744,22.8011 21.5,24C 23.22,27.0859 22.5534,29.4192 19.5,31C 16.854,31.4974 14.1873,31.6641 11.5,31.5C 11.5,28.5 11.5,25.5 11.5,22.5 Z"/></g>
<g><path style="opacity:1" fill="#cfcfcf" d="M 134.5,31.5 C 134.5,29.5 134.5,27.5 134.5,25.5C 131.833,25.5 129.167,25.5 126.5,25.5C 126.5,27.8333 126.5,30.1667 126.5,32.5C 128.833,32.5 131.167,32.5 133.5,32.5C 130.713,33.4767 127.713,33.81 124.5,33.5C 124.5,29.8333 124.5,26.1667 124.5,22.5C 127.941,22.3011 131.274,22.8011 134.5,24C 137.14,26.6206 137.14,29.1206 134.5,31.5 Z"/></g>
<g><path style="opacity:1" fill="#efefef" d="M 134.5,31.5 C 134.5,32.1667 134.167,32.5 133.5,32.5C 131.167,32.5 128.833,32.5 126.5,32.5C 126.5,30.1667 126.5,27.8333 126.5,25.5C 129.167,25.5 131.833,25.5 134.5,25.5C 134.5,27.5 134.5,29.5 134.5,31.5 Z"/></g>
<g><path style="opacity:1" fill="#161616" d="M 52.5,25.5 C 58.9138,24.7597 63.0804,27.4264 65,33.5C 65.4995,39.4908 65.6662,45.4908 65.5,51.5C 63.1789,51.7711 61.1789,51.1045 59.5,49.5C 49.3925,54.5382 44.8925,51.5382 46,40.5C 49.8302,37.0006 54.3302,35.334 59.5,35.5C 58.8258,30.8486 56.1592,29.3486 51.5,31C 50.1354,32.6819 48.6354,32.8486 47,31.5C 46.2506,30.365 46.4173,29.365 47.5,28.5C 49.1446,27.3037 50.8113,26.3037 52.5,25.5 Z"/></g>
<g><path style="opacity:1" fill="#141414" d="M 75.5,25.5 C 79.9366,24.8916 83.6033,26.2249 86.5,29.5C 85.8551,30.646 85.0217,31.646 84,32.5C 81.4355,30.8207 78.6021,30.154 75.5,30.5C 75.3433,31.8734 75.51,33.2068 76,34.5C 78.3041,36.0685 80.8041,37.2352 83.5,38C 89.0359,42.8376 88.7026,47.1709 82.5,51C 79.1667,51.6667 75.8333,51.6667 72.5,51C 68.0144,49.5667 67.5144,47.4 71,44.5C 74.0064,47.2348 77.3397,47.9015 81,46.5C 81.6667,45.1667 81.6667,43.8333 81,42.5C 76.6894,41.1781 73.0227,38.8447 70,35.5C 69.477,30.8799 71.3103,27.5466 75.5,25.5 Z"/></g>
<g><path style="opacity:1" fill="#101010" d="M 152.5,25.5 C 157.347,24.8404 161.181,26.5071 164,30.5C 164.5,37.4921 164.666,44.4921 164.5,51.5C 162.508,51.6715 160.842,51.0049 159.5,49.5C 149.338,54.4757 144.838,51.4757 146,40.5C 149.699,36.766 154.199,35.0993 159.5,35.5C 159.703,33.6096 159.037,32.1096 157.5,31C 154.289,30.2018 151.289,30.7018 148.5,32.5C 146.717,31.6518 146.217,30.3185 147,28.5C 148.876,27.3913 150.709,26.3913 152.5,25.5 Z"/></g>
<g><path style="opacity:1" fill="#131313" d="M 240.5,25.5 C 245.06,24.6581 248.727,25.9914 251.5,29.5C 250.855,30.646 250.022,31.646 249,32.5C 246.435,30.8207 243.602,30.154 240.5,30.5C 240.343,31.8734 240.51,33.2068 241,34.5C 243.398,35.8563 245.898,37.0229 248.5,38C 253.951,42.754 253.617,47.0873 247.5,51C 242.227,52.3495 237.561,51.3495 233.5,48C 234.211,46.7453 235.044,45.5786 236,44.5C 239.883,48.0331 243.716,48.1997 247.5,45C 247.241,43.7387 246.574,42.7387 245.5,42C 241.793,41.0642 238.626,39.2308 236,36.5C 234.393,31.4383 235.893,27.7716 240.5,25.5 Z"/></g>
<g><path style="opacity:1" fill="#1f1f1f" d="M 197.5,26.5 C 199.5,26.5 201.5,26.5 203.5,26.5C 203.5,34.8333 203.5,43.1667 203.5,51.5C 201.5,51.5 199.5,51.5 197.5,51.5C 197.5,43.1667 197.5,34.8333 197.5,26.5 Z"/></g>
<g><path style="opacity:1" fill="#0c0c0c" d="M 209.5,26.5 C 211.167,26.5 212.833,26.5 214.5,26.5C 214.334,32.5092 214.501,38.5092 215,44.5C 217.858,48.3516 220.858,48.3516 224,44.5C 224.499,38.5092 224.666,32.5092 224.5,26.5C 226.167,26.5 227.833,26.5 229.5,26.5C 229.5,34.8333 229.5,43.1667 229.5,51.5C 227.179,51.7711 225.179,51.1045 223.5,49.5C 219.033,52.4195 214.867,52.0862 211,48.5C 209.571,41.2806 209.071,33.9472 209.5,26.5 Z"/></g>
<g><path style="opacity:1" fill="#e5e5e5" d="M 178.5,30.5 C 184.323,29.8421 186.656,32.5088 185.5,38.5C 185.167,40.8333 184.833,43.1667 184.5,45.5C 178.116,48.6656 174.782,46.4989 174.5,39C 174.635,35.5642 175.969,32.7309 178.5,30.5 Z"/></g>
<g><path style="opacity:1" fill="#969696" d="M 90.5,26.5 C 89.7659,27.7079 89.4326,29.0413 89.5,30.5C 90.5,30.5 91.5,30.5 92.5,30.5C 92.5,35.1667 92.5,39.8333 92.5,44.5C 91.5151,40.3656 91.1818,36.0323 91.5,31.5C 90.5,31.5 89.5,31.5 88.5,31.5C 88.0773,29.2188 88.744,27.5521 90.5,26.5 Z"/></g>
<g><path style="opacity:1" fill="#e9e9e9" d="M 11.5,36.5 C 14.8499,36.335 18.1832,36.5017 21.5,37C 25.7173,40.4725 25.384,43.4725 20.5,46C 17.5184,46.498 14.5184,46.6646 11.5,46.5C 11.5,43.1667 11.5,39.8333 11.5,36.5 Z"/></g>
<g><path style="opacity:1" fill="#d8d8d8" d="M 154.5,39.5 C 156.167,39.5 157.833,39.5 159.5,39.5C 160.042,45.3984 157.376,47.8984 151.5,47C 149.853,43.4707 150.853,40.9707 154.5,39.5 Z"/></g>
<g><path style="opacity:1" fill="#dedede" d="M 54.5,39.5 C 56.1667,39.5 57.8333,39.5 59.5,39.5C 60.0425,45.3984 57.3758,47.8984 51.5,47C 49.8527,43.4707 50.8527,40.9707 54.5,39.5 Z"/></g>
</svg>
