<?xml version="1.0" encoding="UTF-8"?>
<!DOCTYPE svg PUBLIC "-//W3C//DTD SVG 1.1//EN" "http://www.w3.org/Graphics/SVG/1.1/DTD/svg11.dtd">
<svg xmlns="http://www.w3.org/2000/svg" version="1.1" width="240px" height="240px" style="shape-rendering:geometricPrecision; text-rendering:geometricPrecision; image-rendering:optimizeQuality; fill-rule:evenodd; clip-rule:evenodd" xmlns:xlink="http://www.w3.org/1999/xlink">
<g><path style="opacity:0.991" fill="#8dd8fe" d="M 98.5,-0.5 C 112.5,-0.5 126.5,-0.5 140.5,-0.5C 194.285,12.2849 227.285,45.6182 239.5,99.5C 239.5,111.5 239.5,123.5 239.5,135.5C 238.549,134.081 238.216,132.415 238.5,130.5C 231.132,130.683 223.799,130.35 216.5,129.5C 214.745,128.928 213.078,128.094 211.5,127C 200.748,116.584 190.415,105.917 180.5,95C 173.031,93.7431 166.197,95.2431 160,99.5C 157.058,97.5895 154.558,95.2562 152.5,92.5C 143.275,83.8764 133.609,75.7098 123.5,68C 120.833,67.3333 118.167,67.3333 115.5,68C 110.322,73.0117 104.989,77.8451 99.5,82.5C 89.7228,84.574 80.0561,87.074 70.5,90C 66.28,96.2833 61.9467,102.45 57.5,108.5C 55.3208,107.941 53.1542,107.274 51,106.5C 50.1268,106.735 49.2935,107.069 48.5,107.5C 42.9778,118.361 34.6444,126.027 23.5,130.5C 15.5,130.5 7.5,130.5 -0.5,130.5C -0.5,119.833 -0.5,109.167 -0.5,98.5C 12.1934,45.1399 45.1934,12.1399 98.5,-0.5 Z"/></g>
<g><path style="opacity:1" fill="#c2eaff" d="M 110.5,20.5 C 113.983,19.9159 116.983,20.7492 119.5,23C 123.82,22.4997 126.154,24.333 126.5,28.5C 120.794,28.1712 115.128,28.5046 109.5,29.5C 110.95,30.8498 111.617,32.5165 111.5,34.5C 100.167,34.5 88.8333,34.5 77.5,34.5C 77.9527,29.2393 80.9527,26.7393 86.5,27C 90.1588,23.3271 94.4921,22.4937 99.5,24.5C 103.676,24.1527 107.343,22.8194 110.5,20.5 Z"/></g>
<g><path style="opacity:1" fill="#fdfeff" d="M 133.5,40.5 C 139.613,39.4104 144.779,41.077 149,45.5C 155.441,40.7409 162.274,40.2409 169.5,44C 172.965,47.6349 177.298,49.6349 182.5,50C 185.397,51.7155 186.731,54.2155 186.5,57.5C 168.833,57.5 151.167,57.5 133.5,57.5C 133.5,56.1667 133.5,54.8333 133.5,53.5C 128.167,53.5 122.833,53.5 117.5,53.5C 117.245,49.5075 118.911,46.6742 122.5,45C 127.066,45.3527 130.733,43.8527 133.5,40.5 Z"/></g>
<g><path style="opacity:1" fill="#f8fcff" d="M 53.5,43.5 C 58.461,42.6866 62.7944,43.8533 66.5,47C 71.2199,48.0714 75.8866,48.4047 80.5,48C 82.8082,49.8665 85.4749,50.8665 88.5,51C 90.0368,52.1096 90.7035,53.6096 90.5,55.5C 75.8333,55.5 61.1667,55.5 46.5,55.5C 46.7956,50.2334 49.1289,46.2334 53.5,43.5 Z"/></g>
<g><path style="opacity:1" fill="#c3eaff" d="M 65.5,67.5 C 69.9445,67.7203 74.2778,68.5536 78.5,70C 80.607,71.2635 81.607,73.0968 81.5,75.5C 74.1667,75.5 66.8333,75.5 59.5,75.5C 59.6265,71.3796 61.6265,68.713 65.5,67.5 Z"/></g>
<g><path style="opacity:1" fill="#c1eaff" d="M 174.5,71.5 C 177.865,71.255 181.032,71.9217 184,73.5C 186.561,71.6562 189.394,71.1562 192.5,72C 194.808,73.8665 197.475,74.8665 200.5,75C 202.607,76.2635 203.607,78.0968 203.5,80.5C 192.167,80.5 180.833,80.5 169.5,80.5C 169.372,76.4153 171.039,73.4153 174.5,71.5 Z"/></g>
<g><path style="opacity:1" fill="#94727d" d="M 152.5,92.5 C 150.874,92.0617 149.207,91.7284 147.5,91.5C 140.301,94.7668 133.634,93.9335 127.5,89C 125.167,88.3333 122.833,88.3333 120.5,89C 116.173,94.4098 110.673,97.9098 104,99.5C 102.893,99.4148 101.893,99.0814 101,98.5C 101.971,93.0375 99.804,89.8709 94.5,89C 96.0543,86.6293 97.721,84.4626 99.5,82.5C 104.989,77.8451 110.322,73.0117 115.5,68C 118.167,67.3333 120.833,67.3333 123.5,68C 133.609,75.7098 143.275,83.8764 152.5,92.5 Z"/></g>
<g><path style="opacity:1" fill="#53c985" d="M 99.5,82.5 C 97.721,84.4626 96.0543,86.6293 94.5,89C 99.804,89.8709 101.971,93.0375 101,98.5C 101.893,99.0814 102.893,99.4148 104,99.5C 110.673,97.9098 116.173,94.4098 120.5,89C 122.833,88.3333 125.167,88.3333 127.5,89C 133.634,93.9335 140.301,94.7668 147.5,91.5C 149.207,91.7284 150.874,92.0617 152.5,92.5C 154.558,95.2562 157.058,97.5895 160,99.5C 166.197,95.2431 173.031,93.7431 180.5,95C 190.415,105.917 200.748,116.584 211.5,127C 213.078,128.094 214.745,128.928 216.5,129.5C 210.69,130.49 204.69,130.823 198.5,130.5C 195.399,126.136 191.732,122.303 187.5,119C 182.309,118.703 177.143,118.203 172,117.5C 164.442,120.068 156.609,121.235 148.5,121C 143.883,123.146 139.216,124.98 134.5,126.5C 128.346,126.1 122.346,126.767 116.5,128.5C 117.483,127.15 118.816,126.15 120.5,125.5C 118.36,122.193 116.026,119.026 113.5,116C 107.299,114.131 100.966,112.798 94.5,112C 91.7069,108.919 89.5403,105.419 88,101.5C 84.2943,96.7324 80.2943,96.399 76,100.5C 73.441,104.971 70.941,109.304 68.5,113.5C 68.4142,112.504 68.7476,111.671 69.5,111C 65.3007,110.472 61.3007,109.639 57.5,108.5C 61.9467,102.45 66.28,96.2833 70.5,90C 80.0561,87.074 89.7228,84.574 99.5,82.5 Z"/></g>
<g><path style="opacity:1" fill="#36bc69" d="M 116.5,128.5 C 113.123,128.068 110.123,128.735 107.5,130.5C 102.5,130.5 97.5,130.5 92.5,130.5C 84.2728,122.665 75.9394,122.665 67.5,130.5C 62.5,130.5 57.5,130.5 52.5,130.5C 50.882,129.549 49.5487,128.216 48.5,126.5C 56.5467,124.152 63.2133,119.819 68.5,113.5C 70.941,109.304 73.441,104.971 76,100.5C 80.2943,96.399 84.2943,96.7324 88,101.5C 89.5403,105.419 91.7069,108.919 94.5,112C 100.966,112.798 107.299,114.131 113.5,116C 116.026,119.026 118.36,122.193 120.5,125.5C 118.816,126.15 117.483,127.15 116.5,128.5 Z"/></g>
<g><path style="opacity:1" fill="#8c6b75" d="M 57.5,108.5 C 61.3007,109.639 65.3007,110.472 69.5,111C 68.7476,111.671 68.4142,112.504 68.5,113.5C 63.2133,119.819 56.5467,124.152 48.5,126.5C 49.5487,128.216 50.882,129.549 52.5,130.5C 42.8333,130.5 33.1667,130.5 23.5,130.5C 34.6444,126.027 42.9778,118.361 48.5,107.5C 49.2935,107.069 50.1268,106.735 51,106.5C 53.1542,107.274 55.3208,107.941 57.5,108.5 Z"/></g>
<g><path style="opacity:1" fill="#94717c" d="M 198.5,130.5 C 181.833,130.5 165.167,130.5 148.5,130.5C 147.942,129.21 146.942,128.377 145.5,128C 141.644,127.823 137.977,127.323 134.5,126.5C 139.216,124.98 143.883,123.146 148.5,121C 156.609,121.235 164.442,120.068 172,117.5C 177.143,118.203 182.309,118.703 187.5,119C 191.732,122.303 195.399,126.136 198.5,130.5 Z"/></g>
<g><path style="opacity:1" fill="#94727d" d="M 92.5,130.5 C 93.4746,132.795 94.8079,134.795 96.5,136.5C 96.5,138.167 96.5,139.833 96.5,141.5C 83.4957,141.667 70.4957,141.5 57.5,141C 59.6175,139.951 61.2842,138.451 62.5,136.5C 64.6326,134.909 66.2993,132.909 67.5,130.5C 75.9394,122.665 84.2728,122.665 92.5,130.5 Z"/></g>
<g><path style="opacity:1" fill="#674849" d="M 134.5,126.5 C 137.977,127.323 141.644,127.823 145.5,128C 146.942,128.377 147.942,129.21 148.5,130.5C 134.833,130.5 121.167,130.5 107.5,130.5C 110.123,128.735 113.123,128.068 116.5,128.5C 122.346,126.767 128.346,126.1 134.5,126.5 Z"/></g>
<g><path style="opacity:1" fill="#90d9e3" d="M -0.5,130.5 C 7.5,130.5 15.5,130.5 23.5,130.5C 33.1667,130.5 42.8333,130.5 52.5,130.5C 57.5,130.5 62.5,130.5 67.5,130.5C 66.2993,132.909 64.6326,134.909 62.5,136.5C 41.5,136.5 20.5,136.5 -0.5,136.5C -0.5,134.5 -0.5,132.5 -0.5,130.5 Z"/></g>
<g><path style="opacity:1" fill="#90d9e3" d="M 216.5,129.5 C 223.799,130.35 231.132,130.683 238.5,130.5C 238.216,132.415 238.549,134.081 239.5,135.5C 239.5,135.833 239.5,136.167 239.5,136.5C 191.833,136.5 144.167,136.5 96.5,136.5C 94.8079,134.795 93.4746,132.795 92.5,130.5C 97.5,130.5 102.5,130.5 107.5,130.5C 121.167,130.5 134.833,130.5 148.5,130.5C 165.167,130.5 181.833,130.5 198.5,130.5C 204.69,130.823 210.69,130.49 216.5,129.5 Z"/></g>
<g><path style="opacity:0.998" fill="#5db9dc" d="M -0.5,136.5 C 20.5,136.5 41.5,136.5 62.5,136.5C 61.2842,138.451 59.6175,139.951 57.5,141C 70.4957,141.5 83.4957,141.667 96.5,141.5C 96.5,139.833 96.5,138.167 96.5,136.5C 144.167,136.5 191.833,136.5 239.5,136.5C 239.5,137.833 239.5,139.167 239.5,140.5C 237.669,147.802 235.502,155.135 233,162.5C 232.059,164.727 230.892,166.727 229.5,168.5C 155.087,167.42 80.7533,164.42 6.5,159.5C 6.5,160.5 6.5,161.5 6.5,162.5C 3.54674,155.35 1.2134,148.017 -0.5,140.5C -0.5,139.167 -0.5,137.833 -0.5,136.5 Z"/></g>
<g><path style="opacity:1" fill="#3c9bd4" d="M 229.5,168.5 C 216.194,199.304 193.861,220.804 162.5,233C 155.135,235.502 147.802,237.669 140.5,239.5C 126.5,239.5 112.5,239.5 98.5,239.5C 59.1569,230.99 29.9902,208.99 11,173.5C 9.48729,169.812 7.98729,166.145 6.5,162.5C 6.5,161.5 6.5,160.5 6.5,159.5C 80.7533,164.42 155.087,167.42 229.5,168.5 Z"/></g>
</svg>
