<svg id="svg" version="1.1" xmlns="http://www.w3.org/2000/svg" xmlns:xlink="http://www.w3.org/1999/xlink" width="400" height="610" viewBox="0, 0, 400,610"><g id="svgg"><path id="path0" d="M194.800 17.643 C 194.030 17.858,193.130 18.146,192.800 18.283 C 192.470 18.419,192.110 18.555,192.000 18.585 C 190.757 18.922,190.000 19.325,190.000 19.651 C 190.000 19.869,189.820 19.936,189.600 19.800 C 189.380 19.664,189.200 19.730,189.200 19.947 C 189.200 20.164,188.169 20.846,186.908 21.462 C 185.648 22.079,184.298 22.902,183.908 23.292 C 183.519 23.681,182.970 24.000,182.689 24.000 C 182.408 24.000,181.734 24.311,181.192 24.691 C 180.649 25.071,179.952 25.419,179.643 25.464 C 179.333 25.510,178.930 25.784,178.746 26.073 C 178.563 26.363,178.404 26.420,178.393 26.200 C 178.383 25.980,178.155 26.070,177.887 26.400 C 177.619 26.730,176.194 27.604,174.719 28.342 C 173.245 29.080,171.985 29.814,171.919 29.974 C 171.854 30.133,170.630 30.848,169.200 31.561 C 167.770 32.274,166.420 33.072,166.200 33.334 C 165.737 33.885,163.542 34.973,163.100 34.870 C 162.935 34.831,162.800 34.980,162.800 35.200 C 162.800 35.420,162.539 35.600,162.221 35.600 C 161.902 35.600,161.162 36.044,160.576 36.587 C 159.990 37.130,159.126 37.691,158.655 37.835 C 158.185 37.978,157.530 38.331,157.200 38.619 C 156.870 38.907,156.510 39.129,156.400 39.113 C 155.807 39.023,154.419 39.707,154.600 40.000 C 154.716 40.188,154.404 40.466,153.906 40.617 C 153.408 40.768,152.373 41.271,151.607 41.736 C 150.841 42.200,149.970 42.616,149.673 42.660 C 149.376 42.703,148.923 43.017,148.666 43.357 C 148.410 43.696,147.525 44.252,146.700 44.592 C 145.875 44.932,145.200 45.388,145.200 45.605 C 145.200 45.822,144.864 46.000,144.454 46.000 C 144.044 46.000,143.279 46.336,142.754 46.747 C 142.229 47.157,140.810 48.003,139.600 48.626 C 138.390 49.249,137.310 49.880,137.200 50.029 C 137.090 50.177,136.010 50.816,134.800 51.449 C 133.590 52.082,132.540 52.736,132.466 52.902 C 132.392 53.069,132.167 53.103,131.966 52.979 C 131.765 52.855,131.600 52.932,131.600 53.151 C 131.600 53.371,130.385 54.137,128.900 54.856 C 127.415 55.574,125.691 56.575,125.069 57.081 C 124.447 57.586,123.696 58.000,123.400 58.000 C 123.104 58.000,122.308 58.466,121.631 59.036 C 120.954 59.605,120.400 59.937,120.400 59.774 C 120.400 59.610,120.085 59.752,119.700 60.090 C 119.315 60.427,118.370 61.020,117.600 61.408 C 116.830 61.795,116.090 62.282,115.955 62.490 C 115.821 62.698,115.641 62.816,115.555 62.752 C 115.263 62.534,112.518 65.045,109.794 68.021 C 109.019 68.868,107.200 73.046,107.200 73.978 C 107.200 74.393,107.019 74.794,106.797 74.868 C 106.299 75.034,106.229 169.237,106.726 169.574 C 106.909 169.698,107.299 170.700,107.592 171.800 C 108.252 174.278,109.089 176.000,109.634 176.000 C 109.861 176.000,109.961 176.139,109.856 176.309 C 109.751 176.479,110.461 177.496,111.433 178.570 C 112.405 179.643,113.200 180.370,113.200 180.185 C 113.200 180.000,113.764 180.425,114.453 181.130 C 115.142 181.835,116.119 182.515,116.624 182.642 C 117.129 182.769,117.644 183.137,117.768 183.461 C 117.893 183.786,118.176 183.939,118.397 183.802 C 118.619 183.665,118.800 183.754,118.800 184.000 C 118.800 184.246,118.980 184.336,119.200 184.200 C 119.420 184.064,119.600 184.154,119.600 184.400 C 119.600 184.646,119.780 184.736,120.000 184.600 C 120.220 184.464,120.400 184.524,120.400 184.733 C 120.400 184.942,121.120 185.401,122.000 185.753 C 122.880 186.105,123.600 186.586,123.600 186.820 C 123.600 187.055,123.780 187.136,124.000 187.000 C 124.220 186.864,124.400 186.943,124.400 187.176 C 124.400 187.409,124.687 187.600,125.038 187.600 C 125.389 187.600,126.176 187.956,126.786 188.390 C 127.396 188.825,128.369 189.360,128.948 189.580 C 129.526 189.800,130.000 190.136,130.000 190.326 C 130.000 190.702,132.012 191.783,132.500 191.670 C 132.665 191.631,132.800 191.780,132.800 192.000 C 132.800 192.220,133.063 192.400,133.384 192.400 C 133.706 192.400,134.362 192.805,134.843 193.300 C 135.324 193.795,135.588 193.930,135.429 193.600 C 135.173 193.067,135.200 193.067,135.672 193.600 C 135.964 193.930,136.456 194.255,136.765 194.321 C 137.075 194.388,137.774 194.793,138.318 195.221 C 138.862 195.650,139.554 196.000,139.854 196.000 C 140.154 196.000,140.734 196.334,141.142 196.742 C 141.551 197.151,142.893 197.978,144.126 198.581 C 147.312 200.140,147.542 200.550,145.708 201.402 C 144.879 201.787,143.885 202.377,143.500 202.713 C 143.115 203.049,142.800 203.199,142.800 203.046 C 142.800 202.894,142.399 203.143,141.908 203.600 C 141.417 204.057,140.607 204.534,140.108 204.659 C 139.609 204.784,139.200 205.077,139.200 205.310 C 139.200 205.543,139.082 205.615,138.937 205.470 C 138.792 205.325,138.430 205.409,138.132 205.656 C 137.372 206.287,135.253 207.500,133.600 208.251 C 132.830 208.600,132.054 209.141,131.875 209.451 C 131.697 209.762,131.382 209.912,131.175 209.785 C 130.969 209.657,130.797 209.698,130.793 209.876 C 130.790 210.054,129.710 210.734,128.393 211.386 C 127.077 212.039,126.000 212.724,126.000 212.910 C 126.000 213.095,125.820 213.136,125.600 213.000 C 125.380 212.864,125.200 212.925,125.200 213.135 C 125.200 213.345,123.985 214.100,122.500 214.814 C 121.015 215.528,119.364 216.452,118.831 216.867 C 118.298 217.283,117.083 217.968,116.131 218.389 C 115.179 218.810,114.400 219.356,114.400 219.601 C 114.400 219.846,114.235 219.945,114.034 219.821 C 113.833 219.697,113.608 219.731,113.534 219.898 C 113.460 220.064,112.500 220.650,111.401 221.200 C 110.301 221.750,109.163 222.470,108.871 222.800 C 108.400 223.333,108.369 223.333,108.600 222.800 C 108.809 222.316,108.757 222.322,108.330 222.833 C 107.774 223.497,106.534 224.230,103.697 225.570 C 102.761 226.012,101.609 226.734,101.137 227.173 C 100.665 227.613,100.126 227.878,99.939 227.763 C 99.753 227.647,99.600 227.719,99.600 227.922 C 99.600 228.125,98.789 228.601,97.797 228.980 C 96.806 229.358,96.070 229.790,96.162 229.938 C 96.253 230.087,95.535 230.562,94.564 230.994 C 93.594 231.426,92.800 231.930,92.800 232.113 C 92.800 232.297,92.625 232.339,92.411 232.207 C 92.197 232.074,91.707 232.334,91.322 232.783 C 90.937 233.232,90.437 233.601,90.211 233.601 C 89.985 233.602,89.170 233.996,88.400 234.477 C 87.630 234.958,86.733 235.398,86.407 235.454 C 86.081 235.510,85.751 235.746,85.674 235.978 C 85.597 236.210,85.278 236.400,84.967 236.400 C 84.655 236.400,84.400 236.568,84.400 236.773 C 84.400 236.978,83.995 237.269,83.500 237.419 C 83.005 237.570,82.037 238.114,81.349 238.629 C 80.662 239.144,79.972 239.438,79.817 239.283 C 79.662 239.128,79.324 239.273,79.067 239.606 C 78.483 240.363,76.400 241.716,76.400 241.339 C 76.400 241.186,75.982 241.454,75.470 241.934 C 74.959 242.414,74.419 242.686,74.270 242.537 C 74.122 242.388,74.000 242.467,74.000 242.713 C 74.000 242.958,72.785 243.736,71.300 244.440 C 69.815 245.145,68.468 245.919,68.306 246.161 C 68.134 246.419,68.004 246.435,67.993 246.200 C 67.983 245.980,67.750 246.096,67.475 246.457 C 67.200 246.818,66.081 247.528,64.987 248.035 C 63.894 248.541,62.868 249.145,62.706 249.378 C 62.544 249.610,62.409 249.631,62.406 249.425 C 62.403 249.218,62.033 249.443,61.584 249.925 C 61.136 250.406,60.506 250.800,60.184 250.800 C 59.863 250.800,59.600 250.991,59.600 251.224 C 59.600 251.457,59.420 251.536,59.200 251.400 C 58.980 251.264,58.800 251.343,58.800 251.576 C 58.800 251.809,58.555 252.000,58.256 252.000 C 57.957 252.000,57.033 252.461,56.203 253.024 C 55.373 253.587,53.773 254.521,52.647 255.101 C 51.521 255.680,50.043 256.570,49.362 257.077 C 48.681 257.585,47.916 258.000,47.662 258.000 C 47.408 258.000,47.200 258.180,47.200 258.400 C 47.200 258.620,47.065 258.757,46.900 258.705 C 46.374 258.538,44.002 259.680,44.202 260.004 C 44.308 260.175,43.691 260.597,42.831 260.941 C 41.972 261.285,41.152 261.754,41.010 261.983 C 40.869 262.212,40.430 262.400,40.035 262.400 C 39.640 262.400,38.831 262.850,38.238 263.400 C 37.644 263.950,36.898 264.400,36.579 264.400 C 36.261 264.400,36.000 264.580,36.000 264.800 C 36.000 265.020,35.865 265.164,35.700 265.119 C 35.230 264.993,32.000 266.776,32.000 267.161 C 32.000 267.477,30.921 267.924,30.371 267.836 C 30.246 267.816,29.828 268.115,29.443 268.500 C 29.058 268.885,28.486 269.200,28.171 269.200 C 27.857 269.200,27.600 269.391,27.600 269.624 C 27.600 269.857,27.420 269.936,27.200 269.800 C 26.980 269.664,26.800 269.713,26.800 269.908 C 26.800 270.103,25.900 270.685,24.800 271.200 C 23.700 271.715,22.800 272.297,22.800 272.492 C 22.800 272.687,22.620 272.736,22.400 272.600 C 22.180 272.464,22.000 272.554,22.000 272.800 C 22.000 273.046,21.820 273.136,21.600 273.000 C 21.380 272.864,21.200 272.935,21.200 273.158 C 21.200 273.380,20.525 273.873,19.700 274.252 C 18.875 274.632,17.730 275.265,17.155 275.659 C 16.580 276.054,16.009 276.275,15.885 276.152 C 15.761 276.028,15.723 276.258,15.799 276.663 C 15.876 277.069,15.953 277.546,15.969 277.724 C 15.986 277.902,16.165 277.945,16.368 277.820 C 16.570 277.695,16.975 277.827,17.268 278.113 C 17.560 278.400,18.385 278.873,19.100 279.165 C 19.815 279.458,20.400 279.851,20.400 280.038 C 20.400 280.226,20.940 280.659,21.600 281.000 C 22.260 281.341,22.800 281.517,22.800 281.391 C 22.800 281.265,23.587 281.703,24.549 282.365 C 25.511 283.027,26.411 283.456,26.549 283.318 C 26.687 283.180,26.800 283.259,26.800 283.494 C 26.800 284.003,29.225 285.491,30.628 285.843 C 31.174 285.980,31.803 286.431,32.025 286.846 C 32.247 287.261,32.701 287.600,33.035 287.600 C 33.369 287.600,34.305 288.050,35.114 288.600 C 35.923 289.150,36.795 289.600,37.050 289.600 C 37.305 289.600,37.628 289.896,37.767 290.257 C 37.905 290.619,38.126 290.807,38.257 290.676 C 38.388 290.545,38.757 290.700,39.076 291.019 C 39.396 291.339,40.004 291.600,40.429 291.600 C 40.853 291.600,41.200 291.780,41.200 292.000 C 41.200 292.220,41.392 292.400,41.627 292.400 C 41.861 292.400,42.626 292.829,43.327 293.354 C 44.027 293.879,45.635 294.792,46.900 295.383 C 48.165 295.974,49.200 296.636,49.200 296.853 C 49.200 297.070,49.380 297.136,49.600 297.000 C 49.820 296.864,50.000 296.943,50.000 297.176 C 50.000 297.409,50.197 297.600,50.438 297.600 C 50.679 297.600,51.354 297.940,51.938 298.356 C 52.522 298.772,53.129 299.087,53.287 299.056 C 53.445 299.025,53.940 299.313,54.387 299.696 C 54.834 300.079,55.205 300.259,55.212 300.096 C 55.219 299.933,55.400 300.101,55.615 300.469 C 55.829 300.837,56.531 301.253,57.175 301.394 C 57.818 301.536,58.559 301.910,58.821 302.226 C 59.083 302.542,59.546 302.800,59.849 302.800 C 60.152 302.800,60.400 302.980,60.400 303.200 C 60.400 303.420,60.670 303.600,61.000 303.600 C 61.330 303.600,61.600 303.768,61.600 303.973 C 61.600 304.178,62.005 304.469,62.500 304.620 C 62.995 304.770,64.469 305.536,65.775 306.321 C 67.319 307.250,68.206 307.582,68.309 307.272 C 68.397 307.010,68.633 306.897,68.834 307.021 C 69.035 307.145,69.200 307.060,69.200 306.832 C 69.200 306.604,70.285 305.909,71.612 305.287 C 72.938 304.666,73.883 304.003,73.712 303.815 C 73.540 303.627,73.722 303.588,74.115 303.730 C 74.557 303.888,74.914 303.767,75.051 303.413 C 75.172 303.097,75.886 302.635,76.639 302.387 C 77.392 302.139,78.279 301.664,78.612 301.331 C 78.944 300.999,79.474 300.689,79.789 300.643 C 80.104 300.597,80.685 300.271,81.081 299.919 C 81.476 299.567,82.430 298.995,83.200 298.648 C 84.561 298.034,85.994 297.206,86.400 296.800 C 87.092 296.108,90.022 294.633,90.500 294.735 C 90.665 294.771,90.800 294.620,90.800 294.400 C 90.800 294.180,91.061 294.000,91.380 294.000 C 91.699 294.000,92.104 293.761,92.280 293.470 C 92.456 293.178,93.860 292.334,95.400 291.594 C 96.940 290.854,98.380 290.031,98.600 289.764 C 98.820 289.497,100.080 288.777,101.400 288.165 C 102.720 287.552,104.059 286.794,104.375 286.479 C 104.691 286.165,105.726 285.575,106.675 285.168 C 107.624 284.761,108.400 284.242,108.400 284.014 C 108.400 283.786,108.698 283.600,109.062 283.600 C 109.426 283.600,110.281 283.176,110.962 282.658 C 111.643 282.139,112.605 281.587,113.100 281.431 C 113.595 281.274,114.000 280.968,114.000 280.749 C 114.000 280.531,114.180 280.464,114.400 280.600 C 114.620 280.736,114.800 280.646,114.800 280.400 C 114.800 280.154,114.980 280.064,115.200 280.200 C 115.420 280.336,115.600 280.254,115.600 280.018 C 115.600 279.782,116.635 279.119,117.900 278.543 C 119.165 277.968,120.259 277.343,120.332 277.154 C 120.404 276.965,121.574 276.261,122.932 275.589 C 124.289 274.916,126.120 273.918,127.000 273.369 C 127.880 272.821,129.230 272.089,130.000 271.743 C 130.770 271.397,131.546 270.859,131.725 270.549 C 131.903 270.238,132.218 270.088,132.425 270.215 C 132.631 270.343,132.800 270.276,132.800 270.067 C 132.800 269.858,133.250 269.574,133.800 269.436 C 134.350 269.298,134.800 269.022,134.800 268.824 C 134.800 268.626,135.300 268.354,135.911 268.219 C 136.523 268.085,137.640 267.448,138.395 266.804 C 139.149 266.160,139.844 265.711,139.938 265.805 C 140.033 265.899,140.580 265.653,141.155 265.258 C 141.730 264.863,142.791 264.304,143.513 264.016 C 144.235 263.728,144.728 263.395,144.609 263.275 C 144.489 263.156,145.473 262.555,146.796 261.940 C 148.118 261.325,149.200 260.627,149.200 260.388 C 149.200 260.148,149.368 260.056,149.572 260.183 C 149.777 260.309,150.057 260.231,150.195 260.008 C 150.333 259.785,151.466 259.136,152.713 258.565 C 153.961 257.995,155.412 257.097,155.939 256.570 C 156.466 256.043,157.034 255.698,157.203 255.802 C 157.371 255.906,157.732 255.723,158.004 255.396 C 158.276 255.068,158.746 254.800,159.049 254.800 C 159.352 254.800,159.600 254.626,159.600 254.413 C 159.600 254.199,159.831 254.114,160.114 254.222 C 160.397 254.331,160.982 254.095,161.414 253.697 C 161.846 253.300,163.190 252.462,164.400 251.836 C 165.610 251.210,166.732 250.495,166.894 250.249 C 167.056 250.002,167.191 249.942,167.194 250.116 C 167.197 250.289,167.590 250.067,168.068 249.623 C 168.545 249.178,169.715 248.517,170.668 248.153 C 171.620 247.789,172.400 247.342,172.400 247.160 C 172.400 246.977,172.760 246.635,173.200 246.400 C 173.999 245.972,174.000 246.096,174.000 383.235 C 174.000 505.201,173.933 520.442,173.400 520.000 C 173.070 519.726,172.800 519.630,172.800 519.787 C 172.800 519.943,172.246 519.605,171.569 519.036 C 170.892 518.466,170.096 518.000,169.800 518.000 C 169.504 518.000,168.753 517.577,168.131 517.060 C 167.509 516.543,165.785 515.544,164.300 514.840 C 162.815 514.135,161.600 513.378,161.600 513.156 C 161.600 512.934,161.420 512.864,161.200 513.000 C 160.980 513.136,160.800 513.102,160.799 512.924 C 160.799 512.746,159.640 512.071,158.223 511.424 C 156.806 510.778,155.738 510.101,155.850 509.920 C 155.962 509.739,155.505 509.481,154.835 509.347 C 154.166 509.213,153.412 508.855,153.160 508.552 C 152.908 508.248,152.482 508.000,152.213 508.000 C 151.944 508.000,151.201 507.550,150.562 507.000 C 149.923 506.451,149.085 506.001,148.700 506.000 C 148.315 506.000,148.000 505.825,148.000 505.611 C 148.000 505.397,147.102 504.836,146.005 504.364 C 144.908 503.892,144.100 503.362,144.209 503.186 C 144.318 503.009,143.865 502.746,143.203 502.601 C 142.542 502.455,142.000 502.186,142.000 502.001 C 142.000 501.817,141.194 501.358,140.208 500.982 C 139.223 500.605,138.505 500.154,138.614 499.978 C 138.804 499.670,137.620 499.110,137.190 499.305 C 137.075 499.357,136.466 498.995,135.836 498.500 C 135.207 498.005,134.474 497.600,134.208 497.600 C 133.942 497.600,133.398 497.240,133.000 496.800 C 132.602 496.360,132.047 496.000,131.767 496.000 C 131.486 496.000,130.981 495.724,130.643 495.386 C 130.305 495.048,129.935 494.770,129.821 494.767 C 129.143 494.753,127.200 493.865,127.200 493.569 C 127.200 493.235,124.140 491.457,123.500 491.418 C 123.335 491.408,122.590 490.914,121.845 490.319 C 121.100 489.724,120.020 489.120,119.445 488.976 C 118.870 488.831,118.400 488.570,118.400 488.396 C 118.400 488.221,117.835 487.881,117.145 487.641 C 116.455 487.400,115.632 486.888,115.316 486.502 C 114.942 486.045,114.831 486.010,115.000 486.400 C 115.220 486.910,115.180 486.907,114.730 486.384 C 114.438 486.045,113.210 485.257,112.000 484.632 C 110.790 484.008,109.668 483.295,109.506 483.049 C 109.340 482.795,109.207 482.774,109.200 483.000 C 109.192 483.251,109.078 483.244,108.894 482.981 C 108.732 482.751,107.565 482.063,106.300 481.452 C 105.035 480.841,104.000 480.164,104.000 479.947 C 104.000 479.730,103.820 479.664,103.600 479.800 C 103.380 479.936,103.200 479.827,103.200 479.557 C 103.200 479.287,103.088 479.179,102.951 479.316 C 102.813 479.453,102.121 479.123,101.413 478.583 C 100.704 478.042,99.821 477.600,99.450 477.600 C 99.079 477.600,98.669 477.325,98.540 476.989 C 98.411 476.653,97.945 476.185,97.505 475.949 C 96.901 475.626,96.776 475.637,96.997 475.996 C 97.159 476.257,96.524 475.915,95.586 475.236 C 94.647 474.556,93.637 474.000,93.340 474.000 C 93.043 474.000,92.466 473.666,92.058 473.258 C 91.649 472.849,90.258 471.998,88.966 471.366 C 87.673 470.733,86.298 469.898,85.908 469.508 C 85.519 469.119,84.840 468.800,84.400 468.800 C 83.960 468.800,83.600 468.654,83.600 468.475 C 83.600 468.296,82.978 467.905,82.218 467.607 C 81.458 467.309,80.916 466.936,81.013 466.779 C 81.110 466.622,80.607 466.262,79.895 465.981 C 79.183 465.699,78.330 465.251,78.000 464.985 C 77.670 464.719,76.729 464.286,75.909 464.023 C 75.089 463.759,74.459 463.352,74.509 463.117 C 74.559 462.883,74.110 462.552,73.511 462.383 C 72.912 462.213,71.942 461.698,71.357 461.237 C 70.771 460.777,70.046 460.400,69.746 460.400 C 69.446 460.400,69.200 460.209,69.200 459.976 C 69.200 459.743,69.020 459.664,68.800 459.800 C 68.534 459.964,68.400 444.286,68.400 413.069 L 68.400 366.091 66.900 365.427 C 66.075 365.061,65.130 364.585,64.800 364.369 C 64.470 364.153,63.885 363.871,63.500 363.742 C 63.115 363.612,62.800 363.348,62.800 363.153 C 62.800 362.959,62.543 362.800,62.229 362.800 C 61.914 362.800,61.381 362.524,61.043 362.186 C 60.705 361.848,60.377 361.595,60.314 361.623 C 60.009 361.760,57.760 360.553,57.475 360.100 C 57.297 359.816,56.982 359.688,56.775 359.815 C 56.569 359.943,56.400 359.870,56.400 359.653 C 56.400 359.436,55.365 358.757,54.100 358.144 C 52.835 357.531,51.581 356.753,51.313 356.415 C 51.045 356.077,50.817 355.980,50.807 356.200 C 50.795 356.448,50.676 356.439,50.494 356.177 C 50.332 355.944,48.985 355.174,47.500 354.465 C 46.015 353.756,44.800 352.991,44.800 352.764 C 44.800 352.538,44.620 352.464,44.400 352.600 C 44.180 352.736,44.000 352.678,44.000 352.472 C 44.000 352.266,43.415 351.866,42.700 351.584 C 41.985 351.301,41.023 350.735,40.563 350.324 C 40.102 349.914,39.292 349.495,38.763 349.394 C 38.233 349.292,37.567 348.892,37.283 348.505 C 36.998 348.117,36.638 347.821,36.483 347.846 C 36.004 347.923,34.400 347.090,34.400 346.764 C 34.400 346.594,33.050 345.806,31.400 345.013 C 29.750 344.219,28.400 343.416,28.400 343.228 C 28.400 343.040,28.121 342.778,27.779 342.647 C 27.371 342.491,27.257 342.569,27.448 342.877 C 27.607 343.135,27.121 342.898,26.368 342.352 C 25.616 341.806,24.505 341.113,23.900 340.812 C 23.295 340.511,22.800 340.150,22.800 340.010 C 22.800 339.869,21.495 339.135,19.900 338.377 C 18.305 337.620,16.940 336.865,16.867 336.700 C 16.793 336.535,16.476 336.400,16.161 336.400 C 15.522 336.400,15.494 481.767,16.132 484.200 C 16.305 484.860,16.616 485.460,16.824 485.533 C 17.031 485.607,17.200 485.999,17.200 486.405 C 17.200 486.811,17.438 487.381,17.729 487.671 C 18.019 487.962,18.286 488.337,18.320 488.504 C 18.523 489.476,19.693 491.190,20.017 490.989 C 20.228 490.859,20.400 490.962,20.400 491.219 C 20.400 491.744,22.397 494.245,22.406 493.731 C 22.409 493.549,22.544 493.589,22.706 493.819 C 23.236 494.575,25.484 495.982,25.745 495.722 C 25.885 495.581,26.000 495.677,26.000 495.933 C 26.000 496.190,26.213 496.400,26.474 496.400 C 26.735 496.400,27.346 496.773,27.831 497.229 C 28.316 497.685,28.958 498.099,29.257 498.148 C 29.978 498.268,31.408 499.067,32.069 499.719 C 32.361 500.008,33.815 500.834,35.300 501.555 C 36.785 502.277,38.000 503.006,38.000 503.176 C 38.000 503.347,38.990 503.913,40.200 504.436 C 41.410 504.958,42.400 505.504,42.400 505.649 C 42.400 505.795,42.850 506.026,43.400 506.164 C 43.950 506.302,44.400 506.592,44.400 506.808 C 44.400 507.023,44.670 507.200,45.000 507.200 C 45.330 507.200,45.600 507.380,45.600 507.600 C 45.600 507.820,45.835 508.000,46.122 508.000 C 46.409 508.000,47.489 508.536,48.522 509.191 C 49.555 509.846,50.400 510.262,50.400 510.116 C 50.400 509.969,50.767 510.243,51.216 510.725 C 51.664 511.206,52.204 511.623,52.416 511.650 C 53.175 511.749,53.414 511.836,54.400 512.374 C 54.950 512.674,55.521 513.105,55.668 513.332 C 55.815 513.558,56.247 513.789,56.628 513.845 C 57.009 513.901,57.428 514.113,57.560 514.317 C 57.692 514.520,58.655 515.062,59.700 515.521 C 60.745 515.980,61.600 516.556,61.600 516.801 C 61.600 517.046,61.761 517.148,61.958 517.026 C 62.155 516.904,62.419 517.074,62.546 517.402 C 62.672 517.731,63.096 518.004,63.487 518.009 C 63.879 518.014,64.650 518.370,65.200 518.800 C 65.750 519.230,66.425 519.586,66.700 519.591 C 66.975 519.596,67.200 519.791,67.200 520.024 C 67.200 520.257,67.353 520.353,67.539 520.237 C 67.726 520.122,68.307 520.426,68.830 520.914 C 69.353 521.401,69.845 521.733,69.923 521.650 C 70.001 521.568,70.787 521.973,71.668 522.550 C 72.550 523.128,73.506 523.600,73.793 523.600 C 74.080 523.600,74.428 523.896,74.567 524.257 C 74.705 524.619,74.926 524.807,75.057 524.676 C 75.188 524.545,75.558 524.701,75.880 525.023 C 76.201 525.344,76.610 525.518,76.787 525.408 C 76.964 525.298,77.332 525.477,77.604 525.804 C 77.876 526.132,78.357 526.400,78.673 526.400 C 78.989 526.400,79.159 526.543,79.050 526.718 C 78.942 526.893,80.102 527.618,81.627 528.329 C 83.152 529.039,84.400 529.815,84.400 530.053 C 84.400 530.291,84.679 530.378,85.021 530.247 C 85.362 530.116,85.544 530.166,85.426 530.358 C 85.307 530.550,85.793 530.940,86.505 531.226 C 87.217 531.511,88.520 532.227,89.400 532.817 C 90.280 533.407,91.405 534.017,91.900 534.172 C 92.395 534.327,92.800 534.652,92.800 534.894 C 92.800 535.135,92.913 535.220,93.051 535.082 C 93.189 534.944,94.076 535.364,95.023 536.016 C 95.970 536.667,96.915 537.200,97.123 537.200 C 97.332 537.200,97.724 537.468,97.996 537.796 C 98.268 538.123,98.650 538.293,98.845 538.172 C 99.040 538.051,99.200 538.143,99.200 538.376 C 99.200 538.609,99.358 538.755,99.552 538.700 C 99.745 538.645,100.510 539.045,101.252 539.589 C 101.993 540.133,102.841 540.615,103.135 540.659 C 103.429 540.703,103.969 540.997,104.335 541.312 C 104.701 541.626,105.585 542.134,106.300 542.439 C 107.015 542.745,107.600 543.127,107.600 543.287 C 107.600 543.720,109.857 544.809,110.149 544.517 C 110.287 544.379,110.400 544.457,110.400 544.690 C 110.400 544.923,111.120 545.401,112.000 545.753 C 112.880 546.105,113.600 546.586,113.600 546.820 C 113.600 547.055,113.780 547.136,114.000 547.000 C 114.220 546.864,114.400 546.943,114.400 547.176 C 114.400 547.409,114.635 547.600,114.922 547.600 C 115.209 547.600,116.334 548.176,117.422 548.880 C 118.510 549.584,119.535 550.124,119.700 550.080 C 119.865 550.036,120.000 550.151,120.000 550.335 C 120.000 550.519,121.035 551.188,122.300 551.821 C 123.565 552.455,124.838 553.249,125.130 553.587 C 125.584 554.112,125.622 554.114,125.400 553.600 C 125.169 553.067,125.200 553.067,125.670 553.600 C 125.962 553.930,127.338 554.734,128.729 555.387 C 130.120 556.041,131.380 556.775,131.529 557.020 C 131.678 557.266,132.851 557.975,134.136 558.598 C 135.421 559.220,136.688 559.925,136.953 560.165 C 137.726 560.864,138.895 561.551,140.469 562.229 C 141.277 562.577,142.023 563.083,142.127 563.353 C 142.230 563.623,143.054 564.088,143.957 564.386 C 144.861 564.684,145.600 565.043,145.600 565.184 C 145.600 565.324,146.213 565.661,146.962 565.932 C 147.711 566.203,148.430 566.700,148.559 567.037 C 148.688 567.375,148.976 567.539,149.197 567.402 C 149.419 567.265,149.600 567.354,149.600 567.600 C 149.600 567.846,149.760 567.949,149.955 567.828 C 150.150 567.707,150.501 567.840,150.735 568.122 C 150.970 568.405,151.800 568.886,152.581 569.192 C 153.361 569.499,154.000 569.891,154.000 570.064 C 154.000 570.236,155.094 570.921,156.432 571.584 C 157.769 572.248,159.344 573.129,159.932 573.543 C 160.519 573.957,161.405 574.421,161.900 574.574 C 162.395 574.728,162.800 575.022,162.800 575.227 C 162.800 575.432,162.935 575.562,163.100 575.515 C 163.557 575.386,165.359 576.447,165.720 577.058 C 165.896 577.356,166.318 577.600,166.658 577.600 C 166.998 577.600,167.754 577.936,168.338 578.348 C 168.922 578.759,169.788 579.216,170.263 579.363 C 170.738 579.510,171.231 579.905,171.360 580.241 C 171.489 580.576,171.776 580.739,171.997 580.602 C 172.219 580.465,172.400 580.543,172.400 580.776 C 172.400 581.009,172.661 581.200,172.980 581.200 C 173.299 581.200,174.360 581.740,175.338 582.400 C 176.316 583.060,177.300 583.600,177.525 583.600 C 177.749 583.600,177.993 583.767,178.067 583.970 C 178.140 584.174,178.470 584.399,178.800 584.470 C 179.130 584.542,179.490 584.702,179.600 584.828 C 179.710 584.953,180.655 585.464,181.700 585.963 C 182.745 586.463,183.600 587.046,183.600 587.259 C 183.600 587.473,183.780 587.536,184.000 587.400 C 184.220 587.264,184.400 587.307,184.400 587.496 C 184.400 587.685,184.995 588.054,185.722 588.317 C 186.449 588.580,187.420 589.146,187.880 589.574 C 188.339 590.002,188.824 590.243,188.957 590.109 C 189.091 589.976,189.200 590.087,189.200 590.357 C 189.200 590.627,189.380 590.736,189.600 590.600 C 189.820 590.464,190.000 590.543,190.000 590.776 C 190.000 591.009,190.135 591.163,190.300 591.118 C 190.465 591.073,191.166 591.337,191.858 591.706 C 192.550 592.075,193.855 592.495,194.758 592.640 C 195.661 592.784,196.400 593.059,196.400 593.251 C 196.400 593.711,204.288 593.705,204.572 593.245 C 204.693 593.050,205.449 592.767,206.254 592.616 C 207.059 592.465,208.131 592.070,208.638 591.739 C 209.144 591.407,209.793 591.094,210.079 591.043 C 211.355 590.818,212.395 590.315,212.208 590.014 C 212.097 589.833,212.709 589.403,213.569 589.059 C 214.428 588.715,215.248 588.246,215.390 588.017 C 215.531 587.788,215.998 587.600,216.426 587.600 C 216.855 587.600,217.597 587.150,218.075 586.600 C 218.553 586.050,219.248 585.600,219.618 585.600 C 219.989 585.600,220.750 585.240,221.309 584.800 C 221.869 584.360,222.499 584.000,222.709 584.000 C 222.920 584.000,223.521 583.664,224.046 583.253 C 224.571 582.843,225.990 581.994,227.200 581.368 C 228.410 580.742,229.622 580.014,229.893 579.751 C 230.164 579.487,231.281 578.867,232.377 578.372 C 233.472 577.877,234.256 577.290,234.118 577.068 C 233.969 576.826,234.135 576.766,234.534 576.919 C 234.900 577.060,235.200 577.007,235.200 576.802 C 235.200 576.598,236.521 575.795,238.135 575.018 C 239.749 574.242,241.397 573.245,241.797 572.803 C 242.197 572.362,242.842 572.000,243.231 572.000 C 243.620 572.000,244.492 571.534,245.169 570.964 C 245.846 570.395,246.406 570.080,246.413 570.264 C 246.420 570.449,246.645 570.330,246.913 570.000 C 247.181 569.670,248.480 568.870,249.800 568.223 C 251.120 567.575,252.449 566.799,252.754 566.498 C 253.058 566.196,254.175 565.571,255.236 565.108 C 256.296 564.645,257.053 564.085,256.916 563.865 C 256.768 563.624,256.941 563.569,257.350 563.725 C 257.766 563.885,258.116 563.763,258.251 563.413 C 258.372 563.097,259.066 562.642,259.794 562.402 C 260.522 562.162,261.524 561.613,262.020 561.183 C 262.516 560.752,263.265 560.400,263.685 560.400 C 264.104 560.400,264.336 560.220,264.200 560.000 C 264.064 559.780,264.211 559.600,264.527 559.600 C 264.843 559.600,265.326 559.330,265.600 559.000 C 265.874 558.670,266.423 558.400,266.820 558.400 C 267.218 558.400,267.813 558.130,268.143 557.800 C 268.473 557.470,268.936 557.200,269.171 557.200 C 269.407 557.200,269.600 557.020,269.600 556.800 C 269.600 556.580,269.848 556.400,270.151 556.400 C 270.454 556.400,270.917 556.142,271.179 555.826 C 271.441 555.510,272.184 555.135,272.831 554.993 C 273.478 554.851,273.905 554.570,273.780 554.367 C 273.655 554.165,273.887 554.000,274.296 554.000 C 274.705 554.000,275.227 553.813,275.456 553.584 C 276.039 553.001,278.323 551.694,280.100 550.926 C 280.925 550.570,281.600 550.124,281.600 549.934 C 281.600 549.745,282.567 549.162,283.749 548.640 C 284.931 548.117,286.027 547.480,286.186 547.223 C 286.344 546.967,287.627 546.229,289.037 545.583 C 290.447 544.937,291.600 544.227,291.600 544.005 C 291.600 543.782,291.898 543.600,292.262 543.600 C 292.626 543.600,293.481 543.182,294.162 542.671 C 295.466 541.691,296.805 541.033,297.288 541.133 C 297.446 541.165,297.768 540.834,298.002 540.396 C 298.236 539.958,298.629 539.600,298.874 539.600 C 299.524 539.600,303.600 537.484,303.600 537.147 C 303.600 536.990,304.635 536.352,305.900 535.730 C 307.165 535.109,308.260 534.464,308.334 534.298 C 308.408 534.131,308.633 534.097,308.834 534.221 C 309.035 534.345,309.200 534.257,309.200 534.024 C 309.200 533.791,309.470 533.600,309.800 533.600 C 310.130 533.600,310.400 533.423,310.400 533.208 C 310.400 532.992,310.850 532.702,311.400 532.564 C 311.950 532.426,312.400 532.153,312.400 531.957 C 312.400 531.760,312.760 531.600,313.200 531.600 C 313.640 531.600,314.345 531.255,314.767 530.833 C 315.188 530.412,315.638 530.172,315.767 530.300 C 315.895 530.428,316.000 530.323,316.000 530.067 C 316.000 529.810,316.235 529.600,316.522 529.600 C 316.810 529.600,317.646 529.156,318.382 528.613 C 319.118 528.071,319.873 527.721,320.060 527.837 C 320.247 527.953,320.400 527.846,320.400 527.600 C 320.400 527.354,320.581 527.265,320.803 527.402 C 321.024 527.539,321.314 527.368,321.447 527.023 C 321.579 526.677,323.001 525.772,324.606 525.010 C 326.212 524.248,327.587 523.478,327.663 523.298 C 327.738 523.118,328.852 522.461,330.138 521.837 C 331.424 521.214,333.400 520.096,334.529 519.352 C 335.658 518.608,336.785 518.000,337.032 518.000 C 337.280 518.000,337.969 517.550,338.562 517.000 C 339.156 516.450,339.878 516.000,340.167 516.000 C 340.456 516.000,341.162 515.631,341.736 515.179 C 342.310 514.727,343.155 514.286,343.614 514.197 C 344.074 514.109,344.879 513.623,345.403 513.118 C 345.928 512.613,346.502 512.187,346.679 512.171 C 347.372 512.110,349.200 511.052,349.200 510.712 C 349.200 510.515,349.380 510.464,349.600 510.600 C 349.820 510.736,350.000 510.646,350.000 510.400 C 350.000 510.154,350.180 510.064,350.400 510.200 C 350.620 510.336,350.800 510.270,350.800 510.053 C 350.800 509.836,351.835 509.159,353.100 508.548 C 354.365 507.937,355.532 507.249,355.694 507.019 C 355.879 506.756,355.995 506.749,356.006 507.000 C 356.016 507.220,356.208 507.085,356.432 506.700 C 356.656 506.315,357.061 506.000,357.331 506.000 C 357.601 506.000,358.266 505.689,358.808 505.309 C 359.351 504.929,360.048 504.581,360.357 504.536 C 360.667 504.490,361.070 504.216,361.254 503.927 C 361.437 503.637,361.596 503.580,361.607 503.800 C 361.617 504.020,361.845 503.930,362.113 503.600 C 362.381 503.270,363.815 502.392,365.300 501.648 C 366.785 500.905,368.000 500.183,368.000 500.043 C 368.000 499.904,369.281 499.167,370.847 498.406 C 372.412 497.644,373.776 496.808,373.876 496.547 C 373.976 496.286,374.495 495.963,375.029 495.828 C 375.563 495.694,376.000 495.408,376.000 495.192 C 376.000 494.977,376.301 494.800,376.669 494.800 C 377.652 494.800,381.279 490.849,382.190 488.785 C 382.623 487.803,383.100 486.910,383.249 486.800 C 383.398 486.690,383.811 485.601,384.165 484.380 C 385.205 480.801,385.336 336.400,384.300 336.400 C 383.915 336.400,383.600 336.580,383.600 336.800 C 383.600 337.020,383.403 337.200,383.163 337.200 C 382.923 337.200,382.269 337.560,381.709 338.000 C 381.150 338.440,380.363 338.800,379.960 338.800 C 379.558 338.800,379.047 339.139,378.825 339.554 C 378.603 339.969,377.932 340.431,377.335 340.581 C 376.250 340.853,374.027 342.232,373.545 342.932 C 373.404 343.136,373.089 343.179,372.845 343.028 C 372.600 342.876,372.400 342.927,372.400 343.141 C 372.400 343.354,371.545 343.937,370.500 344.436 C 369.455 344.935,368.456 345.581,368.280 345.871 C 368.104 346.162,367.609 346.400,367.180 346.400 C 366.751 346.400,366.400 346.551,366.400 346.735 C 366.400 346.919,365.420 347.484,364.221 347.991 C 363.023 348.498,361.944 349.168,361.824 349.481 C 361.704 349.794,361.424 349.939,361.203 349.802 C 360.981 349.665,360.800 349.743,360.800 349.976 C 360.800 350.209,360.554 350.400,360.254 350.400 C 359.954 350.400,359.229 350.777,358.643 351.237 C 358.058 351.698,357.088 352.213,356.489 352.383 C 355.890 352.552,355.441 352.883,355.491 353.117 C 355.541 353.352,354.911 353.759,354.091 354.023 C 353.271 354.286,352.330 354.719,352.000 354.985 C 351.670 355.251,350.817 355.699,350.105 355.981 C 349.393 356.262,348.890 356.622,348.987 356.779 C 349.084 356.936,348.542 357.309,347.782 357.607 C 347.022 357.905,346.400 358.296,346.400 358.475 C 346.400 358.654,346.040 358.800,345.600 358.800 C 345.160 358.800,344.481 359.119,344.092 359.508 C 343.702 359.898,342.327 360.733,341.034 361.366 C 339.742 361.998,338.351 362.849,337.942 363.258 C 337.534 363.666,336.957 364.000,336.660 364.000 C 336.363 364.000,335.353 364.556,334.414 365.236 C 333.476 365.915,332.847 366.247,333.016 365.974 C 333.215 365.653,333.160 365.578,332.862 365.762 C 332.517 365.975,332.400 377.827,332.400 412.535 L 332.400 459.022 331.500 459.811 C 331.005 460.245,329.480 461.160,328.111 461.844 C 326.742 462.529,325.737 463.204,325.878 463.344 C 326.018 463.485,325.893 463.600,325.598 463.600 C 325.304 463.600,324.758 463.876,324.386 464.212 C 324.014 464.549,323.280 464.907,322.755 465.008 C 322.230 465.108,321.600 465.463,321.356 465.795 C 321.112 466.128,320.651 466.400,320.331 466.400 C 320.012 466.400,319.402 466.724,318.975 467.120 C 318.265 467.780,317.235 468.319,316.496 468.417 C 316.333 468.439,316.054 468.718,315.875 469.037 C 315.697 469.356,315.382 469.512,315.175 469.385 C 314.969 469.257,314.800 469.354,314.800 469.600 C 314.800 469.846,314.620 469.936,314.400 469.800 C 314.180 469.664,314.000 469.722,314.000 469.930 C 314.000 470.137,313.685 470.416,313.300 470.550 C 311.634 471.131,309.213 472.683,309.494 472.991 C 309.662 473.176,309.485 473.214,309.100 473.076 C 308.715 472.938,308.400 472.974,308.400 473.157 C 308.400 473.339,307.545 473.919,306.500 474.444 C 305.455 474.970,304.510 475.490,304.400 475.600 C 303.491 476.509,302.663 476.967,302.953 476.400 C 303.130 476.053,303.017 476.095,302.686 476.500 C 302.370 476.885,301.929 477.200,301.705 477.200 C 301.481 477.200,301.079 477.464,300.811 477.787 C 300.543 478.110,300.206 478.359,300.062 478.340 C 299.293 478.238,298.751 478.486,298.016 479.275 C 297.567 479.757,297.200 480.029,297.200 479.880 C 297.200 479.732,296.232 480.229,295.048 480.986 C 293.865 481.744,292.785 482.251,292.648 482.115 C 292.512 481.978,292.400 482.077,292.400 482.333 C 292.400 482.590,292.119 482.800,291.776 482.800 C 291.433 482.800,291.252 482.961,291.374 483.157 C 291.495 483.354,291.112 483.636,290.522 483.784 C 289.932 483.932,288.960 484.401,288.363 484.827 C 287.765 485.252,287.014 485.600,286.693 485.600 C 286.372 485.600,285.680 486.027,285.155 486.548 C 284.630 487.070,283.070 488.025,281.688 488.670 C 280.307 489.315,279.274 489.940,279.393 490.059 C 279.512 490.178,278.797 490.611,277.805 491.020 C 276.812 491.429,276.000 491.918,276.000 492.106 C 276.000 492.293,275.827 492.340,275.615 492.209 C 275.403 492.078,274.863 492.337,274.415 492.785 C 273.967 493.233,273.455 493.600,273.278 493.600 C 273.100 493.600,272.354 494.044,271.618 494.587 C 270.882 495.129,270.127 495.479,269.940 495.363 C 269.753 495.247,269.600 495.354,269.600 495.600 C 269.600 495.846,269.420 495.936,269.200 495.800 C 268.980 495.664,268.800 495.743,268.800 495.976 C 268.800 496.209,268.530 496.400,268.200 496.400 C 267.870 496.400,267.600 496.580,267.600 496.800 C 267.600 497.020,267.357 497.200,267.060 497.200 C 266.763 497.200,265.791 497.728,264.900 498.373 C 264.009 499.019,263.172 499.439,263.040 499.307 C 262.908 499.175,262.800 499.287,262.800 499.557 C 262.800 499.827,262.620 499.936,262.400 499.800 C 262.180 499.664,262.000 499.715,262.000 499.914 C 262.000 500.112,261.145 500.705,260.100 501.232 C 259.055 501.758,258.068 502.372,257.906 502.595 C 257.714 502.860,257.608 502.862,257.600 502.600 C 257.593 502.371,257.462 502.391,257.294 502.645 C 257.132 502.890,255.830 503.692,254.400 504.427 C 252.970 505.163,251.740 505.907,251.667 506.082 C 251.593 506.257,251.278 506.400,250.967 506.400 C 250.655 506.400,250.400 506.580,250.400 506.800 C 250.400 507.020,250.165 507.200,249.878 507.200 C 249.590 507.200,248.754 507.644,248.018 508.187 C 247.282 508.729,246.527 509.079,246.340 508.963 C 246.153 508.847,246.000 508.954,246.000 509.200 C 246.000 509.446,245.852 509.556,245.671 509.444 C 245.491 509.332,245.042 509.592,244.675 510.020 C 244.308 510.449,243.736 510.800,243.404 510.800 C 243.072 510.800,242.800 510.991,242.800 511.224 C 242.800 511.457,242.620 511.536,242.400 511.400 C 242.180 511.264,242.000 511.329,242.000 511.545 C 242.000 511.761,241.358 512.150,240.573 512.409 C 239.788 512.668,239.248 512.981,239.371 513.105 C 239.495 513.229,238.224 514.003,236.545 514.827 C 234.867 515.650,233.383 516.476,233.247 516.662 C 233.111 516.848,231.785 517.583,230.300 518.296 C 228.815 519.009,227.600 519.774,227.600 519.996 C 227.600 520.218,227.330 520.400,227.000 520.400 C 226.468 520.400,226.400 504.890,226.400 383.213 C 226.400 261.432,226.467 246.051,227.000 246.255 C 227.330 246.382,227.600 246.646,227.600 246.843 C 227.600 247.039,227.870 247.200,228.200 247.200 C 228.530 247.200,228.800 247.362,228.800 247.561 C 228.800 247.759,229.348 248.113,230.018 248.346 C 230.687 248.580,231.767 249.150,232.418 249.613 C 233.068 250.076,233.600 250.336,233.600 250.192 C 233.600 250.047,234.154 250.395,234.831 250.964 C 235.508 251.534,236.293 252.000,236.577 252.000 C 236.860 252.000,237.600 252.399,238.220 252.887 C 238.841 253.376,239.612 253.814,239.934 253.861 C 240.256 253.908,240.628 254.113,240.760 254.317 C 240.892 254.520,241.855 255.062,242.900 255.521 C 243.945 255.980,244.800 256.539,244.800 256.765 C 244.800 256.990,245.100 257.060,245.466 256.919 C 245.863 256.767,246.031 256.826,245.882 257.067 C 245.746 257.288,246.706 257.982,248.017 258.608 C 249.328 259.235,250.400 259.905,250.400 260.097 C 250.400 260.290,250.573 260.340,250.785 260.209 C 250.997 260.078,251.537 260.337,251.985 260.785 C 252.433 261.233,252.955 261.600,253.144 261.600 C 253.333 261.600,254.184 262.072,255.033 262.648 C 255.883 263.225,256.800 263.729,257.070 263.769 C 257.340 263.809,257.885 264.132,258.281 264.487 C 258.676 264.842,259.764 265.437,260.697 265.809 C 261.631 266.181,262.314 266.616,262.215 266.776 C 262.116 266.936,263.369 267.667,265.000 268.400 C 266.631 269.133,267.880 269.870,267.777 270.038 C 267.624 270.285,268.726 270.861,269.600 270.990 C 269.710 271.006,270.804 271.668,272.032 272.461 C 273.259 273.254,274.654 274.027,275.132 274.178 C 275.609 274.330,276.000 274.622,276.000 274.827 C 276.000 275.032,276.152 275.155,276.337 275.100 C 276.522 275.045,277.574 275.579,278.674 276.288 C 279.774 276.996,281.698 278.085,282.950 278.708 C 284.201 279.331,285.100 279.967,284.946 280.121 C 284.792 280.274,284.877 280.400,285.133 280.400 C 285.907 280.400,286.129 280.499,287.978 281.672 C 288.956 282.293,289.991 282.800,290.278 282.800 C 290.565 282.800,290.800 282.976,290.800 283.191 C 290.800 283.406,292.150 284.249,293.800 285.065 C 295.450 285.881,296.800 286.706,296.800 286.898 C 296.800 287.090,296.980 287.136,297.200 287.000 C 297.420 286.864,297.600 286.943,297.600 287.176 C 297.600 287.409,297.951 287.600,298.380 287.600 C 298.809 287.600,299.320 287.886,299.516 288.236 C 299.712 288.586,299.946 288.839,300.036 288.799 C 300.381 288.645,302.400 289.746,302.400 290.088 C 302.400 290.285,302.580 290.336,302.800 290.200 C 303.020 290.064,303.200 290.101,303.200 290.282 C 303.200 290.612,303.831 290.996,306.386 292.219 C 307.149 292.584,308.017 293.179,308.316 293.541 C 308.721 294.032,308.793 294.047,308.600 293.600 C 308.369 293.067,308.400 293.067,308.872 293.600 C 309.164 293.930,309.656 294.255,309.965 294.321 C 310.275 294.388,310.974 294.793,311.518 295.221 C 312.062 295.650,312.754 296.000,313.054 296.000 C 313.354 296.000,313.960 296.360,314.400 296.800 C 314.840 297.240,315.418 297.645,315.684 297.700 C 315.951 297.755,316.356 297.949,316.584 298.130 C 317.321 298.715,320.132 300.319,322.700 301.618 C 324.075 302.314,325.200 303.064,325.200 303.285 C 325.200 303.505,325.479 303.578,325.821 303.447 C 326.162 303.316,326.339 303.374,326.215 303.576 C 326.090 303.778,326.620 304.173,327.394 304.452 C 328.167 304.732,328.800 305.115,328.800 305.304 C 328.800 305.493,328.980 305.536,329.200 305.400 C 329.420 305.264,329.600 305.343,329.600 305.576 C 329.600 305.809,329.872 306.000,330.204 306.000 C 330.536 306.000,331.116 306.360,331.493 306.800 C 332.343 307.793,332.833 307.803,334.046 306.853 C 334.571 306.443,335.990 305.598,337.200 304.976 C 338.410 304.354,339.957 303.430,340.638 302.923 C 341.319 302.415,342.084 302.000,342.338 302.000 C 342.592 302.000,342.800 301.820,342.800 301.600 C 342.800 301.380,342.935 301.243,343.100 301.295 C 343.622 301.461,345.998 300.321,345.800 300.000 C 345.696 299.831,346.193 299.458,346.905 299.171 C 347.617 298.884,348.821 298.188,349.580 297.625 C 350.339 297.061,350.823 296.825,350.656 297.100 C 350.187 297.874,350.580 297.696,351.762 296.600 C 352.356 296.050,353.102 295.600,353.421 295.600 C 353.739 295.600,354.000 295.420,354.000 295.200 C 354.000 294.980,354.135 294.836,354.300 294.881 C 354.770 295.007,358.000 293.224,358.000 292.839 C 358.000 292.504,359.061 292.090,359.728 292.164 C 359.909 292.184,360.233 291.885,360.448 291.500 C 360.663 291.115,361.191 290.800,361.620 290.800 C 362.049 290.800,362.400 290.609,362.400 290.376 C 362.400 290.143,362.580 290.064,362.800 290.200 C 363.020 290.336,363.200 290.287,363.200 290.092 C 363.200 289.897,364.100 289.315,365.200 288.800 C 366.300 288.285,367.200 287.703,367.200 287.508 C 367.200 287.313,367.380 287.264,367.600 287.400 C 367.820 287.536,368.000 287.446,368.000 287.200 C 368.000 286.954,368.180 286.864,368.400 287.000 C 368.620 287.136,368.800 287.065,368.800 286.842 C 368.800 286.620,369.475 286.127,370.300 285.748 C 371.125 285.368,372.270 284.735,372.845 284.341 C 373.420 283.946,373.974 283.708,374.077 283.810 C 374.180 283.913,374.686 283.548,375.201 282.998 C 375.717 282.449,376.468 282.000,376.870 282.000 C 377.271 282.000,377.600 281.790,377.600 281.533 C 377.600 281.277,377.723 281.189,377.872 281.339 C 378.022 281.489,378.680 281.114,379.334 280.506 C 379.988 279.898,380.392 279.630,380.231 279.911 C 380.071 280.192,380.715 279.893,381.664 279.246 C 382.613 278.599,383.508 278.143,383.653 278.233 C 383.798 278.322,384.024 278.115,384.155 277.772 C 384.287 277.430,384.576 277.261,384.797 277.398 C 385.413 277.779,385.277 277.048,384.570 276.176 C 384.224 275.749,384.064 275.640,384.215 275.934 C 384.366 276.228,383.794 276.002,382.945 275.431 C 382.095 274.861,380.950 274.172,380.400 273.900 C 379.850 273.628,379.080 273.117,378.690 272.763 C 378.299 272.410,377.000 271.707,375.803 271.201 C 374.584 270.686,373.737 270.101,373.879 269.873 C 374.029 269.630,373.875 269.562,373.499 269.707 C 373.128 269.849,372.771 269.701,372.636 269.349 C 372.509 269.019,372.224 268.861,372.003 268.998 C 371.781 269.135,371.600 269.093,371.600 268.904 C 371.600 268.715,370.996 268.342,370.257 268.075 C 369.519 267.808,368.591 267.232,368.195 266.795 C 367.800 266.358,367.320 266.000,367.130 266.000 C 366.940 266.000,366.083 265.557,365.225 265.016 C 364.368 264.475,363.203 263.916,362.636 263.773 C 362.069 263.631,361.693 263.373,361.800 263.199 C 361.975 262.916,361.518 262.602,360.703 262.445 C 360.540 262.413,359.820 262.028,359.103 261.588 C 358.387 261.149,357.485 260.680,357.100 260.548 C 356.715 260.415,356.400 260.137,356.400 259.930 C 356.400 259.722,356.240 259.651,356.045 259.772 C 355.850 259.893,355.455 259.708,355.168 259.361 C 354.880 259.015,353.825 258.350,352.822 257.884 C 351.820 257.418,350.762 256.758,350.470 256.418 C 350.028 255.901,349.989 255.898,350.235 256.400 C 350.397 256.731,350.097 256.609,349.565 256.127 C 349.034 255.647,347.745 254.888,346.700 254.441 C 345.655 253.994,344.800 253.431,344.800 253.191 C 344.800 252.950,344.620 252.864,344.400 253.000 C 344.180 253.136,344.000 253.074,344.000 252.863 C 344.000 252.651,343.505 252.289,342.900 252.058 C 341.619 251.570,339.661 250.419,338.880 249.696 C 338.580 249.419,338.169 249.296,337.965 249.422 C 337.761 249.548,337.486 249.369,337.354 249.025 C 337.222 248.681,336.893 248.400,336.623 248.400 C 336.352 248.400,334.886 247.594,333.365 246.609 C 331.844 245.623,330.328 244.813,329.996 244.809 C 329.664 244.804,328.944 244.391,328.396 243.891 C 327.848 243.391,326.098 242.338,324.506 241.552 C 322.914 240.765,321.700 240.034,321.807 239.926 C 321.914 239.819,320.753 239.162,319.226 238.467 C 317.699 237.772,316.349 237.041,316.227 236.843 C 316.104 236.645,314.878 235.903,313.502 235.194 C 312.126 234.485,310.716 233.657,310.369 233.353 C 310.021 233.049,309.600 232.800,309.432 232.800 C 309.264 232.800,308.669 232.440,308.109 232.000 C 307.550 231.560,306.784 231.200,306.408 231.200 C 306.032 231.200,305.400 230.843,305.005 230.406 C 304.610 229.969,303.097 229.037,301.643 228.336 C 300.189 227.634,298.854 226.818,298.675 226.522 C 298.497 226.226,298.182 226.088,297.975 226.215 C 297.769 226.343,297.600 226.246,297.600 226.000 C 297.600 225.754,297.432 225.656,297.228 225.783 C 297.023 225.909,296.749 225.841,296.619 225.630 C 296.488 225.419,295.576 224.845,294.591 224.353 C 293.606 223.861,292.800 223.299,292.800 223.105 C 292.800 222.912,292.620 222.864,292.400 223.000 C 292.180 223.136,292.000 223.057,292.000 222.824 C 292.000 222.591,291.640 222.400,291.200 222.400 C 290.760 222.400,290.400 222.220,290.400 222.000 C 290.400 221.780,290.192 221.600,289.938 221.600 C 289.684 221.600,288.874 221.141,288.138 220.580 C 287.402 220.018,286.797 219.703,286.794 219.880 C 286.791 220.056,286.656 219.998,286.494 219.750 C 286.129 219.191,283.188 217.600,282.520 217.600 C 282.249 217.600,281.837 217.242,281.603 216.805 C 281.368 216.367,280.687 215.890,280.088 215.744 C 279.490 215.598,278.571 215.145,278.046 214.739 C 277.521 214.333,276.846 214.000,276.546 214.000 C 276.246 214.000,275.627 213.627,275.172 213.172 C 274.716 212.716,273.964 212.270,273.501 212.181 C 273.038 212.092,272.556 211.859,272.429 211.663 C 272.303 211.468,271.815 211.188,271.345 211.041 C 270.874 210.894,270.010 210.330,269.424 209.787 C 268.838 209.244,268.098 208.800,267.779 208.800 C 267.461 208.800,267.200 208.620,267.200 208.400 C 267.200 208.180,267.065 208.028,266.900 208.062 C 266.735 208.097,265.970 207.834,265.200 207.478 C 264.430 207.122,263.980 206.821,264.200 206.808 C 264.759 206.776,260.423 204.421,259.275 204.133 C 258.758 204.003,258.246 203.665,258.137 203.381 C 258.028 203.097,256.952 202.365,255.745 201.755 C 253.597 200.668,252.451 199.755,253.879 200.268 C 254.276 200.411,254.465 200.379,254.301 200.198 C 254.033 199.903,257.113 198.001,258.900 197.359 C 259.285 197.220,259.600 196.948,259.600 196.753 C 259.600 196.559,259.848 196.400,260.151 196.400 C 260.454 196.400,260.917 196.142,261.179 195.826 C 261.441 195.510,262.183 195.136,262.828 194.994 C 263.472 194.852,264.000 194.571,264.000 194.368 C 264.000 194.166,264.248 194.000,264.551 194.000 C 264.854 194.000,265.319 193.738,265.585 193.418 C 265.851 193.098,267.120 192.339,268.405 191.732 C 269.690 191.125,270.655 190.489,270.550 190.319 C 270.445 190.149,270.638 190.116,270.979 190.247 C 271.321 190.378,271.600 190.284,271.600 190.038 C 271.600 189.791,272.545 189.171,273.700 188.660 C 274.855 188.148,276.047 187.430,276.349 187.065 C 276.651 186.699,277.124 186.400,277.400 186.400 C 277.676 186.400,278.126 186.130,278.400 185.800 C 278.674 185.470,279.236 185.200,279.649 185.200 C 280.062 185.200,280.745 184.855,281.167 184.433 C 281.588 184.012,282.015 183.749,282.116 183.849 C 282.216 183.949,283.132 183.394,284.152 182.616 C 285.172 181.837,286.230 181.198,286.503 181.195 C 287.055 181.189,290.800 177.077,290.800 176.477 C 290.800 176.269,291.069 175.875,291.397 175.602 C 291.726 175.330,292.182 174.408,292.413 173.553 C 292.643 172.699,293.025 172.000,293.262 172.000 C 293.499 172.000,293.599 171.640,293.484 171.199 C 293.369 170.759,293.413 170.485,293.583 170.589 C 294.382 171.083,294.912 76.645,294.114 75.847 C 293.957 75.690,293.806 75.144,293.779 74.633 C 293.721 73.559,291.364 68.579,290.355 67.400 C 289.543 66.452,287.596 64.521,286.321 63.400 C 285.821 62.960,284.281 62.048,282.900 61.373 C 281.518 60.698,280.476 60.058,280.583 59.950 C 280.690 59.843,279.973 59.423,278.989 59.017 C 278.005 58.611,277.200 58.116,277.200 57.916 C 277.200 57.716,277.054 57.643,276.876 57.753 C 276.697 57.863,275.932 57.424,275.176 56.778 C 274.419 56.131,273.573 55.601,273.295 55.601 C 272.774 55.600,271.155 54.791,270.800 54.354 C 270.690 54.219,270.195 53.981,269.700 53.827 C 269.205 53.672,268.800 53.378,268.800 53.173 C 268.800 52.968,268.462 52.800,268.049 52.800 C 267.636 52.800,267.074 52.530,266.800 52.200 C 266.526 51.870,266.054 51.600,265.751 51.600 C 265.448 51.600,265.200 51.449,265.200 51.264 C 265.200 50.971,263.400 49.907,262.771 49.829 C 262.646 49.813,262.228 49.485,261.843 49.100 C 261.458 48.715,260.976 48.400,260.771 48.400 C 259.997 48.400,259.760 48.277,258.300 47.121 C 257.475 46.467,256.800 46.066,256.800 46.228 C 256.800 46.391,256.485 46.254,256.100 45.924 C 255.715 45.593,254.545 44.919,253.500 44.426 C 252.455 43.932,251.600 43.354,251.600 43.141 C 251.600 42.927,251.420 42.864,251.200 43.000 C 250.980 43.136,250.800 43.074,250.800 42.863 C 250.800 42.651,250.305 42.289,249.700 42.058 C 248.388 41.558,246.298 40.334,245.955 39.866 C 245.821 39.682,245.551 39.549,245.355 39.569 C 245.160 39.590,244.704 39.353,244.343 39.044 C 243.981 38.734,243.275 38.351,242.774 38.192 C 242.272 38.032,241.499 37.564,241.055 37.151 C 240.612 36.738,239.942 36.400,239.567 36.400 C 239.192 36.400,238.778 36.119,238.646 35.775 C 238.514 35.431,238.224 35.261,238.003 35.398 C 237.781 35.535,237.600 35.457,237.600 35.224 C 237.600 34.991,237.283 34.800,236.896 34.800 C 236.509 34.800,235.744 34.392,235.196 33.893 C 234.648 33.394,232.985 32.393,231.500 31.668 C 230.015 30.943,228.800 30.203,228.800 30.024 C 228.800 29.845,227.855 29.297,226.700 28.806 C 225.545 28.315,224.027 27.483,223.327 26.957 C 222.626 26.431,221.861 26.000,221.627 26.000 C 221.392 26.000,221.200 25.838,221.200 25.639 C 221.200 25.441,220.652 25.087,219.982 24.854 C 219.313 24.620,218.250 24.063,217.621 23.615 C 216.991 23.167,216.209 22.800,215.881 22.800 C 215.554 22.800,215.178 22.519,215.046 22.175 C 214.914 21.831,214.624 21.661,214.403 21.798 C 214.181 21.935,214.000 21.857,214.000 21.624 C 214.000 21.391,213.730 21.200,213.400 21.200 C 213.070 21.200,212.433 20.833,211.985 20.385 C 211.537 19.937,210.952 19.696,210.685 19.850 C 210.418 20.003,210.338 19.976,210.507 19.791 C 210.862 19.400,209.041 18.551,206.264 17.813 C 203.951 17.198,196.770 17.092,194.800 17.643 M204.400 77.168 C 204.400 77.331,205.480 77.947,206.800 78.536 C 208.120 79.125,209.200 79.796,209.200 80.027 C 209.200 80.258,209.380 80.336,209.600 80.200 C 209.820 80.064,210.000 80.110,210.000 80.302 C 210.000 80.711,212.342 81.963,214.296 82.599 C 214.788 82.760,215.109 83.023,215.009 83.185 C 214.909 83.347,215.316 83.707,215.914 83.986 C 216.511 84.265,217.270 84.658,217.600 84.860 C 217.930 85.062,218.875 85.518,219.700 85.874 C 220.525 86.230,221.200 86.671,221.200 86.853 C 221.200 87.035,222.358 87.726,223.774 88.388 C 225.189 89.049,226.461 89.776,226.601 90.002 C 226.741 90.228,227.023 90.309,227.228 90.183 C 227.432 90.056,227.600 90.130,227.600 90.347 C 227.600 90.564,228.635 91.241,229.900 91.852 C 231.165 92.463,232.318 93.134,232.463 93.345 C 232.607 93.555,234.107 94.389,235.795 95.197 C 237.482 96.006,238.894 96.833,238.932 97.034 C 238.969 97.235,239.135 97.355,239.300 97.300 C 239.465 97.245,239.600 97.410,239.600 97.667 C 239.600 97.923,239.714 98.020,239.853 97.881 C 239.992 97.742,240.442 97.808,240.853 98.028 C 241.570 98.412,241.600 99.401,241.600 122.438 C 241.600 138.454,241.466 146.364,241.197 146.198 C 240.976 146.061,240.689 146.224,240.560 146.559 C 240.431 146.895,239.938 147.290,239.463 147.437 C 238.988 147.584,238.130 148.036,237.555 148.441 C 236.980 148.845,236.395 149.062,236.255 148.922 C 236.115 148.781,236.000 148.887,236.000 149.157 C 236.000 149.427,235.852 149.556,235.671 149.444 C 235.491 149.332,235.042 149.592,234.675 150.020 C 234.308 150.449,233.736 150.800,233.404 150.800 C 233.072 150.800,232.800 150.991,232.800 151.224 C 232.800 151.457,232.620 151.536,232.400 151.400 C 232.180 151.264,232.000 151.315,232.000 151.512 C 232.000 151.710,231.280 152.110,230.400 152.400 C 229.520 152.690,228.800 153.125,228.800 153.365 C 228.800 153.605,227.675 154.321,226.300 154.955 C 224.925 155.590,223.620 156.310,223.400 156.555 C 223.180 156.800,221.695 157.620,220.100 158.377 C 218.505 159.135,217.200 159.869,217.200 160.010 C 217.200 160.150,216.705 160.511,216.100 160.812 C 215.495 161.113,214.384 161.806,213.632 162.352 C 212.879 162.898,212.393 163.135,212.552 162.877 C 212.743 162.569,212.629 162.491,212.221 162.647 C 211.879 162.778,211.600 163.035,211.600 163.218 C 211.600 163.400,210.434 164.124,209.008 164.826 C 207.582 165.528,206.512 166.257,206.629 166.446 C 206.746 166.636,206.562 166.684,206.221 166.553 C 205.879 166.422,205.600 166.485,205.600 166.693 C 205.600 167.006,203.628 168.158,203.300 168.037 C 203.245 168.017,202.833 168.367,202.385 168.815 C 201.937 169.263,201.397 169.522,201.185 169.391 C 200.973 169.260,200.800 169.313,200.800 169.510 C 200.800 169.706,200.530 169.867,200.200 169.867 C 199.870 169.867,199.600 169.714,199.600 169.528 C 199.600 169.342,198.633 168.762,197.451 168.240 C 196.269 167.717,195.169 167.073,195.005 166.808 C 194.841 166.543,193.297 165.644,191.573 164.811 C 189.849 163.977,188.550 163.184,188.686 163.047 C 188.822 162.911,188.633 162.800,188.267 162.800 C 187.900 162.800,187.600 162.620,187.600 162.400 C 187.600 162.180,187.465 162.029,187.300 162.064 C 186.800 162.169,185.473 161.513,184.100 160.482 C 183.385 159.945,182.800 159.648,182.800 159.822 C 182.800 159.997,182.395 159.770,181.900 159.319 C 181.405 158.868,180.280 158.170,179.400 157.766 C 178.520 157.363,177.562 156.756,177.270 156.417 C 176.825 155.899,176.788 155.896,177.035 156.400 C 177.197 156.731,176.897 156.609,176.365 156.127 C 175.834 155.647,174.545 154.888,173.500 154.441 C 172.455 153.994,171.600 153.431,171.600 153.191 C 171.600 152.950,171.420 152.864,171.200 153.000 C 170.980 153.136,170.800 153.057,170.800 152.824 C 170.800 152.591,170.440 152.400,170.000 152.400 C 169.560 152.400,169.200 152.249,169.200 152.064 C 169.200 151.880,168.482 151.385,167.605 150.964 C 166.727 150.544,166.007 150.054,166.005 149.876 C 166.002 149.698,165.820 149.664,165.600 149.800 C 165.380 149.936,165.200 149.846,165.200 149.600 C 165.200 149.354,165.031 149.257,164.825 149.385 C 164.618 149.512,164.264 149.298,164.037 148.908 C 163.810 148.519,163.619 148.324,163.612 148.476 C 163.598 148.795,162.443 148.206,160.303 146.790 L 158.805 145.800 158.903 122.205 L 159.000 98.611 160.200 98.043 C 160.860 97.731,161.462 97.319,161.537 97.127 C 161.646 96.851,164.281 95.295,165.200 94.964 C 165.310 94.925,165.805 94.761,166.300 94.600 C 166.795 94.438,167.200 94.137,167.200 93.930 C 167.200 93.722,167.348 93.644,167.529 93.756 C 167.709 93.868,168.158 93.608,168.525 93.180 C 168.892 92.751,169.464 92.400,169.796 92.400 C 170.128 92.400,170.400 92.220,170.400 92.000 C 170.400 91.780,170.535 91.631,170.700 91.670 C 171.227 91.792,173.200 90.687,173.200 90.269 C 173.200 90.048,173.305 89.971,173.433 90.099 C 173.560 90.227,174.306 89.897,175.088 89.366 C 175.871 88.835,176.757 88.400,177.056 88.400 C 177.355 88.400,177.600 88.223,177.600 88.008 C 177.600 87.792,178.050 87.502,178.600 87.364 C 179.150 87.226,179.600 86.984,179.600 86.825 C 179.600 86.666,180.500 86.115,181.600 85.600 C 182.700 85.085,183.600 84.503,183.600 84.308 C 183.600 84.113,183.768 84.056,183.972 84.183 C 184.177 84.309,184.812 83.980,185.383 83.451 C 185.955 82.921,187.002 82.259,187.711 81.978 C 188.420 81.698,189.315 81.200,189.700 80.872 C 190.085 80.544,190.400 80.410,190.400 80.574 C 190.400 80.737,190.954 80.405,191.631 79.836 C 192.308 79.266,193.118 78.800,193.431 78.800 C 193.744 78.800,194.000 78.609,194.000 78.376 C 194.000 78.143,194.181 78.065,194.403 78.202 C 194.624 78.339,194.914 78.169,195.046 77.825 C 195.178 77.481,195.554 77.200,195.881 77.200 C 196.209 77.200,196.980 76.841,197.596 76.403 C 199.659 74.934,200.367 74.862,202.460 75.905 C 203.527 76.437,204.400 77.005,204.400 77.168 " stroke="none" fill="#14bce4" fill-rule="evenodd"></path><path id="path1" d="M106.095 122.276 C 106.043 146.738,106.135 166.836,106.300 166.938 C 106.572 167.106,106.569 135.923,106.295 93.800 C 106.238 85.000,106.148 97.814,106.095 122.276 M384.996 408.400 C 384.996 447.670,385.043 463.735,385.100 444.100 C 385.157 424.465,385.157 392.335,385.100 372.700 C 385.043 353.065,384.996 369.130,384.996 408.400 " stroke="none" fill="#18bce4" fill-rule="evenodd"></path><path id="path2" d="M106.095 122.276 C 106.043 146.738,106.135 166.836,106.300 166.938 C 106.572 167.106,106.569 135.923,106.295 93.800 C 106.238 85.000,106.148 97.814,106.095 122.276 M384.996 408.400 C 384.996 447.670,385.043 463.735,385.100 444.100 C 385.157 424.465,385.157 392.335,385.100 372.700 C 385.043 353.065,384.996 369.130,384.996 408.400 " stroke="none" fill="#18bce4" fill-rule="evenodd"></path><path id="path3" d="M106.095 122.276 C 106.043 146.738,106.135 166.836,106.300 166.938 C 106.572 167.106,106.569 135.923,106.295 93.800 C 106.238 85.000,106.148 97.814,106.095 122.276 M384.996 408.400 C 384.996 447.670,385.043 463.735,385.100 444.100 C 385.157 424.465,385.157 392.335,385.100 372.700 C 385.043 353.065,384.996 369.130,384.996 408.400 " stroke="none" fill="#18bce4" fill-rule="evenodd"></path><path id="path4" d="M106.095 122.276 C 106.043 146.738,106.135 166.836,106.300 166.938 C 106.572 167.106,106.569 135.923,106.295 93.800 C 106.238 85.000,106.148 97.814,106.095 122.276 M384.996 408.400 C 384.996 447.670,385.043 463.735,385.100 444.100 C 385.157 424.465,385.157 392.335,385.100 372.700 C 385.043 353.065,384.996 369.130,384.996 408.400 " stroke="none" fill="#18bce4" fill-rule="evenodd"></path></g></svg>