<?xml version="1.0" encoding="UTF-8"?>
<!DOCTYPE svg PUBLIC "-//W3C//DTD SVG 1.1//EN" "http://www.w3.org/Graphics/SVG/1.1/DTD/svg11.dtd">
<svg xmlns="http://www.w3.org/2000/svg" version="1.1" width="280px" height="156px" style="shape-rendering:geometricPrecision; text-rendering:geometricPrecision; image-rendering:optimizeQuality; fill-rule:evenodd; clip-rule:evenodd" xmlns:xlink="http://www.w3.org/1999/xlink">
<g><path style="opacity:1" fill="#fdfdfe" d="M -0.5,-0.5 C 92.8333,-0.5 186.167,-0.5 279.5,-0.5C 279.5,51.5 279.5,103.5 279.5,155.5C 186.167,155.5 92.8333,155.5 -0.5,155.5C -0.5,103.5 -0.5,51.5 -0.5,-0.5 Z"/></g>
<g><path style="opacity:1" fill="#379ffe" d="M 82.5,59.5 C 77.6678,59.8596 73.0011,60.8596 68.5,62.5C 67.2617,62.19 67.2617,61.69 68.5,61C 53.6557,56.7178 38.9891,52.0512 24.5,47C 26.5389,45.0737 28.2055,42.907 29.5,40.5C 36.6446,33.3967 45.3113,30.5634 55.5,32C 70.146,35.1443 79.4793,43.9776 83.5,58.5C 83.3764,59.1067 83.0431,59.44 82.5,59.5 Z"/></g>
<g><path style="opacity:1" fill="#7879ab" d="M 260.5,54.5 C 264.634,53.5151 268.968,53.1818 273.5,53.5C 273.5,50.8333 273.5,48.1667 273.5,45.5C 261.5,45.5 249.5,45.5 237.5,45.5C 237.5,48.5 237.5,51.5 237.5,54.5C 236.521,51.3752 236.187,48.0419 236.5,44.5C 249.167,44.5 261.833,44.5 274.5,44.5C 274.5,47.8333 274.5,51.1667 274.5,54.5C 269.833,54.5 265.167,54.5 260.5,54.5 Z"/></g>
<g><path style="opacity:1" fill="#23219a" d="M 122.5,45.5 C 128.072,44.9896 133.405,45.8229 138.5,48C 142.535,51.6308 142.035,54.7975 137,57.5C 132.999,53.5344 128.332,52.5344 123,54.5C 122.202,56.2588 122.369,57.9255 123.5,59.5C 127.254,61.8098 131.254,63.6431 135.5,65C 142.489,69.1278 144.322,74.9611 141,82.5C 134.494,88.4892 126.994,89.9892 118.5,87C 115.084,85.75 112.417,83.5833 110.5,80.5C 112.167,78.5 113.833,76.5 115.5,74.5C 117.69,76.524 120.023,78.3573 122.5,80C 125.5,80.6667 128.5,80.6667 131.5,80C 134.374,76.9491 134.041,74.2825 130.5,72C 126.54,70.357 122.54,68.6903 118.5,67C 111.888,60.2606 111.888,53.5939 118.5,47C 120.058,46.79 121.391,46.29 122.5,45.5 Z"/></g>
<g><path style="opacity:1" fill="#22209a" d="M 156.5,102.5 C 153.5,102.5 150.5,102.5 147.5,102.5C 147.5,83.8333 147.5,65.1667 147.5,46.5C 150.167,46.5 152.833,46.5 155.5,46.5C 155.34,48.1992 155.506,49.8659 156,51.5C 156.717,50.9558 157.217,50.2891 157.5,49.5C 176.198,40.6837 187.198,46.5171 190.5,67C 190.071,80.4001 183.238,87.5668 170,88.5C 164.673,87.9429 159.84,86.4429 155.5,84C 156.476,90.0758 156.81,96.2424 156.5,102.5 Z"/></g>
<g><path style="opacity:1" fill="#23219a" d="M 209.5,45.5 C 231.468,44.9558 239.968,55.2891 235,76.5C 229.779,86.3583 221.612,90.1916 210.5,88C 196.096,83.167 190.929,73.3336 195,58.5C 197.959,51.9583 202.792,47.625 209.5,45.5 Z"/></g>
<g><path style="opacity:1" fill="#1e1d9a" d="M 260.5,54.5 C 259.505,65.3206 259.172,76.3206 259.5,87.5C 256.5,87.5 253.5,87.5 250.5,87.5C 250.5,76.1667 250.5,64.8333 250.5,53.5C 246.298,53.1832 242.298,53.5166 238.5,54.5C 238.167,54.5 237.833,54.5 237.5,54.5C 237.5,51.5 237.5,48.5 237.5,45.5C 249.5,45.5 261.5,45.5 273.5,45.5C 273.5,48.1667 273.5,50.8333 273.5,53.5C 268.968,53.1818 264.634,53.5151 260.5,54.5 Z"/></g>
<g><path style="opacity:1" fill="#0486fe" d="M 29.5,40.5 C 28.2055,42.907 26.5389,45.0737 24.5,47C 38.9891,52.0512 53.6557,56.7178 68.5,61C 67.2617,61.69 67.2617,62.19 68.5,62.5C 61.8843,68.3945 59.7176,75.7278 62,84.5C 63.3557,87.3289 64.8557,89.9955 66.5,92.5C 63.3855,95.0483 59.7188,96.5483 55.5,97C 46.5,97.6667 37.5,97.6667 28.5,97C 14.3217,94.1513 6.32167,85.4846 4.5,71C 6.01744,58.9488 12.3508,50.6154 23.5,46C 25.203,43.6681 27.203,41.8347 29.5,40.5 Z"/></g>
<g><path style="opacity:1" fill="#aaaacd" d="M 157.5,49.5 C 157.217,50.2891 156.717,50.9558 156,51.5C 155.506,49.8659 155.34,48.1992 155.5,46.5C 152.833,46.5 150.167,46.5 147.5,46.5C 147.5,65.1667 147.5,83.8333 147.5,102.5C 150.5,102.5 153.5,102.5 156.5,102.5C 153.375,103.479 150.042,103.813 146.5,103.5C 146.5,84.1667 146.5,64.8333 146.5,45.5C 149.833,45.5 153.167,45.5 156.5,45.5C 156.232,47.099 156.566,48.4324 157.5,49.5 Z"/></g>
<g><path style="opacity:1" fill="#fafafc" d="M 164.5,53.5 C 177.122,53.6301 182.289,59.9634 180,72.5C 176.075,79.2428 170.241,81.4095 162.5,79C 160.622,77.4571 159.122,75.6238 158,73.5C 155.524,65.0092 157.69,58.3425 164.5,53.5 Z"/></g>
<g><path style="opacity:1" fill="#f8f8fb" d="M 211.5,53.5 C 224.122,53.6301 229.289,59.9634 227,72.5C 222.874,78.9702 217.041,81.1369 209.5,79C 199.663,69.5534 200.33,61.0534 211.5,53.5 Z"/></g>
<g><path style="opacity:1" fill="#a5a5c9" d="M 238.5,54.5 C 242.298,53.5166 246.298,53.1832 250.5,53.5C 250.5,64.8333 250.5,76.1667 250.5,87.5C 250.5,87.8333 250.5,88.1667 250.5,88.5C 249.505,77.3456 249.172,66.0123 249.5,54.5C 245.833,54.5 242.167,54.5 238.5,54.5 Z"/></g>
<g><path style="opacity:1" fill="#6e6fa5" d="M 260.5,54.5 C 260.5,65.8333 260.5,77.1667 260.5,88.5C 257.167,88.5 253.833,88.5 250.5,88.5C 250.5,88.1667 250.5,87.8333 250.5,87.5C 253.5,87.5 256.5,87.5 259.5,87.5C 259.172,76.3206 259.505,65.3206 260.5,54.5 Z"/></g>
<g><path style="opacity:1" fill="#1e1d9a" d="M 82.5,59.5 C 82.5,60.1667 82.8333,60.5 83.5,60.5C 84.4018,74.0258 79.4018,84.6924 68.5,92.5C 67.8333,92.5 67.1667,92.5 66.5,92.5C 64.8557,89.9955 63.3557,87.3289 62,84.5C 59.7176,75.7278 61.8843,68.3945 68.5,62.5C 73.0011,60.8596 77.6678,59.8596 82.5,59.5 Z"/></g>
<g><path style="opacity:1" fill="#fc03ce" d="M 83.5,60.5 C 95.8263,64.4801 100.326,72.8134 97,85.5C 91.8691,94.8119 84.0358,98.3119 73.5,96C 71.4156,95.3028 69.7489,94.1361 68.5,92.5C 79.4018,84.6924 84.4018,74.0258 83.5,60.5 Z"/></g>
<g><path style="opacity:1" fill="#333336" d="M 166.5,100.5 C 168.467,100.261 170.301,100.594 172,101.5C 174.016,105.531 176.016,109.531 178,113.5C 178.499,109.179 178.666,104.846 178.5,100.5C 179.833,100.5 181.167,100.5 182.5,100.5C 182.5,106.5 182.5,112.5 182.5,118.5C 180.801,118.66 179.134,118.494 177.5,118C 175.107,114.712 173.107,111.212 171.5,107.5C 170.511,111.107 170.177,114.774 170.5,118.5C 169.167,118.5 167.833,118.5 166.5,118.5C 166.5,112.5 166.5,106.5 166.5,100.5 Z"/></g>
<g><path style="opacity:1" fill="#3f3e49" d="M 200.5,107.5 C 200.821,105.952 201.821,105.285 203.5,105.5C 203.5,104.167 203.5,102.833 203.5,101.5C 206.657,98.7645 207.991,99.7645 207.5,104.5C 208.5,104.5 209.5,104.5 210.5,104.5C 210.5,105.833 210.5,107.167 210.5,108.5C 209.5,108.5 208.5,108.5 207.5,108.5C 207.5,110.5 207.5,112.5 207.5,114.5C 208.5,114.5 209.5,114.5 210.5,114.5C 210.5,115.833 210.5,117.167 210.5,118.5C 208.208,118.756 206.041,118.423 204,117.5C 203.502,114.183 203.335,110.85 203.5,107.5C 202.5,107.5 201.5,107.5 200.5,107.5 Z"/></g>
<g><path style="opacity:1" fill="#3f3f48" d="M 217.5,100.5 C 219.792,100.244 221.959,100.577 224,101.5C 226.119,106.737 227.952,112.071 229.5,117.5C 227.37,118.777 225.704,118.277 224.5,116C 221.854,115.503 219.187,115.336 216.5,115.5C 216.5,116.5 216.5,117.5 216.5,118.5C 214.712,118.785 213.045,118.452 211.5,117.5C 213.793,111.919 215.793,106.253 217.5,100.5 Z"/></g>
<g><path style="opacity:1" fill="#3c3c43" d="M 188.5,104.5 C 195.343,103.087 199.01,105.754 199.5,112.5C 196.102,112.18 192.768,112.513 189.5,113.5C 191.513,116.122 193.679,116.122 196,113.5C 199.328,115.732 198.828,117.232 194.5,118C 183.766,117.561 181.766,113.061 188.5,104.5 Z"/></g>
<g><path style="opacity:1" fill="#9090bb" d="M 203.5,101.5 C 203.5,102.833 203.5,104.167 203.5,105.5C 201.821,105.285 200.821,105.952 200.5,107.5C 199.596,106.791 199.263,105.791 199.5,104.5C 200.5,104.5 201.5,104.5 202.5,104.5C 202.263,103.209 202.596,102.209 203.5,101.5 Z"/></g>
<g><path style="opacity:1" fill="#3a393f" d="M 236.5,115.5 C 237.833,115.5 239.167,115.5 240.5,115.5C 241.167,113.181 241.334,110.847 241,108.5C 239.644,107.62 238.144,107.286 236.5,107.5C 238.657,104.017 241.324,103.683 244.5,106.5C 245.933,110.196 245.6,113.696 243.5,117C 240.41,119.436 238.077,118.936 236.5,115.5 Z"/></g>
<g><path style="opacity:1" fill="#a2a1c7" d="M 252.5,105.5 C 251.167,105.5 249.833,105.5 248.5,105.5C 248.5,111.5 248.5,117.5 248.5,123.5C 249.833,123.5 251.167,123.5 252.5,123.5C 251.081,124.451 249.415,124.784 247.5,124.5C 247.5,117.833 247.5,111.167 247.5,104.5C 249.415,104.216 251.081,104.549 252.5,105.5 Z"/></g>
<g><path style="opacity:1" fill="#36353a" d="M 252.5,123.5 C 251.167,123.5 249.833,123.5 248.5,123.5C 248.5,117.5 248.5,111.5 248.5,105.5C 249.833,105.5 251.167,105.5 252.5,105.5C 253.078,106.547 253.744,106.38 254.5,105C 259.2,103.865 261.866,105.699 262.5,110.5C 262.318,117.9 259.151,119.9 253,116.5C 252.503,118.81 252.337,121.143 252.5,123.5 Z"/></g>
<g><path style="opacity:1" fill="#36363b" d="M 236.5,107.5 C 235.286,110.129 235.286,112.796 236.5,115.5C 235.523,118.287 235.19,121.287 235.5,124.5C 234.167,124.5 232.833,124.5 231.5,124.5C 231.5,117.833 231.5,111.167 231.5,104.5C 232.833,104.5 234.167,104.5 235.5,104.5C 235.263,105.791 235.596,106.791 236.5,107.5 Z"/></g>
<g><path style="opacity:1" fill="#d2d1e4" d="M 219.5,105.5 C 221.363,106.967 222.696,108.967 223.5,111.5C 221.833,112.833 220.167,112.833 218.5,111.5C 219.348,109.591 219.682,107.591 219.5,105.5 Z"/></g>
<g><path style="opacity:1" fill="#cfcee2" d="M 190.5,107.5 C 192.716,107.275 194.383,108.108 195.5,110C 193.167,110.667 190.833,110.667 188.5,110C 189.381,109.292 190.047,108.458 190.5,107.5 Z"/></g>
<g><path style="opacity:1" fill="#e2e2ee" d="M 236.5,107.5 C 238.144,107.286 239.644,107.62 241,108.5C 241.334,110.847 241.167,113.181 240.5,115.5C 239.167,115.5 237.833,115.5 236.5,115.5C 235.286,112.796 235.286,110.129 236.5,107.5 Z"/></g>
<g><path style="opacity:1" fill="#e7e7f1" d="M 253.5,107.5 C 257.487,107.652 258.987,109.652 258,113.5C 256.688,115.658 255.022,115.991 253,114.5C 252.444,112.115 252.61,109.782 253.5,107.5 Z"/></g>
<g><path style="opacity:1" fill="#494958" d="M 154.5,112.5 C 154.875,117.495 152.542,119.495 147.5,118.5C 146.887,113.697 147.22,111.363 148.5,111.5C 150.565,111.517 152.565,111.85 154.5,112.5 Z"/></g>
<g><path style="opacity:1" fill="#fefffe" d="M 150.5,112.5 C 152.898,113.882 153.065,115.549 151,117.5C 147.914,115.998 147.748,114.331 150.5,112.5 Z"/></g>
<g><path style="opacity:1" fill="#5b5a6f" d="M 154.5,112.5 C 154.56,111.957 154.893,111.624 155.5,111.5C 156.5,112.833 157.5,114.167 158.5,115.5C 159.5,114.167 160.5,112.833 161.5,111.5C 161.833,111.667 162.167,111.833 162.5,112C 160.741,115.104 159.074,118.271 157.5,121.5C 156.548,120.467 156.548,119.3 157.5,118C 156.394,116.142 155.394,114.308 154.5,112.5 Z"/></g>
</svg>
