<?xml version="1.0" encoding="UTF-8"?>
<!DOCTYPE svg PUBLIC "-//W3C//DTD SVG 1.1//EN" "http://www.w3.org/Graphics/SVG/1.1/DTD/svg11.dtd">
<svg xmlns="http://www.w3.org/2000/svg" version="1.1" width="464px" height="128px" style="shape-rendering:geometricPrecision; text-rendering:geometricPrecision; image-rendering:optimizeQuality; fill-rule:evenodd; clip-rule:evenodd" xmlns:xlink="http://www.w3.org/1999/xlink">
<g><path style="opacity:0.984" fill="#b2dbf0" d="M 61.5,-0.5 C 63.5,-0.5 65.5,-0.5 67.5,-0.5C 86.1681,5.67676 104.835,12.1768 123.5,19C 126.95,22.3989 128.283,26.5655 127.5,31.5C 128.283,36.4345 126.95,40.6011 123.5,44C 104.131,51.4008 84.4641,57.9008 64.5,63.5C 45.4757,57.7699 26.4757,51.9365 7.5,46C 4.03864,44.6954 1.37197,42.5287 -0.5,39.5C -0.5,34.5 -0.5,29.5 -0.5,24.5C 0.983199,20.8532 3.64987,18.3532 7.5,17C 25.7141,11.4546 43.7141,5.62124 61.5,-0.5 Z"/></g>
<g><path style="opacity:0.949" fill="#fefffe" d="M 389.5,13.5 C 395.167,13.5 400.833,13.5 406.5,13.5C 406.5,46.1667 406.5,78.8333 406.5,111.5C 400.833,111.5 395.167,111.5 389.5,111.5C 389.5,78.8333 389.5,46.1667 389.5,13.5 Z"/></g>
<g><path style="opacity:0.937" fill="#fefffe" d="M 188.5,37.5 C 203.363,34.6641 215.863,38.6641 226,49.5C 227.759,52.6076 228.592,55.941 228.5,59.5C 223.084,60.0693 217.751,61.0693 212.5,62.5C 208.11,52.7731 200.777,49.6065 190.5,53C 186.228,55.6933 185.561,59.0266 188.5,63C 196.017,65.7963 203.683,68.1296 211.5,70C 229.749,76.0759 234.249,87.5759 225,104.5C 221.731,107.883 217.897,110.383 213.5,112C 202.273,114.489 191.273,113.822 180.5,110C 172.188,105.734 168.188,99.0674 168.5,90C 173.356,89.2589 178.189,88.4255 183,87.5C 188.231,97.696 196.398,101.196 207.5,98C 214.018,93.5173 214.018,89.184 207.5,85C 198.061,82.3073 188.727,79.3073 179.5,76C 168.724,68.6145 166.557,59.1145 173,47.5C 177.205,42.4922 182.372,39.1589 188.5,37.5 Z"/></g>
<g><path style="opacity:0.937" fill="#fefffe" d="M 263.5,37.5 C 278.576,34.7192 291.076,39.0525 301,50.5C 303.076,53.8931 304.242,57.5598 304.5,61.5C 299.102,62.5162 293.769,63.8495 288.5,65.5C 283.587,54.1339 275.253,50.6339 263.5,55C 257.12,60.2918 254.12,67.1251 254.5,75.5C 255.355,94.5505 264.688,101.051 282.5,95C 284.797,92.2256 286.964,89.3923 289,86.5C 293.776,87.9023 298.609,89.069 303.5,90C 302.152,100.722 296.152,108.055 285.5,112C 251.934,117.771 235.768,103.604 237,69.5C 239.164,53.18 247.998,42.5133 263.5,37.5 Z"/></g>
<g><path style="opacity:0.946" fill="#fefffe" d="M 333.5,37.5 C 341.238,37.1439 348.905,37.6439 356.5,39C 365.333,41.1667 370.833,46.6667 373,55.5C 373.5,74.1637 373.667,92.8304 373.5,111.5C 368.5,111.5 363.5,111.5 358.5,111.5C 358.663,109.143 358.497,106.81 358,104.5C 354.166,108.993 349.333,111.826 343.5,113C 331.544,115.968 321.378,113.135 313,104.5C 305.222,86.8961 310.389,75.0627 328.5,69C 338.132,66.9504 347.798,65.1171 357.5,63.5C 355.781,56.1167 351.114,52.4501 343.5,52.5C 340.044,52.8182 336.711,53.6516 333.5,55C 330.961,57.5393 328.461,60.0393 326,62.5C 321.571,60.8562 317.071,59.5229 312.5,58.5C 315.186,47.1478 322.186,40.1478 333.5,37.5 Z M 351.5,78.5 C 353.527,78.3379 355.527,78.5045 357.5,79C 355.935,95.6216 346.935,102.288 330.5,99C 325.619,94.6248 325.285,89.9581 329.5,85C 336.673,81.8784 344.006,79.7117 351.5,78.5 Z"/></g>
<g><path style="opacity:0.952" fill="#fefffe" d="M 463.5,38.5 C 463.5,43.8333 463.5,49.1667 463.5,54.5C 453.359,52.9879 445.859,56.6546 441,65.5C 439.565,80.7754 439.065,96.1087 439.5,111.5C 433.833,111.5 428.167,111.5 422.5,111.5C 422.5,87.5 422.5,63.5 422.5,39.5C 427.5,39.5 432.5,39.5 437.5,39.5C 437.335,42.5184 437.502,45.5184 438,48.5C 444.785,40.9575 453.285,37.6241 463.5,38.5 Z"/></g>
<g><path style="opacity:0.98" fill="#d21212" d="M -0.5,71.5 C -0.5,68.1667 -0.5,64.8333 -0.5,61.5C 3.1633,56.3462 8.1633,54.5128 14.5,56C 31.1409,61.6025 47.8075,67.1025 64.5,72.5C 81.7185,66.4271 99.0518,60.7604 116.5,55.5C 127.159,57.3627 130.326,63.3627 126,73.5C 124.786,75.0488 123.286,76.2155 121.5,77C 102.587,83.4711 83.5871,89.6377 64.5,95.5C 44.7477,89.6383 25.0811,83.4716 5.5,77C 2.97739,75.6403 0.977392,73.807 -0.5,71.5 Z"/></g>
<g><path style="opacity:0.953" fill="#fefffe" d="M 67.5,127.5 C 65.5,127.5 63.5,127.5 61.5,127.5C 43.041,121.07 24.3743,114.903 5.5,109C 2.97739,107.64 0.977392,105.807 -0.5,103.5C -0.5,100.167 -0.5,96.8333 -0.5,93.5C 3.1633,88.3462 8.1633,86.5128 14.5,88C 31.1409,93.6025 47.8075,99.1025 64.5,104.5C 80.5264,99.1022 96.5264,93.6022 112.5,88C 124.218,86.7184 129.052,91.885 127,103.5C 126.215,105.286 125.049,106.786 123.5,108C 104.698,114.433 86.0312,120.933 67.5,127.5 Z"/></g>
</svg>
