<?xml version="1.0" standalone="no"?><!DOCTYPE svg PUBLIC "-//W3C//DTD SVG 1.1//EN" "http://www.w3.org/Graphics/SVG/1.1/DTD/svg11.dtd"><svg t="1735006407549" class="icon" viewBox="18.287 194.84894 1022.09717 633.56744" version="1.1" xmlns="http://www.w3.org/2000/svg" p-id="19410" xmlns:xlink="http://www.w3.org/1999/xlink" width="214.2578125" height="200"><path d="M201.435 680.229a46.373 46.373 0 0 1-37.01-44.91v-247.37a48.055 48.055 0 0 1 37.01-44.909l229.669-49.737 24.137-98.45H188.49a169.033 169.033 0 0 0-170.203 168.96v292.352A171.374 171.374 0 0 0 188.489 826.44h266.606l-24.137-98.011-229.669-48.128z m668.16-485.376H600.942l24.503 98.377 229.668 49.737a46.519 46.519 0 0 1 36.937 44.983v247.369a48.274 48.274 0 0 1-36.937 44.983l-229.668 49.737-24.503 98.377h268.653a170.423 170.423 0 0 0 170.789-170.642V363.886a171.154 171.154 0 0 0-170.789-169.033z" fill="#F76E05" p-id="19411"></path><path d="M431.104 498.761h195.877v24.137H431.104v-24.137z" fill="#F76E05" p-id="19412"></path></svg>