<?xml version="1.0" encoding="UTF-8"?>
<!DOCTYPE svg PUBLIC "-//W3C//DTD SVG 1.1//EN" "http://www.w3.org/Graphics/SVG/1.1/DTD/svg11.dtd">
<svg xmlns="http://www.w3.org/2000/svg" version="1.1" width="225px" height="225px" style="shape-rendering:geometricPrecision; text-rendering:geometricPrecision; image-rendering:optimizeQuality; fill-rule:evenodd; clip-rule:evenodd" xmlns:xlink="http://www.w3.org/1999/xlink">
<g><path style="opacity:1" fill="#fefefe" d="M -0.5,-0.5 C 74.5,-0.5 149.5,-0.5 224.5,-0.5C 224.5,74.5 224.5,149.5 224.5,224.5C 149.5,224.5 74.5,224.5 -0.5,224.5C -0.5,149.5 -0.5,74.5 -0.5,-0.5 Z"/></g>
<g><path style="opacity:1" fill="#5849a6" d="M 102.5,18.5 C 151.864,17.7287 185.031,40.3954 202,86.5C 210.757,125.561 200.257,158.394 170.5,185C 131.453,212.214 92.4529,212.214 53.5,185C 23.7432,158.394 13.2432,125.561 22,86.5C 35.3335,47.6536 62.1668,24.9869 102.5,18.5 Z"/></g>
<g><path style="opacity:1" fill="#1da7f7" d="M 137.5,66.5 C 127.118,80.5091 114.118,83.3424 98.5,75C 95.9688,71.6425 93.3021,68.4758 90.5,65.5C 91.9079,59.1266 94.4079,53.1266 98,47.5C 101.867,44.1173 106.033,41.284 110.5,39C 113.5,38.3333 116.5,38.3333 119.5,39C 123.576,42.1406 127.41,45.6406 131,49.5C 133.164,55.3197 135.33,60.9864 137.5,66.5 Z"/></g>
<g><path style="opacity:1" fill="#f6f9fc" d="M 110.5,54.5 C 120.685,54.8345 124.519,59.8345 122,69.5C 114.596,76.8215 108.596,75.8215 104,66.5C 103.339,60.9887 105.506,56.9887 110.5,54.5 Z"/></g>
<g><path style="opacity:1" fill="#fcfcfd" d="M 90.5,65.5 C 93.3021,68.4758 95.9688,71.6425 98.5,75C 114.118,83.3424 127.118,80.5091 137.5,66.5C 141.177,71.4972 144.677,77.1639 148,83.5C 148.912,87.7946 149.579,92.1279 150,96.5C 154.683,103.365 157.85,110.865 159.5,119C 159.072,124.355 156.905,128.855 153,132.5C 152.405,139.34 151.072,146.006 149,152.5C 148.667,152.167 148.333,151.833 148,151.5C 147.554,157.294 146.554,162.96 145,168.5C 144.586,168.043 144.086,167.709 143.5,167.5C 142.667,171.5 141.833,175.5 141,179.5C 138.598,185.092 134.431,186.925 128.5,185C 127.333,183.833 126.167,182.667 125,181.5C 123.952,176.956 122.452,172.622 120.5,168.5C 115.833,169.833 111.167,169.833 106.5,168.5C 104.548,172.622 103.048,176.956 102,181.5C 95.775,187.372 90.4417,186.705 86,179.5C 85.488,175.427 84.6547,171.427 83.5,167.5C 82.1575,168.902 81.3242,168.569 81,166.5C 80.2514,161.511 79.5847,156.511 79,151.5C 77.984,152.634 77.3173,152.301 77,150.5C 76.1368,145.173 75.3035,139.839 74.5,134.5C 63.8035,127.03 61.9701,117.697 69,106.5C 70.944,102.89 73.2774,99.5568 76,96.5C 76.7715,86.2933 80.7715,77.6266 88,70.5C 87.0756,68.1911 87.9089,66.5245 90.5,65.5 Z"/></g>
<g><path style="opacity:1" fill="#0a0e16" d="M 94.5,84.5 C 95.8333,84.5 97.1667,84.5 98.5,84.5C 98.5,85.8333 98.5,87.1667 98.5,88.5C 97.1667,88.5 95.8333,88.5 94.5,88.5C 94.5,87.1667 94.5,85.8333 94.5,84.5 Z"/></g>
<g><path style="opacity:1" fill="#101218" d="M 128.5,84.5 C 129.833,84.5 131.167,84.5 132.5,84.5C 132.5,85.8333 132.5,87.1667 132.5,88.5C 131.167,88.5 129.833,88.5 128.5,88.5C 128.5,87.1667 128.5,85.8333 128.5,84.5 Z"/></g>
<g><path style="opacity:1" fill="#0d1017" d="M 93.5,94.5 C 107.04,102.434 120.54,102.434 134,94.5C 134.5,94.8333 135,95.1667 135.5,95.5C 122.21,104.199 108.544,104.699 94.5,97C 93.7476,96.3292 93.4142,95.4959 93.5,94.5 Z"/></g>
<g><path style="opacity:1" fill="#e6e6e6" d="M 79.5,114.5 C 80.8149,115.476 82.1482,116.476 83.5,117.5C 90.2194,114.625 96.5528,115.459 102.5,120C 103.451,120.718 103.617,121.551 103,122.5C 98.9673,119.528 94.4673,117.528 89.5,116.5C 87.6666,117.052 85.9999,117.885 84.5,119C 89.1249,121.704 94.1249,123.038 99.5,123C 99.1667,123.333 98.8333,123.667 98.5,124C 103.257,124.81 107.924,124.476 112.5,123C 110.129,122.265 107.795,121.432 105.5,120.5C 104.167,119.833 104.167,119.167 105.5,118.5C 110.824,120.527 116.324,121.86 122,122.5C 126.754,121.218 131.588,120.385 136.5,120C 139.548,119.394 142.048,117.894 144,115.5C 143.394,118.46 141.561,120.627 138.5,122C 142.415,127.174 142.082,127.507 137.5,123C 131.322,121.814 125.655,122.98 120.5,126.5C 119.833,125.5 119.167,124.5 118.5,123.5C 106.424,128.132 94.7569,127.299 83.5,121C 81.2663,119.362 79.933,117.195 79.5,114.5 Z"/></g>
</svg>
