<?xml version="1.0" standalone="no"?><!DOCTYPE svg PUBLIC "-//W3C//DTD SVG 1.1//EN" "http://www.w3.org/Graphics/SVG/1.1/DTD/svg11.dtd"><svg t="1735005058424" class="icon" viewBox="121.77507 26.864197 779.86865 975.0123" version="1.1" xmlns="http://www.w3.org/2000/svg" p-id="15025" xmlns:xlink="http://www.w3.org/1999/xlink" width="200" height="200"><path d="M767.097002 165.248677L553.08642 38.377425c-25.73545-15.35097-56.888889-15.35097-82.624339 0L256.902998 165.248677c-25.73545 15.35097-41.08642 43.343915-41.08642 73.594357v253.742504c0 30.250441 15.802469 58.243386 41.08642 73.594356l214.010582 126.871252c12.641975 7.675485 27.089947 11.287478 41.08642 11.287478 14.447972 0 28.444444-3.611993 41.08642-11.287478l214.010582-126.871252c25.73545-15.35097 41.08642-43.343915 41.08642-73.594356V238.843034c0-30.250441-15.802469-58.243386-41.08642-73.594357z" fill="#FEFEFE" p-id="15026"></path><path d="M478.137566 679.957672l-214.010582-126.871252c-20.768959-12.190476-33.862434-35.66843-33.862434-60.500882V238.843034c0-24.832451 13.093474-47.858907 33.862434-60.500882l214.010582-126.871253c10.38448-5.869489 22.123457-9.481481 33.862434-9.481481 11.738977 0 23.477954 3.160494 33.862434 9.481481l214.010582 126.871253c17.608466 10.38448 29.347443 28.444444 32.959435 48.761904-7.223986-15.35097-23.026455-19.414462-41.537918-8.578483l-202.271605 125.065256c-25.283951 14.899471-43.795414 31.153439-43.795415 61.855379V654.673721c0 18.059965 7.223986 29.798942 18.511464 33.410935-3.611993 0.451499-7.675485 0.902998-11.287478 0.902998-12.190476 0.451499-23.929453-3.160494-34.313933-9.029982m288.959436-514.708995L553.08642 38.377425c-12.641975-7.675485-27.089947-11.287478-41.08642-11.287478-14.447972 0-28.444444 3.611993-41.08642 11.287478L256.902998 165.248677c-25.73545 15.35097-41.08642 43.343915-41.08642 73.594357v253.742504c0 30.250441 15.802469 58.243386 41.08642 73.594356l214.010582 126.871252c12.641975 7.675485 27.089947 11.287478 41.08642 11.287478 14.447972 0 28.444444-3.611993 41.08642-11.287478l214.010582-126.871252c25.73545-15.35097 41.08642-43.343915 41.08642-73.594356V238.843034c0-30.250441-15.802469-58.243386-41.08642-73.594357" fill="#3E474A" p-id="15027"></path><path d="M711.111111 516.96649l-53.276896 32.056438c-1.354497 0.902998-2.257496 1.805996-2.257495 3.611993v13.996472c0 1.805996 1.354497 2.257496 2.708994 1.805997l54.179894-32.959436c1.354497-0.902998 1.805996-2.257496 1.805997-4.063492V519.223986c-0.902998-2.257496-1.805996-2.708995-3.160494-2.257496" fill="#47B353" p-id="15028"></path><path d="M597.784832 400.028219c1.805996-0.902998 3.160494 0 3.160494 2.257495v18.511464c7.675485-3.160494 14.447972-4.063492 20.317461-2.708995 1.354497 0.451499 1.805996 2.257496 1.354497 4.063492l-4.063492 16.253969c-0.451499 1.354497-0.902998 2.257496-1.805997 3.160494-0.451499 0.451499-0.902998 0.451499-0.902998 0.902998-0.451499 0.451499-0.902998 0.451499-1.805996 0.451499-2.708995-0.451499-9.481481-2.257496-19.865961 3.160494-10.835979 5.417989-14.447972 14.899471-14.447972 22.123457 0 8.578483 4.514991 10.835979 19.414462 11.287477 19.865961 0.451499 28.444444 9.029982 28.444444 28.895944 0 19.414462-10.38448 40.634921-26.186949 53.276896l0.4515 18.059965c0 2.257496-1.354497 4.514991-3.160494 5.417989l-10.835979 6.320988c-1.805996 0.902998-3.160494 0-3.160494-2.257496v-18.059965c-9.029982 4.063492-18.511464 4.96649-24.832451 2.257496-0.902998-0.451499-1.805996-2.257496-1.354498-4.063492l4.063492-16.705467c0.451499-1.354497 0.902998-2.708995 1.805997-3.611993l0.902998-0.902999c0.451499-0.451499 1.354497-0.451499 1.805996 0 6.320988 2.257496 14.899471 1.354497 22.574956-2.708994 9.932981-4.96649 16.705467-15.35097 16.705468-25.73545 0-9.481481-4.96649-13.093474-17.156967-13.093474-15.35097 0-29.798942-3.160494-30.250441-25.73545 0-18.962963 9.481481-38.377425 25.283951-50.567901v-18.511464c0-2.257496 1.354497-4.96649 3.160494-5.869489l10.384479-5.869488z" fill="#FEFEFE" p-id="15029"></path><path d="M215.365079 1001.876543c-34.313933 0-67.724868-13.544974-91.654321-37.925926-2.257496-2.257496-2.708995-6.320988-0.451499-8.578483l22.574956-26.638448c2.257496-2.708995 6.772487-3.160494 9.481482-0.451499 16.705467 16.705467 39.280423 27.089947 60.500881 27.089947 24.832451 0 39.731922-10.38448 39.731923-27.992945 0-16.705467-11.287478-22.574956-34.313933-32.959436l-0.902998-0.451499-33.862434-14.447972c-35.216931-14.899471-53.728395-38.828924-53.728395-69.982363 0-41.989418 37.474427-73.594356 86.68783-73.594356 29.347443 0 58.243386 11.738977 78.560847 32.959435 2.257496 2.257496 2.257496 5.869489 0.451499 8.578483l-20.31746 24.380953c-2.257496 2.708995-6.320988 3.160494-9.481482 0.902998-15.35097-13.996473-31.153439-20.31746-49.213404-20.31746-21.671958 0-34.765432 9.481481-34.765432 24.832451s13.544974 22.123457 35.216932 30.70194l33.410934 14.447972c24.832451 10.835979 53.728395 28.444444 53.728395 71.78836 0.451499 45.601411-37.474427 77.657848-91.654321 77.657848zM495.746032 997.361552h-37.925926c-3.611993 0-6.320988-2.708995-6.320988-6.320988v-110.165784c0-31.153439-9.481481-37.474427-24.380952-37.474427-13.093474 0-23.026455 6.320988-36.11993 18.962963-1.354497 1.354497-1.805996 2.708995-1.805996 4.514991v123.710758c0 3.611993-2.708995 6.320988-6.320988 6.320988h-37.925926c-3.611993 0-6.320988-2.708995-6.320987-6.320988v-264.126984c0-3.611993 2.708995-6.320988 6.320987-6.320988h37.925926c3.611993 0 6.320988 2.708995 6.320988 6.320988v69.982363l-0.451499 8.126985c0 5.417989 5.417989 8.578483 9.93298 5.417989 11.738977-7.675485 25.283951-12.641975 41.537919-12.641975 28.444444 0 62.306878 13.544974 62.306879 78.560846v114.680776c-0.451499 4.063492-3.160494 6.772487-6.772487 6.772487zM620.359788 797.347443c-43.343915 0-89.848325 36.119929-89.848324 102.4903 0 60.049383 39.280423 101.587302 95.266314 101.587301 22.574956 0 45.149912-7.223986 65.467372-20.31746 2.708995-1.805996 3.611993-5.417989 2.257496-8.578483l-13.093475-24.380953c-1.805996-3.160494-5.869489-4.514991-9.029982-2.257495-13.093474 8.578483-25.73545 12.641975-39.731923 12.641975-23.477954 0-40.183422-12.641975-46.955908-34.313933-1.354497-4.063492 1.805996-8.578483 6.320988-8.578483h107.908289l1.354497-4.966491c0.902998-4.96649 1.805996-13.093474 1.805997-20.768959-0.902998-56.888889-32.056437-92.557319-81.721341-92.557319z m-29.798941 79.463844c-4.514991 0-7.675485-4.514991-5.869489-8.578483 6.320988-17.608466 19.865961-27.992945 36.571429-27.992945 21.671958 0 30.250441 13.996473 32.959435 29.347443 0.902998 4.063492-2.257496 7.675485-6.320987 7.675485h-57.340388zM775.223986 1001.876543c-29.347443 0-44.246914-18.059965-44.246914-53.728395v-221.686067c0-3.611993 2.708995-6.320988 6.320988-6.320988h37.925926c3.611993 0 6.320988 2.708995 6.320988 6.320988v223.492064c0 3.611993 0.902998 7.675485 2.708994 7.675485 1.354497 0 2.257496 0 4.966491-0.451499 3.611993-0.902998 7.223986 1.805996 7.675485 5.417989l5.869488 34.313933-4.96649 1.805996c-5.869489 1.805996-13.544974 3.160494-22.574956 3.160494zM874.102293 1001.876543c-29.347443 0-44.246914-18.059965-44.246914-53.728395v-221.686067c0-3.611993 2.708995-6.320988 6.320988-6.320988h37.925926c3.611993 0 6.320988 2.708995 6.320987 6.320988v223.492064c0 3.611993 0.902998 7.675485 2.708995 7.675485 1.354497 0 2.257496 0 4.96649-0.451499 3.611993-0.902998 7.223986 1.805996 7.675485 5.417989l5.869489 34.313933-4.96649 1.805996c-6.320988 1.805996-13.544974 3.160494-22.574956 3.160494z" fill="#3E474A" p-id="15030"></path></svg>