<?xml version="1.0" encoding="UTF-8"?>
<!DOCTYPE svg PUBLIC "-//W3C//DTD SVG 1.1//EN" "http://www.w3.org/Graphics/SVG/1.1/DTD/svg11.dtd">
<svg xmlns="http://www.w3.org/2000/svg" version="1.1" width="985px" height="291px" style="shape-rendering:geometricPrecision; text-rendering:geometricPrecision; image-rendering:optimizeQuality; fill-rule:evenodd; clip-rule:evenodd" xmlns:xlink="http://www.w3.org/1999/xlink">
<g><path style="opacity:1" fill="#f3f3f3" d="M -0.5,-0.5 C 327.833,-0.5 656.167,-0.5 984.5,-0.5C 984.5,96.5 984.5,193.5 984.5,290.5C 656.167,290.5 327.833,290.5 -0.5,290.5C -0.5,193.5 -0.5,96.5 -0.5,-0.5 Z"/></g>
<g><path style="opacity:1" fill="#fdfdfd" d="M 247.5,77.5 C 244.833,77.5 242.167,77.5 239.5,77.5C 237.5,77.5 235.5,77.5 233.5,77.5C 230.358,76.2097 227.025,75.2097 223.5,74.5C 221.435,74.5172 219.435,74.8505 217.5,75.5C 215.708,75.634 214.042,75.3007 212.5,74.5C 204.601,68.1298 204.601,61.7965 212.5,55.5C 220.496,53.6601 225.496,56.6601 227.5,64.5C 229.599,65.6118 231.933,66.2785 234.5,66.5C 239.347,67.6186 244.347,67.6186 249.5,66.5C 261.486,62.4297 270.32,54.763 276,43.5C 279.51,24.5418 271.677,13.5418 252.5,10.5C 238.161,11.9971 227.494,18.9971 220.5,31.5C 216.893,32.4892 213.226,32.8226 209.5,32.5C 209.167,32.5 208.833,32.5 208.5,32.5C 218.164,9.49546 235.497,-1.00454 260.5,1C 284.229,9.29073 292.395,25.4574 285,49.5C 276.85,64.8362 264.35,74.1695 247.5,77.5 Z"/></g>
<g><path style="opacity:1" fill="#f2f4f3" d="M 249.5,66.5 C 249.666,56.4944 249.5,46.4944 249,36.5C 248.626,35.5838 248.126,34.7504 247.5,34C 244.518,33.502 241.518,33.3354 238.5,33.5C 235.5,33.5 232.5,33.5 229.5,33.5C 223.833,33.5 218.167,33.5 212.5,33.5C 211.209,33.7373 210.209,33.404 209.5,32.5C 213.226,32.8226 216.893,32.4892 220.5,31.5C 227.494,18.9971 238.161,11.9971 252.5,10.5C 271.677,13.5418 279.51,24.5418 276,43.5C 270.32,54.763 261.486,62.4297 249.5,66.5 Z"/></g>
<g><path style="opacity:1" fill="#0ee6d3" d="M 174.5,32.5 C 169.833,32.5 165.167,32.5 160.5,32.5C 157.167,32.5 153.833,32.5 150.5,32.5C 150.5,55.1667 150.5,77.8333 150.5,100.5C 147.167,97.8333 144.167,94.8333 141.5,91.5C 141.5,72.8333 141.5,54.1667 141.5,35.5C 142.29,34.2058 143.29,33.0391 144.5,32C 154.675,31.1751 164.675,31.3417 174.5,32.5 Z"/></g>
<g><path style="opacity:1" fill="#00e6c5" d="M 160.5,32.5 C 160.5,58.5 160.5,84.5 160.5,110.5C 156.833,107.5 153.5,104.167 150.5,100.5C 150.5,77.8333 150.5,55.1667 150.5,32.5C 153.833,32.5 157.167,32.5 160.5,32.5 Z"/></g>
<g><path style="opacity:1" fill="#05ebb6" d="M 160.5,32.5 C 165.167,32.5 169.833,32.5 174.5,32.5C 174.833,32.5 175.167,32.5 175.5,32.5C 175.168,70.337 175.502,108.004 176.5,145.5C 172.656,152.937 174.322,158.77 181.5,163C 184.924,163.747 188.257,163.58 191.5,162.5C 193.474,172.111 194.141,182.111 193.5,192.5C 185.193,200.472 176.86,208.472 168.5,216.5C 167.502,188.672 167.169,160.672 167.5,132.5C 168.793,130.704 170.293,129.037 172,127.5C 172.667,125.833 172.667,124.167 172,122.5C 167.963,118.631 164.13,114.631 160.5,110.5C 160.5,84.5 160.5,58.5 160.5,32.5 Z"/></g>
<g><path style="opacity:1" fill="#0ff0b7" d="M 175.5,32.5 C 181.167,32.5 186.833,32.5 192.5,32.5C 193.16,50.928 193.494,69.428 193.5,88C 193.5,106.512 192.833,124.679 191.5,142.5C 185.818,140.497 180.818,141.497 176.5,145.5C 175.502,108.004 175.168,70.337 175.5,32.5 Z"/></g>
<g><path style="opacity:1" fill="#47f8bc" d="M 192.5,32.5 C 195.5,32.5 198.5,32.5 201.5,32.5C 202.209,33.404 203.209,33.7373 204.5,33.5C 204.5,82.8333 204.5,132.167 204.5,181.5C 201.167,185.5 197.5,189.167 193.5,192.5C 194.141,182.111 193.474,172.111 191.5,162.5C 199.5,155.833 199.5,149.167 191.5,142.5C 192.833,124.679 193.5,106.512 193.5,88C 193.494,69.428 193.16,50.928 192.5,32.5 Z"/></g>
<g><path style="opacity:1" fill="#50f3d3" d="M 212.5,33.5 C 218.167,33.5 223.833,33.5 229.5,33.5C 230.142,44.2208 229.475,54.5541 227.5,64.5C 225.496,56.6601 220.496,53.6601 212.5,55.5C 212.5,48.1667 212.5,40.8333 212.5,33.5 Z"/></g>
<g><path style="opacity:1" fill="#3fece0" d="M 229.5,33.5 C 232.5,33.5 235.5,33.5 238.5,33.5C 238.5,44.5 238.5,55.5 238.5,66.5C 237.167,66.5 235.833,66.5 234.5,66.5C 231.933,66.2785 229.599,65.6118 227.5,64.5C 229.475,54.5541 230.142,44.2208 229.5,33.5 Z"/></g>
<g><path style="opacity:1" fill="#3be7ec" d="M 238.5,33.5 C 241.518,33.3354 244.518,33.502 247.5,34C 248.126,34.7504 248.626,35.5838 249,36.5C 249.5,46.4944 249.666,56.4944 249.5,66.5C 244.347,67.6186 239.347,67.6186 234.5,66.5C 235.833,66.5 237.167,66.5 238.5,66.5C 238.5,55.5 238.5,44.5 238.5,33.5 Z"/></g>
<g><path style="opacity:1" fill="#07e4e1" d="M 141.5,35.5 C 141.5,54.1667 141.5,72.8333 141.5,91.5C 138.767,88.7606 135.767,86.4273 132.5,84.5C 131.791,83.596 130.791,83.2627 129.5,83.5C 129.5,71.5 129.5,59.5 129.5,47.5C 133.167,43.1667 137.167,39.1667 141.5,35.5 Z"/></g>
<g><path style="opacity:1" fill="#1bd4f5" d="M 110.5,65.5 C 112.492,94.8145 113.159,124.481 112.5,154.5C 110.5,157.167 108.167,159.5 105.5,161.5C 105.831,131.329 105.498,101.329 104.5,71.5C 106.167,69.1667 108.167,67.1667 110.5,65.5 Z"/></g>
<g><path style="opacity:1" fill="#62fcc0" d="M 201.5,32.5 C 203.833,32.5 206.167,32.5 208.5,32.5C 208.833,32.5 209.167,32.5 209.5,32.5C 210.209,33.404 211.209,33.7373 212.5,33.5C 212.5,40.8333 212.5,48.1667 212.5,55.5C 204.601,61.7965 204.601,68.1298 212.5,74.5C 212.5,107.5 212.5,140.5 212.5,173.5C 210.167,176.5 207.5,179.167 204.5,181.5C 204.5,132.167 204.5,82.8333 204.5,33.5C 203.209,33.7373 202.209,33.404 201.5,32.5 Z"/></g>
<g><path style="opacity:1" fill="#06c6f5" d="M 104.5,71.5 C 105.498,101.329 105.831,131.329 105.5,161.5C 103.5,164.167 101.167,166.5 98.5,168.5C 98.8314,138.329 98.4981,108.329 97.5,78.5C 99.5,75.8333 101.833,73.5 104.5,71.5 Z"/></g>
<g><path style="opacity:1" fill="#5af8c8" d="M 212.5,74.5 C 214.042,75.3007 215.708,75.634 217.5,75.5C 217.169,106.338 217.502,137.005 218.5,167.5C 216.833,169.833 214.833,171.833 212.5,173.5C 212.5,140.5 212.5,107.5 212.5,74.5 Z"/></g>
<g><path style="opacity:1" fill="#53f5cf" d="M 223.5,74.5 C 223.5,104.167 223.5,133.833 223.5,163.5C 221.858,164.803 220.191,166.136 218.5,167.5C 217.502,137.005 217.169,106.338 217.5,75.5C 219.435,74.8505 221.435,74.5172 223.5,74.5 Z"/></g>
<g><path style="opacity:1" fill="#49f0d8" d="M 223.5,74.5 C 227.025,75.2097 230.358,76.2097 233.5,77.5C 233.5,102.833 233.5,128.167 233.5,153.5C 230.5,157.167 227.167,160.5 223.5,163.5C 223.5,133.833 223.5,104.167 223.5,74.5 Z"/></g>
<g><path style="opacity:1" fill="#39e9e6" d="M 233.5,77.5 C 235.5,77.5 237.5,77.5 239.5,77.5C 240.209,78.404 241.209,78.7373 242.5,78.5C 242.5,100.5 242.5,122.5 242.5,144.5C 239.833,147.833 236.833,150.833 233.5,153.5C 233.5,128.167 233.5,102.833 233.5,77.5 Z"/></g>
<g><path style="opacity:1" fill="#36e6ee" d="M 239.5,77.5 C 242.167,77.5 244.833,77.5 247.5,77.5C 249.237,80.008 250.07,83.008 250,86.5C 250.667,103.5 250.667,120.5 250,137.5C 247.63,140.039 245.13,142.372 242.5,144.5C 242.5,122.5 242.5,100.5 242.5,78.5C 241.209,78.7373 240.209,78.404 239.5,77.5 Z"/></g>
<g><path style="opacity:1" fill="#01baf6" d="M 97.5,78.5 C 98.4981,108.329 98.8314,138.329 98.5,168.5C 96.1667,171.5 93.5,174.167 90.5,176.5C 90.8314,146.329 90.4981,116.329 89.5,86.5C 91.8333,83.5 94.5,80.8333 97.5,78.5 Z"/></g>
<g><path style="opacity:1" fill="#0f1432" d="M 132.5,84.5 C 135.767,86.4273 138.767,88.7606 141.5,91.5C 144.167,94.8333 147.167,97.8333 150.5,100.5C 153.5,104.167 156.833,107.5 160.5,110.5C 164.13,114.631 167.963,118.631 172,122.5C 172.667,124.167 172.667,125.833 172,127.5C 170.293,129.037 168.793,130.704 167.5,132.5C 165.167,134.5 162.833,136.5 160.5,138.5C 158.833,138.5 157.167,138.5 155.5,138.5C 153.167,135.5 150.5,132.833 147.5,130.5C 143.167,125.5 138.5,120.833 133.5,116.5C 128.536,111.035 123.37,105.702 118,100.5C 117.294,98.0288 117.627,95.6954 119,93.5C 121.5,91 124,88.5 126.5,86C 128.345,84.872 130.345,84.372 132.5,84.5 Z"/></g>
<g><path style="opacity:1" fill="#00b1f7" d="M 89.5,86.5 C 90.4981,116.329 90.8314,146.329 90.5,176.5C 88.8333,178.833 86.8333,180.833 84.5,182.5C 84.8314,152.329 84.4981,122.329 83.5,92.5C 85.1667,90.1667 87.1667,88.1667 89.5,86.5 Z"/></g>
<g><path style="opacity:1" fill="#05acf7" d="M 83.5,92.5 C 84.4981,122.329 84.8314,152.329 84.5,182.5C 81.8515,184.559 81.0182,187.225 82,190.5C 84.3776,193.915 87.211,196.915 90.5,199.5C 90.8296,215.342 90.4963,231.009 89.5,246.5C 84.1667,241.833 79.1667,236.833 74.5,231.5C 75.6647,188.335 75.8314,145.002 75,101.5C 74.3292,102.252 73.4959,102.586 72.5,102.5C 76.1408,99.1951 79.8075,95.8617 83.5,92.5 Z"/></g>
<g><path style="opacity:1" fill="#21e2ef" d="M 129.5,47.5 C 129.5,59.5 129.5,71.5 129.5,83.5C 130.791,83.2627 131.791,83.596 132.5,84.5C 130.345,84.372 128.345,84.872 126.5,86C 124,88.5 121.5,91 119,93.5C 117.627,95.6954 117.294,98.0288 118,100.5C 123.37,105.702 128.536,111.035 133.5,116.5C 132.508,124.316 132.174,132.316 132.5,140.5C 130.456,139.222 128.456,139.388 126.5,141C 121.965,145.703 117.298,150.203 112.5,154.5C 113.159,124.481 112.492,94.8145 110.5,65.5C 116.807,59.5278 123.14,53.5278 129.5,47.5 Z"/></g>
<g><path style="opacity:1" fill="#04a6f7" d="M 74.5,231.5 C 72.1667,229.833 70.1667,227.833 68.5,225.5C 69.8333,185.833 69.8333,146.167 68.5,106.5C 69.5,104.833 70.8333,103.5 72.5,102.5C 73.4959,102.586 74.3292,102.252 75,101.5C 75.8314,145.002 75.6647,188.335 74.5,231.5 Z"/></g>
<g><path style="opacity:1" fill="#189ef7" d="M 68.5,106.5 C 69.8333,146.167 69.8333,185.833 68.5,225.5C 66.8333,224.5 65.5,223.167 64.5,221.5C 65.8333,184.5 65.8333,147.5 64.5,110.5C 65.5,108.833 66.8333,107.5 68.5,106.5 Z"/></g>
<g><path style="opacity:1" fill="#3098f7" d="M 64.5,110.5 C 65.8333,147.5 65.8333,184.5 64.5,221.5C 62.1667,219.833 60.1667,217.833 58.5,215.5C 59.8333,182.5 59.8333,149.5 58.5,116.5C 60.1667,114.167 62.1667,112.167 64.5,110.5 Z"/></g>
<g><path style="opacity:1" fill="#4990f8" d="M 58.5,116.5 C 59.8333,149.5 59.8333,182.5 58.5,215.5C 55.1667,212.833 52.1667,209.833 49.5,206.5C 50.8333,179.5 50.8333,152.5 49.5,125.5C 52.1667,122.167 55.1667,119.167 58.5,116.5 Z"/></g>
<g><path style="opacity:1" fill="#08e5d9" d="M 133.5,116.5 C 138.5,120.833 143.167,125.5 147.5,130.5C 146.167,166.167 146.167,201.833 147.5,237.5C 144.208,240.49 140.874,243.49 137.5,246.5C 136.502,219.005 136.169,191.338 136.5,163.5C 138.461,161.037 140.628,158.703 143,156.5C 143.667,154.5 143.667,152.5 143,150.5C 139.631,146.963 136.131,143.629 132.5,140.5C 132.174,132.316 132.508,124.316 133.5,116.5 Z"/></g>
<g><path style="opacity:1" fill="#6288f8" d="M 49.5,125.5 C 50.8333,152.5 50.8333,179.5 49.5,206.5C 45.5,203.167 41.8333,199.5 38.5,195.5C 39.4971,175.674 39.8305,155.674 39.5,135.5C 42.5,131.833 45.8333,128.5 49.5,125.5 Z"/></g>
<g><path style="opacity:1" fill="#05e6cc" d="M 147.5,130.5 C 150.5,132.833 153.167,135.5 155.5,138.5C 154.167,168.833 154.167,199.167 155.5,229.5C 153.167,232.5 150.5,235.167 147.5,237.5C 146.167,201.833 146.167,166.167 147.5,130.5 Z"/></g>
<g><path style="opacity:1" fill="#2edaf4" d="M 290.5,136.5 C 295.43,136.197 300.263,136.531 305,137.5C 305.5,143.825 305.666,150.158 305.5,156.5C 314.173,156.334 322.84,156.5 331.5,157C 333.028,158.648 333.695,160.648 333.5,163C 333.695,165.352 333.028,167.352 331.5,169C 322.84,169.5 314.173,169.666 305.5,169.5C 305.333,190.503 305.5,211.503 306,232.5C 307.5,236.667 310.333,239.5 314.5,241C 321.353,242.02 328.186,242.853 335,243.5C 335.789,247.091 335.622,250.591 334.5,254C 326.833,254.667 319.167,254.667 311.5,254C 300.077,251.576 292.91,244.743 290,233.5C 289.5,212.169 289.333,190.836 289.5,169.5C 284.156,169.666 278.823,169.499 273.5,169C 272.873,167.262 272.54,165.429 272.5,163.5C 272.288,160.989 272.955,158.822 274.5,157C 279.489,156.501 284.489,156.334 289.5,156.5C 289.207,149.745 289.54,143.078 290.5,136.5 Z"/></g>
<g><path style="opacity:1" fill="#27d9f4" d="M 714.5,136.5 C 719.5,136.5 724.5,136.5 729.5,136.5C 729.5,143.167 729.5,149.833 729.5,156.5C 738.751,156.182 747.917,156.515 757,157.5C 757.793,161.423 757.626,165.256 756.5,169C 747.589,169.181 738.755,169.681 730,170.5C 729.034,191.564 729.368,212.564 731,233.5C 732.833,236.667 735.333,239.167 738.5,241C 745.914,241.591 753.081,242.758 760,244.5C 760.741,247.562 760.575,250.562 759.5,253.5C 751.521,254.665 743.521,254.832 735.5,254C 726.231,251.728 719.731,246.228 716,237.5C 714.709,215.217 714.043,192.884 714,170.5C 708.917,169.693 703.75,169.193 698.5,169C 697.167,165 697.167,161 698.5,157C 703.823,156.501 709.156,156.334 714.5,156.5C 714.5,149.833 714.5,143.167 714.5,136.5 Z"/></g>
<g><path style="opacity:1" fill="#00e7ba" d="M 167.5,132.5 C 167.169,160.672 167.502,188.672 168.5,216.5C 166.5,219.167 164.167,221.5 161.5,223.5C 160.502,195.338 160.169,167.005 160.5,138.5C 162.833,136.5 165.167,134.5 167.5,132.5 Z"/></g>
<g><path style="opacity:1" fill="#02e6c3" d="M 155.5,138.5 C 157.167,138.5 158.833,138.5 160.5,138.5C 160.169,167.005 160.502,195.338 161.5,223.5C 159.833,225.833 157.833,227.833 155.5,229.5C 154.167,199.167 154.167,168.833 155.5,138.5 Z"/></g>
<g><path style="opacity:1" fill="#f1f3f3" d="M 132.5,140.5 C 136.131,143.629 139.631,146.963 143,150.5C 143.667,152.5 143.667,154.5 143,156.5C 140.628,158.703 138.461,161.037 136.5,163.5C 132.833,166.5 129.5,169.833 126.5,173.5C 121.167,178.167 116.167,183.167 111.5,188.5C 109.833,189.5 108.5,190.833 107.5,192.5C 105.5,193.833 103.833,195.5 102.5,197.5C 100.5,198.833 98.8333,200.5 97.5,202.5C 94.509,202.834 92.1757,201.834 90.5,199.5C 87.211,196.915 84.3776,193.915 82,190.5C 81.0182,187.225 81.8515,184.559 84.5,182.5C 86.8333,180.833 88.8333,178.833 90.5,176.5C 93.5,174.167 96.1667,171.5 98.5,168.5C 101.167,166.5 103.5,164.167 105.5,161.5C 108.167,159.5 110.5,157.167 112.5,154.5C 117.298,150.203 121.965,145.703 126.5,141C 128.456,139.388 130.456,139.222 132.5,140.5 Z"/></g>
<g><path style="opacity:1" fill="#101633" d="M 191.5,142.5 C 199.5,149.167 199.5,155.833 191.5,162.5C 188.257,163.58 184.924,163.747 181.5,163C 174.322,158.77 172.656,152.937 176.5,145.5C 180.818,141.497 185.818,140.497 191.5,142.5 Z"/></g>
<g><path style="opacity:1" fill="#7a82f9" d="M 39.5,135.5 C 39.8305,155.674 39.4971,175.674 38.5,195.5C 28.1258,186.127 18.4591,176.127 9.5,165.5C 18.4923,154.508 28.4923,144.508 39.5,135.5 Z"/></g>
<g><path style="opacity:1" fill="#27d9f4" d="M 382.5,156.5 C 393.544,156.181 404.544,156.681 415.5,158C 426.342,160.842 433.175,167.675 436,178.5C 436.667,189.5 436.667,200.5 436,211.5C 414.575,212.494 393.075,212.827 371.5,212.5C 371.334,219.175 371.5,225.842 372,232.5C 373.927,237.428 377.427,240.594 382.5,242C 399.833,242.333 417.167,242.667 434.5,243C 435.622,246.409 435.789,249.909 435,253.5C 415.573,254.659 396.073,254.826 376.5,254C 365.631,251.131 358.798,244.298 356,233.5C 355.049,213.782 355.383,194.115 357,174.5C 362.363,163.914 370.863,157.914 382.5,156.5 Z"/></g>
<g><path style="opacity:1" fill="#2ed9f4" d="M 463.5,156.5 C 467.846,156.334 472.179,156.501 476.5,157C 477,157.5 477.5,158 478,158.5C 477.166,166.776 478.999,167.943 483.5,162C 492.57,156.417 502.07,155.25 512,158.5C 512.789,162.091 512.622,165.591 511.5,169C 503.771,169.143 496.105,169.81 488.5,171C 483.6,172.902 480.433,176.402 479,181.5C 478.828,205.739 478.328,229.906 477.5,254C 472.581,254.802 467.748,254.635 463,253.5C 462.175,221.095 462.341,188.762 463.5,156.5 Z"/></g>
<g><path style="opacity:1" fill="#30daf4" d="M 532.5,156.5 C 536.846,156.334 541.179,156.501 545.5,157C 546,157.5 546.5,158 547,158.5C 547.333,161.167 547.667,163.833 548,166.5C 552.467,160.849 558.301,157.683 565.5,157C 570.167,156.333 574.833,156.333 579.5,157C 581.766,160.578 582.1,164.412 580.5,168.5C 572.797,169.141 565.13,169.975 557.5,171C 553.725,172.442 550.892,174.942 549,178.5C 547.685,203.413 547.019,228.413 547,253.5C 541.928,254.471 536.762,254.805 531.5,254.5C 531.174,221.76 531.508,189.093 532.5,156.5 Z"/></g>
<g><path style="opacity:1" fill="#2dd9f4" d="M 624.5,156.5 C 642.41,156.174 660.243,156.508 678,157.5C 678.5,189.832 678.667,222.165 678.5,254.5C 673.456,254.827 668.456,254.494 663.5,253.5C 662.77,250.891 662.27,248.224 662,245.5C 658.956,249.861 654.789,252.694 649.5,254C 639.5,254.667 629.5,254.667 619.5,254C 606.771,251.271 599.604,243.437 598,230.5C 597.053,212.114 597.387,193.781 599,175.5C 603.963,164.365 612.463,158.031 624.5,156.5 Z"/></g>
<g><path style="opacity:1" fill="#2bd9f4" d="M 805.5,156.5 C 823.503,156.333 841.503,156.5 859.5,157C 860,157.5 860.5,158 861,158.5C 861.829,190.405 861.662,222.238 860.5,254C 855.833,254.667 851.167,254.667 846.5,254C 845.712,250.924 845.212,247.758 845,244.5C 842.168,249.994 837.668,253.161 831.5,254C 821.5,254.667 811.5,254.667 801.5,254C 791.072,251.238 784.239,244.738 781,234.5C 780.333,215.167 780.333,195.833 781,176.5C 785.447,165.215 793.613,158.548 805.5,156.5 Z"/></g>
<g><path style="opacity:1" fill="#2cd9f4" d="M 915.5,156.5 C 933.41,156.174 951.243,156.508 969,157.5C 969.667,192.5 969.667,227.5 969,262.5C 965.833,272.333 959.333,278.833 949.5,282C 931.628,283.741 913.795,283.907 896,282.5C 895.207,278.577 895.374,274.744 896.5,271C 911.5,270.667 926.5,270.333 941.5,270C 947.151,269.014 950.985,265.847 953,260.5C 953.667,253.833 953.667,247.167 953,240.5C 949.687,245.239 945.187,248.072 939.5,249C 928.45,249.879 917.45,249.546 906.5,248C 896.238,243.991 890.405,236.491 889,225.5C 888.333,209.833 888.333,194.167 889,178.5C 892.881,165.15 901.714,157.816 915.5,156.5 Z"/></g>
<g><path style="opacity:1" fill="#f2f3f3" d="M 383.5,169.5 C 391.84,169.334 400.173,169.5 408.5,170C 415.545,170.711 419.711,174.545 421,181.5C 421.667,188.167 421.667,194.833 421,201.5C 404.577,202.492 388.077,202.825 371.5,202.5C 371.09,193.75 371.59,185.084 373,176.5C 375.701,172.748 379.201,170.415 383.5,169.5 Z"/></g>
<g><path style="opacity:1" fill="#f3f3f3" d="M 624.5,169.5 C 637.167,169.5 649.833,169.5 662.5,169.5C 662.667,190.169 662.5,210.836 662,231.5C 660.167,236 657,239.167 652.5,241C 643.546,242.474 634.546,242.807 625.5,242C 618.545,240.711 614.711,236.545 614,229.5C 613.333,213.167 613.333,196.833 614,180.5C 615.711,174.959 619.211,171.292 624.5,169.5 Z"/></g>
<g><path style="opacity:1" fill="#f2f3f3" d="M 808.5,169.5 C 820.833,169.5 833.167,169.5 845.5,169.5C 845.942,190.545 845.442,211.545 844,232.5C 842.412,237.052 839.245,239.885 834.5,241C 825.562,242.548 816.562,242.881 807.5,242C 801.233,240.066 797.399,235.9 796,229.5C 795.333,213.5 795.333,197.5 796,181.5C 797.462,174.535 801.629,170.535 808.5,169.5 Z"/></g>
<g><path style="opacity:1" fill="#f3f3f3" d="M 915.5,169.5 C 928.167,169.5 940.833,169.5 953.5,169.5C 953.963,189.234 953.463,208.901 952,228.5C 949.314,233.432 945.148,236.265 939.5,237C 931.833,237.667 924.167,237.667 916.5,237C 910.764,235.598 906.931,232.098 905,226.5C 904.333,210.833 904.333,195.167 905,179.5C 907.106,174.557 910.606,171.224 915.5,169.5 Z"/></g>
<g><path style="opacity:1" fill="#11e4e7" d="M 136.5,163.5 C 136.169,191.338 136.502,219.005 137.5,246.5C 134.5,250.167 131.167,253.5 127.5,256.5C 126.502,229.005 126.169,201.338 126.5,173.5C 129.5,169.833 132.833,166.5 136.5,163.5 Z"/></g>
<g><path style="opacity:1" fill="#24e2f1" d="M 126.5,173.5 C 126.169,201.338 126.502,229.005 127.5,256.5C 123.481,261.518 118.815,265.851 113.5,269.5C 112.261,269.058 111.261,268.391 110.5,267.5C 111.833,254.684 112.499,241.517 112.5,228C 112.5,214.662 112.167,201.496 111.5,188.5C 116.167,183.167 121.167,178.167 126.5,173.5 Z"/></g>
<g><path style="opacity:1" fill="#1fd8f4" d="M 111.5,188.5 C 112.167,201.496 112.5,214.662 112.5,228C 112.499,241.517 111.833,254.684 110.5,267.5C 109.167,266.833 108.167,265.833 107.5,264.5C 108.833,240.5 108.833,216.5 107.5,192.5C 108.5,190.833 109.833,189.5 111.5,188.5 Z"/></g>
<g><path style="opacity:1" fill="#17cff5" d="M 107.5,192.5 C 108.833,216.5 108.833,240.5 107.5,264.5C 105.5,263.167 103.833,261.5 102.5,259.5C 103.833,238.833 103.833,218.167 102.5,197.5C 103.833,195.5 105.5,193.833 107.5,192.5 Z"/></g>
<g><path style="opacity:1" fill="#09c5f5" d="M 102.5,197.5 C 103.833,218.167 103.833,238.833 102.5,259.5C 100.5,258.167 98.8333,256.5 97.5,254.5C 98.8333,237.167 98.8333,219.833 97.5,202.5C 98.8333,200.5 100.5,198.833 102.5,197.5 Z"/></g>
<g><path style="opacity:1" fill="#0abaf6" d="M 90.5,199.5 C 92.1757,201.834 94.509,202.834 97.5,202.5C 98.8333,219.833 98.8333,237.167 97.5,254.5C 94.5,252.167 91.8333,249.5 89.5,246.5C 90.4963,231.009 90.8296,215.342 90.5,199.5 Z"/></g>
</svg>
