<?xml version="1.0" encoding="UTF-8"?>
<!DOCTYPE svg PUBLIC "-//W3C//DTD SVG 1.1//EN" "http://www.w3.org/Graphics/SVG/1.1/DTD/svg11.dtd">
<svg xmlns="http://www.w3.org/2000/svg" version="1.1" width="853px" height="187px" style="shape-rendering:geometricPrecision; text-rendering:geometricPrecision; image-rendering:optimizeQuality; fill-rule:evenodd; clip-rule:evenodd" xmlns:xlink="http://www.w3.org/1999/xlink">
<g><path style="opacity:1" fill="#a0a1a4" d="M 50.5,109.5 C 50.5,88.8333 50.5,68.1667 50.5,47.5C 57.5,47.5 64.5,47.5 71.5,47.5C 71.5,42.8333 71.5,38.1667 71.5,33.5C 52.5,33.5 33.5,33.5 14.5,33.5C 14.5,38.1667 14.5,42.8333 14.5,47.5C 21.3543,47.176 28.021,47.5093 34.5,48.5C 27.5,48.5 20.5,48.5 13.5,48.5C 13.5,43.1667 13.5,37.8333 13.5,32.5C 33.1667,32.5 52.8333,32.5 72.5,32.5C 72.5,37.8333 72.5,43.1667 72.5,48.5C 65.5,48.5 58.5,48.5 51.5,48.5C 51.8305,69.0069 51.4972,89.3402 50.5,109.5 Z"/></g>
<g><path style="opacity:1" fill="#141414" d="M 367.5,42.5 C 367.557,43.609 367.89,44.609 368.5,45.5C 365.096,49.0501 361.429,52.3834 357.5,55.5C 345.681,44.6623 334.181,44.9957 323,56.5C 315.847,69.1849 317.347,80.6849 327.5,91C 337.017,97.1471 346.351,96.8138 355.5,90C 356.627,88.2467 357.627,86.4134 358.5,84.5C 351.866,83.5033 345.2,83.17 338.5,83.5C 338.5,78.5 338.5,73.5 338.5,68.5C 351.746,68.1773 364.913,68.5106 378,69.5C 376.712,102.405 359.879,115.572 327.5,109C 305.835,98.8341 297.668,82.0007 303,58.5C 315.384,33.3703 334.551,26.2037 360.5,37C 363.02,38.6971 365.353,40.5305 367.5,42.5 Z"/></g>
<g><path style="opacity:1" fill="#6649ea" d="M 570.5,29.5 C 582.387,36.028 594.22,42.6947 606,49.5C 606.667,63.5 606.667,77.5 606,91.5C 594.386,84.9459 582.886,78.2792 571.5,71.5C 570.501,57.5159 570.167,43.5159 570.5,29.5 Z"/></g>
<g><path style="opacity:1" fill="#020202" d="M 50.5,109.5 C 45.1667,109.5 39.8333,109.5 34.5,109.5C 34.5,89.1667 34.5,68.8333 34.5,48.5C 28.021,47.5093 21.3543,47.176 14.5,47.5C 14.5,42.8333 14.5,38.1667 14.5,33.5C 33.5,33.5 52.5,33.5 71.5,33.5C 71.5,38.1667 71.5,42.8333 71.5,47.5C 64.5,47.5 57.5,47.5 50.5,47.5C 50.5,68.1667 50.5,88.8333 50.5,109.5 Z"/></g>
<g><path style="opacity:1" fill="#d3cec9" d="M 749.5,66.5 C 744.893,63.2317 740.559,59.5651 736.5,55.5C 736.196,54.8501 735.863,54.1835 735.5,53.5C 737.966,50.8975 739.633,47.8975 740.5,44.5C 740.167,43.5 739.833,42.5 739.5,41.5C 738.482,42.1925 737.482,42.8592 736.5,43.5C 731.13,43.0211 730.463,41.3544 734.5,38.5C 736.435,37.8505 738.435,37.5172 740.5,37.5C 740.421,36.0695 740.754,34.7362 741.5,33.5C 740.5,33.1667 739.5,32.8333 738.5,32.5C 735.488,33.1722 732.488,33.8389 729.5,34.5C 733.613,31.5889 738.113,30.9222 743,32.5C 744.059,35.8833 742.892,38.05 739.5,39C 742.453,44.3754 741.786,49.3754 737.5,54C 741.704,58.0356 745.704,62.2022 749.5,66.5 Z M 735.5,39.5 C 739.133,39.443 739.3,40.443 736,42.5C 734.272,41.6477 734.105,40.6477 735.5,39.5 Z"/></g>
<g><path style="opacity:1" fill="#a1a2a3" d="M 537.5,38.5 C 532.5,38.5 527.5,38.5 522.5,38.5C 522.5,44.8333 522.5,51.1667 522.5,57.5C 522.167,57.5 521.833,57.5 521.5,57.5C 521.5,50.8333 521.5,44.1667 521.5,37.5C 527.026,37.1786 532.36,37.5119 537.5,38.5 Z"/></g>
<g><path style="opacity:1" fill="#000000" d="M 537.5,38.5 C 537.5,44.8333 537.5,51.1667 537.5,57.5C 540.625,58.4794 543.958,58.8128 547.5,58.5C 547.5,62.1667 547.5,65.8333 547.5,69.5C 543.958,69.1872 540.625,69.5206 537.5,70.5C 537.5,83.5 537.5,96.5 537.5,109.5C 532.5,109.5 527.5,109.5 522.5,109.5C 522.5,96.1667 522.5,82.8333 522.5,69.5C 519.5,69.5 516.5,69.5 513.5,69.5C 513.5,65.8333 513.5,62.1667 513.5,58.5C 516.713,58.81 519.713,58.4767 522.5,57.5C 522.5,51.1667 522.5,44.8333 522.5,38.5C 527.5,38.5 532.5,38.5 537.5,38.5 Z"/></g>
<g><path style="opacity:1" fill="#a19184" d="M 734.5,38.5 C 734.937,36.9256 735.937,35.7589 737.5,35C 736.167,34.3333 734.833,34.3333 733.5,35C 730.356,37.0914 727.522,39.5914 725,42.5C 724.228,42.3552 723.561,42.0219 723,41.5C 721.768,44.4117 720.268,47.0784 718.5,49.5C 719.525,42.4867 723.191,37.4867 729.5,34.5C 732.488,33.8389 735.488,33.1722 738.5,32.5C 739.5,32.8333 740.5,33.1667 741.5,33.5C 740.754,34.7362 740.421,36.0695 740.5,37.5C 738.435,37.5172 736.435,37.8505 734.5,38.5 Z"/></g>
<g><path style="opacity:1" fill="#898a8c" d="M 367.5,42.5 C 369.382,43.221 369.715,44.221 368.5,45.5C 367.89,44.609 367.557,43.609 367.5,42.5 Z"/></g>
<g><path style="opacity:1" fill="#c9caea" d="M 684.5,53.5 C 684.56,52.9569 684.893,52.6236 685.5,52.5C 686.826,66.3276 686.826,79.9942 685.5,93.5C 685.829,79.9895 685.496,66.6562 684.5,53.5 Z"/></g>
<g><path style="opacity:1" fill="#4a47b5" d="M 684.5,53.5 C 685.496,66.6562 685.829,79.9895 685.5,93.5C 673.68,100.334 661.846,107.334 650,114.5C 649.333,100.5 649.333,86.5 650,72.5C 661.313,65.7614 672.813,59.4281 684.5,53.5 Z"/></g>
<g><path style="opacity:1" fill="#5d4c3a" d="M 736.5,55.5 C 735.486,56.7647 733.986,57.4313 732,57.5C 727.337,58.3466 725.837,56.6799 727.5,52.5C 729.851,53.7135 731.684,53.0468 733,50.5C 734.193,48.1136 735.36,45.7802 736.5,43.5C 737.482,42.8592 738.482,42.1925 739.5,41.5C 739.833,42.5 740.167,43.5 740.5,44.5C 739.633,47.8975 737.966,50.8975 735.5,53.5C 735.863,54.1835 736.196,54.8501 736.5,55.5 Z"/></g>
<g><path style="opacity:1" fill="#6447ea" d="M 645.5,72.5 C 646.148,86.2086 645.481,99.5419 643.5,112.5C 632.888,106.524 622.221,100.524 611.5,94.5C 610.167,80.5 610.167,66.5 611.5,52.5C 622.896,59.1931 634.23,65.8597 645.5,72.5 Z"/></g>
<g><path style="opacity:1" fill="#101010" d="M 131.5,77.5 C 131.5,81.1667 131.5,84.8333 131.5,88.5C 118.989,88.1714 106.655,88.5048 94.5,89.5C 95.6799,92.8446 98.0132,95.0113 101.5,96C 107.658,97.451 113.158,96.2844 118,92.5C 122.465,94.3111 126.298,96.9778 129.5,100.5C 123.435,107.781 115.602,111.447 106,111.5C 82.1597,107.508 73.8264,93.8412 81,70.5C 90.3178,56.8414 102.818,53.0081 118.5,59C 125.79,63.118 130.123,69.2847 131.5,77.5 Z M 115.5,76.5 C 112.572,77.8197 109.239,78.4864 105.5,78.5C 101.761,78.4864 98.428,77.8197 95.5,76.5C 102.201,68.6224 108.868,68.6224 115.5,76.5 Z"/></g>
<g><path style="opacity:1" fill="#5f6061" d="M 142.5,58.5 C 147.64,57.5119 152.974,57.1786 158.5,57.5C 158.19,60.7131 158.523,63.7131 159.5,66.5C 159.013,67.4734 158.513,68.4734 158,69.5C 157.501,65.8484 157.335,62.1817 157.5,58.5C 152.5,58.5 147.5,58.5 142.5,58.5 Z"/></g>
<g><path style="opacity:1" fill="#0e0e0e" d="M 142.5,58.5 C 147.5,58.5 152.5,58.5 157.5,58.5C 157.335,62.1817 157.501,65.8484 158,69.5C 158.513,68.4734 159.013,67.4734 159.5,66.5C 160.921,61.9102 163.921,58.7435 168.5,57C 172.871,56.3708 177.204,56.5375 181.5,57.5C 181.092,62.5368 180.426,67.5368 179.5,72.5C 168.353,68.4862 161.52,72.1528 159,83.5C 158.5,92.1603 158.334,100.827 158.5,109.5C 153.167,109.5 147.833,109.5 142.5,109.5C 142.5,92.5 142.5,75.5 142.5,58.5 Z"/></g>
<g><path style="opacity:1" fill="#5f6061" d="M 189.5,58.5 C 194.64,57.5119 199.974,57.1786 205.5,57.5C 205.19,60.7131 205.523,63.7131 206.5,66.5C 206.013,67.4734 205.513,68.4734 205,69.5C 204.501,65.8484 204.335,62.1817 204.5,58.5C 199.5,58.5 194.5,58.5 189.5,58.5 Z"/></g>
<g><path style="opacity:1" fill="#0e0e0e" d="M 189.5,58.5 C 194.5,58.5 199.5,58.5 204.5,58.5C 204.335,62.1817 204.501,65.8484 205,69.5C 205.513,68.4734 206.013,67.4734 206.5,66.5C 207.921,61.9102 210.921,58.7435 215.5,57C 219.871,56.3708 224.204,56.5375 228.5,57.5C 228.092,62.5368 227.426,67.5368 226.5,72.5C 215.353,68.4862 208.52,72.1528 206,83.5C 205.5,92.1603 205.334,100.827 205.5,109.5C 200.167,109.5 194.833,109.5 189.5,109.5C 189.5,92.5 189.5,75.5 189.5,58.5 Z"/></g>
<g><path style="opacity:1" fill="#0d0d0d" d="M 274.5,58.5 C 279.5,58.5 284.5,58.5 289.5,58.5C 289.5,75.5 289.5,92.5 289.5,109.5C 284.5,109.5 279.5,109.5 274.5,109.5C 274.657,108.127 274.49,106.793 274,105.5C 258.969,114.238 246.302,111.571 236,97.5C 229.536,82.4707 232.702,69.9707 245.5,60C 253.696,55.8442 262.029,55.5109 270.5,59C 272,59.8333 273.167,61 274,62.5C 274.49,61.2068 274.657,59.8734 274.5,58.5 Z M 259.5,71.5 C 272.244,72.3376 276.41,78.671 272,90.5C 263.048,98.0782 255.714,96.7449 250,86.5C 249.14,78.8752 252.307,73.8752 259.5,71.5 Z"/></g>
<g><path style="opacity:1" fill="#121212" d="M 404.5,56.5 C 431.309,55.4769 442.142,68.1435 437,94.5C 428.224,109.918 415.391,114.418 398.5,108C 384.854,98.7195 381.021,86.2195 387,70.5C 391.237,63.755 397.071,59.0883 404.5,56.5 Z M 407.5,72.5 C 421.121,72.6205 425.288,78.9538 420,91.5C 415.11,95.0964 409.943,95.4298 404.5,92.5C 398.471,84.7262 399.471,78.0595 407.5,72.5 Z"/></g>
<g><path style="opacity:1" fill="#0d0d0d" d="M 486.5,61.5 C 486.783,62.2891 487.283,62.9558 488,63.5C 488.494,61.8659 488.66,60.1992 488.5,58.5C 493.167,58.5 497.833,58.5 502.5,58.5C 502.5,75.5 502.5,92.5 502.5,109.5C 497.5,109.5 492.5,109.5 487.5,109.5C 487.657,108.127 487.49,106.793 487,105.5C 477.856,111.561 468.356,112.061 458.5,107C 447.773,99.1639 443.94,88.6639 447,75.5C 452.664,61.2469 463.164,55.0803 478.5,57C 481.684,57.7542 484.351,59.2542 486.5,61.5 Z M 472.5,71.5 C 484.542,72.0248 489.042,78.0248 486,89.5C 479.372,97.1026 472.372,97.4359 465,90.5C 460.978,81.5837 463.478,75.2504 472.5,71.5 Z"/></g>
<g><path style="opacity:1" fill="#878889" d="M 274.5,58.5 C 279.64,57.5119 284.974,57.1786 290.5,57.5C 290.83,75.008 290.497,92.3414 289.5,109.5C 289.5,92.5 289.5,75.5 289.5,58.5C 284.5,58.5 279.5,58.5 274.5,58.5 Z"/></g>
<g><path style="opacity:1" fill="#565657" d="M 502.5,109.5 C 502.5,92.5 502.5,75.5 502.5,58.5C 497.833,58.5 493.167,58.5 488.5,58.5C 488.66,60.1992 488.494,61.8659 488,63.5C 487.283,62.9558 486.783,62.2891 486.5,61.5C 487.434,60.4324 487.768,59.099 487.5,57.5C 492.833,57.5 498.167,57.5 503.5,57.5C 503.83,75.008 503.497,92.3414 502.5,109.5 Z"/></g>
<g><path style="opacity:1" fill="#4c4c4d" d="M 521.5,57.5 C 521.833,57.5 522.167,57.5 522.5,57.5C 519.713,58.4767 516.713,58.81 513.5,58.5C 513.5,62.1667 513.5,65.8333 513.5,69.5C 513.167,69.5 512.833,69.5 512.5,69.5C 512.5,65.5 512.5,61.5 512.5,57.5C 515.5,57.5 518.5,57.5 521.5,57.5 Z"/></g>
<g><path style="opacity:1" fill="#484849" d="M 537.5,57.5 C 541.167,57.5 544.833,57.5 548.5,57.5C 548.5,61.8333 548.5,66.1667 548.5,70.5C 544.833,70.5 541.167,70.5 537.5,70.5C 540.625,69.5206 543.958,69.1872 547.5,69.5C 547.5,65.8333 547.5,62.1667 547.5,58.5C 543.958,58.8128 540.625,58.4794 537.5,57.5 Z"/></g>
<g><path style="opacity:1" fill="#9d856a" d="M 830.5,56.5 C 831.771,58.9339 833.771,60.4339 836.5,61C 835.833,61.3333 835.167,61.6667 834.5,62C 836.271,63.5244 837.938,65.0244 839.5,66.5C 838.883,66.3893 838.383,66.056 838,65.5C 838.11,70.1756 837.11,74.5089 835,78.5C 833.644,79.3802 832.144,79.7135 830.5,79.5C 830.737,78.209 830.404,77.209 829.5,76.5C 832.992,69.2041 831.992,62.7041 826.5,57C 827.793,56.51 829.127,56.3433 830.5,56.5 Z"/></g>
<g><path style="opacity:1" fill="#c0b3a5" d="M 830.5,56.5 C 840.611,60.7203 844.445,68.387 842,79.5C 841.392,81.0664 840.558,82.3998 839.5,83.5C 840.603,80.4486 841.269,77.2819 841.5,74C 841.035,71.3967 840.368,68.8967 839.5,66.5C 837.938,65.0244 836.271,63.5244 834.5,62C 835.167,61.6667 835.833,61.3333 836.5,61C 833.771,60.4339 831.771,58.9339 830.5,56.5 Z"/></g>
<g><path style="opacity:1" fill="#a7a8aa" d="M 512.5,69.5 C 512.833,69.5 513.167,69.5 513.5,69.5C 516.5,69.5 519.5,69.5 522.5,69.5C 522.5,82.8333 522.5,96.1667 522.5,109.5C 521.505,96.6774 521.171,83.6774 521.5,70.5C 518.287,70.81 515.287,70.4767 512.5,69.5 Z"/></g>
<g><path style="opacity:1" fill="#a2886a" d="M 718.5,56.5 C 719.5,57.1667 720.5,57.8333 721.5,58.5C 718.5,58.1667 717.167,59.5 717.5,62.5C 718.833,62.5 720.167,62.5 721.5,62.5C 721.369,63.2389 721.536,63.9056 722,64.5C 722.718,63.5494 723.551,63.3828 724.5,64C 721.941,65.3234 721.275,67.1567 722.5,69.5C 725.134,70.516 727.8,70.516 730.5,69.5C 730.663,67.1432 730.497,64.8098 730,62.5C 728.667,61.1667 727.333,61.1667 726,62.5C 725.833,62.1667 725.667,61.8333 725.5,61.5C 726.376,60.7492 727.376,60.2492 728.5,60C 726.68,59.7996 725.347,58.9663 724.5,57.5C 735.532,57.7747 743.865,62.7747 749.5,72.5C 752.848,73.2875 756.182,74.1208 759.5,75C 759.582,78.9158 761.582,81.0825 765.5,81.5C 774.961,80.4771 784.461,80.4771 794,81.5C 800.723,81.2556 807.39,80.589 814,79.5C 819.016,79.1377 823.683,80.1377 828,82.5C 829.477,83.444 830.477,84.7774 831,86.5C 832.424,92.7759 832.758,99.1093 832,105.5C 831.527,107.779 830.527,109.779 829,111.5C 828.667,113.833 828.333,116.167 828,118.5C 827.261,119.574 826.261,120.241 825,120.5C 820.436,118.453 815.936,116.453 811.5,114.5C 811.5,113.833 811.5,113.167 811.5,112.5C 810.942,110.436 809.775,108.77 808,107.5C 802.558,111.591 796.391,113.591 789.5,113.5C 779.268,112.905 769.268,111.405 759.5,109C 759.087,112.133 757.587,114.633 755,116.5C 754.452,120.17 753.952,123.837 753.5,127.5C 752.781,129.764 752.448,132.097 752.5,134.5C 750.639,133.158 748.639,132.158 746.5,131.5C 747.814,126.652 747.814,121.652 746.5,116.5C 742.441,114.378 740.441,111.045 740.5,106.5C 739.366,102.164 739.366,97.8307 740.5,93.5C 743.923,88.8954 746.589,83.8954 748.5,78.5C 748,78.1667 747.5,77.8333 747,77.5C 739.324,80.6795 735.49,78.0129 735.5,69.5C 732.401,69.0923 730.067,70.259 728.5,73C 724.848,73.4986 721.182,73.6653 717.5,73.5C 717.366,75.2915 717.699,76.9582 718.5,78.5C 718.5,79.5 718.5,80.5 718.5,81.5C 719.5,81.5 720.5,81.5 721.5,81.5C 721.649,82.552 721.483,83.552 721,84.5C 717.58,83.8178 714.246,82.8178 711,81.5C 710.833,81.1667 710.667,80.8333 710.5,80.5C 712.747,79.7554 714.58,78.422 716,76.5C 716.074,72.3087 716.907,68.3087 718.5,64.5C 717.998,63.479 717.332,63.3123 716.5,64C 715.947,65.8778 714.947,67.3778 713.5,68.5C 714.678,64.1621 716.345,60.1621 718.5,56.5 Z"/></g>
<g><path style="opacity:1" fill="#9380f2" d="M 645.5,72.5 C 646.661,86.3272 646.827,100.327 646,114.5C 645.005,113.934 644.172,113.267 643.5,112.5C 645.481,99.5419 646.148,86.2086 645.5,72.5 Z"/></g>
<g><path style="opacity:1" fill="#d3ccc5" d="M 830.5,56.5 C 829.127,56.3433 827.793,56.51 826.5,57C 831.992,62.7041 832.992,69.2041 829.5,76.5C 825.964,77.8964 822.63,77.3964 819.5,75C 816.833,74.8333 814.167,74.6667 811.5,74.5C 799.533,75.9972 787.533,76.4972 775.5,76C 771.612,75.5835 768.279,74.0835 765.5,71.5C 770.806,73.5224 776.306,74.8558 782,75.5C 794.793,73.102 807.626,72.602 820.5,74C 822.536,74.4536 824.37,75.2869 826,76.5C 828.91,74.5177 830.41,71.6843 830.5,68C 830.369,65.7473 829.869,63.5806 829,61.5C 827.22,59.7071 825.387,58.0404 823.5,56.5C 823.887,55.2801 824.72,54.6135 826,54.5C 827.728,54.899 829.228,55.5657 830.5,56.5 Z"/></g>
<g><path style="opacity:1" fill="#949597" d="M 95.5,76.5 C 98.428,77.8197 101.761,78.4864 105.5,78.5C 109.239,78.4864 112.572,77.8197 115.5,76.5C 116.404,77.209 116.737,78.209 116.5,79.5C 109.167,79.5 101.833,79.5 94.5,79.5C 94.2627,78.209 94.596,77.209 95.5,76.5 Z"/></g>
<g><path style="opacity:1" fill="#947b5f" d="M 740.5,106.5 C 739.778,106.082 739.278,105.416 739,104.5C 738.667,98.5 738.333,92.5 738,86.5C 737,85.8333 736,85.1667 735,84.5C 734.197,81.7558 733.197,79.0891 732,76.5C 727.114,74.801 722.614,75.4677 718.5,78.5C 717.699,76.9582 717.366,75.2915 717.5,73.5C 721.182,73.6653 724.848,73.4986 728.5,73C 730.067,70.259 732.401,69.0923 735.5,69.5C 735.49,78.0129 739.324,80.6795 747,77.5C 747.5,77.8333 748,78.1667 748.5,78.5C 746.589,83.8954 743.923,88.8954 740.5,93.5C 739.366,97.8307 739.366,102.164 740.5,106.5 Z"/></g>
<g><path style="opacity:1" fill="#af9473" d="M 745.5,90.5 C 743.656,95.7534 744.323,100.587 747.5,105C 751.225,105.804 753.891,104.471 755.5,101C 757.699,99.3029 760.032,97.8029 762.5,96.5C 763.881,99.3789 765.881,101.879 768.5,104C 775.886,107.098 783.552,108.432 791.5,108C 794.74,106.6 798.073,105.433 801.5,104.5C 801.351,103.448 801.517,102.448 802,101.5C 804.352,98.4665 806.686,95.4665 809,92.5C 809.495,90.5273 809.662,88.5273 809.5,86.5C 794.84,87.0831 780.173,87.5831 765.5,88C 764.234,88.3095 763.067,88.8095 762,89.5C 759.167,88 757,85.8333 755.5,83C 753.305,82.5906 751.305,83.0906 749.5,84.5C 752.787,72.7551 756.787,72.5884 761.5,84C 762.667,84.1667 763.833,84.3333 765,84.5C 775.325,83.2992 785.659,83.2992 796,84.5C 800.8,84.538 805.467,83.8713 810,82.5C 815.161,83.0601 820.327,83.5601 825.5,84C 829.639,91.4754 830.473,99.3087 828,107.5C 825.716,109.984 823.216,110.151 820.5,108C 816.531,104.398 814.365,99.8985 814,94.5C 808.483,96.8435 804.983,100.843 803.5,106.5C 787.877,113.452 773.877,111.118 761.5,99.5C 760.833,99.6667 760.167,99.8333 759.5,100C 757.69,102.644 755.69,105.144 753.5,107.5C 750.894,108.652 748.227,108.818 745.5,108C 741.656,102.007 741.656,96.1736 745.5,90.5 Z"/></g>
<g><path style="opacity:1" fill="#bdb8b0" d="M 718.5,49.5 C 715.631,56.9326 712.464,64.266 709,71.5C 708.333,73.8333 708.333,76.1667 709,78.5C 710.8,75.301 712.3,71.9677 713.5,68.5C 714.947,67.3778 715.947,65.8778 716.5,64C 717.332,63.3123 717.998,63.479 718.5,64.5C 716.907,68.3087 716.074,72.3087 716,76.5C 714.58,78.422 712.747,79.7554 710.5,80.5C 710.667,80.8333 710.833,81.1667 711,81.5C 714.246,82.8178 717.58,83.8178 721,84.5C 721.483,83.552 721.649,82.552 721.5,81.5C 723.876,76.7576 726.709,76.4243 730,80.5C 731.31,84.0704 732.143,87.737 732.5,91.5C 730.861,88.0094 729.361,84.3428 728,80.5C 726.667,79.1667 725.333,79.1667 724,80.5C 723.296,86.5726 720.962,91.9059 717,96.5C 715.529,95.6195 714.696,94.2861 714.5,92.5C 715.095,89.8599 715.428,87.1933 715.5,84.5C 709.768,83.7413 706.768,80.408 706.5,74.5C 709.303,67.5505 712.136,60.5505 715,53.5C 715.66,51.6763 716.827,50.343 718.5,49.5 Z"/></g>
<g><path style="opacity:1" fill="#b7b8bb" d="M 131.5,77.5 C 132.483,81.2984 132.817,85.2984 132.5,89.5C 119.833,89.5 107.167,89.5 94.5,89.5C 106.655,88.5048 118.989,88.1714 131.5,88.5C 131.5,84.8333 131.5,81.1667 131.5,77.5 Z"/></g>
<g><path style="opacity:1" fill="#bfa481" d="M 745.5,90.5 C 745.622,87.7079 746.956,85.7079 749.5,84.5C 751.305,83.0906 753.305,82.5906 755.5,83C 757,85.8333 759.167,88 762,89.5C 763.067,88.8095 764.234,88.3095 765.5,88C 780.173,87.5831 794.84,87.0831 809.5,86.5C 809.662,88.5273 809.495,90.5273 809,92.5C 806.686,95.4665 804.352,98.4665 802,101.5C 801.517,102.448 801.351,103.448 801.5,104.5C 798.073,105.433 794.74,106.6 791.5,108C 783.552,108.432 775.886,107.098 768.5,104C 765.881,101.879 763.881,99.3789 762.5,96.5C 760.032,97.8029 757.699,99.3029 755.5,101C 753.891,104.471 751.225,105.804 747.5,105C 744.323,100.587 743.656,95.7534 745.5,90.5 Z"/></g>
<g><path style="opacity:1" fill="#6447e9" d="M 645.5,117.5 C 646.148,131.209 645.481,144.542 643.5,157.5C 632.612,151.956 621.945,145.956 611.5,139.5C 610.334,125.512 610.167,111.512 611,97.5C 622.609,104.052 634.109,110.719 645.5,117.5 Z"/></g>
<g><path style="opacity:1" fill="#7b654e" d="M 811.5,112.5 C 810.584,112.018 809.584,111.685 808.5,111.5C 805.723,112.771 803.056,114.271 800.5,116C 789.866,117.671 779.199,117.671 768.5,116C 765.827,114.999 763.493,113.499 761.5,111.5C 758.957,116.969 756.291,122.302 753.5,127.5C 753.952,123.837 754.452,120.17 755,116.5C 757.587,114.633 759.087,112.133 759.5,109C 769.268,111.405 779.268,112.905 789.5,113.5C 796.391,113.591 802.558,111.591 808,107.5C 809.775,108.77 810.942,110.436 811.5,112.5 Z"/></g>
<g><path style="opacity:1" fill="#625243" d="M 811.5,112.5 C 811.5,113.167 811.5,113.833 811.5,114.5C 817.193,121.87 822.527,129.536 827.5,137.5C 827.103,138.525 826.437,138.692 825.5,138C 824.038,135.168 822.038,133.001 819.5,131.5C 817.745,128.564 815.745,125.731 813.5,123C 811.866,122.506 810.199,122.34 808.5,122.5C 808.5,123.5 808.5,124.5 808.5,125.5C 803.329,126.084 798.162,126.75 793,127.5C 786.363,127.109 779.863,126.109 773.5,124.5C 770.982,121.788 767.982,121.121 764.5,122.5C 764.005,120.518 763.505,118.518 763,116.5C 761.989,115.663 760.822,115.33 759.5,115.5C 759.206,120.982 757.54,125.982 754.5,130.5C 755.243,131.182 755.909,131.849 756.5,132.5C 755.167,132.5 754.5,133.167 754.5,134.5C 753.778,134.918 753.278,135.584 753,136.5C 752.536,135.906 752.369,135.239 752.5,134.5C 752.448,132.097 752.781,129.764 753.5,127.5C 756.291,122.302 758.957,116.969 761.5,111.5C 763.493,113.499 765.827,114.999 768.5,116C 779.199,117.671 789.866,117.671 800.5,116C 803.056,114.271 805.723,112.771 808.5,111.5C 809.584,111.685 810.584,112.018 811.5,112.5 Z"/></g>
<g><path style="opacity:1" fill="#927ff2" d="M 645.5,117.5 C 646.661,131.327 646.827,145.327 646,159.5C 645.005,158.934 644.172,158.267 643.5,157.5C 645.481,144.542 646.148,131.209 645.5,117.5 Z"/></g>
<g><path style="opacity:1" fill="#715e4a" d="M 740.5,106.5 C 740.441,111.045 742.441,114.378 746.5,116.5C 747.814,121.652 747.814,126.652 746.5,131.5C 744.805,125.442 741.971,119.775 738,114.5C 736.462,108.937 735.462,103.27 735,97.5C 734.76,95.1484 733.927,93.1484 732.5,91.5C 732.143,87.737 731.31,84.0704 730,80.5C 726.709,76.4243 723.876,76.7576 721.5,81.5C 720.5,81.5 719.5,81.5 718.5,81.5C 718.5,80.5 718.5,79.5 718.5,78.5C 722.614,75.4677 727.114,74.801 732,76.5C 733.197,79.0891 734.197,81.7558 735,84.5C 736,85.1667 737,85.8333 738,86.5C 738.333,92.5 738.667,98.5 739,104.5C 739.278,105.416 739.778,106.082 740.5,106.5 Z"/></g>
<g><path style="opacity:1" fill="#897259" d="M 734.5,38.5 C 730.463,41.3544 731.13,43.0211 736.5,43.5C 735.36,45.7802 734.193,48.1136 733,50.5C 731.684,53.0468 729.851,53.7135 727.5,52.5C 725.837,56.6799 727.337,58.3466 732,57.5C 733.986,57.4313 735.486,56.7647 736.5,55.5C 740.559,59.5651 744.893,63.2317 749.5,66.5C 750.343,68.1733 751.676,69.34 753.5,70C 757.145,70.7189 760.812,71.2189 764.5,71.5C 764.833,71.5 765.167,71.5 765.5,71.5C 768.279,74.0835 771.612,75.5835 775.5,76C 787.533,76.4972 799.533,75.9972 811.5,74.5C 814.167,74.6667 816.833,74.8333 819.5,75C 822.63,77.3964 825.964,77.8964 829.5,76.5C 830.404,77.209 830.737,78.209 830.5,79.5C 832.144,79.7135 833.644,79.3802 835,78.5C 837.11,74.5089 838.11,70.1756 838,65.5C 838.383,66.056 838.883,66.3893 839.5,66.5C 840.368,68.8967 841.035,71.3967 841.5,74C 841.269,77.2819 840.603,80.4486 839.5,83.5C 839.672,84.4916 839.338,85.1583 838.5,85.5C 837.542,85.9528 836.708,86.6195 836,87.5C 835.667,94.1667 835.333,100.833 835,107.5C 834.83,109.715 834.163,111.715 833,113.5C 832.772,120.499 832.939,127.499 833.5,134.5C 831.053,134.615 829.053,135.615 827.5,137.5C 822.527,129.536 817.193,121.87 811.5,114.5C 815.936,116.453 820.436,118.453 825,120.5C 826.261,120.241 827.261,119.574 828,118.5C 828.333,116.167 828.667,113.833 829,111.5C 830.527,109.779 831.527,107.779 832,105.5C 832.758,99.1093 832.424,92.7759 831,86.5C 830.477,84.7774 829.477,83.444 828,82.5C 823.683,80.1377 819.016,79.1377 814,79.5C 807.39,80.589 800.723,81.2556 794,81.5C 784.461,80.4771 774.961,80.4771 765.5,81.5C 761.582,81.0825 759.582,78.9158 759.5,75C 756.182,74.1208 752.848,73.2875 749.5,72.5C 743.865,62.7747 735.532,57.7747 724.5,57.5C 723.583,55.3382 723.583,53.0048 724.5,50.5C 720.167,50.1667 718.167,52.1667 718.5,56.5C 716.345,60.1621 714.678,64.1621 713.5,68.5C 712.3,71.9677 710.8,75.301 709,78.5C 708.333,76.1667 708.333,73.8333 709,71.5C 712.464,64.266 715.631,56.9326 718.5,49.5C 720.268,47.0784 721.768,44.4117 723,41.5C 723.561,42.0219 724.228,42.3552 725,42.5C 727.522,39.5914 730.356,37.0914 733.5,35C 734.833,34.3333 736.167,34.3333 737.5,35C 735.937,35.7589 734.937,36.9256 734.5,38.5 Z"/></g>
<g><path style="opacity:1" fill="#dad6d2" d="M 749.5,66.5 C 754.522,68.4364 759.522,70.103 764.5,71.5C 760.812,71.2189 757.145,70.7189 753.5,70C 751.676,69.34 750.343,68.1733 749.5,66.5 Z"/></g>
<g><path style="opacity:1" fill="#bba182" d="M 724.5,57.5 C 725.347,58.9663 726.68,59.7996 728.5,60C 727.376,60.2492 726.376,60.7492 725.5,61.5C 725.667,61.8333 725.833,62.1667 726,62.5C 727.333,61.1667 728.667,61.1667 730,62.5C 730.497,64.8098 730.663,67.1432 730.5,69.5C 727.8,70.516 725.134,70.516 722.5,69.5C 721.275,67.1567 721.941,65.3234 724.5,64C 723.551,63.3828 722.718,63.5494 722,64.5C 721.536,63.9056 721.369,63.2389 721.5,62.5C 722.833,61.1667 722.833,59.8333 721.5,58.5C 720.5,57.8333 719.5,57.1667 718.5,56.5C 718.167,52.1667 720.167,50.1667 724.5,50.5C 723.583,53.0048 723.583,55.3382 724.5,57.5 Z"/></g>
<g><path style="opacity:1" fill="#4c4a47" d="M 721.5,58.5 C 722.833,59.8333 722.833,61.1667 721.5,62.5C 720.167,62.5 718.833,62.5 717.5,62.5C 717.167,59.5 718.5,58.1667 721.5,58.5 Z"/></g>
<g><path style="opacity:1" fill="#262626" d="M 336.5,128.5 C 336.18,131.898 336.513,135.232 337.5,138.5C 338.107,138.376 338.44,138.043 338.5,137.5C 349.167,135.099 354.334,139.433 354,150.5C 351.724,157.558 346.891,160.392 339.5,159C 335.693,157.86 333.193,155.36 332,151.5C 331.5,143.841 331.334,136.174 331.5,128.5C 333.167,128.5 334.833,128.5 336.5,128.5 Z M 339.5,142.5 C 345.83,141.666 348.663,144.333 348,150.5C 345.162,154.035 341.995,154.368 338.5,151.5C 336.992,148.231 337.325,145.231 339.5,142.5 Z"/></g>
<g><path style="opacity:1" fill="#a5a6a8" d="M 336.5,128.5 C 337.167,131.5 337.833,134.5 338.5,137.5C 338.44,138.043 338.107,138.376 337.5,138.5C 336.513,135.232 336.18,131.898 336.5,128.5 Z"/></g>
<g><path style="opacity:1" fill="#909092" d="M 396.5,128.5 C 396.82,131.898 396.487,135.232 395.5,138.5C 394.893,138.376 394.56,138.043 394.5,137.5C 395.167,134.5 395.833,131.5 396.5,128.5 Z"/></g>
<g><path style="opacity:1" fill="#242424" d="M 396.5,128.5 C 398.167,128.5 399.833,128.5 401.5,128.5C 401.91,137.25 401.41,145.916 400,154.5C 394.833,160 389,160.833 382.5,157C 377.167,151 377.167,145 382.5,139C 386.3,136.48 390.3,135.98 394.5,137.5C 394.56,138.043 394.893,138.376 395.5,138.5C 396.487,135.232 396.82,131.898 396.5,128.5 Z M 387.5,142.5 C 395.022,142.67 397.022,146.003 393.5,152.5C 386.874,154.705 384.041,152.372 385,145.5C 385.698,144.309 386.531,143.309 387.5,142.5 Z"/></g>
<g><path style="opacity:1" fill="#2e241c" d="M 764.5,122.5 C 764.167,125.833 763.833,129.167 763.5,132.5C 762.842,133.398 762.176,134.398 761.5,135.5C 759.855,134.304 758.189,133.304 756.5,132.5C 755.909,131.849 755.243,131.182 754.5,130.5C 757.54,125.982 759.206,120.982 759.5,115.5C 760.822,115.33 761.989,115.663 763,116.5C 763.505,118.518 764.005,120.518 764.5,122.5 Z"/></g>
<g><path style="opacity:1" fill="#9d9bae" d="M 282.5,140.5 C 282.217,141.289 281.717,141.956 281,142.5C 280.501,138.514 280.334,134.514 280.5,130.5C 279.5,130.5 278.5,130.5 277.5,130.5C 277.5,139.833 277.5,149.167 277.5,158.5C 276.506,149.014 276.173,139.348 276.5,129.5C 278.167,129.5 279.833,129.5 281.5,129.5C 281.185,133.371 281.518,137.038 282.5,140.5 Z"/></g>
<g><path style="opacity:1" fill="#373055" d="M 282.5,140.5 C 293.61,137.775 298.11,142.108 296,153.5C 292.582,159.307 287.916,160.64 282,157.5C 280.644,158.38 279.144,158.714 277.5,158.5C 277.5,149.167 277.5,139.833 277.5,130.5C 278.5,130.5 279.5,130.5 280.5,130.5C 280.334,134.514 280.501,138.514 281,142.5C 281.717,141.956 282.217,141.289 282.5,140.5 Z M 284.5,143.5 C 290.33,143.161 292.83,145.827 292,151.5C 288.952,155.01 285.619,155.343 282,152.5C 280.927,148.9 281.76,145.9 284.5,143.5 Z"/></g>
<g><path style="opacity:1" fill="#271e16" d="M 819.5,131.5 C 817.984,135.382 816.651,139.382 815.5,143.5C 813.983,143.489 812.816,142.823 812,141.5C 811.823,137.644 811.323,133.977 810.5,130.5C 810.107,128.716 809.441,127.05 808.5,125.5C 808.5,124.5 808.5,123.5 808.5,122.5C 810.199,122.34 811.866,122.506 813.5,123C 815.745,125.731 817.745,128.564 819.5,131.5 Z"/></g>
<g><path style="opacity:1" fill="#191919" d="M 375.5,130.5 C 376.434,131.568 376.768,132.901 376.5,134.5C 374.821,134.715 373.821,134.048 373.5,132.5C 373.833,131.5 374.5,130.833 375.5,130.5 Z"/></g>
<g><path style="opacity:1" fill="#8d8e90" d="M 375.5,130.5 C 375.56,129.957 375.893,129.624 376.5,129.5C 377.466,131.396 377.799,133.396 377.5,135.5C 375.396,135.799 373.396,135.466 371.5,134.5C 371.855,133.478 372.522,132.811 373.5,132.5C 373.821,134.048 374.821,134.715 376.5,134.5C 376.768,132.901 376.434,131.568 375.5,130.5 Z"/></g>
<g><path style="opacity:1" fill="#7a7b7c" d="M 478.5,137.5 C 480.948,136.527 483.615,136.194 486.5,136.5C 486.737,137.791 486.404,138.791 485.5,139.5C 483.721,137.656 481.388,136.99 478.5,137.5 Z"/></g>
<g><path style="opacity:1" fill="#1e1e1e" d="M 361.5,145.5 C 360.515,149.634 360.182,153.968 360.5,158.5C 359.167,158.5 357.833,158.5 356.5,158.5C 356.5,153.833 356.5,149.167 356.5,144.5C 356.549,141.901 357.549,139.734 359.5,138C 363.039,136.496 366.705,136.163 370.5,137C 369.624,138.586 368.624,140.086 367.5,141.5C 364.845,141.975 362.845,143.309 361.5,145.5 Z"/></g>
<g><path style="opacity:1" fill="#0f0f0f" d="M 371.5,137.5 C 373.167,137.5 374.833,137.5 376.5,137.5C 376.5,144.833 376.5,152.167 376.5,159.5C 374.833,159.5 373.167,159.5 371.5,159.5C 371.5,152.167 371.5,144.833 371.5,137.5 Z"/></g>
<g><path style="opacity:1" fill="#272727" d="M 410.5,136.5 C 417.35,135.672 422.183,138.339 425,144.5C 425.87,150.917 425.536,157.251 424,163.5C 417.417,170.139 410.917,170.139 404.5,163.5C 405.5,161.833 406.833,160.5 408.5,159.5C 412.29,163.423 415.957,163.423 419.5,159.5C 405.069,160.564 400.236,154.231 405,140.5C 406.812,139.023 408.645,137.69 410.5,136.5 Z M 411.5,142.5 C 418.591,142.187 420.925,145.353 418.5,152C 411.752,154.909 408.586,152.743 409,145.5C 410.045,144.627 410.878,143.627 411.5,142.5 Z"/></g>
<g><path style="opacity:1" fill="#222222" d="M 435.5,136.5 C 441.724,135.728 446.224,138.061 449,143.5C 449.781,144.944 449.614,146.277 448.5,147.5C 444.092,149.244 439.758,151.078 435.5,153C 438.516,153.664 441.349,153.164 444,151.5C 445.726,151.946 447.226,152.779 448.5,154C 442.151,161.108 435.651,161.274 429,154.5C 425.316,146.387 427.482,140.387 435.5,136.5 Z M 434.5,146.5 C 433.662,146.158 433.328,145.492 433.5,144.5C 435.898,142.435 438.565,142.102 441.5,143.5C 439.229,144.7 436.896,145.7 434.5,146.5 Z"/></g>
<g><path style="opacity:1" fill="#2b2b2b" d="M 459.5,136.5 C 461.857,136.337 464.19,136.503 466.5,137C 470.79,137.868 471.456,139.868 468.5,143C 464.437,141.545 460.937,142.379 458,145.5C 457.443,152.27 460.443,154.603 467,152.5C 471.805,154.948 471.638,157.114 466.5,159C 455.667,160.167 450.833,155.333 452,144.5C 453.353,140.65 455.853,137.983 459.5,136.5 Z"/></g>
<g><path style="opacity:1" fill="#161616" d="M 478.5,137.5 C 481.388,136.99 483.721,137.656 485.5,139.5C 485.196,140.15 484.863,140.817 484.5,141.5C 482.245,142.194 480.245,143.194 478.5,144.5C 477.514,148.97 477.181,153.637 477.5,158.5C 476.167,158.5 474.833,158.5 473.5,158.5C 473.5,153.5 473.5,148.5 473.5,143.5C 473.712,140.288 475.379,138.288 478.5,137.5 Z"/></g>
<g><path style="opacity:1" fill="#242424" d="M 492.5,136.5 C 499.128,135.231 503.961,137.564 507,143.5C 507.781,144.944 507.614,146.277 506.5,147.5C 502.328,148.779 498.328,150.445 494.5,152.5C 497.206,153.793 499.706,153.459 502,151.5C 503.635,151.878 505.135,152.544 506.5,153.5C 503.324,158.916 498.657,160.749 492.5,159C 486.092,155.677 483.925,150.511 486,143.5C 487.694,140.642 489.861,138.309 492.5,136.5 Z M 493.5,142.5 C 495.604,142.201 497.604,142.534 499.5,143.5C 496.894,145.275 494.228,145.941 491.5,145.5C 492.193,144.482 492.859,143.482 493.5,142.5 Z"/></g>
<g><path style="opacity:1" fill="#292929" d="M 509.5,137.5 C 511.5,137.5 513.5,137.5 515.5,137.5C 515.334,142.179 515.501,146.845 516,151.5C 517.312,153.658 518.978,153.991 521,152.5C 521.499,147.511 521.666,142.511 521.5,137.5C 523.5,137.5 525.5,137.5 527.5,137.5C 527.334,142.511 527.501,147.511 528,152.5C 529.667,153.833 531.333,153.833 533,152.5C 533.499,147.511 533.666,142.511 533.5,137.5C 535.5,137.5 537.5,137.5 539.5,137.5C 539.804,143.577 539.304,149.577 538,155.5C 534.202,160.02 529.702,160.686 524.5,157.5C 517.83,161.235 512.997,159.568 510,152.5C 509.501,147.511 509.334,142.511 509.5,137.5 Z"/></g>
<g><path style="opacity:1" fill="#c7c7ca" d="M 371.5,137.5 C 373.265,136.539 375.265,136.205 377.5,136.5C 377.825,144.352 377.492,152.018 376.5,159.5C 376.5,152.167 376.5,144.833 376.5,137.5C 374.833,137.5 373.167,137.5 371.5,137.5 Z"/></g>
<g><path style="opacity:1" fill="#463f62" d="M 298.5,139.5 C 300.288,139.215 301.955,139.548 303.5,140.5C 305,144.167 306.5,147.833 308,151.5C 310.047,148.036 311.713,144.37 313,140.5C 314.726,139.424 316.559,139.257 318.5,140C 314.538,148.76 310.704,157.593 307,166.5C 305.644,167.38 304.144,167.714 302.5,167.5C 303.346,164.302 304.346,161.135 305.5,158C 303.262,151.784 300.929,145.618 298.5,139.5 Z"/></g>
<g><path style="opacity:1" fill="#bfbdbc" d="M 773.5,124.5 C 779.863,126.109 786.363,127.109 793,127.5C 798.162,126.75 803.329,126.084 808.5,125.5C 809.441,127.05 810.107,128.716 810.5,130.5C 810.666,134.846 810.499,139.179 810,143.5C 807.866,148.092 806.033,152.759 804.5,157.5C 806.792,157.756 808.959,157.423 811,156.5C 812.844,153.467 813.844,150.134 814,146.5C 814.383,145.944 814.883,145.611 815.5,145.5C 815.663,147.857 815.497,150.19 815,152.5C 813.26,153.716 812.26,155.382 812,157.5C 808.943,158.451 805.777,158.784 802.5,158.5C 802.34,156.801 802.506,155.134 803,153.5C 808.649,145.914 810.315,137.581 808,128.5C 805.815,126.585 803.315,126.418 800.5,128C 795.167,128.667 789.833,128.667 784.5,128C 780.386,127.885 776.719,126.718 773.5,124.5 Z"/></g>
<g><path style="opacity:1" fill="#726d66" d="M 810.5,130.5 C 811.323,133.977 811.823,137.644 812,141.5C 812.816,142.823 813.983,143.489 815.5,143.5C 815.5,144.167 815.5,144.833 815.5,145.5C 814.883,145.611 814.383,145.944 814,146.5C 813.844,150.134 812.844,153.467 811,156.5C 808.959,157.423 806.792,157.756 804.5,157.5C 806.033,152.759 807.866,148.092 810,143.5C 810.499,139.179 810.666,134.846 810.5,130.5 Z"/></g>
<g><path style="opacity:1" fill="#bdbfc0" d="M 433.5,144.5 C 433.328,145.492 433.662,146.158 434.5,146.5C 433.698,147.885 433.031,147.718 432.5,146C 432.57,145.235 432.903,144.735 433.5,144.5 Z"/></g>
<g><path style="opacity:1" fill="#6e6e6f" d="M 356.5,144.5 C 356.5,149.167 356.5,153.833 356.5,158.5C 357.833,158.5 359.167,158.5 360.5,158.5C 360.182,153.968 360.515,149.634 361.5,145.5C 361.5,150.167 361.5,154.833 361.5,159.5C 359.5,159.5 357.5,159.5 355.5,159.5C 355.179,154.305 355.513,149.305 356.5,144.5 Z"/></g>
<g><path style="opacity:1" fill="#838384" d="M 473.5,143.5 C 473.5,148.5 473.5,153.5 473.5,158.5C 474.833,158.5 476.167,158.5 477.5,158.5C 477.181,153.637 477.514,148.97 478.5,144.5C 478.5,149.5 478.5,154.5 478.5,159.5C 476.5,159.5 474.5,159.5 472.5,159.5C 472.179,153.974 472.512,148.64 473.5,143.5 Z"/></g>
<g><path style="opacity:1" fill="#7e7972" d="M 756.5,132.5 C 758.189,133.304 759.855,134.304 761.5,135.5C 762.176,134.398 762.842,133.398 763.5,132.5C 762.205,137.992 762.205,143.492 763.5,149C 761.814,151.545 760.814,154.378 760.5,157.5C 758.5,157.5 756.5,157.5 754.5,157.5C 756.387,152.708 757.387,147.708 757.5,142.5C 757.333,140.167 757.167,137.833 757,135.5C 756.329,134.748 755.496,134.414 754.5,134.5C 754.5,133.167 755.167,132.5 756.5,132.5 Z"/></g>
<g><path style="opacity:1" fill="#bfbdbb" d="M 773.5,124.5 C 771.139,124.326 768.806,123.993 766.5,123.5C 764.5,132.322 764.166,141.155 765.5,150C 763.712,152.516 762.045,155.016 760.5,157.5C 760.814,154.378 761.814,151.545 763.5,149C 762.205,143.492 762.205,137.992 763.5,132.5C 763.833,129.167 764.167,125.833 764.5,122.5C 767.982,121.121 770.982,121.788 773.5,124.5 Z"/></g>
<g><path style="opacity:1" fill="#d1cdc5" d="M 732.5,91.5 C 733.927,93.1484 734.76,95.1484 735,97.5C 735.462,103.27 736.462,108.937 738,114.5C 741.971,119.775 744.805,125.442 746.5,131.5C 748.639,132.158 750.639,133.158 752.5,134.5C 752.369,135.239 752.536,135.906 753,136.5C 753.278,135.584 753.778,134.918 754.5,134.5C 755.496,134.414 756.329,134.748 757,135.5C 757.167,137.833 757.333,140.167 757.5,142.5C 757.387,147.708 756.387,152.708 754.5,157.5C 756.5,157.5 758.5,157.5 760.5,157.5C 758.372,158.629 756.039,158.796 753.5,158C 752.874,157.25 752.374,156.416 752,155.5C 750.708,157.249 749.542,159.082 748.5,161C 745.901,161.769 743.401,161.602 741,160.5C 748.917,144.338 747.251,129.005 736,114.5C 734.205,106.92 733.039,99.2529 732.5,91.5 Z M 754.5,137.5 C 755.117,137.611 755.617,137.944 756,138.5C 756.937,143.403 756.27,148.07 754,152.5C 753.412,147.472 753.578,142.472 754.5,137.5 Z"/></g>
<g><path style="opacity:1" fill="#bab4ab" d="M 838.5,85.5 C 838.056,97.439 836.723,109.272 834.5,121C 835.011,134.428 833.177,147.595 829,160.5C 817.534,164.422 815.534,161.422 823,151.5C 823.989,148.544 824.822,145.544 825.5,142.5C 824.242,139.4 822.742,136.4 821,133.5C 819.621,137.848 817.787,141.848 815.5,145.5C 815.5,144.833 815.5,144.167 815.5,143.5C 816.651,139.382 817.984,135.382 819.5,131.5C 822.038,133.001 824.038,135.168 825.5,138C 826.437,138.692 827.103,138.525 827.5,137.5C 829.053,135.615 831.053,134.615 833.5,134.5C 832.939,127.499 832.772,120.499 833,113.5C 834.163,111.715 834.83,109.715 835,107.5C 835.333,100.833 835.667,94.1667 836,87.5C 836.708,86.6195 837.542,85.9528 838.5,85.5 Z"/></g>
</svg>
