<?xml version="1.0" encoding="UTF-8"?>
<!DOCTYPE svg PUBLIC "-//W3C//DTD SVG 1.1//EN" "http://www.w3.org/Graphics/SVG/1.1/DTD/svg11.dtd">
<svg xmlns="http://www.w3.org/2000/svg" version="1.1" width="224px" height="224px" style="shape-rendering:geometricPrecision; text-rendering:geometricPrecision; image-rendering:optimizeQuality; fill-rule:evenodd; clip-rule:evenodd" xmlns:xlink="http://www.w3.org/1999/xlink">
<g><path style="opacity:1" fill="#fefefe" d="M -0.5,-0.5 C 74.1667,-0.5 148.833,-0.5 223.5,-0.5C 223.5,74.1667 223.5,148.833 223.5,223.5C 220.833,223.5 218.167,223.5 215.5,223.5C 215.833,210.15 215.499,196.817 214.5,183.5C 213.893,183.624 213.56,183.957 213.5,184.5C 204.393,189.222 195.393,194.222 186.5,199.5C 185.502,207.472 185.169,215.472 185.5,223.5C 165.833,223.5 146.167,223.5 126.5,223.5C 126.333,193.165 126.5,162.832 127,132.5C 146.238,144.431 165.905,155.764 186,166.5C 195.729,161.386 205.229,155.886 214.5,150C 190.331,135.415 165.998,121.081 141.5,107C 148.167,103 154.833,99 161.5,95C 162.717,93.3523 163.55,91.519 164,89.5C 164.667,72.1667 164.667,54.8333 164,37.5C 163.394,34.4522 161.894,31.9522 159.5,30C 145.949,22.7979 132.615,15.1312 119.5,7C 114.983,4.26703 110.316,3.93369 105.5,6C 92.0299,14.2387 78.3632,22.2387 64.5,30C 62.6217,31.5429 61.1217,33.3762 60,35.5C 59.3333,54.1667 59.3333,72.8333 60,91.5C 60.7845,93.286 61.9512,94.786 63.5,96C 69.6697,99.9192 76.0031,103.586 82.5,107C 58.002,121.081 33.6687,135.415 9.5,150C 18.6687,155.752 28.002,161.252 37.5,166.5C 56.8927,155.474 76.226,144.474 95.5,133.5C 96.4981,163.329 96.8314,193.329 96.5,223.5C 76.8333,223.5 57.1667,223.5 37.5,223.5C 37.831,215.472 37.4977,207.472 36.5,199.5C 27.8059,194.488 19.1392,189.488 10.5,184.5C 10.44,183.957 10.1067,183.624 9.5,183.5C 8.50083,196.817 8.1675,210.15 8.5,223.5C 5.5,223.5 2.5,223.5 -0.5,223.5C -0.5,148.833 -0.5,74.1667 -0.5,-0.5 Z"/></g>
<g><path style="opacity:1" fill="#18b9e5" d="M 126.5,223.5 C 116.833,223.5 107.167,223.5 97.5,223.5C 97.8332,193.159 97.4998,162.826 96.5,132.5C 95.8933,132.624 95.56,132.957 95.5,133.5C 76.226,144.474 56.8927,155.474 37.5,166.5C 28.002,161.252 18.6687,155.752 9.5,150C 33.6687,135.415 58.002,121.081 82.5,107C 76.0031,103.586 69.6697,99.9192 63.5,96C 61.9512,94.786 60.7845,93.286 60,91.5C 59.3333,72.8333 59.3333,54.1667 60,35.5C 61.1217,33.3762 62.6217,31.5429 64.5,30C 78.3632,22.2387 92.0299,14.2387 105.5,6C 110.316,3.93369 114.983,4.26703 119.5,7C 132.615,15.1312 145.949,22.7979 159.5,30C 161.894,31.9522 163.394,34.4522 164,37.5C 164.667,54.8333 164.667,72.1667 164,89.5C 163.55,91.519 162.717,93.3523 161.5,95C 154.833,99 148.167,103 141.5,107C 165.998,121.081 190.331,135.415 214.5,150C 205.229,155.886 195.729,161.386 186,166.5C 165.905,155.764 146.238,144.431 127,132.5C 126.5,162.832 126.333,193.165 126.5,223.5 Z"/></g>
<g><path style="opacity:1" fill="#fbfcfd" d="M 110.5,36.5 C 118.765,40.3 126.765,44.6334 134.5,49.5C 135.665,58.4815 135.832,67.4815 135,76.5C 127.597,81.3664 119.93,85.6998 112,89.5C 104.163,86.1645 96.6633,82.1645 89.5,77.5C 88.1667,68.1667 88.1667,58.8333 89.5,49.5C 96.7644,45.3792 103.764,41.0459 110.5,36.5 Z"/></g>
<g><path style="opacity:1" fill="#c6ecf7" d="M 95.5,133.5 C 95.56,132.957 95.8933,132.624 96.5,132.5C 97.4998,162.826 97.8332,193.159 97.5,223.5C 97.1667,223.5 96.8333,223.5 96.5,223.5C 96.8314,193.329 96.4981,163.329 95.5,133.5 Z"/></g>
<g><path style="opacity:1" fill="#81c1d4" d="M 213.5,184.5 C 213.56,183.957 213.893,183.624 214.5,183.5C 215.499,196.817 215.833,210.15 215.5,223.5C 215.167,223.5 214.833,223.5 214.5,223.5C 214.829,210.323 214.495,197.323 213.5,184.5 Z"/></g>
<g><path style="opacity:1" fill="#59aec7" d="M 10.5,184.5 C 9.50452,197.323 9.17119,210.323 9.5,223.5C 9.16667,223.5 8.83333,223.5 8.5,223.5C 8.1675,210.15 8.50083,196.817 9.5,183.5C 10.1067,183.624 10.44,183.957 10.5,184.5 Z"/></g>
<g><path style="opacity:1" fill="#1eb9e6" d="M 213.5,184.5 C 214.495,197.323 214.829,210.323 214.5,223.5C 204.833,223.5 195.167,223.5 185.5,223.5C 185.169,215.472 185.502,207.472 186.5,199.5C 195.393,194.222 204.393,189.222 213.5,184.5 Z"/></g>
<g><path style="opacity:1" fill="#14b8e5" d="M 10.5,184.5 C 19.1392,189.488 27.8059,194.488 36.5,199.5C 37.4977,207.472 37.831,215.472 37.5,223.5C 28.1667,223.5 18.8333,223.5 9.5,223.5C 9.17119,210.323 9.50452,197.323 10.5,184.5 Z"/></g>
</svg>
