<?xml version="1.0" encoding="UTF-8"?>
<!DOCTYPE svg PUBLIC "-//W3C//DTD SVG 1.1//EN" "http://www.w3.org/Graphics/SVG/1.1/DTD/svg11.dtd">
<svg xmlns="http://www.w3.org/2000/svg" version="1.1" width="264px" height="191px" style="shape-rendering:geometricPrecision; text-rendering:geometricPrecision; image-rendering:optimizeQuality; fill-rule:evenodd; clip-rule:evenodd" xmlns:xlink="http://www.w3.org/1999/xlink">
<g><path style="opacity:1" fill="#fefefe" d="M -0.5,-0.5 C 87.5,-0.5 175.5,-0.5 263.5,-0.5C 263.5,63.1667 263.5,126.833 263.5,190.5C 175.5,190.5 87.5,190.5 -0.5,190.5C -0.5,126.833 -0.5,63.1667 -0.5,-0.5 Z"/></g>
<g><path style="opacity:1" fill="#111b28" d="M 127.5,17.5 C 132.192,17.8405 136.526,19.3405 140.5,22C 150.673,27.9206 161.006,33.5873 171.5,39C 174.211,40.2606 176.378,42.094 178,44.5C 178.667,61.8333 178.667,79.1667 178,96.5C 162.916,106.209 147.25,114.875 131,122.5C 117.148,115.49 103.314,108.323 89.5,101C 86.7886,99.7394 84.622,97.906 83,95.5C 82.028,77.7424 82.3613,60.0757 84,42.5C 98.8075,34.5188 113.307,26.1855 127.5,17.5 Z"/></g>
<g><path style="opacity:1" fill="#e3bf20" d="M 129.5,22.5 C 142.383,28.7061 155.049,35.3728 167.5,42.5C 168.833,43.8333 168.833,45.1667 167.5,46.5C 155.326,53.4209 142.993,60.0876 130.5,66.5C 118.007,60.0876 105.674,53.4209 93.5,46.5C 92.1667,45.1667 92.1667,43.8333 93.5,42.5C 105.562,35.8055 117.562,29.1389 129.5,22.5 Z"/></g>
<g><path style="opacity:1" fill="#fbd715" d="M 87.5,50.5 C 101.233,56.3907 114.399,63.3907 127,71.5C 127.5,85.8295 127.667,100.163 127.5,114.5C 126.127,114.657 124.793,114.49 123.5,114C 111.833,107.5 100.167,101 88.5,94.5C 87.5007,79.8485 87.1674,65.1818 87.5,50.5 Z"/></g>
<g><path style="opacity:1" fill="#fafafa" d="M 170.5,50.5 C 171.822,50.33 172.989,50.6634 174,51.5C 174.667,65.5 174.667,79.5 174,93.5C 161.205,101.312 148.039,108.145 134.5,114C 133.177,99.5633 133.177,85.0633 134.5,70.5C 146.885,64.3128 158.885,57.6461 170.5,50.5 Z"/></g>
<g><path style="opacity:1" fill="#0e0b02" d="M 95.5,76.5 C 100.283,76.4486 102.45,78.7819 102,83.5C 99.2419,82.2054 96.7419,80.5388 94.5,78.5C 94.8627,77.8165 95.1961,77.1499 95.5,76.5 Z"/></g>
<g><path style="opacity:1" fill="#0f0c02" d="M 108.5,84.5 C 113.51,84.3472 116.01,86.6805 116,91.5C 113.913,90.2062 111.746,89.0395 109.5,88C 108.663,86.9887 108.33,85.8221 108.5,84.5 Z"/></g>
<g><path style="opacity:1" fill="#030303" d="M 190.5,144.5 C 189.566,145.568 189.232,146.901 189.5,148.5C 191.167,148.5 192.833,148.5 194.5,148.5C 194.5,149.833 194.5,151.167 194.5,152.5C 192.833,152.5 191.167,152.5 189.5,152.5C 189.5,157.167 189.5,161.833 189.5,166.5C 187.833,166.5 186.167,166.5 184.5,166.5C 184.5,161.833 184.5,157.167 184.5,152.5C 183.167,152.5 181.833,152.5 180.5,152.5C 180.5,151.167 180.5,149.833 180.5,148.5C 181.833,148.5 183.167,148.5 184.5,148.5C 183.748,142.749 186.248,139.416 192,138.5C 198.05,139.153 198.717,141.153 194,144.5C 192.708,143.209 191.542,143.209 190.5,144.5 Z"/></g>
<g><path style="opacity:1" fill="#101010" d="M 53.5,139.5 C 67.8968,139.715 73.3968,146.715 70,160.5C 62.3364,169.453 54.3364,169.787 46,161.5C 41.3993,151.709 43.8993,144.375 53.5,139.5 Z"/></g>
<g><path style="opacity:1" fill="#121212" d="M 138.5,139.5 C 145.833,139.5 153.167,139.5 160.5,139.5C 160.5,141.167 160.5,142.833 160.5,144.5C 157.833,144.5 155.167,144.5 152.5,144.5C 152.5,151.833 152.5,159.167 152.5,166.5C 150.5,166.5 148.5,166.5 146.5,166.5C 146.5,159.167 146.5,151.833 146.5,144.5C 143.833,144.5 141.167,144.5 138.5,144.5C 138.5,142.833 138.5,141.167 138.5,139.5 Z"/></g>
<g><path style="opacity:1" fill="#f7f7f7" d="M 53.5,145.5 C 64.8272,144.634 68.1605,149.467 63.5,160C 53.9721,163.794 49.4721,160.627 50,150.5C 50.9973,148.677 52.1639,147.01 53.5,145.5 Z"/></g>
<g><path style="opacity:1" fill="#b9b9b9" d="M 138.5,139.5 C 138.5,141.167 138.5,142.833 138.5,144.5C 141.167,144.5 143.833,144.5 146.5,144.5C 146.5,151.833 146.5,159.167 146.5,166.5C 145.509,159.687 145.175,152.687 145.5,145.5C 142.833,145.5 140.167,145.5 137.5,145.5C 137.205,143.265 137.539,141.265 138.5,139.5 Z"/></g>
<g><path style="opacity:1" fill="#090909" d="M 81.5,173.5 C 79.8333,173.5 78.1667,173.5 76.5,173.5C 76.5,165.167 76.5,156.833 76.5,148.5C 78.4672,148.261 80.3005,148.594 82,149.5C 87.894,146.6 92.2273,148.267 95,154.5C 95.5251,163.978 91.1918,167.644 82,165.5C 81.5026,168.146 81.3359,170.813 81.5,173.5 Z"/></g>
<g><path style="opacity:1" fill="#121212" d="M 104.5,147.5 C 113.344,146.679 117.678,150.679 117.5,159.5C 113.116,159.174 108.783,159.508 104.5,160.5C 105.348,161.991 106.681,162.658 108.5,162.5C 110.524,161.979 112.524,161.812 114.5,162C 115.791,164.09 115.124,165.424 112.5,166C 101.107,167.279 96.9407,162.445 100,151.5C 101.667,150.267 103.167,148.933 104.5,147.5 Z"/></g>
<g><path style="opacity:1" fill="#0c0c0c" d="M 129.5,147.5 C 132.862,147.07 135.695,148.07 138,150.5C 138.499,155.823 138.666,161.156 138.5,166.5C 136.833,166.5 135.167,166.5 133.5,166.5C 133.666,162.154 133.499,157.821 133,153.5C 131.333,152.167 129.667,152.167 128,153.5C 127.501,157.821 127.334,162.154 127.5,166.5C 125.5,166.5 123.5,166.5 121.5,166.5C 121.5,160.5 121.5,154.5 121.5,148.5C 123.591,148.318 125.591,148.652 127.5,149.5C 128.522,149.145 129.189,148.478 129.5,147.5 Z"/></g>
<g><path style="opacity:1" fill="#090909" d="M 164.5,147.5 C 175.111,147.407 178.944,152.407 176,162.5C 172.604,166.203 168.437,167.369 163.5,166C 158.268,163.367 156.435,159.201 158,153.5C 159.494,150.686 161.66,148.686 164.5,147.5 Z"/></g>
<g><path style="opacity:1" fill="#9a9a9a" d="M 203.5,148.5 C 201.833,148.5 200.167,148.5 198.5,148.5C 198.5,152.5 198.5,156.5 198.5,160.5C 197.515,156.366 197.182,152.032 197.5,147.5C 199.735,147.205 201.735,147.539 203.5,148.5 Z"/></g>
<g><path style="opacity:1" fill="#0b0b0b" d="M 203.5,148.5 C 203.334,152.514 203.501,156.514 204,160.5C 205.667,161.833 207.333,161.833 209,160.5C 209.499,156.514 209.666,152.514 209.5,148.5C 211.5,148.5 213.5,148.5 215.5,148.5C 215.666,152.514 215.499,156.514 215,160.5C 212.646,166.095 208.479,167.928 202.5,166C 200.072,164.982 198.738,163.148 198.5,160.5C 198.5,156.5 198.5,152.5 198.5,148.5C 200.167,148.5 201.833,148.5 203.5,148.5 Z"/></g>
<g><path style="opacity:1" fill="#454545" d="M 76.5,148.5 C 76.5,156.833 76.5,165.167 76.5,173.5C 78.1667,173.5 79.8333,173.5 81.5,173.5C 79.7354,174.461 77.7354,174.795 75.5,174.5C 75.1736,165.651 75.507,156.984 76.5,148.5 Z"/></g>
<g><path style="opacity:1" fill="#a3a3a3" d="M 190.5,144.5 C 190.5,145.5 190.5,146.5 190.5,147.5C 192.167,147.5 193.833,147.5 195.5,147.5C 195.5,149.5 195.5,151.5 195.5,153.5C 193.833,153.5 192.167,153.5 190.5,153.5C 190.818,158.032 190.485,162.366 189.5,166.5C 189.5,161.833 189.5,157.167 189.5,152.5C 191.167,152.5 192.833,152.5 194.5,152.5C 194.5,151.167 194.5,149.833 194.5,148.5C 192.833,148.5 191.167,148.5 189.5,148.5C 189.232,146.901 189.566,145.568 190.5,144.5 Z"/></g>
<g><path style="opacity:1" fill="#eeeeee" d="M 83.5,152.5 C 89.6506,153.103 90.984,155.936 87.5,161C 81.9202,162.261 80.0868,160.094 82,154.5C 82.7172,153.956 83.2172,153.289 83.5,152.5 Z"/></g>
<g><path style="opacity:1" fill="#f0f0f0" d="M 165.5,152.5 C 171.643,153.026 172.976,155.86 169.5,161C 166.099,162.135 164.099,160.968 163.5,157.5C 163.437,155.486 164.103,153.819 165.5,152.5 Z"/></g>
<g><path style="opacity:1" fill="#d9d9d9" d="M 105.5,152.5 C 108.346,152.03 110.679,152.863 112.5,155C 109.5,155.667 106.5,155.667 103.5,155C 104.381,154.292 105.047,153.458 105.5,152.5 Z"/></g>
</svg>
